<svg width="1920" height="1080" viewBox="0 0 1920 1080" fill="none" xmlns="http://www.w3.org/2000/svg" xmlns:xlink="http://www.w3.org/1999/xlink">
<g clip-path="url(#clip0_2_4)">
<rect width="1920" height="1080" fill="#191919"/>
<rect width="1920" height="1080" fill="url(#pattern0_2_4)" fill-opacity="0.15"/>
<path d="M50 1030H1748L1870 908V50H172L50 172V1030Z" stroke="#A1A1A1" stroke-width="2"/>
<g opacity="0.1">
<g opacity="0.4" filter="url(#filter0_f_2_4)">
<ellipse cx="1919.5" cy="539.899" rx="573.899" ry="270.5" transform="rotate(-90 1919.5 539.899)" fill="#72D8FF"/>
</g>
<g opacity="0.1" filter="url(#filter1_f_2_4)">
<ellipse cx="1919.02" cy="540.211" rx="182.77" ry="201.778" transform="rotate(-90 1919.02 540.211)" fill="white"/>
</g>
</g>
<g opacity="0.1">
<g opacity="0.4" filter="url(#filter2_f_2_4)">
<ellipse cx="573.899" cy="271.5" rx="573.899" ry="271.5" transform="matrix(2.18557e-08 -1 -1 -2.18557e-08 272 1113.8)" fill="#72D8FF"/>
</g>
<g opacity="0.1" filter="url(#filter3_f_2_4)">
<ellipse cx="182.77" cy="202.524" rx="182.77" ry="202.524" transform="matrix(2.19365e-08 -1 -1 -2.17752e-08 203.51 722.982)" fill="white"/>
</g>
</g>
<path d="M1413 305V783H1264L1213 733H706L656 783H507V305H656L707 355H1214L1264 305H1413Z" fill="url(#paint0_linear_2_4)" fill-opacity="0.2"/>
<g filter="url(#filter4_d_2_4)">
<path d="M505 305H655.901L706.42 355H1213.58L1264.1 305H1415" stroke="white" stroke-width="2"/>
</g>
<g filter="url(#filter5_d_2_4)">
<path d="M505 783H655.901L706.42 733H1213.58L1264.1 783H1415" stroke="white" stroke-width="2"/>
</g>
<path d="M583.428 472.5V525H577.278V478.275H560.553V525H554.403V472.5H583.428ZM607.668 472.5C617.643 472.5 623.268 478.5 623.268 489.075C623.268 499.95 617.643 505.875 607.668 505.875H600.543V525H594.393V472.5H607.668ZM607.668 500.025C613.968 500.025 617.043 496.575 617.043 489.075C617.043 481.95 613.968 478.35 607.668 478.35H600.543V500.025H607.668ZM645.409 525.975C635.659 525.975 629.809 519.3 629.809 508.5V488.925C629.809 478.2 635.659 471.525 645.409 471.525C655.159 471.525 660.934 478.2 660.934 488.925V508.5C660.934 519.3 655.159 525.975 645.409 525.975ZM645.409 519.975C651.484 519.975 654.634 515.85 654.634 508.5V488.925C654.634 481.65 651.484 477.525 645.409 477.525C639.259 477.525 636.109 481.65 636.109 488.925V508.5C636.109 515.85 639.259 519.975 645.409 519.975ZM685.717 467.475C680.467 467.475 677.167 464.25 676.942 458.625H681.442C681.667 461.55 683.017 463.05 685.642 463.05C688.342 463.05 689.692 461.55 689.842 458.625H694.417C694.192 464.25 690.892 467.475 685.717 467.475ZM670.492 525V472.5H676.567V500.475C676.567 503.625 676.417 509.475 676.117 513.075L676.342 513.225C677.167 511.05 678.592 507.375 680.017 504.3L693.967 472.5H700.567V525H694.492V496.425C694.492 493.275 694.642 487.5 694.792 484.275L694.642 484.125C693.892 486.075 692.392 489.975 691.342 492.375L676.942 525H670.492ZM739.861 519.225H744.436V533.7H738.436V525H712.336V533.7H706.336V519.225H709.336C712.786 515.775 714.886 508.275 715.186 499.425L716.086 472.5H739.861V519.225ZM733.711 519.225V478.275H721.861L721.036 501.15C720.736 509.025 719.236 515.025 716.761 519.225H733.711ZM751.644 525V472.5H757.719V500.475C757.719 503.625 757.569 509.475 757.269 513.075L757.494 513.225C758.319 511.05 759.744 507.375 761.169 504.3L775.119 472.5H781.719V525H775.644V496.425C775.644 493.275 775.794 487.5 775.944 484.275L775.794 484.125C775.044 486.075 773.544 489.975 772.494 492.375L758.094 525H751.644ZM817.185 472.5V478.275H805.935V525H799.71V478.275H788.46V472.5H817.185ZM829.865 519.225H849.665V525H823.715V472.5H848.84V478.2H829.865V495.525H847.49V501.15H829.865V519.225ZM1026.38 525V472.5H1032.45V500.475C1032.45 503.625 1032.3 509.475 1032 513.075L1032.23 513.225C1033.05 511.05 1034.48 507.375 1035.9 504.3L1049.85 472.5H1056.45V525H1050.38V496.425C1050.38 493.275 1050.53 487.5 1050.68 484.275L1050.53 484.125C1049.78 486.075 1048.28 489.975 1047.23 492.375L1032.83 525H1026.38ZM1113.04 472.5V525H1106.89V478.275H1090.17V525H1084.02V472.5H1113.04ZM1138.18 525.975C1128.43 525.975 1122.58 519.3 1122.58 508.5V488.925C1122.58 478.2 1128.43 471.525 1138.18 471.525C1147.93 471.525 1153.71 478.2 1153.71 488.925V508.5C1153.71 519.3 1147.93 525.975 1138.18 525.975ZM1138.18 519.975C1144.26 519.975 1147.41 515.85 1147.41 508.5V488.925C1147.41 481.65 1144.26 477.525 1138.18 477.525C1132.03 477.525 1128.88 481.65 1128.88 488.925V508.5C1128.88 515.85 1132.03 519.975 1138.18 519.975ZM1165.82 472.5H1190.12V525H1183.97V478.275H1171.74C1170.99 494.175 1170.32 507.6 1169.42 513.975C1168.29 522.15 1164.39 525.75 1157.79 525.75V519.975C1161.17 519.975 1162.82 517.5 1163.49 512.775C1164.24 507.225 1164.99 493.95 1165.82 472.5ZM1220.41 472.5H1226.78L1213.88 514.725C1211.63 522.075 1208.18 525.75 1200.91 525.75H1199.11V520.05H1201.06C1205.11 520.05 1206.91 517.5 1208.33 512.85L1209.46 509.175L1196.18 472.5H1202.63L1212.16 500.025L1220.41 472.5ZM1253.03 472.5H1259.18V525.075H1253.03V505.05C1250.7 505.95 1248 506.475 1245.6 506.475C1236.08 506.475 1230.08 500.625 1230.08 490.2V472.5H1236.23V490.275C1236.23 497.325 1239.9 500.7 1246.05 500.7C1248.38 500.7 1250.55 500.325 1253.03 499.275V472.5ZM1270.13 525V472.5H1276.2V500.475C1276.2 503.625 1276.05 509.475 1275.75 513.075L1275.98 513.225C1276.8 511.05 1278.23 507.375 1279.65 504.3L1293.6 472.5H1300.2V525H1294.13V496.425C1294.13 493.275 1294.28 487.5 1294.43 484.275L1294.28 484.125C1293.53 486.075 1292.03 489.975 1290.98 492.375L1276.58 525H1270.13ZM1335.67 472.5V478.275H1324.42V525H1318.19V478.275H1306.94V472.5H1335.67ZM1348.35 519.225H1368.15V525H1342.2V472.5H1367.32V478.2H1348.35V495.525H1365.97V501.15H1348.35V519.225ZM731.585 609.225H736.16V623.7H730.16V615H704.06V623.7H698.06V609.225H701.06C704.51 605.775 706.61 598.275 706.91 589.425L707.81 562.5H731.585V609.225ZM725.435 609.225V568.275H713.585L712.76 591.15C712.46 599.025 710.96 605.025 708.485 609.225H725.435ZM749.518 609.225H769.318V615H743.368V562.5H768.493V568.2H749.518V585.525H767.143V591.15H749.518V609.225ZM802.244 562.5V568.275H790.994V615H784.769V568.275H773.519V562.5H802.244ZM828.708 615L825.933 603.6H810.708L807.933 615H801.483L814.983 562.5H821.658L835.158 615H828.708ZM812.058 597.9H824.583L820.308 580.125C819.483 576.75 818.733 572.325 818.433 570.3H818.208C817.908 572.325 817.158 576.75 816.333 580.125L812.058 597.9ZM844.356 562.5H868.656V615H862.506V568.275H850.281C849.531 584.175 848.856 597.6 847.956 603.975C846.831 612.15 842.931 615.75 836.331 615.75V609.975C839.706 609.975 841.356 607.5 842.031 602.775C842.781 597.225 843.531 583.95 844.356 562.5ZM879.672 615V562.5H885.897V583.875H893.472C902.997 583.875 908.772 589.875 908.772 599.325C908.772 609.375 902.997 615 893.472 615H879.672ZM885.897 609.3H893.247C898.797 609.3 902.472 605.925 902.472 599.325C902.472 592.95 898.797 589.725 893.247 589.725H885.897V609.3ZM945.829 615.9C936.979 615.9 931.054 610.2 931.054 599.85V577.65C931.054 567.3 936.904 561.525 945.679 561.525C954.679 561.525 960.229 567.075 960.754 577.2H954.679C954.229 570.45 951.079 567.3 945.604 567.3C940.579 567.3 937.204 570.6 937.204 577.65V599.85C937.204 606.825 940.729 610.125 945.829 610.125C951.379 610.125 954.454 606.9 955.054 600.3H961.129C960.529 610.275 954.979 615.9 945.829 615.9ZM989.914 615L987.139 603.6H971.914L969.139 615H962.689L976.189 562.5H982.864L996.364 615H989.914ZM973.264 597.9H985.789L981.514 580.125C980.689 576.75 979.939 572.325 979.639 570.3H979.414C979.114 572.325 978.364 576.75 977.539 580.125L973.264 597.9ZM1035.42 562.5H1041.8V615H1035.72V590.925C1035.8 585.225 1035.95 580.125 1036.25 575.025L1035.95 574.95C1034.52 578.925 1032.57 583.8 1030.7 588.75L1025.22 602.925H1019.15L1013.6 588.75C1011.8 583.8 1009.77 578.925 1008.42 574.95L1008.05 575.025C1008.35 580.125 1008.57 585.225 1008.57 590.925V615H1002.5V562.5H1008.95L1018.02 584.475C1019.3 587.625 1021.17 592.8 1022 595.5H1022.3C1023.2 592.8 1025.07 587.625 1026.35 584.475L1035.42 562.5ZM1066.99 615.975C1057.24 615.975 1051.39 609.3 1051.39 598.5V578.925C1051.39 568.2 1057.24 561.525 1066.99 561.525C1076.74 561.525 1082.52 568.2 1082.52 578.925V598.5C1082.52 609.3 1076.74 615.975 1066.99 615.975ZM1066.99 609.975C1073.07 609.975 1076.22 605.85 1076.22 598.5V578.925C1076.22 571.65 1073.07 567.525 1066.99 567.525C1060.84 567.525 1057.69 571.65 1057.69 578.925V598.5C1057.69 605.85 1060.84 609.975 1066.99 609.975ZM1094.62 562.5H1118.92V615H1112.77V568.275H1100.55C1099.8 584.175 1099.12 597.6 1098.22 603.975C1097.1 612.15 1093.2 615.75 1086.6 615.75V609.975C1089.97 609.975 1091.62 607.5 1092.3 602.775C1093.05 597.225 1093.8 583.95 1094.62 562.5ZM1136.09 609.225H1155.89V615H1129.94V562.5H1155.07V568.2H1136.09V585.525H1153.72V591.15H1136.09V609.225ZM1188.82 562.5V568.275H1177.57V615H1171.34V568.275H1160.09V562.5H1188.82ZM1215.28 615L1212.51 603.6H1197.28L1194.51 615H1188.06L1201.56 562.5H1208.23L1221.73 615H1215.28ZM1198.63 597.9H1211.16L1206.88 580.125C1206.06 576.75 1205.31 572.325 1205.01 570.3H1204.78C1204.48 572.325 1203.73 576.75 1202.91 580.125L1198.63 597.9Z" fill="white"/>
<path d="M900.041 472.5V479.7H889.091V525H881.366V479.7H870.491V472.5H900.041ZM913.682 517.875H932.582V525H906.107V472.5H931.832V479.625H913.682V494.85H930.407V501.825H913.682V517.875ZM954.402 525.9C945.177 525.9 939.177 520.125 939.177 509.55V487.95C939.177 477.3 945.102 471.525 954.327 471.525C963.852 471.525 969.477 477.225 969.927 487.65H962.427C961.977 481.5 959.277 478.725 954.252 478.725C949.827 478.725 946.902 481.65 946.902 487.95V509.55C946.902 515.775 949.827 518.7 954.402 518.7C959.502 518.7 962.202 515.85 962.727 509.85H970.227C969.702 520.2 964.077 525.9 954.402 525.9ZM1003.09 472.5V479.7H992.143V525H984.418V479.7H973.543V472.5H1003.09Z" fill="#72D8FF"/>
<g opacity="0.5" filter="url(#filter6_d_2_4)">
<mask id="mask0_2_4" style="mask-type:alpha" maskUnits="userSpaceOnUse" x="660" y="264" width="600" height="77">
<path d="M1259 265H661V285.914L715.086 340H1204.91L1259 285.914V265Z" fill="#4C7484" stroke="#72D8FF" stroke-width="2"/>
</mask>
<g mask="url(#mask0_2_4)">
<g id="Repeat group 1_inner" data-figma-trr="l17u0.5-0f">
</g>
<use xlink:href="#Repeat%20group%201_inner" transform="translate(60.8839)"/>
<use xlink:href="#Repeat%20group%201_inner" transform="translate(121.768)"/>
<use xlink:href="#Repeat%20group%201_inner" transform="translate(182.652)"/>
<use xlink:href="#Repeat%20group%201_inner" transform="translate(243.535)"/>
<use xlink:href="#Repeat%20group%201_inner" transform="translate(304.419)"/>
<use xlink:href="#Repeat%20group%201_inner" transform="translate(365.303)"/>
<use xlink:href="#Repeat%20group%201_inner" transform="translate(426.187)"/>
<use xlink:href="#Repeat%20group%201_inner" transform="translate(487.071)"/>
<use xlink:href="#Repeat%20group%201_inner" transform="translate(547.955)"/>
<use xlink:href="#Repeat%20group%201_inner" transform="translate(608.839)"/>
<use xlink:href="#Repeat%20group%201_inner" transform="translate(669.722)"/>
<use xlink:href="#Repeat%20group%201_inner" transform="translate(730.606)"/>
<use xlink:href="#Repeat%20group%201_inner" transform="translate(791.49)"/>
<use xlink:href="#Repeat%20group%201_inner" transform="translate(852.374)"/>
<use xlink:href="#Repeat%20group%201_inner" transform="translate(913.258)"/>
<use xlink:href="#Repeat%20group%201_inner" transform="translate(974.142)"/>
</g>
</g>
<path d="M1437.5 1030H1748L1870 908V595" stroke="#72D8FF" stroke-width="6"/>
<path d="M485 50H172L50 172V485" stroke="#72D8FF" stroke-width="6"/>
</g>
<defs>
<filter id="filter0_f_2_4" x="1529" y="-154" width="781" height="1387.8" filterUnits="userSpaceOnUse" color-interpolation-filters="sRGB">
<feFlood flood-opacity="0" result="BackgroundImageFix"/>
<feBlend mode="normal" in="SourceGraphic" in2="BackgroundImageFix" result="shape"/>
<feGaussianBlur stdDeviation="60" result="effect1_foregroundBlur_2_4"/>
</filter>
<filter id="filter1_f_2_4" x="1670.44" y="310.641" width="497.157" height="459.141" filterUnits="userSpaceOnUse" color-interpolation-filters="sRGB">
<feFlood flood-opacity="0" result="BackgroundImageFix"/>
<feBlend mode="normal" in="SourceGraphic" in2="BackgroundImageFix" result="shape"/>
<feGaussianBlur stdDeviation="23.4" result="effect1_foregroundBlur_2_4"/>
</filter>
<filter id="filter2_f_2_4" x="-391" y="-154" width="783" height="1387.8" filterUnits="userSpaceOnUse" color-interpolation-filters="sRGB">
<feFlood flood-opacity="0" result="BackgroundImageFix"/>
<feBlend mode="normal" in="SourceGraphic" in2="BackgroundImageFix" result="shape"/>
<feGaussianBlur stdDeviation="60" result="effect1_foregroundBlur_2_4"/>
</filter>
<filter id="filter3_f_2_4" x="-248.339" y="310.641" width="498.649" height="459.141" filterUnits="userSpaceOnUse" color-interpolation-filters="sRGB">
<feFlood flood-opacity="0" result="BackgroundImageFix"/>
<feBlend mode="normal" in="SourceGraphic" in2="BackgroundImageFix" result="shape"/>
<feGaussianBlur stdDeviation="23.4" result="effect1_foregroundBlur_2_4"/>
</filter>
<filter id="filter4_d_2_4" x="495" y="294" width="930" height="72" filterUnits="userSpaceOnUse" color-interpolation-filters="sRGB">
<feFlood flood-opacity="0" result="BackgroundImageFix"/>
<feColorMatrix in="SourceAlpha" type="matrix" values="0 0 0 0 0 0 0 0 0 0 0 0 0 0 0 0 0 0 127 0" result="hardAlpha"/>
<feOffset/>
<feGaussianBlur stdDeviation="5"/>
<feComposite in2="hardAlpha" operator="out"/>
<feColorMatrix type="matrix" values="0 0 0 0 0.447059 0 0 0 0 0.847059 0 0 0 0 1 0 0 0 0.8 0"/>
<feBlend mode="normal" in2="BackgroundImageFix" result="effect1_dropShadow_2_4"/>
<feBlend mode="normal" in="SourceGraphic" in2="effect1_dropShadow_2_4" result="shape"/>
</filter>
<filter id="filter5_d_2_4" x="495" y="722" width="930" height="72" filterUnits="userSpaceOnUse" color-interpolation-filters="sRGB">
<feFlood flood-opacity="0" result="BackgroundImageFix"/>
<feColorMatrix in="SourceAlpha" type="matrix" values="0 0 0 0 0 0 0 0 0 0 0 0 0 0 0 0 0 0 127 0" result="hardAlpha"/>
<feOffset/>
<feGaussianBlur stdDeviation="5"/>
<feComposite in2="hardAlpha" operator="out"/>
<feColorMatrix type="matrix" values="0 0 0 0 0.447059 0 0 0 0 0.847059 0 0 0 0 1 0 0 0 0.8 0"/>
<feBlend mode="normal" in2="BackgroundImageFix" result="effect1_dropShadow_2_4"/>
<feBlend mode="normal" in="SourceGraphic" in2="effect1_dropShadow_2_4" result="shape"/>
</filter>
<filter id="filter6_d_2_4" x="650" y="254" width="620" height="97" filterUnits="userSpaceOnUse" color-interpolation-filters="sRGB">
<feFlood flood-opacity="0" result="BackgroundImageFix"/>
<feColorMatrix in="SourceAlpha" type="matrix" values="0 0 0 0 0 0 0 0 0 0 0 0 0 0 0 0 0 0 127 0" result="hardAlpha"/>
<feOffset/>
<feGaussianBlur stdDeviation="5"/>
<feComposite in2="hardAlpha" operator="out"/>
<feColorMatrix type="matrix" values="0 0 0 0 0.447059 0 0 0 0 0.847059 0 0 0 0 1 0 0 0 0.8 0"/>
<feBlend mode="normal" in2="BackgroundImageFix" result="effect1_dropShadow_2_4"/>
<feBlend mode="normal" in="SourceGraphic" in2="effect1_dropShadow_2_4" result="shape"/>
</filter>
<linearGradient id="paint0_linear_2_4" x1="960" y1="305" x2="960" y2="783" gradientUnits="userSpaceOnUse">
<stop stop-color="#72D8FF"/>
<stop offset="1" stop-color="#72D8FF" stop-opacity="0"/>
</linearGradient>
<clipPath id="clip0_2_4">
<rect width="1920" height="1080" fill="white"/>
</clipPath>
<pattern id="pattern0_2_4" patternUnits="userSpaceOnUse" viewBox="-5840 6061 50 50" width="2.864583395421505%" height="5.0925927029715643%" x="932.5" y="512.5" patternContentUnits="objectBoundingBox">
<rect x="-5839.62" y="6061.38" width="49.25" height="49.25" stroke="#A1A1A1" stroke-width="0.75"/>
</pattern></defs>
</svg>
