<svg width="728" height="10" viewBox="0 0 728 10" fill="none" xmlns="http://www.w3.org/2000/svg">
<path fill-rule="evenodd" clip-rule="evenodd" d="M82.5201 1.03998H145.56L137.89 8.71998H74.8401L82.5201 1.03998Z" fill="#A1A1A1" stroke="#A1A1A1" stroke-width="1.92" stroke-miterlimit="22.93"/>
<path fill-rule="evenodd" clip-rule="evenodd" d="M155 1.03998H218.05L210.37 8.71998H147.32L155 1.03998Z" fill="#A1A1A1" stroke="#A1A1A1" stroke-width="1.92" stroke-miterlimit="22.93"/>
<path fill-rule="evenodd" clip-rule="evenodd" d="M227.48 1.03998H290.53L282.85 8.71998H219.8L227.48 1.03998Z" fill="#A1A1A1" stroke="#A1A1A1" stroke-width="1.92" stroke-miterlimit="22.93"/>
<path fill-rule="evenodd" clip-rule="evenodd" d="M299.96 1.03998H363.01L355.33 8.71998H292.28L299.96 1.03998Z" fill="#A1A1A1" stroke="#A1A1A1" stroke-width="1.92" stroke-miterlimit="22.93"/>
<path fill-rule="evenodd" clip-rule="evenodd" d="M372.44 1.03998H435.49L427.81 8.71998H364.76L372.44 1.03998Z" fill="#A1A1A1" stroke="#A1A1A1" stroke-width="1.92" stroke-miterlimit="22.93"/>
<path fill-rule="evenodd" clip-rule="evenodd" d="M444.92 1.03998H507.97L500.29 8.71998H437.24L444.92 1.03998Z" fill="#A1A1A1" stroke="#A1A1A1" stroke-width="1.92" stroke-miterlimit="22.93"/>
<path fill-rule="evenodd" clip-rule="evenodd" d="M517.4 1.03998H580.45L572.77 8.71998H509.72L517.4 1.03998Z" fill="#A1A1A1" stroke="#A1A1A1" stroke-width="1.92" stroke-miterlimit="22.93"/>
<path fill-rule="evenodd" clip-rule="evenodd" d="M589.88 1.03998H652.93L645.25 8.71998H582.2L589.88 1.03998Z" fill="#A1A1A1" stroke="#A1A1A1" stroke-width="1.92" stroke-miterlimit="22.93"/>
<path fill-rule="evenodd" clip-rule="evenodd" d="M662.36 1.03998H725.41L717.73 8.71998H654.68L662.36 1.03998Z" fill="#A1A1A1" stroke="#A1A1A1" stroke-width="1.92" stroke-miterlimit="22.93"/>
<path fill-rule="evenodd" clip-rule="evenodd" d="M1 1.03998H73.08L65.4 8.71998H1V1.03998Z" fill="#A1A1A1" stroke="#A1A1A1" stroke-width="1.92" stroke-miterlimit="22.93"/>
</svg>
