<svg width="728" height="11" viewBox="0 0 728 11" fill="none" xmlns="http://www.w3.org/2000/svg">
<path fill-rule="evenodd" clip-rule="evenodd" d="M82.5201 1.67999H145.56L137.89 9.35999H74.8401L82.5201 1.67999Z" fill="#72D8FF" stroke="#72D8FF" stroke-width="1.92" stroke-miterlimit="22.93"/>
<path fill-rule="evenodd" clip-rule="evenodd" d="M155 1.67999H218.05L210.37 9.35999H147.32L155 1.67999Z" fill="#72D8FF" stroke="#72D8FF" stroke-width="1.92" stroke-miterlimit="22.93"/>
<path fill-rule="evenodd" clip-rule="evenodd" d="M227.48 1.67999H290.53L282.85 9.35999H219.8L227.48 1.67999Z" fill="#72D8FF" stroke="#72D8FF" stroke-width="1.92" stroke-miterlimit="22.93"/>
<path fill-rule="evenodd" clip-rule="evenodd" d="M299.96 1.67999H363.01L355.33 9.35999H292.28L299.96 1.67999Z" fill="#72D8FF" stroke="#72D8FF" stroke-width="1.92" stroke-miterlimit="22.93"/>
<path fill-rule="evenodd" clip-rule="evenodd" d="M372.44 1.67999H435.49L427.81 9.35999H364.76L372.44 1.67999Z" fill="#72D8FF" stroke="#72D8FF" stroke-width="1.92" stroke-miterlimit="22.93"/>
<path fill-rule="evenodd" clip-rule="evenodd" d="M444.92 1.67999H507.97L500.29 9.35999H437.24L444.92 1.67999Z" fill="#72D8FF" stroke="#72D8FF" stroke-width="1.92" stroke-miterlimit="22.93"/>
<path fill-rule="evenodd" clip-rule="evenodd" d="M517.4 1.67999H580.45L572.77 9.35999H509.72L517.4 1.67999Z" fill="#72D8FF" stroke="#72D8FF" stroke-width="1.92" stroke-miterlimit="22.93"/>
<path fill-rule="evenodd" clip-rule="evenodd" d="M589.88 1.67999H652.93L645.25 9.35999H582.2L589.88 1.67999Z" fill="#72D8FF" stroke="#72D8FF" stroke-width="1.92" stroke-miterlimit="22.93"/>
<path fill-rule="evenodd" clip-rule="evenodd" d="M662.36 1.67999H725.41L717.73 9.35999H654.68L662.36 1.67999Z" fill="#72D8FF" stroke="#72D8FF" stroke-width="1.92" stroke-miterlimit="22.93"/>
<path fill-rule="evenodd" clip-rule="evenodd" d="M1 1.67999H73.08L65.4 9.35999H1V1.67999Z" fill="#72D8FF" stroke="#72D8FF" stroke-width="1.92" stroke-miterlimit="22.93"/>
</svg>
