<svg width="728" height="10" viewBox="0 0 728 10" fill="none" xmlns="http://www.w3.org/2000/svg">
<path fill-rule="evenodd" clip-rule="evenodd" d="M82.5201 1H145.56L137.89 8.68H74.8401L82.5201 1Z" stroke="#72D8FF" stroke-width="1.92" stroke-miterlimit="22.93"/>
<path fill-rule="evenodd" clip-rule="evenodd" d="M155 1H218.05L210.37 8.68H147.32L155 1Z" stroke="#72D8FF" stroke-width="1.92" stroke-miterlimit="22.93"/>
<path fill-rule="evenodd" clip-rule="evenodd" d="M227.48 1H290.53L282.85 8.68H219.8L227.48 1Z" stroke="#72D8FF" stroke-width="1.92" stroke-miterlimit="22.93"/>
<path fill-rule="evenodd" clip-rule="evenodd" d="M299.96 1H363.01L355.33 8.68H292.28L299.96 1Z" stroke="#72D8FF" stroke-width="1.92" stroke-miterlimit="22.93"/>
<path fill-rule="evenodd" clip-rule="evenodd" d="M372.44 1H435.49L427.81 8.68H364.76L372.44 1Z" stroke="#72D8FF" stroke-width="1.92" stroke-miterlimit="22.93"/>
<path fill-rule="evenodd" clip-rule="evenodd" d="M444.92 1H507.97L500.29 8.68H437.24L444.92 1Z" stroke="#72D8FF" stroke-width="1.92" stroke-miterlimit="22.93"/>
<path fill-rule="evenodd" clip-rule="evenodd" d="M517.4 1H580.45L572.77 8.68H509.72L517.4 1Z" stroke="#72D8FF" stroke-width="1.92" stroke-miterlimit="22.93"/>
<path fill-rule="evenodd" clip-rule="evenodd" d="M589.88 1H652.93L645.25 8.68H582.2L589.88 1Z" stroke="#72D8FF" stroke-width="1.92" stroke-miterlimit="22.93"/>
<path fill-rule="evenodd" clip-rule="evenodd" d="M662.36 1H725.41L717.73 8.68H654.68L662.36 1Z" stroke="#72D8FF" stroke-width="1.92" stroke-miterlimit="22.93"/>
<path fill-rule="evenodd" clip-rule="evenodd" d="M1 1H73.08L65.4 8.68H1V1Z" stroke="#72D8FF" stroke-width="1.92" stroke-miterlimit="22.93"/>
</svg>
