<svg width="103" height="42" viewBox="0 0 103 42" fill="none" xmlns="http://www.w3.org/2000/svg">
<path fill-rule="evenodd" clip-rule="evenodd" d="M39.61 1.56L1 40.07C1 40.07 1 40.12 1.02 40.12H62.54L101.2 1.56H39.6H39.61Z" stroke="#A1A1A1" stroke-width="2" stroke-linejoin="round"/>
<path d="M46.5809 26.4249C44.432 26.4249 43.1426 24.9537 43.1426 22.5734V18.2591C43.1426 15.8953 44.432 14.4241 46.5809 14.4241C48.7298 14.4241 50.0026 15.8953 50.0026 18.2591V22.5734C50.0026 24.9537 48.7298 26.4249 46.5809 26.4249ZM46.5809 25.1025C47.9198 25.1025 48.6141 24.1934 48.6141 22.5734V18.2591C48.6141 16.6557 47.9198 15.7465 46.5809 15.7465C45.2254 15.7465 44.5311 16.6557 44.5311 18.2591V22.5734C44.5311 24.1934 45.2254 25.1025 46.5809 25.1025ZM57.3987 14.639H58.7376V26.21H57.3657L54.5225 19.9947C54.1588 19.1682 53.6299 17.8458 53.3819 17.1846L53.3323 17.2012C53.3985 18.226 53.4646 19.7633 53.4646 20.7551V26.21H52.1091V14.639H53.4811L56.3739 20.9535C56.754 21.7469 57.2665 22.9701 57.531 23.6479L57.5805 23.6313C57.4979 22.623 57.3987 21.0031 57.3987 19.9947V14.639Z" fill="#A1A1A1"/>
</svg>
