<svg width="239" height="42" viewBox="0 0 239 42" fill="none" xmlns="http://www.w3.org/2000/svg">
<path d="M3 1.56C16.89 16.62 24.67 25.06 38.56 40.12H201.53C215.22 25.28 222.89 16.95 236.58 2.11L3 1.56Z" stroke="#72D8FF" stroke-width="2" stroke-miterlimit="10"/>
<path d="M84.3499 20.14C86.1699 20.62 86.8499 21.9 86.8499 23.56C86.8499 26.12 85.0899 27.64 82.7099 27.64C80.1499 27.64 78.5899 25.86 78.4899 23.5H80.1499C80.2299 24.96 81.0899 26.06 82.6899 26.06C84.1499 26.06 85.1899 25.1 85.1899 23.52C85.1899 21.8 84.0299 20.92 82.4499 20.92H81.3499V19.44H82.2899C83.8299 19.44 84.8699 18.7 84.8699 17C84.8699 15.54 84.0699 14.68 82.6699 14.68C81.1099 14.68 80.4499 15.68 80.3299 17.28H78.6899C78.8499 14.76 80.1899 13.1 82.6699 13.1C84.9899 13.1 86.5099 14.56 86.5099 17.06C86.5099 18.6 85.9099 19.62 84.3499 20.14ZM94.7835 27.38L94.0435 24.34H89.9835L89.2435 27.38H87.5235L91.1235 13.38H92.9035L96.5035 27.38H94.7835ZM90.3435 22.82H93.6835L92.5435 18.08C92.3235 17.18 92.1235 16 92.0435 15.46H91.9835C91.9035 16 91.7035 17.18 91.4835 18.08L90.3435 22.82ZM104.699 13.38V14.92H99.7794V27.38H98.1394V13.38H104.699ZM110.279 27.64C107.679 27.64 106.119 25.86 106.119 22.98V17.76C106.119 14.9 107.679 13.12 110.279 13.12C112.879 13.12 114.419 14.9 114.419 17.76V22.98C114.419 25.86 112.879 27.64 110.279 27.64ZM110.279 26.04C111.899 26.04 112.739 24.94 112.739 22.98V17.76C112.739 15.82 111.899 14.72 110.279 14.72C108.639 14.72 107.799 15.82 107.799 17.76V22.98C107.799 24.94 108.639 26.04 110.279 26.04ZM117.648 13.38H124.128V27.38H122.488V14.92H119.228C119.028 19.16 118.848 22.74 118.608 24.44C118.308 26.62 117.268 27.58 115.508 27.58V26.04C116.408 26.04 116.848 25.38 117.028 24.12C117.228 22.64 117.428 19.1 117.648 13.38ZM130.845 27.64C128.245 27.64 126.685 25.86 126.685 22.98V17.76C126.685 14.9 128.245 13.12 130.845 13.12C133.445 13.12 134.985 14.9 134.985 17.76V22.98C134.985 25.86 133.445 27.64 130.845 27.64ZM130.845 26.04C132.465 26.04 133.305 24.94 133.305 22.98V17.76C133.305 15.82 132.465 14.72 130.845 14.72C129.205 14.72 128.365 15.82 128.365 17.76V22.98C128.365 24.94 129.205 26.04 130.845 26.04ZM143.234 20.16C144.554 20.58 145.354 21.78 145.354 23.46C145.354 25.96 143.814 27.38 141.354 27.38H137.534V13.38H141.094C143.394 13.38 144.814 14.76 144.814 17.1C144.814 18.62 144.194 19.72 143.234 20.16ZM140.974 14.92H139.174V19.46H141.014C142.434 19.46 143.134 18.66 143.134 17.14C143.134 15.62 142.434 14.92 140.974 14.92ZM141.214 25.84C142.874 25.84 143.694 25.1 143.694 23.46C143.694 21.84 142.654 21 141.074 21H139.174V25.84H141.214ZM151.314 27.64C148.714 27.64 147.154 25.86 147.154 22.98V17.76C147.154 14.9 148.714 13.12 151.314 13.12C153.914 13.12 155.454 14.9 155.454 17.76V22.98C155.454 25.86 153.914 27.64 151.314 27.64ZM151.314 26.04C152.934 26.04 153.774 24.94 153.774 22.98V17.76C153.774 15.82 152.934 14.72 151.314 14.72C149.674 14.72 148.834 15.82 148.834 17.76V22.98C148.834 24.94 149.674 26.04 151.314 26.04ZM164.483 27.38L160.603 20.9L159.643 22.3V27.38H158.003V13.38H159.643V19.78L160.683 18.1L163.843 13.38H165.823L161.583 19.48L166.383 27.38H164.483Z" fill="#72D8FF"/>
</svg>
