<svg width="439" height="68" viewBox="0 0 439 68" fill="none" xmlns="http://www.w3.org/2000/svg">
<path d="M371 1L437.011 67H2L67.9995 1H371Z" fill="white" fill-opacity="0.4" stroke="white"/>
<path d="M133 48H127V36.4148C129.34 34.2658 130.66 33.0537 133 30.9047V48ZM133 25.8695L127 31.3791V23H133V25.8695Z" fill="white"/>
<path d="M155.68 47V24.6H158.272V36.536C158.272 37.88 158.208 40.376 158.08 41.912L158.176 41.976C158.528 41.048 159.136 39.48 159.744 38.168L165.696 24.6H168.512V47H165.92V34.808C165.92 33.464 165.984 31 166.048 29.624L165.984 29.56C165.664 30.392 165.024 32.056 164.576 33.08L158.432 47H155.68ZM182.94 24.6H185.596V47H182.94V36.856H175.836V47H173.18V24.6H175.836V34.392H182.94V24.6ZM195.97 47.384C192.194 47.384 189.666 44.952 189.666 40.536V31.064C189.666 26.648 192.161 24.184 195.906 24.184C199.746 24.184 202.114 26.552 202.338 30.872H199.746C199.554 27.992 198.21 26.648 195.874 26.648C193.73 26.648 192.29 28.056 192.29 31.064V40.536C192.29 43.512 193.794 44.92 195.97 44.92C198.338 44.92 199.65 43.544 199.906 40.728H202.498C202.242 44.984 199.874 47.384 195.97 47.384ZM216.238 24.6V27.064H211.438V47H208.782V27.064H203.982V24.6H216.238ZM224.688 24.6C228.944 24.6 231.344 27.16 231.344 31.672C231.344 36.312 228.944 38.84 224.688 38.84H221.648V47H219.024V24.6H224.688ZM224.688 36.344C227.376 36.344 228.688 34.872 228.688 31.672C228.688 28.632 227.376 27.096 224.688 27.096H221.648V36.344H224.688ZM242.591 24.6H245.311L239.807 42.616C238.847 45.752 237.375 47.32 234.271 47.32H233.503V44.888H234.335C236.063 44.888 236.831 43.8 237.439 41.816L237.919 40.248L232.255 24.6H235.007L239.071 36.344L242.591 24.6ZM258.11 47L251.902 36.632L250.366 38.872V47H247.742V24.6H250.366V34.84L252.03 32.152L257.086 24.6H260.254L253.47 34.36L261.15 47H258.11ZM275.142 50.712V47H263.43V24.6H266.086V44.536H273.062V24.6H275.686V44.536H277.702V50.712H275.142ZM280.774 47V24.6H283.366V36.536C283.366 37.88 283.302 40.376 283.174 41.912L283.27 41.976C283.622 41.048 284.23 39.48 284.838 38.168L290.79 24.6H293.606V47H291.014V34.808C291.014 33.464 291.078 31 291.142 29.624L291.078 29.56C290.758 30.392 290.118 32.056 289.67 33.08L283.526 47H280.774ZM296.642 47L301.794 38.2C298.946 37.496 297.346 35.064 297.346 31.608C297.346 27.16 299.81 24.6 303.874 24.6H309.314V47H306.69V38.52H304.514L299.618 47H296.642ZM303.842 36.056H306.69V27.064H303.906C301.346 27.064 300.034 28.6 300.034 31.544C300.034 34.424 301.346 36.056 303.842 36.056Z" fill="white"/>
</svg>
