<svg width="423" height="41" viewBox="0 0 423 41" fill="none" xmlns="http://www.w3.org/2000/svg">
<path d="M76.61 1H40.73L2 39.56H37.89L76.61 1Z" fill="#72D8FF" stroke="#72D8FF" stroke-miterlimit="10"/>
<path d="M119.71 1H83.8201L45.1001 39.56H80.9901L119.71 1Z" fill="#72D8FF" stroke="#72D8FF" stroke-miterlimit="10"/>
<path d="M162.81 1H126.92L88.2 39.56H124.09L162.81 1Z" fill="#72D8FF" stroke="#72D8FF" stroke-miterlimit="10"/>
<path d="M205.91 1H170.02L131.3 39.56H167.19L205.91 1Z" fill="#72D8FF" stroke="#72D8FF" stroke-miterlimit="10"/>
<path d="M249.01 1H213.12L174.4 39.56H210.28L249.01 1Z" fill="#72D8FF" stroke="#72D8FF" stroke-miterlimit="10"/>
<path d="M292.11 1H256.22L217.5 39.56H253.38L292.11 1Z" fill="#72D8FF" stroke="#72D8FF" stroke-miterlimit="10"/>
<path d="M335.21 1H299.32L260.6 39.56H296.48L335.21 1Z" stroke="#72D8FF" stroke-miterlimit="10"/>
<path d="M378.31 1H342.42L303.69 39.56H339.58L378.31 1Z" stroke="#72D8FF" stroke-miterlimit="10"/>
<path d="M421.41 1H385.52L346.79 39.56H382.68L421.41 1Z" stroke="#72D8FF" stroke-miterlimit="10"/>
</svg>
