<svg width="423" height="40" viewBox="0 0 423 40" fill="none" xmlns="http://www.w3.org/2000/svg">
<path d="M76.61 0.560059H40.73L2 39.1201H37.89L76.61 0.560059Z" fill="#A1A1A1" stroke="#A1A1A1" stroke-miterlimit="10"/>
<path d="M119.71 0.560059H83.8201L45.1001 39.1201H80.9901L119.71 0.560059Z" fill="#A1A1A1" stroke="#A1A1A1" stroke-miterlimit="10"/>
<path d="M162.81 0.560059H126.92L88.2 39.1201H124.09L162.81 0.560059Z" fill="#A1A1A1" stroke="#A1A1A1" stroke-miterlimit="10"/>
<path d="M205.91 0.560059H170.02L131.3 39.1201H167.19L205.91 0.560059Z" fill="#A1A1A1" stroke="#A1A1A1" stroke-miterlimit="10"/>
<path d="M249.01 0.560059H213.12L174.4 39.1201H210.28L249.01 0.560059Z" stroke="#A1A1A1" stroke-miterlimit="10"/>
<path d="M292.11 0.560059H256.22L217.5 39.1201H253.38L292.11 0.560059Z" stroke="#A1A1A1" stroke-miterlimit="10"/>
<path d="M335.21 0.560059H299.32L260.6 39.1201H296.48L335.21 0.560059Z" stroke="#A1A1A1" stroke-miterlimit="10"/>
<path d="M378.31 0.560059H342.42L303.69 39.1201H339.58L378.31 0.560059Z" stroke="#A1A1A1" stroke-miterlimit="10"/>
<path d="M421.41 0.560059H385.52L346.79 39.1201H382.68L421.41 0.560059Z" stroke="#A1A1A1" stroke-miterlimit="10"/>
</svg>
