<svg width="493" height="71" viewBox="0 0 493 71" fill="none" xmlns="http://www.w3.org/2000/svg">
<path d="M1.20703 70.5L71.207 0.5H217.207H481.707H491.207L421.207 70.5M1.20703 70.5C1.20703 70.5 103.272 70.5 114.207 70.5M1.20703 70.5H114.207M421.207 70.5C421.207 70.5 267.683 70.5 114.207 70.5M421.207 70.5H114.207" stroke="#72D8FF"/>
<path d="M154.727 23.5H158.767V51.58H154.727V41.22C153.527 41.66 152.127 41.86 150.927 41.86C145.847 41.86 142.687 38.62 142.687 32.94V23.5H146.727V33.06C146.727 36.46 148.407 38.06 151.367 38.06C152.487 38.06 153.607 37.9 154.727 37.46V23.5ZM177.999 23.5V27.34H172.159V51.5H168.039V27.34H162.239V23.5H177.999ZM189.189 52.02C183.829 52.02 180.629 48.46 180.629 42.62V32.38C180.629 26.54 183.829 22.98 189.189 22.98C194.549 22.98 197.749 26.54 197.749 32.38V42.62C197.749 48.46 194.549 52.02 189.189 52.02ZM189.189 48.06C192.069 48.06 193.589 46.14 193.589 42.62V32.38C193.589 28.86 192.069 26.94 189.189 26.94C186.269 26.94 184.789 28.86 184.789 32.38V42.62C184.789 46.14 186.269 48.06 189.189 48.06ZM224.795 23.5V27.34H218.955V51.5H214.835V27.34H209.035V23.5H224.795ZM238.461 51.5L237.141 45.86H229.741L228.461 51.5H224.221L231.261 23.5H235.621L242.661 51.5H238.461ZM230.621 42.1H236.301L234.541 34.58C234.141 32.74 233.701 30.06 233.501 28.58H233.381C233.181 30.06 232.781 32.74 232.341 34.58L230.621 42.1ZM258.445 51.5L251.605 39.26L249.765 42.02V51.5H245.765V23.5H249.765V35.66L251.605 32.38L257.205 23.5H261.925L253.925 35.7L263.085 51.5H258.445ZM272.939 52.02C267.579 52.02 264.379 48.46 264.379 42.62V32.38C264.379 26.54 267.579 22.98 272.939 22.98C278.299 22.98 281.499 26.54 281.499 32.38V42.62C281.499 48.46 278.299 52.02 272.939 52.02ZM272.939 48.06C275.819 48.06 277.339 46.14 277.339 42.62V32.38C277.339 28.86 275.819 26.94 272.939 26.94C270.019 26.94 268.539 28.86 268.539 32.38V42.62C268.539 46.14 270.019 48.06 272.939 48.06ZM290.352 47.7H300.432V51.5H286.312V23.5H300.032V27.3H290.352V35.42H299.272V39.14H290.352V47.7ZM326.023 51.5L319.183 39.26L317.343 42.02V51.5H313.343V23.5H317.343V35.66L319.183 32.38L324.783 23.5H329.503L321.503 35.7L330.663 51.5H326.023ZM340.984 34.54C346.344 34.54 349.384 37.86 349.384 42.98C349.384 48.58 346.344 51.5 340.984 51.5H333.304V23.5H347.864V27.3H337.344V34.54H340.984ZM340.744 47.66C343.464 47.66 345.264 46.14 345.264 42.98C345.264 39.86 343.464 38.3 340.744 38.3H337.344V47.66H340.744Z" fill="#72D8FF"/>
</svg>
