<svg width="787" height="100" viewBox="0 0 787 100" fill="none" xmlns="http://www.w3.org/2000/svg">
<path d="M1.22729 85L72.8722 15H222.303H493.018H785.227L713.582 85M1.22729 85C1.22729 85 105.691 85 116.883 85M1.22729 85H116.883M713.582 85C713.582 85 273.965 85 116.883 85M713.582 85H116.883" stroke="#72D8FF"/>
<path d="M126.184 38H129.464V66.04H126.184V55.36C124.944 55.84 123.504 56.12 122.224 56.12C117.144 56.12 113.944 53 113.944 47.44V38H117.224V47.48C117.224 51.24 119.184 53.04 122.464 53.04C123.704 53.04 124.864 52.84 126.184 52.28V38ZM148.384 38V41.08H142.384V66H139.064V41.08H133.064V38H148.384ZM159.544 66.52C154.344 66.52 151.224 62.96 151.224 57.2V46.76C151.224 41.04 154.344 37.48 159.544 37.48C164.744 37.48 167.824 41.04 167.824 46.76V57.2C167.824 62.96 164.744 66.52 159.544 66.52ZM159.544 63.32C162.784 63.32 164.464 61.12 164.464 57.2V46.76C164.464 42.88 162.784 40.68 159.544 40.68C156.264 40.68 154.584 42.88 154.584 46.76V57.2C154.584 61.12 156.264 63.32 159.544 63.32ZM194.868 38V41.08H188.868V66H185.548V41.08H179.548V38H194.868ZM208.983 66L207.503 59.92H199.383L197.903 66H194.463L201.663 38H205.223L212.423 66H208.983ZM200.103 56.88H206.783L204.503 47.4C204.063 45.6 203.663 43.24 203.503 42.16H203.383C203.223 43.24 202.823 45.6 202.383 47.4L200.103 56.88ZM228.655 66L220.895 53.04L218.975 55.84V66H215.695V38H218.975V50.8L221.055 47.44L227.375 38H231.335L222.855 50.2L232.455 66H228.655ZM242.2 66.52C237 66.52 233.88 62.96 233.88 57.2V46.76C233.88 41.04 237 37.48 242.2 37.48C247.4 37.48 250.48 41.04 250.48 46.76V57.2C250.48 62.96 247.4 66.52 242.2 66.52ZM242.2 63.32C245.44 63.32 247.12 61.12 247.12 57.2V46.76C247.12 42.88 245.44 40.68 242.2 40.68C238.92 40.68 237.24 42.88 237.24 46.76V57.2C237.24 61.12 238.92 63.32 242.2 63.32ZM258.857 62.92H269.417V66H255.577V38H268.977V41.04H258.857V50.28H268.257V53.28H258.857V62.92ZM295.725 66L287.965 53.04L286.045 55.84V66H282.765V38H286.045V50.8L288.125 47.44L294.445 38H298.405L289.925 50.2L299.525 66H295.725ZM309.774 49.2C314.854 49.2 318.014 52.36 318.014 57.52C318.014 62.96 314.854 66 309.774 66H302.374V38H316.494V41.08H305.694V49.2H309.774ZM309.654 62.92C312.654 62.92 314.654 61.12 314.654 57.52C314.654 54 312.654 52.24 309.654 52.24H305.694V62.92H309.654ZM331.085 66V38H334.325V52.92C334.325 54.6 334.245 57.72 334.085 59.64L334.205 59.72C334.645 58.56 335.405 56.6 336.165 54.96L343.605 38H347.125V66H343.885V50.76C343.885 49.08 343.965 46 344.045 44.28L343.965 44.2C343.565 45.24 342.765 47.32 342.205 48.6L334.525 66H331.085ZM371.787 51.52C375.427 52.48 376.787 55.04 376.787 58.36C376.787 63.48 373.267 66.52 368.507 66.52C363.387 66.52 360.267 62.96 360.067 58.24H363.387C363.547 61.16 365.267 63.36 368.467 63.36C371.387 63.36 373.467 61.44 373.467 58.28C373.467 54.84 371.147 53.08 367.987 53.08H365.787V50.12H367.667C370.747 50.12 372.827 48.64 372.827 45.24C372.827 42.32 371.227 40.6 368.427 40.6C365.307 40.6 363.987 42.6 363.747 45.8H360.467C360.787 40.76 363.467 37.44 368.427 37.44C373.067 37.44 376.107 40.36 376.107 45.36C376.107 48.44 374.907 50.48 371.787 51.52ZM392.655 66L391.175 59.92H383.055L381.575 66H378.135L385.335 38H388.895L396.095 66H392.655ZM383.775 56.88H390.455L388.175 47.4C387.735 45.6 387.335 43.24 387.175 42.16H387.055C386.895 43.24 386.495 45.6 386.055 47.4L383.775 56.88ZM409.192 38H412.472V66.04H409.192V55.36C407.952 55.84 406.512 56.12 405.232 56.12C400.152 56.12 396.952 53 396.952 47.44V38H400.232V47.48C400.232 51.24 402.192 53.04 405.472 53.04C406.712 53.04 407.872 52.84 409.192 52.28V38ZM421.592 62.92H432.152V66H418.312V38H431.712V41.04H421.592V50.28H430.992V53.28H421.592V62.92ZM454.192 38H457.592V66H454.352V53.16C454.392 50.12 454.472 47.4 454.632 44.68L454.472 44.64C453.712 46.76 452.672 49.36 451.672 52L448.752 59.56H445.512L442.552 52C441.592 49.36 440.512 46.76 439.792 44.64L439.592 44.68C439.752 47.4 439.872 50.12 439.872 53.16V66H436.632V38H440.072L444.912 49.72C445.592 51.4 446.592 54.16 447.032 55.6H447.192C447.672 54.16 448.672 51.4 449.352 49.72L454.192 38ZM479.895 66.52C474.695 66.52 471.575 62.96 471.575 57.2V46.76C471.575 41.04 474.695 37.48 479.895 37.48C485.095 37.48 488.175 41.04 488.175 46.76V57.2C488.175 62.96 485.095 66.52 479.895 66.52ZM479.895 63.32C483.135 63.32 484.815 61.12 484.815 57.2V46.76C484.815 42.88 483.135 40.68 479.895 40.68C476.615 40.68 474.935 42.88 474.935 46.76V57.2C474.935 61.12 476.615 63.32 479.895 63.32ZM505.473 38H508.793V66H505.473V53.32H496.593V66H493.273V38H496.593V50.24H505.473V38ZM514.64 66V38H517.88V52.92C517.88 54.6 517.8 57.72 517.64 59.64L517.76 59.72C518.2 58.56 518.96 56.6 519.72 54.96L527.16 38H530.68V66H527.44V50.76C527.44 49.08 527.52 46 527.6 44.28L527.52 44.2C527.12 45.24 526.32 47.32 525.76 48.6L518.08 66H514.64ZM557.582 38H560.902V66H557.582V53.32H548.702V66H545.382V38H548.702V50.24H557.582V38ZM577.029 38H580.429L573.549 60.52C572.349 64.44 570.509 66.4 566.629 66.4H565.669V63.36H566.709C568.869 63.36 569.829 62 570.589 59.52L571.189 57.56L564.109 38H567.549L572.629 52.68L577.029 38ZM605.186 66L597.706 53.6L596.386 55.56V66H593.226V55.6L591.866 53.6L584.426 66H580.626L589.986 50.84L581.306 38H585.106L591.066 47.12L593.226 50.68V38H596.386V50.68L598.706 46.92L604.506 38H608.306L599.586 50.84L608.986 66H605.186ZM624.027 38H627.347V66H624.027V53.32H615.147V66H611.827V38H615.147V50.24H624.027V38ZM633.195 66V38H636.555V49.44H639.955C645.235 49.44 648.315 52.6 648.315 57.68C648.315 63 645.235 66 639.955 66H633.195ZM651.915 66V38H655.195V66H651.915ZM636.555 62.92H639.835C642.995 62.92 644.915 61.16 644.915 57.68C644.915 54.28 642.995 52.56 639.835 52.56H636.555V62.92Z" fill="#72D8FF"/>
</svg>
