<svg width="1154" height="71" viewBox="0 0 1154 71" fill="none" xmlns="http://www.w3.org/2000/svg">
<path d="M1.20703 70.5L71.207 0.5H217.207H481.707H1152.21L1082.21 70.5M1.20703 70.5C1.20703 70.5 103.272 70.5 114.207 70.5M1.20703 70.5H114.207M1082.21 70.5C1082.21 70.5 267.683 70.5 114.207 70.5M1082.21 70.5H114.207" stroke="#72D8FF"/>
<path d="M151.327 51.98C146.407 51.98 143.207 48.9 143.207 43.26V31.74C143.207 26.06 146.367 22.98 151.287 22.98C156.367 22.98 159.367 26.02 159.607 31.58H155.607C155.367 28.3 153.927 26.82 151.247 26.82C148.887 26.82 147.327 28.38 147.327 31.74V43.26C147.327 46.58 148.887 48.14 151.327 48.14C154.047 48.14 155.487 46.62 155.767 43.42H159.767C159.487 48.94 156.487 51.98 151.327 51.98ZM171.455 52.02C166.095 52.02 162.895 48.46 162.895 42.62V32.38C162.895 26.54 166.095 22.98 171.455 22.98C176.815 22.98 180.015 26.54 180.015 32.38V42.62C180.015 48.46 176.815 52.02 171.455 52.02ZM171.455 48.06C174.335 48.06 175.855 46.14 175.855 42.62V32.38C175.855 28.86 174.335 26.94 171.455 26.94C168.535 26.94 167.055 28.86 167.055 32.38V42.62C167.055 46.14 168.535 48.06 171.455 48.06ZM197.027 37.1C199.427 38.1 200.907 40.46 200.907 43.5C200.907 48.5 197.707 51.5 192.827 51.5H184.827V23.5H192.427C196.947 23.5 199.867 26.42 199.867 31.1C199.867 33.82 198.747 36.02 197.027 37.1ZM191.947 27.3H188.867V35.34H192.067C194.507 35.34 195.747 33.94 195.747 31.22C195.747 28.58 194.547 27.3 191.947 27.3ZM192.307 47.7C195.267 47.7 196.787 46.34 196.787 43.5C196.787 40.62 194.987 39.14 192.147 39.14H188.867V47.7H192.307ZM212.11 23.5C217.59 23.5 220.71 26.82 220.71 32.54C220.71 38.42 217.59 41.66 212.11 41.66H208.75V51.5H204.71V23.5H212.11ZM212.07 37.82C215.11 37.82 216.59 36.14 216.59 32.54C216.59 29.1 215.11 27.34 212.07 27.34H208.75V37.82H212.07ZM228.203 47.7H238.283V51.5H224.163V23.5H237.883V27.3H228.203V35.42H237.123V39.14H228.203V47.7ZM260.401 23.5H264.521V51.5H260.561V40.58C260.641 37.38 260.721 34.46 260.881 31.54L260.721 31.46C259.921 33.7 258.961 36.26 258.001 38.82L255.561 45.18H251.561L249.121 38.82C248.161 36.26 247.201 33.7 246.401 31.46L246.241 31.54C246.361 34.46 246.481 37.38 246.561 40.58V51.5H242.601V23.5H246.721L251.441 34.86C252.081 36.46 253.041 39.14 253.481 40.42H253.641C254.081 39.14 255.041 36.46 255.681 34.86L260.401 23.5ZM274.18 47.7H284.26V51.5H270.14V23.5H283.86V27.3H274.18V35.42H283.1V39.14H274.18V47.7ZM300.537 23.5H304.577V51.5H300.537V39.22H292.617V51.5H288.577V23.5H292.617V35.42H300.537V23.5ZM322.139 23.5H326.179V51.5H322.139V39.22H314.219V51.5H310.179V23.5H314.219V35.42H322.139V23.5ZM331.78 51.5V23.5H335.9V34.7H338.74C344.3 34.7 347.22 38.02 347.22 43.1C347.22 48.62 344.3 51.5 338.74 51.5H331.78ZM350.54 51.5V23.5H354.58V51.5H350.54ZM335.9 47.74H338.54C341.38 47.74 343.02 46.22 343.02 43.1C343.02 40.06 341.38 38.54 338.54 38.54H335.9V47.74ZM364.18 47.7H374.26V51.5H360.14V23.5H373.86V27.3H364.18V35.42H373.1V39.14H364.18V47.7ZM399.851 51.5L393.011 39.26L391.171 42.02V51.5H387.171V23.5H391.171V35.66L393.011 32.38L398.611 23.5H403.331L395.331 35.7L404.491 51.5H399.851ZM414.812 34.54C420.172 34.54 423.212 37.86 423.212 42.98C423.212 48.58 420.172 51.5 414.812 51.5H407.132V23.5H421.692V27.3H411.172V34.54H414.812ZM414.572 47.66C417.292 47.66 419.092 46.14 419.092 42.98C419.092 39.86 417.292 38.3 414.572 38.3H411.172V47.66H414.572ZM428.21 38.22C426.77 38.22 425.77 37.26 425.77 35.78C425.77 34.34 426.77 33.38 428.21 33.38C429.65 33.38 430.65 34.34 430.65 35.78C430.65 37.26 429.65 38.22 428.21 38.22ZM428.21 51.94C426.77 51.94 425.77 50.98 425.77 49.5C425.77 48.06 426.77 47.1 428.21 47.1C429.65 47.1 430.65 48.06 430.65 49.5C430.65 50.98 429.65 51.94 428.21 51.94ZM455.03 23.5H459.07V51.5H455.03V39.22H447.11V51.5H443.07V23.5H447.11V35.42H455.03V23.5ZM472.431 52.02C467.071 52.02 463.871 48.46 463.871 42.62V32.38C463.871 26.54 467.071 22.98 472.431 22.98C477.791 22.98 480.991 26.54 480.991 32.38V42.62C480.991 48.46 477.791 52.02 472.431 52.02ZM472.431 48.06C475.311 48.06 476.831 46.14 476.831 42.62V32.38C476.831 28.86 475.311 26.94 472.431 26.94C469.511 26.94 468.031 28.86 468.031 32.38V42.62C468.031 46.14 469.511 48.06 472.431 48.06ZM498.004 37.1C500.404 38.1 501.884 40.46 501.884 43.5C501.884 48.5 498.684 51.5 493.804 51.5H485.804V23.5H493.404C497.924 23.5 500.844 26.42 500.844 31.1C500.844 33.82 499.724 36.02 498.004 37.1ZM492.924 27.3H489.844V35.34H493.044C495.484 35.34 496.724 33.94 496.724 31.22C496.724 28.58 495.524 27.3 492.924 27.3ZM493.284 47.7C496.244 47.7 497.764 46.34 497.764 43.5C497.764 40.62 495.964 39.14 493.124 39.14H489.844V47.7H493.284ZM505.687 51.5V23.5H509.807V34.7H512.647C518.207 34.7 521.127 38.02 521.127 43.1C521.127 48.62 518.207 51.5 512.647 51.5H505.687ZM524.447 51.5V23.5H528.487V51.5H524.447ZM509.807 47.74H512.447C515.287 47.74 516.927 46.22 516.927 43.1C516.927 40.06 515.287 38.54 512.447 38.54H509.807V47.74ZM538.086 47.7H548.166V51.5H534.046V23.5H547.766V27.3H538.086V35.42H547.006V39.14H538.086V47.7ZM574.477 23.5V27.34H565.117V51.5H561.077V23.5H574.477ZM585.712 52.02C580.352 52.02 577.152 48.46 577.152 42.62V32.38C577.152 26.54 580.352 22.98 585.712 22.98C591.072 22.98 594.272 26.54 594.272 32.38V42.62C594.272 48.46 591.072 52.02 585.712 52.02ZM585.712 48.06C588.592 48.06 590.112 46.14 590.112 42.62V32.38C590.112 28.86 588.592 26.94 585.712 26.94C582.792 26.94 581.312 28.86 581.312 32.38V42.62C581.312 46.14 582.792 48.06 585.712 48.06ZM606.485 23.5C611.965 23.5 615.085 26.82 615.085 32.54C615.085 38.42 611.965 41.66 606.485 41.66H603.125V51.5H599.085V23.5H606.485ZM606.445 37.82C609.485 37.82 610.965 36.14 610.965 32.54C610.965 29.1 609.485 27.34 606.445 27.34H603.125V37.82H606.445ZM618.538 51.5V23.5H622.498V35.74C622.498 37.74 622.338 41.38 622.058 43.82L622.178 43.9C622.698 42.54 623.418 40.58 624.178 38.94L630.978 23.5H635.098V51.5H631.138V39.3C631.138 37.18 631.298 33.42 631.498 31.1L631.378 31.02C630.858 32.46 630.058 34.62 629.378 36.18L622.618 51.5H618.538ZM651.287 36.98C654.887 37.98 656.127 40.5 656.127 43.74C656.127 48.94 652.407 52.02 647.487 52.02C642.127 52.02 638.967 48.22 638.727 43.5H642.807C642.967 45.98 644.447 48.14 647.447 48.14C650.087 48.14 652.047 46.46 652.047 43.54C652.047 40.5 650.007 38.9 647.047 38.9H644.927V35.3H646.687C649.607 35.3 651.327 33.94 651.327 30.9C651.327 28.34 649.927 26.82 647.447 26.82C644.527 26.82 643.367 28.74 643.207 31.54H639.207C639.487 26.42 642.247 22.94 647.447 22.94C652.247 22.94 655.407 25.94 655.407 30.94C655.407 33.9 654.287 35.86 651.287 36.98ZM667.939 52.02C662.579 52.02 659.379 48.46 659.379 42.62V32.38C659.379 26.54 662.579 22.98 667.939 22.98C673.299 22.98 676.499 26.54 676.499 32.38V42.62C676.499 48.46 673.299 52.02 667.939 52.02ZM667.939 48.06C670.819 48.06 672.339 46.14 672.339 42.62V32.38C672.339 28.86 670.819 26.94 667.939 26.94C665.019 26.94 663.539 28.86 663.539 32.38V42.62C663.539 46.14 665.019 48.06 667.939 48.06ZM693.272 23.5H697.312V51.5H693.272V39.22H685.352V51.5H681.312V23.5H685.352V35.42H693.272V23.5ZM716.553 23.5V27.34H710.713V51.5H706.593V27.34H700.793V23.5H716.553ZM719.788 51.5V23.5H723.908V34.7H726.748C732.308 34.7 735.228 38.02 735.228 43.1C735.228 48.62 732.308 51.5 726.748 51.5H719.788ZM738.548 51.5V23.5H742.588V51.5H738.548ZM723.908 47.74H726.548C729.388 47.74 731.028 46.22 731.028 43.1C731.028 40.06 729.388 38.54 726.548 38.54H723.908V47.74ZM756.741 51.5V23.5H760.701V35.74C760.701 37.74 760.541 41.38 760.261 43.82L760.381 43.9C760.901 42.54 761.621 40.58 762.381 38.94L769.181 23.5H773.301V51.5H769.341V39.3C769.341 37.18 769.501 33.42 769.701 31.1L769.581 31.02C769.061 32.46 768.261 34.62 767.581 36.18L760.821 51.5H756.741ZM803.484 23.5V51.5H799.444V27.34H791.524V51.5H787.484V23.5H803.484ZM813.086 47.7H823.166V51.5H809.046V23.5H822.766V27.3H813.086V35.42H822.006V39.14H813.086V47.7ZM834.884 23.5C840.364 23.5 843.484 26.82 843.484 32.54C843.484 38.42 840.364 41.66 834.884 41.66H831.524V51.5H827.484V23.5H834.884ZM834.844 37.82C837.884 37.82 839.364 36.14 839.364 32.54C839.364 29.1 837.884 27.34 834.844 27.34H831.524V37.82H834.844ZM854.843 51.98C849.923 51.98 846.723 48.9 846.723 43.26V31.74C846.723 26.06 849.883 22.98 854.803 22.98C859.883 22.98 862.883 26.02 863.123 31.58H859.123C858.883 28.3 857.443 26.82 854.763 26.82C852.403 26.82 850.843 28.38 850.843 31.74V43.26C850.843 46.58 852.403 48.14 854.843 48.14C857.563 48.14 859.003 46.62 859.283 43.42H863.283C863.003 48.94 860.003 51.98 854.843 51.98ZM883.21 23.5V51.5H879.17V27.34H871.25V51.5H867.21V23.5H883.21ZM892.813 47.7H902.893V51.5H888.773V23.5H902.493V27.3H892.813V35.42H901.733V39.14H892.813V47.7ZM919.89 51.5L913.05 39.26L911.21 42.02V51.5H907.21V23.5H911.21V35.66L913.05 32.38L918.65 23.5H923.37L915.37 35.7L924.53 51.5H919.89ZM940.967 23.5V27.34H935.127V51.5H931.007V27.34H925.207V23.5H940.967ZM944.202 51.5V23.5H948.162V35.74C948.162 37.74 948.002 41.38 947.722 43.82L947.842 43.9C948.362 42.54 949.082 40.58 949.842 38.94L956.642 23.5H960.762V51.5H956.802V39.3C956.802 37.18 956.962 33.42 957.162 31.1L957.042 31.02C956.522 32.46 955.722 34.62 955.042 36.18L948.282 51.5H944.202ZM978.551 37.1C980.951 38.1 982.431 40.46 982.431 43.5C982.431 48.5 979.231 51.5 974.351 51.5H966.351V23.5H973.951C978.471 23.5 981.391 26.42 981.391 31.1C981.391 33.82 980.271 36.02 978.551 37.1ZM973.471 27.3H970.391V35.34H973.591C976.031 35.34 977.271 33.94 977.271 31.22C977.271 28.58 976.071 27.3 973.471 27.3ZM973.831 47.7C976.791 47.7 978.311 46.34 978.311 43.5C978.311 40.62 976.511 39.14 973.671 39.14H970.391V47.7H973.831ZM986.234 51.5V23.5H990.354V34.7H993.194C998.754 34.7 1001.67 38.02 1001.67 43.1C1001.67 48.62 998.754 51.5 993.194 51.5H986.234ZM1004.99 51.5V23.5H1009.03V51.5H1004.99ZM990.354 47.74H992.994C995.834 47.74 997.474 46.22 997.474 43.1C997.474 40.06 995.834 38.54 992.994 38.54H990.354V47.74Z" fill="#72D8FF"/>
</svg>
