<svg width="848" height="100" viewBox="0 0 848 100" fill="none" xmlns="http://www.w3.org/2000/svg">
<path d="M1.09521 85L61.7895 15H243.509H540.353H846.095L782.205 85M1.09521 85C1.09521 85 115.642 85 127.913 85M1.09521 85H127.913M782.205 85C782.205 85 300.157 85 127.913 85M782.205 85H127.913" stroke="#72D8FF"/>
<path d="M120.135 66.48C115.415 66.48 112.255 63.44 112.255 57.92V46.08C112.255 40.56 115.375 37.48 120.055 37.48C124.855 37.48 127.815 40.44 128.095 45.84H124.855C124.615 42.24 122.935 40.56 120.015 40.56C117.335 40.56 115.535 42.32 115.535 46.08V57.92C115.535 61.64 117.415 63.4 120.135 63.4C123.095 63.4 124.735 61.68 125.055 58.16H128.295C127.975 63.48 125.015 66.48 120.135 66.48ZM140.028 66.52C134.828 66.52 131.708 62.96 131.708 57.2V46.76C131.708 41.04 134.828 37.48 140.028 37.48C145.228 37.48 148.308 41.04 148.308 46.76V57.2C148.308 62.96 145.228 66.52 140.028 66.52ZM140.028 63.32C143.268 63.32 144.948 61.12 144.948 57.2V46.76C144.948 42.88 143.268 40.68 140.028 40.68C136.748 40.68 135.068 42.88 135.068 46.76V57.2C135.068 61.12 136.748 63.32 140.028 63.32ZM164.806 51.56C167.446 52.4 169.046 54.8 169.046 58.16C169.046 63.16 165.966 66 161.046 66H153.406V38H160.526C165.126 38 167.966 40.76 167.966 45.44C167.966 48.48 166.726 50.68 164.806 51.56ZM160.286 41.08H156.686V50.16H160.366C163.206 50.16 164.606 48.56 164.606 45.52C164.606 42.48 163.206 41.08 160.286 41.08ZM160.766 62.92C164.086 62.92 165.726 61.44 165.726 58.16C165.726 54.92 163.646 53.24 160.486 53.24H156.686V62.92H160.766ZM180.095 38C185.415 38 188.415 41.2 188.415 46.84C188.415 52.64 185.415 55.8 180.095 55.8H176.295V66H173.015V38H180.095ZM180.095 52.68C183.455 52.68 185.095 50.84 185.095 46.84C185.095 43.04 183.455 41.12 180.095 41.12H176.295V52.68H180.095ZM195.28 62.92H205.84V66H192V38H205.4V41.04H195.28V50.28H204.68V53.28H195.28V62.92ZM227.88 38H231.28V66H228.04V53.16C228.08 50.12 228.16 47.4 228.32 44.68L228.16 44.64C227.4 46.76 226.36 49.36 225.36 52L222.44 59.56H219.2L216.24 52C215.28 49.36 214.2 46.76 213.48 44.64L213.28 44.68C213.44 47.4 213.56 50.12 213.56 53.16V66H210.32V38H213.76L218.6 49.72C219.28 51.4 220.28 54.16 220.72 55.6H220.88C221.36 54.16 222.36 51.4 223.04 49.72L227.88 38ZM240.436 62.92H250.996V66H237.156V38H250.556V41.04H240.436V50.28H249.836V53.28H240.436V62.92ZM267.676 38H270.996V66H267.676V53.32H258.796V66H255.476V38H258.796V50.24H267.676V38ZM289.043 38H292.363V66H289.043V53.32H280.163V66H276.843V38H280.163V50.24H289.043V38ZM298.211 66V38H301.571V49.44H304.971C310.251 49.44 313.331 52.6 313.331 57.68C313.331 63 310.251 66 304.971 66H298.211ZM316.931 66V38H320.211V66H316.931ZM301.571 62.92H304.851C308.011 62.92 309.931 61.16 309.931 57.68C309.931 54.28 308.011 52.56 304.851 52.56H301.571V62.92ZM329.381 62.92H339.941V66H326.101V38H339.501V41.04H329.381V50.28H338.781V53.28H329.381V62.92ZM366.249 66L358.489 53.04L356.569 55.84V66H353.289V38H356.569V50.8L358.649 47.44L364.969 38H368.929L360.449 50.2L370.049 66H366.249ZM380.298 49.2C385.378 49.2 388.538 52.36 388.538 57.52C388.538 62.96 385.378 66 380.298 66H372.898V38H387.018V41.08H376.218V49.2H380.298ZM380.178 62.92C383.178 62.92 385.178 61.12 385.178 57.52C385.178 54 383.178 52.24 380.178 52.24H376.218V62.92H380.178ZM401.609 66V38H404.849V52.92C404.849 54.6 404.769 57.72 404.609 59.64L404.729 59.72C405.169 58.56 405.929 56.6 406.689 54.96L414.129 38H417.649V66H414.409V50.76C414.409 49.08 414.489 46 414.569 44.28L414.489 44.2C414.089 45.24 413.289 47.32 412.729 48.6L405.049 66H401.609ZM444.551 38H447.871V66H444.551V53.32H435.671V66H432.351V38H435.671V50.24H444.551V38ZM461.278 66.52C456.078 66.52 452.958 62.96 452.958 57.2V46.76C452.958 41.04 456.078 37.48 461.278 37.48C466.478 37.48 469.558 41.04 469.558 46.76V57.2C469.558 62.96 466.478 66.52 461.278 66.52ZM461.278 63.32C464.518 63.32 466.198 61.12 466.198 57.2V46.76C466.198 42.88 464.518 40.68 461.278 40.68C457.998 40.68 456.318 42.88 456.318 46.76V57.2C456.318 61.12 457.998 63.32 461.278 63.32ZM486.056 51.56C488.696 52.4 490.296 54.8 490.296 58.16C490.296 63.16 487.216 66 482.296 66H474.656V38H481.776C486.376 38 489.216 40.76 489.216 45.44C489.216 48.48 487.976 50.68 486.056 51.56ZM481.536 41.08H477.936V50.16H481.616C484.456 50.16 485.856 48.56 485.856 45.52C485.856 42.48 484.456 41.08 481.536 41.08ZM482.016 62.92C485.336 62.92 486.976 61.44 486.976 58.16C486.976 54.92 484.896 53.24 481.736 53.24H477.936V62.92H482.016ZM494.265 66V38H497.625V49.44H501.025C506.305 49.44 509.385 52.6 509.385 57.68C509.385 63 506.305 66 501.025 66H494.265ZM512.985 66V38H516.265V66H512.985ZM497.625 62.92H500.905C504.065 62.92 505.985 61.16 505.985 57.68C505.985 54.28 504.065 52.56 500.905 52.56H497.625V62.92ZM525.436 62.92H535.996V66H522.156V38H535.556V41.04H525.436V50.28H534.836V53.28H525.436V62.92ZM562.463 38V41.08H552.623V66H549.343V38H562.463ZM573.622 66.52C568.422 66.52 565.302 62.96 565.302 57.2V46.76C565.302 41.04 568.422 37.48 573.622 37.48C578.822 37.48 581.902 41.04 581.902 46.76V57.2C581.902 62.96 578.822 66.52 573.622 66.52ZM573.622 63.32C576.862 63.32 578.542 61.12 578.542 57.2V46.76C578.542 42.88 576.862 40.68 573.622 40.68C570.342 40.68 568.662 42.88 568.662 46.76V57.2C568.662 61.12 570.342 63.32 573.622 63.32ZM594.08 38C599.4 38 602.4 41.2 602.4 46.84C602.4 52.64 599.4 55.8 594.08 55.8H590.28V66H587V38H594.08ZM594.08 52.68C597.44 52.68 599.08 50.84 599.08 46.84C599.08 43.04 597.44 41.12 594.08 41.12H590.28V52.68H594.08ZM605.984 66V38H609.224V52.92C609.224 54.6 609.144 57.72 608.984 59.64L609.104 59.72C609.544 58.56 610.304 56.6 611.064 54.96L618.504 38H622.024V66H618.784V50.76C618.784 49.08 618.864 46 618.944 44.28L618.864 44.2C618.464 45.24 617.664 47.32 617.104 48.6L609.424 66H605.984ZM637.819 51.52C641.459 52.48 642.819 55.04 642.819 58.36C642.819 63.48 639.299 66.52 634.539 66.52C629.419 66.52 626.299 62.96 626.099 58.24H629.419C629.579 61.16 631.299 63.36 634.499 63.36C637.419 63.36 639.499 61.44 639.499 58.28C639.499 54.84 637.179 53.08 634.019 53.08H631.819V50.12H633.699C636.779 50.12 638.859 48.64 638.859 45.24C638.859 42.32 637.259 40.6 634.459 40.6C631.339 40.6 630.019 42.6 629.779 45.8H626.499C626.819 40.76 629.499 37.44 634.459 37.44C639.099 37.44 642.139 40.36 642.139 45.36C642.139 48.44 640.939 50.48 637.819 51.52ZM654.872 66.52C649.672 66.52 646.552 62.96 646.552 57.2V46.76C646.552 41.04 649.672 37.48 654.872 37.48C660.072 37.48 663.152 41.04 663.152 46.76V57.2C663.152 62.96 660.072 66.52 654.872 66.52ZM654.872 63.32C658.112 63.32 659.792 61.12 659.792 57.2V46.76C659.792 42.88 658.112 40.68 654.872 40.68C651.592 40.68 649.912 42.88 649.912 46.76V57.2C649.912 61.12 651.592 63.32 654.872 63.32ZM680.45 38H683.77V66H680.45V53.32H671.57V66H668.25V38H671.57V50.24H680.45V38ZM702.697 38V41.08H696.697V66H693.377V41.08H687.377V38H702.697ZM706.179 66V38H709.539V49.44H712.939C718.219 49.44 721.299 52.6 721.299 57.68C721.299 63 718.219 66 712.939 66H706.179ZM724.899 66V38H728.179V66H724.899ZM709.539 62.92H712.819C715.979 62.92 717.899 61.16 717.899 57.68C717.899 54.28 715.979 52.56 712.819 52.56H709.539V62.92Z" fill="#72D8FF"/>
</svg>
