<svg width="676" height="71" viewBox="0 0 676 71" fill="none" xmlns="http://www.w3.org/2000/svg">
<path d="M1.20703 70.5L71.207 0.5H217.207H481.707H674.207L604.207 70.5M1.20703 70.5C1.20703 70.5 103.272 70.5 114.207 70.5M1.20703 70.5H114.207M604.207 70.5C604.207 70.5 267.683 70.5 114.207 70.5M604.207 70.5H114.207" stroke="#72D8FF"/>
<path d="M156.687 51.5L149.847 39.26L148.007 42.02V51.5H144.007V23.5H148.007V35.66L149.847 32.38L155.447 23.5H160.167L152.167 35.7L161.327 51.5H156.687ZM171.181 52.02C165.821 52.02 162.621 48.46 162.621 42.62V32.38C162.621 26.54 165.821 22.98 171.181 22.98C176.541 22.98 179.741 26.54 179.741 32.38V42.62C179.741 48.46 176.541 52.02 171.181 52.02ZM171.181 48.06C174.061 48.06 175.581 46.14 175.581 42.62V32.38C175.581 28.86 174.061 26.94 171.181 26.94C168.261 26.94 166.781 28.86 166.781 32.38V42.62C166.781 46.14 168.261 48.06 171.181 48.06ZM196.514 23.5H200.554V51.5H196.514V39.22H188.594V51.5H184.554V23.5H188.594V35.42H196.514V23.5ZM213.475 51.98C208.555 51.98 205.355 48.9 205.355 43.26V31.74C205.355 26.06 208.515 22.98 213.435 22.98C218.515 22.98 221.515 26.02 221.755 31.58H217.755C217.515 28.3 216.075 26.82 213.395 26.82C211.035 26.82 209.475 28.38 209.475 31.74V43.26C209.475 46.58 211.035 48.14 213.475 48.14C216.195 48.14 217.635 46.62 217.915 43.42H221.915C221.635 48.94 218.635 51.98 213.475 51.98ZM239.444 23.5V27.34H233.604V51.5H229.484V27.34H223.684V23.5H239.444ZM250.079 23.5C255.559 23.5 258.679 26.82 258.679 32.54C258.679 38.42 255.559 41.66 250.079 41.66H246.719V51.5H242.679V23.5H250.079ZM250.039 37.82C253.079 37.82 254.559 36.14 254.559 32.54C254.559 29.1 253.079 27.34 250.039 27.34H246.719V37.82H250.039ZM272.412 23.5H276.652L269.852 45.62C268.412 50.26 266.452 51.9 262.212 51.9H261.212V48.26H262.332C264.492 48.26 265.412 47.14 266.252 44.34L266.572 43.3L259.532 23.5H263.812L268.372 37.14L272.412 23.5ZM292.156 51.5L285.316 39.26L283.476 42.02V51.5H279.476V23.5H283.476V35.66L285.316 32.38L290.916 23.5H295.636L287.636 35.7L296.796 51.5H292.156ZM313.233 23.5V27.34H307.393V51.5H303.273V27.34H297.473V23.5H313.233ZM324.423 52.02C319.063 52.02 315.863 48.46 315.863 42.62V32.38C315.863 26.54 319.063 22.98 324.423 22.98C329.783 22.98 332.983 26.54 332.983 32.38V42.62C332.983 48.46 329.783 52.02 324.423 52.02ZM324.423 48.06C327.303 48.06 328.823 46.14 328.823 42.62V32.38C328.823 28.86 327.303 26.94 324.423 26.94C321.503 26.94 320.023 28.86 320.023 32.38V42.62C320.023 46.14 321.503 48.06 324.423 48.06ZM345.196 23.5C350.676 23.5 353.796 26.82 353.796 32.54C353.796 38.42 350.676 41.66 345.196 41.66H341.836V51.5H337.796V23.5H345.196ZM345.156 37.82C348.196 37.82 349.676 36.14 349.676 32.54C349.676 29.1 348.196 27.34 345.156 27.34H341.836V37.82H345.156ZM365.155 51.98C360.235 51.98 357.035 48.9 357.035 43.26V31.74C357.035 26.06 360.195 22.98 365.115 22.98C370.195 22.98 373.195 26.02 373.435 31.58H369.435C369.195 28.3 367.755 26.82 365.075 26.82C362.715 26.82 361.155 28.38 361.155 31.74V43.26C361.155 46.58 362.715 48.14 365.155 48.14C367.875 48.14 369.315 46.62 369.595 43.42H373.595C373.315 48.94 370.315 51.98 365.155 51.98ZM390.203 51.5L383.363 39.26L381.523 42.02V51.5H377.523V23.5H381.523V35.66L383.363 32.38L388.963 23.5H393.683L385.683 35.7L394.843 51.5H390.203ZM404.697 52.02C399.337 52.02 396.137 48.46 396.137 42.62V32.38C396.137 26.54 399.337 22.98 404.697 22.98C410.057 22.98 413.257 26.54 413.257 32.38V42.62C413.257 48.46 410.057 52.02 404.697 52.02ZM404.697 48.06C407.577 48.06 409.097 46.14 409.097 42.62V32.38C409.097 28.86 407.577 26.94 404.697 26.94C401.777 26.94 400.297 28.86 400.297 32.38V42.62C400.297 46.14 401.777 48.06 404.697 48.06ZM422.11 47.7H432.19V51.5H418.07V23.5H431.79V27.3H422.11V35.42H431.03V39.14H422.11V47.7ZM452.781 34.54C458.141 34.54 461.181 37.86 461.181 42.98C461.181 48.58 458.141 51.5 452.781 51.5H445.101V23.5H459.661V27.3H449.141V34.54H452.781ZM452.541 47.66C455.261 47.66 457.061 46.14 457.061 42.98C457.061 39.86 455.261 38.3 452.541 38.3H449.141V47.66H452.541ZM482.139 23.1C487.459 23.1 490.579 26.66 490.579 32.66V42.34C490.579 48.34 487.459 51.9 482.139 51.9C476.819 51.9 473.699 48.34 473.699 42.34V39.22H469.179V51.5H465.179V23.5H469.179V35.42H473.699V32.66C473.699 26.66 476.819 23.1 482.139 23.1ZM486.459 42.34V32.66C486.459 28.94 484.979 27.02 482.139 27.02C479.299 27.02 477.859 28.94 477.859 32.66V42.34C477.859 46.06 479.299 47.98 482.139 47.98C484.979 47.98 486.459 46.06 486.459 42.34ZM502.813 23.5C508.293 23.5 511.413 26.82 511.413 32.54C511.413 38.42 508.293 41.66 502.813 41.66H499.453V51.5H495.413V23.5H502.813ZM502.773 37.82C505.813 37.82 507.293 36.14 507.293 32.54C507.293 29.1 505.813 27.34 502.773 27.34H499.453V37.82H502.773ZM523.212 52.02C517.852 52.02 514.652 48.46 514.652 42.62V32.38C514.652 26.54 517.852 22.98 523.212 22.98C528.572 22.98 531.772 26.54 531.772 32.38V42.62C531.772 48.46 528.572 52.02 523.212 52.02ZM523.212 48.06C526.092 48.06 527.612 46.14 527.612 42.62V32.38C527.612 28.86 526.092 26.94 523.212 26.94C520.292 26.94 518.812 28.86 518.812 32.38V42.62C518.812 46.14 520.292 48.06 523.212 48.06Z" fill="#72D8FF"/>
</svg>
