<svg width="769" height="71" viewBox="0 0 769 71" fill="none" xmlns="http://www.w3.org/2000/svg">
<path d="M1.20703 70.5L71.207 0.5H217.207H481.707H767.207L697.207 70.5M1.20703 70.5C1.20703 70.5 103.272 70.5 114.207 70.5M1.20703 70.5H114.207M697.207 70.5C697.207 70.5 267.683 70.5 114.207 70.5M697.207 70.5H114.207" stroke="#72D8FF"/>
<path d="M144.007 51.5V23.5H147.967V35.74C147.967 37.74 147.807 41.38 147.527 43.82L147.647 43.9C148.167 42.54 148.887 40.58 149.647 38.94L156.447 23.5H160.567V51.5H156.607V39.3C156.607 37.18 156.767 33.42 156.967 31.1L156.847 31.02C156.327 32.46 155.527 34.62 154.847 36.18L148.087 51.5H144.007ZM176.755 36.98C180.355 37.98 181.595 40.5 181.595 43.74C181.595 48.94 177.875 52.02 172.955 52.02C167.595 52.02 164.435 48.22 164.195 43.5H168.275C168.435 45.98 169.915 48.14 172.915 48.14C175.555 48.14 177.515 46.46 177.515 43.54C177.515 40.5 175.475 38.9 172.515 38.9H170.395V35.3H172.155C175.075 35.3 176.795 33.94 176.795 30.9C176.795 28.34 175.395 26.82 172.915 26.82C169.995 26.82 168.835 28.74 168.675 31.54H164.675C164.955 26.42 167.715 22.94 172.915 22.94C177.715 22.94 180.875 25.94 180.875 30.94C180.875 33.9 179.755 35.86 176.755 36.98ZM197.496 37.1C199.896 38.1 201.376 40.46 201.376 43.5C201.376 48.5 198.176 51.5 193.296 51.5H185.296V23.5H192.896C197.416 23.5 200.336 26.42 200.336 31.1C200.336 33.82 199.216 36.02 197.496 37.1ZM192.416 27.3H189.336V35.34H192.536C194.976 35.34 196.216 33.94 196.216 31.22C196.216 28.58 195.016 27.3 192.416 27.3ZM192.776 47.7C195.736 47.7 197.256 46.34 197.256 43.5C197.256 40.62 195.456 39.14 192.616 39.14H189.336V47.7H192.776ZM209.219 47.7H219.299V51.5H205.179V23.5H218.899V27.3H209.219V35.42H218.139V39.14H209.219V47.7ZM230.936 51.98C226.016 51.98 222.816 48.9 222.816 43.26V31.74C222.816 26.06 225.976 22.98 230.896 22.98C235.976 22.98 238.976 26.02 239.216 31.58H235.216C234.976 28.3 233.536 26.82 230.856 26.82C228.496 26.82 226.936 28.38 226.936 31.74V43.26C226.936 46.58 228.496 48.14 230.936 48.14C233.656 48.14 235.096 46.62 235.376 43.42H239.376C239.096 48.94 236.096 51.98 230.936 51.98ZM256.905 23.5V27.34H251.065V51.5H246.945V27.34H241.145V23.5H256.905ZM272.1 23.5H276.14V51.5H272.1V39.22H264.18V51.5H260.14V23.5H264.18V35.42H272.1V23.5ZM281.741 51.5V23.5H285.861V34.7H288.701C294.261 34.7 297.181 38.02 297.181 43.1C297.181 48.62 294.261 51.5 288.701 51.5H281.741ZM300.501 51.5V23.5H304.541V51.5H300.501ZM285.861 47.74H288.501C291.341 47.74 292.981 46.22 292.981 43.1C292.981 40.06 291.341 38.54 288.501 38.54H285.861V47.74ZM314.141 47.7H324.221V51.5H310.101V23.5H323.821V27.3H314.141V35.42H323.061V39.14H314.141V47.7ZM349.812 51.5L342.972 39.26L341.132 42.02V51.5H337.132V23.5H341.132V35.66L342.972 32.38L348.572 23.5H353.292L345.292 35.7L354.452 51.5H349.812ZM364.773 34.54C370.133 34.54 373.173 37.86 373.173 42.98C373.173 48.58 370.133 51.5 364.773 51.5H357.093V23.5H371.653V27.3H361.133V34.54H364.773ZM364.533 47.66C367.253 47.66 369.053 46.14 369.053 42.98C369.053 39.86 367.253 38.3 364.533 38.3H361.133V47.66H364.533ZM393.085 51.98C388.165 51.98 384.965 48.9 384.965 43.26V31.74C384.965 26.06 388.125 22.98 393.045 22.98C398.125 22.98 401.125 26.02 401.365 31.58H397.365C397.125 28.3 395.685 26.82 393.005 26.82C390.645 26.82 389.085 28.38 389.085 31.74V43.26C389.085 46.58 390.645 48.14 393.085 48.14C395.805 48.14 397.245 46.62 397.525 43.42H401.525C401.245 48.94 398.245 51.98 393.085 51.98ZM412.772 51.98C407.852 51.98 404.652 48.9 404.652 43.26V31.74C404.652 26.06 407.812 22.98 412.732 22.98C417.812 22.98 420.812 26.02 421.052 31.58H417.052C416.812 28.3 415.372 26.82 412.692 26.82C410.332 26.82 408.772 28.38 408.772 31.74V43.26C408.772 46.58 410.332 48.14 412.772 48.14C415.492 48.14 416.932 46.62 417.212 43.42H421.212C420.932 48.94 417.932 51.98 412.772 51.98ZM432.46 51.98C427.54 51.98 424.34 48.9 424.34 43.26V31.74C424.34 26.06 427.5 22.98 432.42 22.98C437.5 22.98 440.5 26.02 440.74 31.58H436.74C436.5 28.3 435.06 26.82 432.38 26.82C430.02 26.82 428.46 28.38 428.46 31.74V43.26C428.46 46.58 430.02 48.14 432.46 48.14C435.18 48.14 436.62 46.62 436.9 43.42H440.9C440.62 48.94 437.62 51.98 432.46 51.98ZM452.227 23.5C457.707 23.5 460.827 26.82 460.827 32.54C460.827 38.42 457.707 41.66 452.227 41.66H448.867V51.5H444.827V23.5H452.227ZM452.187 37.82C455.227 37.82 456.707 36.14 456.707 32.54C456.707 29.1 455.227 27.34 452.187 27.34H448.867V37.82H452.187ZM473.46 51.5V23.5H477.42V35.74C477.42 37.74 477.26 41.38 476.98 43.82L477.1 43.9C477.62 42.54 478.34 40.58 479.1 38.94L485.9 23.5H490.02V51.5H486.06V39.3C486.06 37.18 486.22 33.42 486.42 31.1L486.3 31.02C485.78 32.46 484.98 34.62 484.3 36.18L477.54 51.5H473.46ZM511.602 23.5C517.082 23.5 520.202 26.82 520.202 32.54C520.202 38.42 517.082 41.66 511.602 41.66H508.242V51.5H504.202V23.5H511.602ZM511.562 37.82C514.602 37.82 516.082 36.14 516.082 32.54C516.082 29.1 514.602 27.34 511.562 27.34H508.242V37.82H511.562ZM532.001 52.02C526.641 52.02 523.441 48.46 523.441 42.62V32.38C523.441 26.54 526.641 22.98 532.001 22.98C537.361 22.98 540.561 26.54 540.561 32.38V42.62C540.561 48.46 537.361 52.02 532.001 52.02ZM532.001 48.06C534.881 48.06 536.401 46.14 536.401 42.62V32.38C536.401 28.86 534.881 26.94 532.001 26.94C529.081 26.94 527.601 28.86 527.601 32.38V42.62C527.601 46.14 529.081 48.06 532.001 48.06ZM552.694 51.98C547.774 51.98 544.574 48.9 544.574 43.26V31.74C544.574 26.06 547.734 22.98 552.654 22.98C557.734 22.98 560.734 26.02 560.974 31.58H556.974C556.734 28.3 555.294 26.82 552.614 26.82C550.254 26.82 548.694 28.38 548.694 31.74V43.26C548.694 46.58 550.254 48.14 552.694 48.14C555.414 48.14 556.854 46.62 557.134 43.42H561.134C560.854 48.94 557.854 51.98 552.694 51.98ZM572.382 51.98C567.462 51.98 564.262 48.9 564.262 43.26V31.74C564.262 26.06 567.422 22.98 572.342 22.98C577.422 22.98 580.422 26.02 580.662 31.58H576.662C576.422 28.3 574.982 26.82 572.302 26.82C569.942 26.82 568.382 28.38 568.382 31.74V43.26C568.382 46.58 569.942 48.14 572.382 48.14C575.102 48.14 576.542 46.62 576.822 43.42H580.822C580.542 48.94 577.542 51.98 572.382 51.98ZM584.749 51.5V23.5H588.709V35.74C588.709 37.74 588.549 41.38 588.269 43.82L588.389 43.9C588.909 42.54 589.629 40.58 590.389 38.94L597.189 23.5H601.309V51.5H597.349V39.3C597.349 37.18 597.509 33.42 597.709 31.1L597.589 31.02C597.069 32.46 596.269 34.62 595.589 36.18L588.829 51.5H584.749ZM606.898 51.5V23.5H610.858V35.74C610.858 37.74 610.698 41.38 610.418 43.82L610.538 43.9C611.058 42.54 611.778 40.58 612.538 38.94L619.338 23.5H623.458V51.5H619.498V39.3C619.498 37.18 619.658 33.42 619.858 31.1L619.738 31.02C619.218 32.46 618.418 34.62 617.738 36.18L610.978 51.5H606.898Z" fill="#72D8FF"/>
</svg>
