<svg width="769" height="100" viewBox="0 0 769 100" fill="none" xmlns="http://www.w3.org/2000/svg">
<path d="M1.20703 85L71.207 15H217.207H481.707H767.207L697.207 85M1.20703 85C1.20703 85 103.272 85 114.207 85M1.20703 85H114.207M697.207 85C697.207 85 267.683 85 114.207 85M697.207 85H114.207" stroke="#72D8FF"/>
<path d="M114.092 38H127.052V66H123.772V41.08H117.252C116.852 49.56 116.492 56.72 116.012 60.12C115.412 64.48 113.332 66.4 109.812 66.4V63.32C111.612 63.32 112.492 62 112.852 59.48C113.252 56.52 113.652 49.44 114.092 38ZM136.207 62.92H146.767V66H132.927V38H146.327V41.04H136.207V50.28H145.607V53.28H136.207V62.92ZM164.367 38V41.08H154.527V66H151.247V38H164.367ZM171.246 62.92H181.806V66H167.966V38H181.366V41.04H171.246V50.28H180.646V53.28H171.246V62.92ZM198.486 38H201.806V66H198.486V53.32H189.606V66H186.286V38H189.606V50.24H198.486V38ZM222.776 62.92H225.216V70.64H222.016V66H208.096V70.64H204.896V62.92H206.496C208.336 61.08 209.456 57.08 209.616 52.36L210.096 38H222.776V62.92ZM219.496 62.92V41.08H213.176L212.736 53.28C212.576 57.48 211.776 60.68 210.456 62.92H219.496ZM241.02 66L239.54 59.92H231.42L229.94 66H226.5L233.7 38H237.26L244.46 66H241.02ZM232.14 56.88H238.82L236.54 47.4C236.1 45.6 235.7 43.24 235.54 42.16H235.42C235.26 43.24 234.86 45.6 234.42 47.4L232.14 56.88ZM254.812 38C260.132 38 263.132 41.2 263.132 46.84C263.132 52.64 260.132 55.8 254.812 55.8H251.012V66H247.732V38H254.812ZM254.812 52.68C258.172 52.68 259.812 50.84 259.812 46.84C259.812 43.04 258.172 41.12 254.812 41.12H251.012V52.68H254.812ZM278.916 38H282.236V66H278.916V53.32H270.036V66H266.716V38H270.036V50.24H278.916V38ZM288.083 66V38H291.443V49.44H294.843C300.123 49.44 303.203 52.6 303.203 57.68C303.203 63 300.123 66 294.843 66H288.083ZM306.803 66V38H310.083V66H306.803ZM291.443 62.92H294.723C297.883 62.92 299.803 61.16 299.803 57.68C299.803 54.28 297.883 52.56 294.723 52.56H291.443V62.92ZM319.254 62.92H329.814V66H315.974V38H329.374V41.04H319.254V50.28H328.654V53.28H319.254V62.92ZM356.121 66L348.361 53.04L346.441 55.84V66H343.161V38H346.441V50.8L348.521 47.44L354.841 38H358.801L350.321 50.2L359.921 66H356.121ZM370.171 49.2C375.251 49.2 378.411 52.36 378.411 57.52C378.411 62.96 375.251 66 370.171 66H362.771V38H376.891V41.08H366.091V49.2H370.171ZM370.051 62.92C373.051 62.92 375.051 61.12 375.051 57.52C375.051 54 373.051 52.24 370.051 52.24H366.091V62.92H370.051ZM398.602 66.48C393.882 66.48 390.722 63.44 390.722 57.92V46.08C390.722 40.56 393.842 37.48 398.522 37.48C403.322 37.48 406.282 40.44 406.562 45.84H403.322C403.082 42.24 401.402 40.56 398.482 40.56C395.802 40.56 394.002 42.32 394.002 46.08V57.92C394.002 61.64 395.882 63.4 398.602 63.4C401.562 63.4 403.202 61.68 403.522 58.16H406.762C406.442 63.48 403.482 66.48 398.602 66.48ZM418.055 66.48C413.335 66.48 410.175 63.44 410.175 57.92V46.08C410.175 40.56 413.295 37.48 417.975 37.48C422.775 37.48 425.735 40.44 426.015 45.84H422.775C422.535 42.24 420.855 40.56 417.935 40.56C415.255 40.56 413.455 42.32 413.455 46.08V57.92C413.455 61.64 415.335 63.4 418.055 63.4C421.015 63.4 422.655 61.68 422.975 58.16H426.215C425.895 63.48 422.935 66.48 418.055 66.48ZM437.508 66.48C432.788 66.48 429.628 63.44 429.628 57.92V46.08C429.628 40.56 432.748 37.48 437.428 37.48C442.228 37.48 445.188 40.44 445.468 45.84H442.228C441.988 42.24 440.308 40.56 437.388 40.56C434.708 40.56 432.908 42.32 432.908 46.08V57.92C432.908 61.64 434.788 63.4 437.508 63.4C440.468 63.4 442.108 61.68 442.428 58.16H445.668C445.348 63.48 442.388 66.48 437.508 66.48ZM456.921 38C462.241 38 465.241 41.2 465.241 46.84C465.241 52.64 462.241 55.8 456.921 55.8H453.121V66H449.841V38H456.921ZM456.921 52.68C460.281 52.68 461.921 50.84 461.921 46.84C461.921 43.04 460.281 41.12 456.921 41.12H453.121V52.68H456.921ZM478.357 66V38H481.597V52.92C481.597 54.6 481.517 57.72 481.357 59.64L481.477 59.72C481.917 58.56 482.677 56.6 483.437 54.96L490.877 38H494.397V66H491.157V50.76C491.157 49.08 491.237 46 491.317 44.28L491.237 44.2C490.837 45.24 490.037 47.32 489.477 48.6L481.797 66H478.357ZM516.179 38C521.499 38 524.499 41.2 524.499 46.84C524.499 52.64 521.499 55.8 516.179 55.8H512.379V66H509.099V38H516.179ZM516.179 52.68C519.539 52.68 521.179 50.84 521.179 46.84C521.179 43.04 519.539 41.12 516.179 41.12H512.379V52.68H516.179ZM536.307 66.52C531.107 66.52 527.987 62.96 527.987 57.2V46.76C527.987 41.04 531.107 37.48 536.307 37.48C541.507 37.48 544.587 41.04 544.587 46.76V57.2C544.587 62.96 541.507 66.52 536.307 66.52ZM536.307 63.32C539.547 63.32 541.227 61.12 541.227 57.2V46.76C541.227 42.88 539.547 40.68 536.307 40.68C533.027 40.68 531.347 42.88 531.347 46.76V57.2C531.347 61.12 533.027 63.32 536.307 63.32ZM556.805 66.48C552.085 66.48 548.925 63.44 548.925 57.92V46.08C548.925 40.56 552.045 37.48 556.725 37.48C561.525 37.48 564.485 40.44 564.765 45.84H561.525C561.285 42.24 559.605 40.56 556.685 40.56C554.005 40.56 552.205 42.32 552.205 46.08V57.92C552.205 61.64 554.085 63.4 556.805 63.4C559.765 63.4 561.405 61.68 561.725 58.16H564.965C564.645 63.48 561.685 66.48 556.805 66.48ZM576.258 66.48C571.538 66.48 568.378 63.44 568.378 57.92V46.08C568.378 40.56 571.498 37.48 576.178 37.48C580.978 37.48 583.938 40.44 584.218 45.84H580.978C580.738 42.24 579.058 40.56 576.138 40.56C573.458 40.56 571.658 42.32 571.658 46.08V57.92C571.658 61.64 573.538 63.4 576.258 63.4C579.218 63.4 580.858 61.68 581.178 58.16H584.418C584.098 63.48 581.138 66.48 576.258 66.48ZM588.591 66V38H591.831V52.92C591.831 54.6 591.751 57.72 591.591 59.64L591.711 59.72C592.151 58.56 592.911 56.6 593.671 54.96L601.111 38H604.631V66H601.391V50.76C601.391 49.08 601.471 46 601.551 44.28L601.471 44.2C601.071 45.24 600.271 47.32 599.711 48.6L592.031 66H588.591ZM610.466 66V38H613.706V52.92C613.706 54.6 613.626 57.72 613.466 59.64L613.586 59.72C614.026 58.56 614.786 56.6 615.546 54.96L622.986 38H626.506V66H623.266V50.76C623.266 49.08 623.346 46 623.426 44.28L623.346 44.2C622.946 45.24 622.146 47.32 621.586 48.6L613.906 66H610.466Z" fill="#72D8FF"/>
</svg>
