<svg width="311" height="17" viewBox="0 0 311 17" fill="none" xmlns="http://www.w3.org/2000/svg">
<path d="M299.72 15.4V8.10004" stroke="white" stroke-width="1.5" stroke-miterlimit="10"/>
<path d="M279.16 15.4V8.10004" stroke="white" stroke-width="1.5" stroke-miterlimit="10"/>
<path d="M258.6 15.4V8.10004" stroke="white" stroke-width="1.5" stroke-miterlimit="10"/>
<path d="M238.04 15.4V8.10004" stroke="white" stroke-width="1.5" stroke-miterlimit="10"/>
<path d="M217.48 15.4V8.10004" stroke="white" stroke-width="1.5" stroke-miterlimit="10"/>
<path d="M196.92 15.4V8.10004" stroke="white" stroke-width="1.5" stroke-miterlimit="10"/>
<path d="M176.36 15.4V8.10004" stroke="white" stroke-width="1.5" stroke-miterlimit="10"/>
<path d="M155.8 15.4V8.10004" stroke="white" stroke-width="1.5" stroke-miterlimit="10"/>
<path d="M135.25 15.4V8.10004" stroke="white" stroke-width="1.5" stroke-miterlimit="10"/>
<path d="M114.69 15.4V8.10004" stroke="white" stroke-width="1.5" stroke-miterlimit="10"/>
<path d="M94.1299 15.4V8.10004" stroke="white" stroke-width="1.5" stroke-miterlimit="10"/>
<path d="M73.5698 15.4V8.10004" stroke="white" stroke-width="1.5" stroke-miterlimit="10"/>
<path d="M53.0098 15.4V8.10004" stroke="white" stroke-width="1.5" stroke-miterlimit="10"/>
<path d="M32.45 15.4V8.10004" stroke="white" stroke-width="1.5" stroke-miterlimit="10"/>
<path d="M11.8899 15.4V8.10004" stroke="white" stroke-width="1.5" stroke-miterlimit="10"/>
<path d="M289.44 15.4V0.790039" stroke="white" stroke-width="1.5" stroke-miterlimit="10"/>
<path d="M268.88 15.4V0.790039" stroke="white" stroke-width="1.5" stroke-miterlimit="10"/>
<path d="M248.32 15.4V0.790039" stroke="white" stroke-width="1.5" stroke-miterlimit="10"/>
<path d="M227.76 15.4V0.790039" stroke="white" stroke-width="1.5" stroke-miterlimit="10"/>
<path d="M207.2 15.4V0.790039" stroke="white" stroke-width="1.5" stroke-miterlimit="10"/>
<path d="M186.64 15.4V0.790039" stroke="white" stroke-width="1.5" stroke-miterlimit="10"/>
<path d="M166.08 15.4V0.790039" stroke="white" stroke-width="1.5" stroke-miterlimit="10"/>
<path d="M145.52 15.4V0.790039" stroke="white" stroke-width="1.5" stroke-miterlimit="10"/>
<path d="M124.97 15.4V0.790039" stroke="white" stroke-width="1.5" stroke-miterlimit="10"/>
<path d="M104.41 15.4V0.790039" stroke="white" stroke-width="1.5" stroke-miterlimit="10"/>
<path d="M83.8499 15.4V0.790039" stroke="white" stroke-width="1.5" stroke-miterlimit="10"/>
<path d="M63.2898 15.4V0.790039" stroke="white" stroke-width="1.5" stroke-miterlimit="10"/>
<path d="M42.73 15.4V0.790039" stroke="white" stroke-width="1.5" stroke-miterlimit="10"/>
<path d="M22.1699 15.4V0.790039" stroke="white" stroke-width="1.5" stroke-miterlimit="10"/>
<path d="M1.60986 0.790039V15.4H309.65V0.790039" stroke="white" stroke-width="1.5" stroke-miterlimit="10"/>
</svg>
