<svg width="103" height="41" viewBox="0 0 103 41" fill="none" xmlns="http://www.w3.org/2000/svg">
<path fill-rule="evenodd" clip-rule="evenodd" d="M39.61 1L1 39.51C1 39.51 1 39.56 1.02 39.56H62.54L101.2 1H39.6H39.61Z" stroke="#72D8FF" stroke-width="2" stroke-linejoin="round"/>
<path d="M46.5809 25.8649C44.432 25.8649 43.1426 24.3937 43.1426 22.0134V17.6991C43.1426 15.3353 44.432 13.8641 46.5809 13.8641C48.7298 13.8641 50.0026 15.3353 50.0026 17.6991V22.0134C50.0026 24.3937 48.7298 25.8649 46.5809 25.8649ZM46.5809 24.5425C47.9198 24.5425 48.6141 23.6334 48.6141 22.0134V17.6991C48.6141 16.0957 47.9198 15.1865 46.5809 15.1865C45.2254 15.1865 44.5311 16.0957 44.5311 17.6991V22.0134C44.5311 23.6334 45.2254 24.5425 46.5809 24.5425ZM57.3987 14.079H58.7376V25.65H57.3657L54.5225 19.4347C54.1588 18.6082 53.6299 17.2858 53.3819 16.6246L53.3323 16.6412C53.3985 17.666 53.4646 19.2033 53.4646 20.1951V25.65H52.1091V14.079H53.4811L56.3739 20.3935C56.754 21.1869 57.2665 22.4101 57.531 23.0879L57.5805 23.0713C57.4979 22.063 57.3987 20.4431 57.3987 19.4347V14.079Z" fill="#72D8FF"/>
</svg>
