<svg width="543" height="71" viewBox="0 0 543 71" fill="none" xmlns="http://www.w3.org/2000/svg">
<path d="M1.20711 70.5L71.2071 0.5H217.207H481.707H541.207L471.207 70.5M1.20711 70.5C1.20711 70.5 103.272 70.5 114.207 70.5M1.20711 70.5H114.207M471.207 70.5C471.207 70.5 267.683 70.5 114.207 70.5M471.207 70.5H114.207" stroke="#72D8FF"/>
<path d="M144.007 51.5V23.5H147.967V35.74C147.967 37.74 147.807 41.38 147.527 43.82L147.647 43.9C148.167 42.54 148.887 40.58 149.647 38.94L156.447 23.5H160.567V51.5H156.607V39.3C156.607 37.18 156.767 33.42 156.967 31.1L156.847 31.02C156.327 32.46 155.527 34.62 154.847 36.18L148.087 51.5H144.007ZM176.756 36.98C180.356 37.98 181.596 40.5 181.596 43.74C181.596 48.94 177.876 52.02 172.956 52.02C167.596 52.02 164.436 48.22 164.196 43.5H168.276C168.436 45.98 169.916 48.14 172.916 48.14C175.556 48.14 177.516 46.46 177.516 43.54C177.516 40.5 175.476 38.9 172.516 38.9H170.396V35.3H172.156C175.076 35.3 176.796 33.94 176.796 30.9C176.796 28.34 175.396 26.82 172.916 26.82C169.996 26.82 168.836 28.74 168.676 31.54H164.676C164.956 26.42 167.716 22.94 172.916 22.94C177.716 22.94 180.876 25.94 180.876 30.94C180.876 33.9 179.756 35.86 176.756 36.98ZM197.496 37.1C199.896 38.1 201.376 40.46 201.376 43.5C201.376 48.5 198.176 51.5 193.296 51.5H185.296V23.5H192.896C197.416 23.5 200.336 26.42 200.336 31.1C200.336 33.82 199.216 36.02 197.496 37.1ZM192.416 27.3H189.336V35.34H192.536C194.976 35.34 196.216 33.94 196.216 31.22C196.216 28.58 195.016 27.3 192.416 27.3ZM192.776 47.7C195.736 47.7 197.256 46.34 197.256 43.5C197.256 40.62 195.456 39.14 192.616 39.14H189.336V47.7H192.776ZM209.219 47.7H219.299V51.5H205.179V23.5H218.899V27.3H209.219V35.42H218.139V39.14H209.219V47.7ZM230.936 51.98C226.016 51.98 222.816 48.9 222.816 43.26V31.74C222.816 26.06 225.976 22.98 230.896 22.98C235.976 22.98 238.976 26.02 239.216 31.58H235.216C234.976 28.3 233.536 26.82 230.856 26.82C228.496 26.82 226.936 28.38 226.936 31.74V43.26C226.936 46.58 228.496 48.14 230.936 48.14C233.656 48.14 235.096 46.62 235.376 43.42H239.376C239.096 48.94 236.096 51.98 230.936 51.98ZM256.905 23.5V27.34H251.065V51.5H246.945V27.34H241.145V23.5H256.905ZM272.1 23.5H276.14V51.5H272.1V39.22H264.18V51.5H260.14V23.5H264.18V35.42H272.1V23.5ZM281.741 51.5V23.5H285.861V34.7H288.701C294.261 34.7 297.181 38.02 297.181 43.1C297.181 48.62 294.261 51.5 288.701 51.5H281.741ZM300.501 51.5V23.5H304.541V51.5H300.501ZM285.861 47.74H288.501C291.341 47.74 292.981 46.22 292.981 43.1C292.981 40.06 291.341 38.54 288.501 38.54H285.861V47.74ZM314.141 47.7H324.221V51.5H310.101V23.5H323.821V27.3H314.141V35.42H323.061V39.14H314.141V47.7ZM349.092 23.5H353.132V51.5H349.092V39.22H341.172V51.5H337.132V23.5H341.172V35.42H349.092V23.5ZM358.734 51.5V23.5H362.694V35.74C362.694 37.74 362.534 41.38 362.254 43.82L362.374 43.9C362.894 42.54 363.614 40.58 364.374 38.94L371.174 23.5H375.294V51.5H371.334V39.3C371.334 37.18 371.494 33.42 371.694 31.1L371.574 31.02C371.054 32.46 370.254 34.62 369.574 36.18L362.814 51.5H358.734ZM380.882 51.5V23.5H384.842V35.74C384.842 37.74 384.682 41.38 384.402 43.82L384.522 43.9C385.042 42.54 385.762 40.58 386.522 38.94L393.322 23.5H397.442V51.5H393.482V39.3C393.482 37.18 393.642 33.42 393.842 31.1L393.722 31.02C393.202 32.46 392.402 34.62 391.722 36.18L384.962 51.5H380.882Z" fill="#72D8FF"/>
</svg>
