<svg width="581" height="71" viewBox="0 0 581 71" fill="none" xmlns="http://www.w3.org/2000/svg">
<path d="M1.20703 70.5L71.207 0.5H217.207H481.707H579.207L509.207 70.5M1.20703 70.5C1.20703 70.5 103.272 70.5 114.207 70.5M1.20703 70.5H114.207M509.207 70.5C509.207 70.5 267.683 70.5 114.207 70.5M509.207 70.5H114.207" stroke="#72D8FF"/>
<path d="M157.087 51.5L155.607 45.42H147.487L146.007 51.5H142.567L149.767 23.5H153.327L160.527 51.5H157.087ZM148.207 42.38H154.887L152.607 32.9C152.167 31.1 151.767 28.74 151.607 27.66H151.487C151.327 28.74 150.927 31.1 150.487 32.9L148.207 42.38ZM175.199 37.06C177.839 37.9 179.439 40.3 179.439 43.66C179.439 48.66 176.359 51.5 171.439 51.5H163.799V23.5H170.919C175.519 23.5 178.359 26.26 178.359 30.94C178.359 33.98 177.119 36.18 175.199 37.06ZM170.679 26.58H167.079V35.66H170.759C173.599 35.66 174.999 34.06 174.999 31.02C174.999 27.98 173.599 26.58 170.679 26.58ZM171.159 48.42C174.479 48.42 176.119 46.94 176.119 43.66C176.119 40.42 174.039 38.74 170.879 38.74H167.079V48.42H171.159ZM183.408 51.5V23.5H186.648V38.42C186.648 40.1 186.568 43.22 186.408 45.14L186.528 45.22C186.968 44.06 187.728 42.1 188.488 40.46L195.928 23.5H199.448V51.5H196.208V36.26C196.208 34.58 196.288 31.5 196.368 29.78L196.288 29.7C195.888 30.74 195.088 32.82 194.528 34.1L186.848 51.5H183.408ZM217.243 51.5L215.763 45.42H207.643L206.163 51.5H202.723L209.923 23.5H213.483L220.683 51.5H217.243ZM208.363 42.38H215.043L212.763 32.9C212.323 31.1 211.923 28.74 211.763 27.66H211.643C211.483 28.74 211.083 31.1 210.643 32.9L208.363 42.38ZM238.595 56.14V51.5H223.955V23.5H227.275V48.42H235.995V23.5H239.275V48.42H241.795V56.14H238.595ZM245.635 51.5V23.5H248.875V38.42C248.875 40.1 248.795 43.22 248.635 45.14L248.755 45.22C249.195 44.06 249.955 42.1 250.715 40.46L258.155 23.5H261.675V51.5H258.435V36.26C258.435 34.58 258.515 31.5 258.595 29.78L258.515 29.7C258.115 30.74 257.315 32.82 256.755 34.1L249.075 51.5H245.635ZM265.47 51.5L271.91 40.5C268.35 39.62 266.35 36.58 266.35 32.26C266.35 26.7 269.43 23.5 274.51 23.5H281.31V51.5H278.03V40.9H275.31L269.19 51.5H265.47ZM274.47 37.82H278.03V26.58H274.55C271.35 26.58 269.71 28.5 269.71 32.18C269.71 35.78 271.35 37.82 274.47 37.82ZM296.025 51.5V23.5H299.265V38.42C299.265 40.1 299.185 43.22 299.025 45.14L299.145 45.22C299.585 44.06 300.345 42.1 301.105 40.46L308.545 23.5H312.065V51.5H308.825V36.26C308.825 34.58 308.905 31.5 308.985 29.78L308.905 29.7C308.505 30.74 307.705 32.82 307.145 34.1L299.465 51.5H296.025ZM339.728 51.5L331.968 38.54L330.048 41.34V51.5H326.768V23.5H330.048V36.3L332.128 32.94L338.448 23.5H342.408L333.928 35.7L343.528 51.5H339.728ZM353.273 52.02C348.073 52.02 344.953 48.46 344.953 42.7V32.26C344.953 26.54 348.073 22.98 353.273 22.98C358.473 22.98 361.553 26.54 361.553 32.26V42.7C361.553 48.46 358.473 52.02 353.273 52.02ZM353.273 48.82C356.513 48.82 358.193 46.62 358.193 42.7V32.26C358.193 28.38 356.513 26.18 353.273 26.18C349.993 26.18 348.313 28.38 348.313 32.26V42.7C348.313 46.62 349.993 48.82 353.273 48.82ZM373.77 51.98C369.05 51.98 365.89 48.94 365.89 43.42V31.58C365.89 26.06 369.01 22.98 373.69 22.98C378.49 22.98 381.45 25.94 381.73 31.34H378.49C378.25 27.74 376.57 26.06 373.65 26.06C370.97 26.06 369.17 27.82 369.17 31.58V43.42C369.17 47.14 371.05 48.9 373.77 48.9C376.73 48.9 378.37 47.18 378.69 43.66H381.93C381.61 48.98 378.65 51.98 373.77 51.98ZM403.664 23.5H407.064V51.5H403.824V38.66C403.864 35.62 403.944 32.9 404.104 30.18L403.944 30.14C403.184 32.26 402.144 34.86 401.144 37.5L398.224 45.06H394.984L392.024 37.5C391.064 34.86 389.984 32.26 389.264 30.14L389.064 30.18C389.224 32.9 389.344 35.62 389.344 38.66V51.5H386.104V23.5H389.544L394.384 35.22C395.064 36.9 396.064 39.66 396.504 41.1H396.664C397.144 39.66 398.144 36.9 398.824 35.22L403.664 23.5ZM420.5 52.02C415.3 52.02 412.18 48.46 412.18 42.7V32.26C412.18 26.54 415.3 22.98 420.5 22.98C425.7 22.98 428.78 26.54 428.78 32.26V42.7C428.78 48.46 425.7 52.02 420.5 52.02ZM420.5 48.82C423.74 48.82 425.42 46.62 425.42 42.7V32.26C425.42 28.38 423.74 26.18 420.5 26.18C417.22 26.18 415.54 28.38 415.54 32.26V42.7C415.54 46.62 417.22 48.82 420.5 48.82ZM440.997 51.98C436.277 51.98 433.117 48.94 433.117 43.42V31.58C433.117 26.06 436.237 22.98 440.917 22.98C445.717 22.98 448.677 25.94 448.957 31.34H445.717C445.477 27.74 443.797 26.06 440.877 26.06C438.197 26.06 436.397 27.82 436.397 31.58V43.42C436.397 47.14 438.277 48.9 440.997 48.9C443.957 48.9 445.597 47.18 445.917 43.66H449.157C448.837 48.98 445.877 51.98 440.997 51.98Z" fill="#72D8FF"/>
</svg>
