<svg width="635" height="71" viewBox="0 0 635 71" fill="none" xmlns="http://www.w3.org/2000/svg">
<path d="M1.20703 70.4998L71.207 0.499779H217.207L623.707 0.5H633.207L563.207 70.5M1.20703 70.4998C1.20703 70.4998 103.272 70.4998 114.207 70.4998M1.20703 70.4998H114.207M563.207 70.5C563.207 70.5 267.683 70.4998 114.207 70.4998M563.207 70.5L114.207 70.4998" stroke="#72D8FF"/>
<path d="M151.527 34.7C156.607 34.7 159.767 37.86 159.767 43.02C159.767 48.46 156.607 51.5 151.527 51.5H144.127V23.5H158.247V26.58H147.447V34.7H151.527ZM151.407 48.42C154.407 48.42 156.407 46.62 156.407 43.02C156.407 39.5 154.407 37.74 151.407 37.74H147.447V48.42H151.407ZM167.251 48.42H177.811V51.5H163.971V23.5H177.371V26.54H167.251V35.78H176.651V38.78H167.251V48.42ZM189.411 51.98C184.691 51.98 181.531 48.94 181.531 43.42V31.58C181.531 26.06 184.651 22.98 189.331 22.98C194.131 22.98 197.091 25.94 197.371 31.34H194.131C193.891 27.74 192.211 26.06 189.291 26.06C186.611 26.06 184.811 27.82 184.811 31.58V43.42C184.811 47.14 186.691 48.9 189.411 48.9C192.371 48.9 194.011 47.18 194.331 43.66H197.571C197.251 48.98 194.291 51.98 189.411 51.98ZM217.224 23.5V51.5H213.944V26.58H205.024V51.5H201.744V23.5H217.224ZM223.072 51.5V23.5H226.312V38.42C226.312 40.1 226.232 43.22 226.072 45.14L226.192 45.22C226.632 44.06 227.392 42.1 228.152 40.46L235.592 23.5H239.112V51.5H235.872V36.26C235.872 34.58 235.952 31.5 236.032 29.78L235.952 29.7C235.552 30.74 234.752 32.82 234.192 34.1L226.512 51.5H223.072ZM246.307 23.5H259.267V51.5H255.987V26.58H249.467C249.067 35.06 248.707 42.22 248.227 45.62C247.627 49.98 245.547 51.9 242.027 51.9V48.82C243.827 48.82 244.707 47.5 245.067 44.98C245.467 42.02 245.867 34.94 246.307 23.5ZM272.703 52.02C267.503 52.02 264.383 48.46 264.383 42.7V32.26C264.383 26.54 267.503 22.98 272.703 22.98C277.903 22.98 280.983 26.54 280.983 32.26V42.7C280.983 48.46 277.903 52.02 272.703 52.02ZM272.703 48.82C275.943 48.82 277.623 46.62 277.623 42.7V32.26C277.623 28.38 275.943 26.18 272.703 26.18C269.423 26.18 267.743 28.38 267.743 32.26V42.7C267.743 46.62 269.423 48.82 272.703 48.82ZM298.535 23.5V26.58H292.535V51.5H289.215V26.58H283.215V23.5H298.535ZM314.218 23.5H317.538V51.5H314.218V38.82H305.338V51.5H302.018V23.5H305.338V35.74H314.218V23.5ZM323.385 51.5V23.5H326.625V38.42C326.625 40.1 326.545 43.22 326.385 45.14L326.505 45.22C326.945 44.06 327.705 42.1 328.465 40.46L335.905 23.5H339.425V51.5H336.185V36.26C336.185 34.58 336.265 31.5 336.345 29.78L336.265 29.7C335.865 30.74 335.065 32.82 334.505 34.1L326.825 51.5H323.385ZM358.22 51.5L350.46 38.54L348.54 41.34V51.5H345.26V23.5H348.54V36.3L350.62 32.94L356.94 23.5H360.9L352.42 35.7L362.02 51.5H358.22ZM364.869 51.5V23.5H368.109V38.42C368.109 40.1 368.029 43.22 367.869 45.14L367.989 45.22C368.429 44.06 369.189 42.1 369.949 40.46L377.389 23.5H380.909V51.5H377.669V36.26C377.669 34.58 377.749 31.5 377.829 29.78L377.749 29.7C377.349 30.74 376.549 32.82 375.989 34.1L368.309 51.5H364.869ZM402.091 56.34C398.131 56.18 395.611 53.46 395.611 49.3V25.7C395.611 21.58 398.131 18.86 402.091 18.7V21.66C400.051 21.78 398.771 23.26 398.771 25.58V49.42C398.771 51.78 400.051 53.22 402.091 53.38V56.34ZM413.168 34.7C418.248 34.7 421.408 37.86 421.408 43.02C421.408 48.46 418.248 51.5 413.168 51.5H405.768V23.5H419.888V26.58H409.088V34.7H413.168ZM413.048 48.42C416.048 48.42 418.048 46.62 418.048 43.02C418.048 39.5 416.048 37.74 413.048 37.74H409.088V48.42H413.048ZM441.091 23.5V51.5H437.811V26.58H428.891V51.5H425.611V23.5H441.091ZM448.3 23.5H461.26V51.5H457.98V26.58H451.46C451.06 35.06 450.7 42.22 450.22 45.62C449.62 49.98 447.54 51.9 444.02 51.9V48.82C445.82 48.82 446.7 47.5 447.06 44.98C447.46 42.02 447.86 34.94 448.3 23.5ZM479.095 51.5L477.615 45.42H469.495L468.015 51.5H464.575L471.775 23.5H475.335L482.535 51.5H479.095ZM470.215 42.38H476.895L474.615 32.9C474.175 31.1 473.775 28.74 473.615 27.66H473.495C473.335 28.74 472.935 31.1 472.495 32.9L470.215 42.38ZM483.714 56.34V53.38C485.754 53.22 487.034 51.78 487.034 49.42V25.58C487.034 23.26 485.754 21.78 483.714 21.66V18.7C487.674 18.86 490.194 21.58 490.194 25.7V49.3C490.194 53.46 487.674 56.18 483.714 56.34Z" fill="#72D8FF"/>
</svg>
