<svg width="1104" height="71" viewBox="0 0 1104 71" fill="none" xmlns="http://www.w3.org/2000/svg">
<path d="M1.20703 70.5L71.207 0.5H217.207H1093.21H1102.71L1032.71 70.5M1.20703 70.5C1.20703 70.5 103.272 70.5 114.207 70.5M1.20703 70.5H114.207M1032.71 70.5C1032.71 70.5 267.683 70.5 114.207 70.5M1032.71 70.5H114.207" stroke="#72D8FF"/>
<path d="M161.687 23.5H165.087V51.5H161.847V38.66C161.887 35.62 161.967 32.9 162.127 30.18L161.967 30.14C161.207 32.26 160.167 34.86 159.167 37.5L156.247 45.06H153.007L150.047 37.5C149.087 34.86 148.007 32.26 147.287 30.14L147.087 30.18C147.247 32.9 147.367 35.62 147.367 38.66V51.5H144.127V23.5H147.567L152.407 35.22C153.087 36.9 154.087 39.66 154.527 41.1H154.687C155.167 39.66 156.167 36.9 156.847 35.22L161.687 23.5ZM182.923 51.5L181.443 45.42H173.323L171.843 51.5H168.403L175.603 23.5H179.163L186.363 51.5H182.923ZM174.043 42.38H180.723L178.443 32.9C178.003 31.1 177.603 28.74 177.443 27.66H177.323C177.163 28.74 176.763 31.1 176.323 32.9L174.043 42.38ZM196.208 51.98C191.488 51.98 188.328 48.94 188.328 43.42V31.58C188.328 26.06 191.448 22.98 196.128 22.98C200.928 22.98 203.888 25.94 204.168 31.34H200.928C200.688 27.74 199.008 26.06 196.088 26.06C193.408 26.06 191.608 27.82 191.608 31.58V43.42C191.608 47.14 193.488 48.9 196.208 48.9C199.168 48.9 200.808 47.18 201.128 43.66H204.368C204.048 48.98 201.088 51.98 196.208 51.98ZM221.543 23.5V26.58H215.543V51.5H212.223V26.58H206.223V23.5H221.543ZM228.305 48.42H238.865V51.5H225.025V23.5H238.425V26.54H228.305V35.78H237.705V38.78H228.305V48.42ZM250.426 23.5C255.746 23.5 258.746 26.7 258.746 32.34C258.746 38.14 255.746 41.3 250.426 41.3H246.626V51.5H243.346V23.5H250.426ZM250.426 38.18C253.786 38.18 255.426 36.34 255.426 32.34C255.426 28.54 253.786 26.62 250.426 26.62H246.626V38.18H250.426ZM273.314 51.5L271.834 45.42H263.714L262.234 51.5H258.794L265.994 23.5H269.554L276.754 51.5H273.314ZM264.434 42.38H271.114L268.834 32.9C268.394 31.1 267.994 28.74 267.834 27.66H267.714C267.554 28.74 267.154 31.1 266.714 32.9L264.434 42.38ZM301.973 23.5V26.58H295.973V51.5H292.653V26.58H286.653V23.5H301.973ZM303.454 51.5L309.894 40.5C306.334 39.62 304.334 36.58 304.334 32.26C304.334 26.7 307.414 23.5 312.494 23.5H319.294V51.5H316.014V40.9H313.294L307.174 51.5H303.454ZM312.454 37.82H316.014V26.58H312.534C309.334 26.58 307.694 28.5 307.694 32.18C307.694 35.78 309.334 37.82 312.454 37.82ZM338.263 23.5V26.58H328.423V51.5H325.143V23.5H338.263ZM341.861 51.5V23.5H345.101V38.42C345.101 40.1 345.021 43.22 344.861 45.14L344.981 45.22C345.421 44.06 346.181 42.1 346.941 40.46L354.381 23.5H357.901V51.5H354.661V36.26C354.661 34.58 354.741 31.5 354.821 29.78L354.741 29.7C354.341 30.74 353.541 32.82 352.981 34.1L345.301 51.5H341.861ZM364.496 38.14C363.216 38.14 362.336 37.26 362.336 35.94C362.336 34.66 363.216 33.78 364.496 33.78C365.776 33.78 366.656 34.66 366.656 35.94C366.656 37.26 365.776 38.14 364.496 38.14ZM364.496 51.94C363.216 51.94 362.336 51.06 362.336 49.74C362.336 48.46 363.216 47.58 364.496 47.58C365.776 47.58 366.656 48.46 366.656 49.74C366.656 51.06 365.776 51.94 364.496 51.94ZM381.112 23.5H394.072V51.5H390.792V26.58H384.272C383.872 35.06 383.512 42.22 383.032 45.62C382.432 49.98 380.352 51.9 376.832 51.9V48.82C378.632 48.82 379.512 47.5 379.872 44.98C380.272 42.02 380.672 34.94 381.112 23.5ZM399.947 51.5V23.5H403.187V38.42C403.187 40.1 403.107 43.22 402.947 45.14L403.067 45.22C403.507 44.06 404.267 42.1 405.027 40.46L412.467 23.5H415.987V51.5H412.747V36.26C412.747 34.58 412.827 31.5 412.907 29.78L412.827 29.7C412.427 30.74 411.627 32.82 411.067 34.1L403.387 51.5H399.947ZM436.944 48.42H439.384V56.14H436.184V51.5H422.264V56.14H419.064V48.42H420.664C422.504 46.58 423.624 42.58 423.784 37.86L424.264 23.5H436.944V48.42ZM433.664 48.42V26.58H427.344L426.904 38.78C426.744 42.98 425.944 46.18 424.624 48.42H433.664ZM446.509 48.42H457.069V51.5H443.229V23.5H456.629V26.54H446.509V35.78H455.909V38.78H446.509V48.42ZM468.629 23.5C473.949 23.5 476.949 26.7 476.949 32.34C476.949 38.14 473.949 41.3 468.629 41.3H464.829V51.5H461.549V23.5H468.629ZM468.629 38.18C471.989 38.18 473.629 36.34 473.629 32.34C473.629 28.54 471.989 26.62 468.629 26.62H464.829V38.18H468.629ZM480.533 51.5V23.5H483.893V34.94H487.293C492.573 34.94 495.653 38.1 495.653 43.18C495.653 48.5 492.573 51.5 487.293 51.5H480.533ZM499.253 51.5V23.5H502.533V51.5H499.253ZM483.893 48.42H487.173C490.333 48.42 492.253 46.66 492.253 43.18C492.253 39.78 490.333 38.06 487.173 38.06H483.893V48.42ZM532.491 48.42H534.931V56.14H531.731V51.5H517.811V56.14H514.611V48.42H516.211C518.051 46.58 519.171 42.58 519.331 37.86L519.811 23.5H532.491V48.42ZM529.211 48.42V26.58H522.891L522.451 38.78C522.291 42.98 521.491 46.18 520.171 48.42H529.211ZM550.175 37.06C552.815 37.9 554.415 40.3 554.415 43.66C554.415 48.66 551.335 51.5 546.415 51.5H538.775V23.5H545.895C550.495 23.5 553.335 26.26 553.335 30.94C553.335 33.98 552.095 36.18 550.175 37.06ZM545.655 26.58H542.055V35.66H545.735C548.575 35.66 549.975 34.06 549.975 31.02C549.975 27.98 548.575 26.58 545.655 26.58ZM546.135 48.42C549.455 48.42 551.095 46.94 551.095 43.66C551.095 40.42 549.015 38.74 545.855 38.74H542.055V48.42H546.135ZM558.385 51.5V23.5H561.625V38.42C561.625 40.1 561.545 43.22 561.385 45.14L561.505 45.22C561.945 44.06 562.705 42.1 563.465 40.46L570.905 23.5H574.425V51.5H571.185V36.26C571.185 34.58 571.265 31.5 571.345 29.78L571.265 29.7C570.865 30.74 570.065 32.82 569.505 34.1L561.825 51.5H558.385ZM593.38 23.5V26.58H583.54V51.5H580.26V23.5H593.38ZM606.79 51.5L605.31 45.42H597.19L595.71 51.5H592.27L599.47 23.5H603.03L610.23 51.5H606.79ZM597.91 42.38H604.59L602.31 32.9C601.87 31.1 601.47 28.74 601.31 27.66H601.19C601.03 28.74 600.63 31.1 600.19 32.9L597.91 42.38ZM625.137 23.5V26.58H619.137V51.5H615.817V26.58H609.817V23.5H625.137ZM631.899 48.42H642.459V51.5H628.619V23.5H642.019V26.54H631.899V35.78H641.299V38.78H631.899V48.42ZM648.3 23.5H661.26V51.5H657.98V26.58H651.46C651.06 35.06 650.7 42.22 650.22 45.62C649.62 49.98 647.54 51.9 644.02 51.9V48.82C645.82 48.82 646.7 47.5 647.06 44.98C647.46 42.02 647.86 34.94 648.3 23.5ZM670.415 48.42H680.975V51.5H667.135V23.5H680.535V26.54H670.415V35.78H679.815V38.78H670.415V48.42ZM692.575 51.98C687.855 51.98 684.695 48.94 684.695 43.42V31.58C684.695 26.06 687.815 22.98 692.495 22.98C697.295 22.98 700.255 25.94 700.535 31.34H697.295C697.055 27.74 695.375 26.06 692.455 26.06C689.775 26.06 687.975 27.82 687.975 31.58V43.42C687.975 47.14 689.855 48.9 692.575 48.9C695.535 48.9 697.175 47.18 697.495 43.66H700.735C700.415 48.98 697.455 51.98 692.575 51.98ZM717.91 23.5V26.58H711.91V51.5H708.59V26.58H702.59V23.5H717.91ZM728.473 23.5C733.793 23.5 736.793 26.7 736.793 32.34C736.793 38.14 733.793 41.3 728.473 41.3H724.673V51.5H721.393V23.5H728.473ZM728.473 38.18C731.833 38.18 733.473 36.34 733.473 32.34C733.473 28.54 731.833 26.62 728.473 26.62H724.673V38.18H728.473ZM748.601 52.02C743.401 52.02 740.281 48.46 740.281 42.7V32.26C740.281 26.54 743.401 22.98 748.601 22.98C753.801 22.98 756.881 26.54 756.881 32.26V42.7C756.881 48.46 753.801 52.02 748.601 52.02ZM748.601 48.82C751.841 48.82 753.521 46.62 753.521 42.7V32.26C753.521 28.38 751.841 26.18 748.601 26.18C745.321 26.18 743.641 28.38 743.641 32.26V42.7C743.641 46.62 745.321 48.82 748.601 48.82ZM765.259 48.42H775.819V51.5H761.979V23.5H775.379V26.54H765.259V35.78H774.659V38.78H765.259V48.42ZM792.499 23.5H795.819V51.5H792.499V38.82H783.619V51.5H780.299V23.5H783.619V35.74H792.499V23.5ZM801.666 51.5V23.5H804.906V38.42C804.906 40.1 804.826 43.22 804.666 45.14L804.786 45.22C805.226 44.06 805.986 42.1 806.746 40.46L814.186 23.5H817.706V51.5H814.466V36.26C814.466 34.58 814.546 31.5 814.626 29.78L814.546 29.7C814.146 30.74 813.346 32.82 812.786 34.1L805.106 51.5H801.666ZM821.501 51.5L827.941 40.5C824.381 39.62 822.381 36.58 822.381 32.26C822.381 26.7 825.461 23.5 830.541 23.5H837.341V51.5H834.061V40.9H831.341L825.221 51.5H821.501ZM830.501 37.82H834.061V26.58H830.581C827.381 26.58 825.741 28.5 825.741 32.18C825.741 35.78 827.381 37.82 830.501 37.82ZM859.137 23.5C864.457 23.5 867.457 26.7 867.457 32.34C867.457 38.14 864.457 41.3 859.137 41.3H855.337V51.5H852.057V23.5H859.137ZM859.137 38.18C862.497 38.18 864.137 36.34 864.137 32.34C864.137 28.54 862.497 26.62 859.137 26.62H855.337V38.18H859.137ZM879.265 52.02C874.065 52.02 870.945 48.46 870.945 42.7V32.26C870.945 26.54 874.065 22.98 879.265 22.98C884.465 22.98 887.545 26.54 887.545 32.26V42.7C887.545 48.46 884.465 52.02 879.265 52.02ZM879.265 48.82C882.505 48.82 884.185 46.62 884.185 42.7V32.26C884.185 28.38 882.505 26.18 879.265 26.18C875.985 26.18 874.305 28.38 874.305 32.26V42.7C874.305 46.62 875.985 48.82 879.265 48.82ZM899.763 51.98C895.043 51.98 891.883 48.94 891.883 43.42V31.58C891.883 26.06 895.003 22.98 899.683 22.98C904.483 22.98 907.443 25.94 907.723 31.34H904.483C904.243 27.74 902.563 26.06 899.643 26.06C896.963 26.06 895.163 27.82 895.163 31.58V43.42C895.163 47.14 897.043 48.9 899.763 48.9C902.723 48.9 904.363 47.18 904.683 43.66H907.923C907.603 48.98 904.643 51.98 899.763 51.98ZM919.216 51.98C914.496 51.98 911.336 48.94 911.336 43.42V31.58C911.336 26.06 914.456 22.98 919.136 22.98C923.936 22.98 926.896 25.94 927.176 31.34H923.936C923.696 27.74 922.016 26.06 919.096 26.06C916.416 26.06 914.616 27.82 914.616 31.58V43.42C914.616 47.14 916.496 48.9 919.216 48.9C922.176 48.9 923.816 47.18 924.136 43.66H927.376C927.056 48.98 924.096 51.98 919.216 51.98ZM931.549 51.5V23.5H934.789V38.42C934.789 40.1 934.709 43.22 934.549 45.14L934.669 45.22C935.109 44.06 935.869 42.1 936.629 40.46L944.069 23.5H947.589V51.5H944.349V36.26C944.349 34.58 944.429 31.5 944.509 29.78L944.429 29.7C944.029 30.74 943.229 32.82 942.669 34.1L934.989 51.5H931.549ZM953.424 51.5V23.5H956.664V38.42C956.664 40.1 956.584 43.22 956.424 45.14L956.544 45.22C956.984 44.06 957.744 42.1 958.504 40.46L965.944 23.5H969.464V51.5H966.224V36.26C966.224 34.58 966.304 31.5 966.384 29.78L966.304 29.7C965.904 30.74 965.104 32.82 964.544 34.1L956.864 51.5H953.424Z" fill="#72D8FF"/>
</svg>
