<svg width="898" height="378" viewBox="0 0 898 378" fill="none" xmlns="http://www.w3.org/2000/svg">
<g filter="url(#filter0_f_161_355)">
<ellipse cx="449" cy="263" rx="240.5" ry="54.5" fill="white" fill-opacity="0.2"/>
</g>
<path d="M256.5 317.5H208.5L317.5 208.5H580.5L689.5 317.5H536H256.5Z" fill="white" fill-opacity="0.4" stroke="white"/>
<path d="M452.424 252.3H455.412V277.5H452.424V266.088H444.432V277.5H441.444V252.3H444.432V263.316H452.424V252.3ZM471.439 277.5L470.107 272.028H462.799L461.467 277.5H458.371L464.851 252.3H468.055L474.535 277.5H471.439ZM463.447 269.292H469.459L467.407 260.76C467.011 259.14 466.651 257.016 466.507 256.044H466.399C466.255 257.016 465.895 259.14 465.499 260.76L463.447 269.292ZM486.444 264.468C489.72 265.332 490.944 267.636 490.944 270.624C490.944 275.232 487.776 277.968 483.492 277.968C478.884 277.968 476.076 274.764 475.896 270.516H478.884C479.028 273.144 480.576 275.124 483.456 275.124C486.084 275.124 487.956 273.396 487.956 270.552C487.956 267.456 485.868 265.872 483.024 265.872H481.044V263.208H482.736C485.508 263.208 487.38 261.876 487.38 258.816C487.38 256.188 485.94 254.64 483.42 254.64C480.612 254.64 479.424 256.44 479.208 259.32H476.256C476.544 254.784 478.956 251.796 483.42 251.796C487.596 251.796 490.332 254.424 490.332 258.924C490.332 261.696 489.252 263.532 486.444 264.468ZM505.224 277.5L503.892 272.028H496.584L495.252 277.5H492.156L498.636 252.3H501.84L508.32 277.5H505.224ZM497.232 269.292H503.244L501.192 260.76C500.796 259.14 500.436 257.016 500.292 256.044H500.184C500.04 257.016 499.68 259.14 499.284 260.76L497.232 269.292ZM525.156 274.728H527.352V281.676H524.472V277.5H511.944V281.676H509.064V274.728H510.504C512.16 273.072 513.168 269.472 513.312 265.224L513.744 252.3H525.156V274.728ZM522.204 274.728V255.072H516.516L516.12 266.052C515.976 269.832 515.256 272.712 514.068 274.728H522.204Z" fill="white"/>
<path fill-rule="evenodd" clip-rule="evenodd" d="M418.5 264.5L387.51 256.818L389.212 251.5H381.361L369.5 264.5L381.361 277.5H389.212L387.51 272.182L418.5 264.5Z" fill="white"/>
<defs>
<filter id="filter0_f_161_355" x="0" y="0" width="898" height="526" filterUnits="userSpaceOnUse" color-interpolation-filters="sRGB">
<feFlood flood-opacity="0" result="BackgroundImageFix"/>
<feBlend mode="normal" in="SourceGraphic" in2="BackgroundImageFix" result="shape"/>
<feGaussianBlur stdDeviation="104.25" result="effect1_foregroundBlur_161_355"/>
</filter>
</defs>
</svg>
