<svg width="842" height="275" viewBox="0 0 842 275" fill="none" xmlns="http://www.w3.org/2000/svg" xmlns:xlink="http://www.w3.org/1999/xlink">
<path fill-rule="evenodd" clip-rule="evenodd" d="M0.5 0.5V274.5H725V0.5H0.5Z" fill="#191919" fill-opacity="0.8"/>
<path fill-rule="evenodd" clip-rule="evenodd" d="M0.5 0.5V274.5H725V0.5H0.5Z"/>
<path d="M841.5 274.5V0.5H725V274.5H841.5Z" fill="#4C7484" fill-opacity="0.8"/>
<path d="M0.5 0.5V274.5H725M0.5 0.5C0.5 0.5 463.544 0.5 725 0.5M0.5 0.5H725M841.5 0.5V274.5H725M841.5 0.5C841.5 0.5 791.975 0.5 725 0.5M841.5 0.5H725M725 0.5C725 107.504 725 274.5 725 274.5M725 0.5V274.5" stroke="white"/>
</svg>
