<svg width="530" height="122" viewBox="0 0 530 122" fill="none" xmlns="http://www.w3.org/2000/svg">
<path d="M2.41408 0.999992L122.414 121L407.414 121.003L527.414 1.00253L2.41408 0.999992Z" stroke="#72D8FF" stroke-width="2"/>
<path d="M132.879 83.0026V44.5026H137.334V65.0176C137.334 67.3276 137.224 71.6176 137.004 74.2576L137.169 74.3676C137.774 72.7726 138.819 70.0776 139.864 67.8226L150.094 44.5026H154.934V83.0026H150.479V62.0476C150.479 59.7376 150.589 55.5026 150.699 53.1376L150.589 53.0276C150.039 54.4576 148.939 57.3176 148.169 59.0776L137.609 83.0026H132.879ZM179.732 44.5026H184.297V83.0026H179.732V65.5676H167.522V83.0026H162.957V44.5026H167.522V61.3326H179.732V44.5026ZM202.127 83.6626C195.637 83.6626 191.292 79.4826 191.292 71.8926V55.6126C191.292 48.0226 195.582 43.7876 202.017 43.7876C208.617 43.7876 212.687 47.8576 213.072 55.2826H208.617C208.287 50.3326 205.977 48.0226 201.962 48.0226C198.277 48.0226 195.802 50.4426 195.802 55.6126V71.8926C195.802 77.0076 198.387 79.4276 202.127 79.4276C206.197 79.4276 208.452 77.0626 208.892 72.2226H213.347C212.907 79.5376 208.837 83.6626 202.127 83.6626ZM236.963 44.5026V48.7376H228.713V83.0026H224.148V48.7376H215.898V44.5026H236.963ZM251.486 44.5026C258.801 44.5026 262.926 48.9026 262.926 56.6576C262.926 64.6326 258.801 68.9776 251.486 68.9776H246.261V83.0026H241.751V44.5026H251.486ZM251.486 64.6876C256.106 64.6876 258.361 62.1576 258.361 56.6576C258.361 51.4326 256.106 48.7926 251.486 48.7926H246.261V64.6876H251.486ZM282.258 44.5026H286.933L277.473 75.4676C275.823 80.8576 273.293 83.5526 267.958 83.5526H266.638V79.3726H268.068C271.038 79.3726 272.358 77.5026 273.403 74.0926L274.228 71.3976L264.493 44.5026H269.223L276.208 64.6876L282.258 44.5026ZM308.932 83.0026L298.262 65.1826L295.622 69.0326V83.0026H291.112V44.5026H295.622V62.1026L298.482 57.4826L307.172 44.5026H312.617L300.957 61.2776L314.157 83.0026H308.932ZM338.205 89.3826V83.0026H318.075V44.5026H322.64V78.7676H334.63V44.5026H339.14V78.7676H342.605V89.3826H338.205ZM347.884 83.0026V44.5026H352.339V65.0176C352.339 67.3276 352.229 71.6176 352.009 74.2576L352.174 74.3676C352.779 72.7726 353.824 70.0776 354.869 67.8226L365.099 44.5026H369.939V83.0026H365.484V62.0476C365.484 59.7376 365.594 55.5026 365.704 53.1376L365.594 53.0276C365.044 54.4576 363.944 57.3176 363.174 59.0776L352.614 83.0026H347.884ZM375.157 83.0026L384.012 67.8776C379.117 66.6676 376.367 62.4876 376.367 56.5476C376.367 48.9026 380.602 44.5026 387.587 44.5026H396.937V83.0026H392.427V68.4276H388.687L380.272 83.0026H375.157ZM387.532 64.1926H392.427V48.7376H387.642C383.242 48.7376 380.987 51.3776 380.987 56.4376C380.987 61.3876 383.242 64.1926 387.532 64.1926Z" fill="#72D8FF"/>
</svg>
