<svg width="842" height="275" viewBox="0 0 842 275" fill="none" xmlns="http://www.w3.org/2000/svg" xmlns:xlink="http://www.w3.org/1999/xlink">
<path fill-rule="evenodd" clip-rule="evenodd" d="M0.5 0.5V274.5H725V200V67.5V0.5H0.5Z" fill="#191919" fill-opacity="0.8"/>
<path fill-rule="evenodd" clip-rule="evenodd" d="M0.5 0.5V274.5H725V200V67.5V0.5H0.5Z"/>
<path d="M841.5 274.5V0.5H725V67.5V200V274.5H841.5Z" fill="#4C7484" fill-opacity="0.8"/>
<path d="M0.5 0.5V274.5H725M0.5 0.5C0.5 0.5 463.544 0.5 725 0.5M0.5 0.5H725M841.5 0.5V274.5H725M841.5 0.5C841.5 0.5 791.975 0.5 725 0.5M841.5 0.5H725M725 0.5V67.5M725 0.5C725 21.1437 725 44.0204 725 67.5M725 274.5C725 274.5 725 243.663 725 200M725 274.5V200M725 67.5C725 113.425 725 161.658 725 200M725 67.5V200" stroke="white"/>
<path d="M767.5 168.5L798.5 137.508L767.5 106.5V168.5Z" fill="#72D8FF"/>
<path d="M29.004 73.5V39.9H32.892V57.804C32.892 59.82 32.796 63.564 32.604 65.868L32.748 65.964C33.276 64.572 34.188 62.22 35.1 60.252L44.028 39.9H48.252V73.5H44.364V55.212C44.364 53.196 44.46 49.5 44.556 47.436L44.46 47.34C43.98 48.588 43.02 51.084 42.348 52.62L33.132 73.5H29.004ZM69.894 39.9H73.878V73.5H69.894V58.284H59.238V73.5H55.254V39.9H59.238V54.588H69.894V39.9ZM89.4386 74.076C83.7746 74.076 79.9826 70.428 79.9826 63.804V49.596C79.9826 42.972 83.7266 39.276 89.3426 39.276C95.1026 39.276 98.6546 42.828 98.9906 49.308H95.1026C94.8146 44.988 92.7986 42.972 89.2946 42.972C86.0786 42.972 83.9186 45.084 83.9186 49.596V63.804C83.9186 68.268 86.1746 70.38 89.4386 70.38C92.9906 70.38 94.9586 68.316 95.3426 64.092H99.2306C98.8466 70.476 95.2946 74.076 89.4386 74.076ZM119.841 39.9V43.596H112.641V73.5H108.657V43.596H101.457V39.9H119.841ZM132.516 39.9C138.9 39.9 142.5 43.74 142.5 50.508C142.5 57.468 138.9 61.26 132.516 61.26H127.956V73.5H124.02V39.9H132.516ZM132.516 57.516C136.548 57.516 138.516 55.308 138.516 50.508C138.516 45.948 136.548 43.644 132.516 43.644H127.956V57.516H132.516ZM159.371 39.9H163.451L155.195 66.924C153.755 71.628 151.547 73.98 146.891 73.98H145.739V70.332H146.987C149.579 70.332 150.731 68.7 151.643 65.724L152.363 63.372L143.867 39.9H147.995L154.091 57.516L159.371 39.9ZM182.65 73.5L173.338 57.948L171.034 61.308V73.5H167.098V39.9H171.034V55.26L173.53 51.228L181.114 39.9H185.866L175.69 54.54L187.21 73.5H182.65ZM208.197 79.068V73.5H190.629V39.9H194.613V69.804H205.077V39.9H209.013V69.804H212.037V79.068H208.197ZM216.645 73.5V39.9H220.533V57.804C220.533 59.82 220.437 63.564 220.245 65.868L220.389 65.964C220.917 64.572 221.829 62.22 222.741 60.252L231.669 39.9H235.893V73.5H232.005V55.212C232.005 53.196 232.101 49.5 232.197 47.436L232.101 47.34C231.621 48.588 230.661 51.084 229.989 52.62L220.773 73.5H216.645ZM240.447 73.5L248.175 60.3C243.903 59.244 241.503 55.596 241.503 50.412C241.503 43.74 245.199 39.9 251.295 39.9H259.455V73.5H255.519V60.78H252.255L244.911 73.5H240.447ZM251.247 57.084H255.519V43.596H251.343C247.503 43.596 245.535 45.9 245.535 50.316C245.535 54.636 247.503 57.084 251.247 57.084Z" fill="#72D8FF"/>
<path opacity="0.8" d="M41.7 104.3V129.5H39.468V106.388H30.504V129.5H28.272V104.3H41.7ZM53.1646 110.168C56.5846 110.168 59.0326 112.616 59.0326 117.404V122.84C59.0326 127.52 56.8006 129.932 53.1646 129.932C51.4726 129.932 49.8166 129.248 48.7726 127.808V135.98H46.6846V110.6H48.4126L48.7006 112.364C49.7086 110.96 51.3286 110.168 53.1646 110.168ZM56.8726 122.84V117.404C56.8726 113.696 55.3246 112.148 52.6966 112.148C50.5366 112.148 48.7726 113.804 48.7726 117.332V122.84C48.7726 125.864 50.3206 127.952 52.6966 127.952C55.4686 127.952 56.8726 126.44 56.8726 122.84ZM68.8575 110.168C72.4575 110.168 74.6535 112.58 74.6535 116.432V129.5H72.8175L72.6375 127.736C71.7735 128.996 70.3335 129.932 68.2815 129.932C64.8255 129.932 62.3055 127.808 62.3055 124.136C62.3055 120.5 64.6455 118.484 68.7855 118.484H72.5295V116.468C72.5295 113.696 71.2335 112.22 68.7855 112.22C66.6255 112.22 65.1495 113.444 65.0055 115.532H62.8815C63.0255 112.292 65.3655 110.168 68.8575 110.168ZM68.6055 127.844C71.0175 127.844 72.5295 126.332 72.5295 124.172V120.464H68.7135C65.9415 120.464 64.4655 121.76 64.4655 124.172C64.4655 126.656 66.1575 127.844 68.6055 127.844ZM87.9831 119.492C89.9271 120.248 91.0791 122.192 91.0791 124.064C91.0791 127.484 88.9551 129.5 84.9231 129.5H79.4151V110.636H84.3831C88.0551 110.636 90.1431 112.58 90.1431 115.676C90.1431 117.008 89.3871 118.52 87.9831 119.492ZM81.5031 112.652V118.7H84.3471C86.7951 118.7 88.0191 117.548 88.0191 115.676C88.0191 113.768 86.7951 112.652 84.3471 112.652H81.5031ZM84.8871 127.484C87.6231 127.484 88.9551 126.26 88.9551 124.064C88.9551 121.94 87.6231 120.716 84.8871 120.716H81.5031V127.484H84.8871ZM94.6377 129.5V110.6H96.7617V121.4C96.7617 122.804 96.7977 124.244 96.6897 125.648L96.7617 125.72C97.0857 124.964 97.6617 123.668 98.0217 122.912L104.07 110.6H106.266V129.5H104.142V119.312C104.142 117.332 104.214 115.784 104.286 114.272L104.214 114.236C103.962 115.064 103.314 116.396 102.702 117.656L96.8337 129.5H94.6377ZM108.825 129.644V127.592C111.057 127.592 111.453 124.532 111.705 120.752C111.921 117.26 111.993 114.128 112.065 110.6H121.785V129.5H119.661V112.616H114.153C114.081 115.424 113.901 119.024 113.793 121.076C113.469 126.764 112.209 129.644 108.825 129.644ZM132.068 110.168C135.668 110.168 137.864 112.58 137.864 116.432V129.5H136.028L135.848 127.736C134.984 128.996 133.544 129.932 131.492 129.932C128.036 129.932 125.516 127.808 125.516 124.136C125.516 120.5 127.856 118.484 131.996 118.484H135.74V116.468C135.74 113.696 134.444 112.22 131.996 112.22C129.836 112.22 128.36 113.444 128.216 115.532H126.092C126.236 112.292 128.576 110.168 132.068 110.168ZM131.816 127.844C134.228 127.844 135.74 126.332 135.74 124.172V120.464H131.924C129.152 120.464 127.676 121.76 127.676 124.172C127.676 126.656 129.368 127.844 131.816 127.844ZM148.477 133.64V127.484H149.845C150.853 125.576 151.465 122.552 151.717 118.952C151.897 116.144 152.005 113.408 152.041 110.6H161.833V127.484H163.921V133.64H161.833V129.5H150.565V133.64H148.477ZM152.185 127.484H159.709V112.616H154.057C154.021 114.848 153.949 117.044 153.769 119.276C153.481 122.948 152.941 125.648 152.185 127.484ZM165.743 129.644V127.592C167.975 127.592 168.371 124.532 168.623 120.752C168.839 117.26 168.911 114.128 168.983 110.6H178.703V129.5H176.579V112.616H171.071C170.999 115.424 170.819 119.024 170.711 121.076C170.387 126.764 169.127 129.644 165.743 129.644ZM188.122 110.6H193.342V129.5H191.218V122.588H188.338L184.018 129.5H181.498L186.07 122.48C183.694 121.976 182.146 119.708 182.146 116.612C182.146 113.012 184.522 110.6 188.122 110.6ZM191.218 120.608V112.652H188.122C185.71 112.652 184.306 114.128 184.306 116.612C184.306 119.168 185.53 120.608 187.906 120.608H191.218ZM214.542 110.6H216.666V129.5H214.542V122.372C213.318 123.02 212.058 123.128 210.762 123.128C207.594 123.128 204.93 120.68 204.93 115.712V110.6H207.054V115.712C207.054 119.528 208.746 121.04 210.942 121.04C212.166 121.04 213.354 120.968 214.542 120.248V110.6ZM219.215 129.644V127.592C221.447 127.592 221.843 124.532 222.095 120.752C222.311 117.26 222.383 114.128 222.455 110.6H232.175V129.5H230.051V112.616H224.543C224.471 115.424 224.291 119.024 224.183 121.076C223.859 126.764 222.599 129.644 219.215 129.644ZM246.995 123.704H249.119C248.831 127.664 246.491 129.86 242.531 129.86C238.859 129.86 236.447 127.448 236.447 123.128V116.9C236.447 112.58 238.895 110.168 242.567 110.168C246.347 110.168 248.867 112.58 248.867 116.9V121.076H238.607V123.128C238.607 126.296 240.119 127.772 242.603 127.772C245.339 127.772 246.707 126.476 246.995 123.704ZM242.603 112.256C240.119 112.256 238.607 113.732 238.607 116.9V119.096H246.743V116.9C246.743 113.732 245.195 112.256 242.603 112.256ZM262.446 110.6H264.57V129.5H262.446V120.716H255.246V129.5H253.122V110.6H255.246V118.7H262.446V110.6ZM275.161 129.932C271.381 129.932 268.861 127.52 268.861 123.092V117.008C268.861 112.58 271.381 110.168 275.161 110.168C278.941 110.168 281.461 112.58 281.461 117.008V123.092C281.461 127.52 278.941 129.932 275.161 129.932ZM275.161 127.844C277.717 127.844 279.301 126.368 279.301 123.092V117.008C279.301 113.732 277.717 112.256 275.161 112.256C272.605 112.256 271.021 113.732 271.021 117.008V123.092C271.021 126.368 272.605 127.844 275.161 127.844ZM294.315 119.492C296.259 120.248 297.411 122.192 297.411 124.064C297.411 127.484 295.287 129.5 291.255 129.5H285.747V110.636H290.715C294.387 110.636 296.475 112.58 296.475 115.676C296.475 117.008 295.719 118.52 294.315 119.492ZM287.835 112.652V118.7H290.679C293.127 118.7 294.351 117.548 294.351 115.676C294.351 113.768 293.127 112.652 290.679 112.652H287.835ZM291.219 127.484C293.955 127.484 295.287 126.26 295.287 124.064C295.287 121.94 293.955 120.716 291.219 120.716H287.835V127.484H291.219ZM314.416 110.168C318.052 110.168 320.464 112.58 320.464 116.9V123.128C320.464 127.448 318.052 129.86 314.416 129.86C310.672 129.86 308.26 127.448 308.152 123.128H310.312C310.42 126.296 311.896 127.772 314.416 127.772C316.828 127.772 318.304 126.296 318.304 123.128V120.932H311.788V118.952H318.304V116.9C318.304 113.732 316.828 112.256 314.416 112.256C311.896 112.256 310.456 113.732 310.348 116.9H308.188C308.296 112.58 310.672 110.168 314.416 110.168ZM334.923 129.5L328.335 120.464L326.859 122.264V129.5H324.735V110.6H326.859V119.168C327.795 118.052 328.731 116.9 329.667 115.748L333.879 110.6H336.615L329.739 118.808L337.551 129.5H334.923ZM339.923 129.5V110.6H342.047V121.4C342.047 122.804 342.083 124.244 341.975 125.648L342.047 125.72C342.371 124.964 342.947 123.668 343.307 122.912L349.355 110.6H351.551V129.5H349.427V119.312C349.427 117.332 349.499 115.784 349.571 114.272L349.499 114.236C349.247 115.064 348.599 116.396 347.987 117.656L342.119 129.5H339.923ZM367.754 110.6V129.5H365.63V112.616H358.43V129.5H356.306V110.6H367.754ZM378.057 110.168C381.657 110.168 383.853 112.58 383.853 116.432V129.5H382.017L381.837 127.736C380.973 128.996 379.533 129.932 377.481 129.932C374.025 129.932 371.505 127.808 371.505 124.136C371.505 120.5 373.845 118.484 377.985 118.484H381.729V116.468C381.729 113.696 380.433 112.22 377.985 112.22C375.825 112.22 374.349 113.444 374.205 115.532H372.081C372.225 112.292 374.565 110.168 378.057 110.168ZM377.805 127.844C380.217 127.844 381.729 126.332 381.729 124.172V120.464H377.913C375.141 120.464 373.665 121.76 373.665 124.172C373.665 126.656 375.357 127.844 377.805 127.844ZM405.03 129.5L399.198 120.5L397.938 122.12V129.5H395.886V122.12L394.626 120.5L388.794 129.5H386.238L393.33 118.88L386.778 110.6H389.442L392.97 115.244C393.942 116.504 394.914 117.8 395.886 119.096V110.6H397.938V119.096C398.91 117.8 399.882 116.504 400.854 115.244L404.382 110.6H407.046L400.494 118.88L407.586 129.5H405.03ZM414.936 110.168C418.536 110.168 420.732 112.58 420.732 116.432V129.5H418.896L418.716 127.736C417.852 128.996 416.412 129.932 414.36 129.932C410.904 129.932 408.384 127.808 408.384 124.136C408.384 120.5 410.724 118.484 414.864 118.484H418.608V116.468C418.608 113.696 417.312 112.22 414.864 112.22C412.704 112.22 411.228 113.444 411.084 115.532H408.96C409.104 112.292 411.444 110.168 414.936 110.168ZM414.684 127.844C417.096 127.844 418.608 126.332 418.608 124.172V120.464H414.792C412.02 120.464 410.544 121.76 410.544 124.172C410.544 126.656 412.236 127.844 414.684 127.844Z" fill="white"/>
</svg>
