<svg width="512" height="118" viewBox="0 0 512 118" fill="none" xmlns="http://www.w3.org/2000/svg">
<path fill-rule="evenodd" clip-rule="evenodd" d="M175.246 39.7417L155.29 74.3023H176.389L199.232 34.7369C190.925 36.2529 182.899 37.9402 175.246 39.7417Z" fill="#72D8FF" fill-opacity="0.3" stroke="#72D8FF"/>
<path fill-rule="evenodd" clip-rule="evenodd" d="M242.083 29.0677L215.964 74.3075H237.063L263.821 27.9567C256.516 28.1072 249.253 28.4914 242.083 29.0677Z" fill="#72D8FF" fill-opacity="0.3" stroke="#72D8FF"/>
<path fill-rule="evenodd" clip-rule="evenodd" d="M209.485 32.9925L185.63 74.3074H206.728L232.323 29.9709C224.562 30.786 216.925 31.8088 209.485 32.9925Z" fill="#72D8FF" fill-opacity="0.3" stroke="#72D8FF"/>
<path fill-rule="evenodd" clip-rule="evenodd" d="M288.823 53.2087L278.399 71.2652H269.158L279.582 53.2087H258.484L246.304 74.3075H290.044L288.984 76.1401L274.505 78.0039L262.829 98.2357L273.378 116.5L309.917 53.2087H288.823Z" fill="#72D8FF" fill-opacity="0.3" stroke="#72D8FF"/>
<path fill-rule="evenodd" clip-rule="evenodd" d="M430.83 53.2087H409.731L399.307 71.2652H390.065L400.49 53.2087L367.212 74.3075H410.972L409.903 76.1557H396.482L391.504 84.7842H412.597L430.83 53.2087Z" fill="#72D8FF" fill-opacity="0.3" stroke="#72D8FF"/>
<path fill-rule="evenodd" clip-rule="evenodd" d="M470.406 53.2087L459.981 71.2652H450.74L461.165 53.2087L427.886 74.3075H471.647L470.577 76.1557H457.157L452.173 84.7842H473.272L491.505 53.2087H470.406Z" fill="#72D8FF" fill-opacity="0.3" stroke="#72D8FF"/>
<path fill-rule="evenodd" clip-rule="evenodd" d="M391.939 15.4864L390.559 17.8693C270.705 16.0886 148.021 24.8209 57.1939 66.79L148.432 71.3067L146.703 74.3023H0.200226C107.838 27.2662 255.877 9.89501 391.939 15.4864Z" fill="#72D8FF" fill-opacity="0.3" stroke="#72D8FF"/>
<path fill-rule="evenodd" clip-rule="evenodd" d="M349.924 102.228L344.774 110.898L339.546 102.228H336.877V116.183H339.904V107.991L344.016 114.704H345.454L349.565 107.83L349.581 116.183H352.613L352.592 102.228H349.924Z" fill="#72D8FF" fill-opacity="0.3" stroke="#72D8FF"/>
<path fill-rule="evenodd" clip-rule="evenodd" d="M377.522 109.725L373.815 102.228H370.368L375.871 112.476L375.752 112.637C375.212 113.473 374.594 113.831 373.8 113.831C373.379 113.831 372.922 113.733 372.403 113.572L371.624 116.022C372.403 116.339 373.161 116.5 373.898 116.5C375.773 116.5 377.429 115.425 378.581 113.271L384.52 102.228H381.348L377.522 109.725Z" fill="#72D8FF" fill-opacity="0.3" stroke="#72D8FF"/>
<path fill-rule="evenodd" clip-rule="evenodd" d="M411.471 108.904C412.706 108.364 413.485 107.29 413.485 105.935C413.485 103.401 410.692 101.927 407.468 101.927C405.874 101.927 404.197 102.285 402.681 103.064L403.657 105.577C404.851 104.896 406.227 104.58 407.405 104.58C408.979 104.58 410.219 105.177 410.219 106.314C410.219 107.233 409.461 107.809 408.143 107.809H404.976V110.239H408.387C409.84 110.239 410.796 110.758 410.796 111.812C410.796 113.11 409.3 113.785 407.468 113.785C406.113 113.785 404.555 113.426 403.283 112.648L402.287 114.958C404.021 115.955 405.993 116.412 407.847 116.412C411.195 116.412 414.066 114.896 414.066 112.269C414.066 110.696 413.09 109.46 411.476 108.899L411.471 108.904Z" fill="#72D8FF" fill-opacity="0.3" stroke="#72D8FF"/>
<path fill-rule="evenodd" clip-rule="evenodd" d="M435.025 110.363H441.504V107.851H435.025V104.819H442.36V102.228H431.816V116.183H442.62V113.587H435.025V110.363Z" fill="#72D8FF" fill-opacity="0.3" stroke="#72D8FF"/>
<path fill-rule="evenodd" clip-rule="evenodd" d="M466.813 101.33C469.424 101.33 470.66 100.234 470.681 98.2823H468.469C468.448 99.2376 467.872 99.736 466.813 99.736C465.754 99.736 465.178 99.2376 465.157 98.2823H462.945C462.966 100.234 464.16 101.33 466.813 101.33Z" fill="#72D8FF" fill-opacity="0.3" stroke="#72D8FF"/>
<path fill-rule="evenodd" clip-rule="evenodd" d="M463.584 111.319V102.228H460.376V116.183H463.423L470.084 107.113V116.183H473.272V102.228H470.245L463.584 111.319Z" fill="#72D8FF" fill-opacity="0.3" stroke="#72D8FF"/>
<path fill-rule="evenodd" clip-rule="evenodd" d="M509.561 20.19C507.936 20.2679 505.496 20.3925 503.829 20.4496C487.476 20.9999 483.468 21.2439 466.491 21.192L455.475 21.1712L453.813 22.9779C453.393 23.4348 452.785 23.7047 452.235 23.7099C448.476 23.7411 434.807 23.9643 429.112 23.9383C422.098 23.9176 419.819 23.876 416.911 23.7566C415.671 23.7151 415.572 23.6943 414.767 23.5178C414.284 23.4192 413.905 23.2998 413.885 23.279C413.864 23.279 413.822 20.2523 413.822 20.2523C413.822 20.2523 399.929 18.6481 397.977 18.4093C393.985 17.9213 395.595 15.5643 396.596 15.6266C396.617 15.5643 396.939 12.4233 397.318 8.63344C397.837 3.30683 398.019 1.70262 398.097 1.52091C398.195 1.19903 398.46 0.897918 398.741 0.757744C398.943 0.659103 399.12 0.659099 400.843 0.555267C403.029 0.456626 403.128 0.456626 403.891 0.835615C404.472 1.11596 405.033 1.51572 405.692 2.18025C405.993 2.4606 417.97 13.0982 417.97 13.0982L424.699 14.4221C424.699 14.4221 446.493 14.2196 463.942 14.2196C476.243 14.2058 483.594 14.2664 485.996 14.4013C490.726 14.6609 491.203 14.7024 493.888 15.0814C494.952 15.2424 495.268 15.3202 497.132 15.7615C502.423 17.0439 508.128 18.5443 510.231 19.188C510.812 19.349 511.331 20.1485 509.551 20.19H509.561Z" fill="#72D8FF" fill-opacity="0.3" stroke="#72D8FF"/>
<path fill-rule="evenodd" clip-rule="evenodd" d="M370.145 53.2035L357.965 74.3023H336.872L347.307 56.251H341.819L343.585 53.2035H370.145Z" fill="#72D8FF" fill-opacity="0.3" stroke="#72D8FF"/>
</svg>
