<svg width="695" height="122" viewBox="0 0 695 122" fill="none" xmlns="http://www.w3.org/2000/svg">
<path d="M2.41433 1.00001L122.414 121L572.414 121.002L692.414 1.00213L2.41433 1.00001Z" stroke="#72D8FF" stroke-width="2"/>
<path d="M153.107 43.4022H157.187V77.0022H153.299V61.5942C153.347 57.9462 153.443 54.6822 153.635 51.4182L153.443 51.3702C152.531 53.9142 151.283 57.0342 150.083 60.2022L146.579 69.2742H142.691L139.139 60.2022C137.987 57.0342 136.691 53.9142 135.827 51.3702L135.587 51.4182C135.779 54.6822 135.923 57.9462 135.923 61.5942V77.0022H132.035V43.4022H136.163L141.971 57.4662C142.787 59.4822 143.987 62.7942 144.515 64.5222H144.707C145.283 62.7942 146.483 59.4822 147.299 57.4662L153.107 43.4022ZM178.591 77.0022L176.815 69.7062H167.071L165.295 77.0022H161.167L169.807 43.4022H174.079L182.719 77.0022H178.591ZM167.935 66.0582H175.951L173.215 54.6822C172.687 52.5222 172.207 49.6902 172.015 48.3942H171.871C171.679 49.6902 171.199 52.5222 170.671 54.6822L167.935 66.0582ZM195.141 43.4022C201.525 43.4022 205.125 47.2422 205.125 54.0102C205.125 60.9702 201.525 64.7622 195.141 64.7622H190.581V77.0022H186.645V43.4022H195.141ZM195.141 61.0182C199.173 61.0182 201.141 58.8102 201.141 54.0102C201.141 49.4502 199.173 47.1462 195.141 47.1462H190.581V61.0182H195.141ZM209.426 77.0022V43.4022H213.362V73.3062H223.106V43.4022H227.042V73.3062H236.786V43.4022H240.674V77.0022H209.426ZM256.219 43.4022C262.603 43.4022 266.203 47.2422 266.203 54.0102C266.203 60.9702 262.603 64.7622 256.219 64.7622H251.659V77.0022H247.723V43.4022H256.219ZM256.219 61.0182C260.251 61.0182 262.219 58.8102 262.219 54.0102C262.219 49.4502 260.251 47.1462 256.219 47.1462H251.659V61.0182H256.219ZM283.075 43.4022H287.155L278.899 70.4262C277.459 75.1302 275.251 77.4822 270.595 77.4822H269.443V73.8342H270.691C273.283 73.8342 274.435 72.2022 275.347 69.2262L276.067 66.8742L267.571 43.4022H271.699L277.795 61.0182L283.075 43.4022ZM307.06 43.4022V47.0982H299.86V77.0022H295.876V47.0982H288.676V43.4022H307.06ZM329.892 42.7782C335.508 42.7782 339.252 46.4742 339.252 53.0982V67.3062C339.252 73.9302 335.46 77.5782 329.796 77.5782C323.94 77.5782 320.388 73.9782 320.004 67.5942H323.892C324.276 71.8182 326.244 73.8822 329.796 73.8822C333.06 73.8822 335.316 71.7702 335.316 67.3062V61.6422H325.908V58.1862H335.316V53.0982C335.316 48.5862 333.156 46.4742 329.94 46.4742C326.436 46.4742 324.42 48.4902 324.132 52.8102H320.244C320.58 46.3302 324.132 42.7782 329.892 42.7782ZM360.916 77.0022L351.604 61.4502L349.3 64.8102V77.0022H345.364V43.4022H349.3V58.7622L351.796 54.7302L359.38 43.4022H364.132L353.956 58.0422L365.476 77.0022H360.916ZM376.642 77.5782C370.978 77.5782 367.186 73.9302 367.186 67.3062V53.0982C367.186 46.4742 370.93 42.7782 376.546 42.7782C382.306 42.7782 385.858 46.3302 386.194 52.8102H382.306C382.018 48.4902 380.002 46.4742 376.498 46.4742C373.282 46.4742 371.122 48.5862 371.122 53.0982V67.3062C371.122 71.7702 373.378 73.8822 376.642 73.8822C380.194 73.8822 382.162 71.8182 382.546 67.5942H386.434C386.05 73.9782 382.498 77.5782 376.642 77.5782ZM410.018 43.4022V77.0022H406.082V47.0982H395.378V77.0022H391.442V43.4022H410.018ZM426.107 77.6262C419.867 77.6262 416.123 73.3542 416.123 66.4422V53.9142C416.123 47.0502 419.867 42.7782 426.107 42.7782C432.347 42.7782 436.043 47.0502 436.043 53.9142V66.4422C436.043 73.3542 432.347 77.6262 426.107 77.6262ZM426.107 73.7862C429.995 73.7862 432.011 71.1462 432.011 66.4422V53.9142C432.011 49.2582 429.995 46.6182 426.107 46.6182C422.171 46.6182 420.155 49.2582 420.155 53.9142V66.4422C420.155 71.1462 422.171 73.7862 426.107 73.7862ZM454.112 59.6262C458.48 60.7782 460.112 63.8502 460.112 67.8342C460.112 73.9782 455.888 77.6262 450.176 77.6262C444.032 77.6262 440.288 73.3542 440.048 67.6902H444.032C444.224 71.1942 446.288 73.8342 450.128 73.8342C453.632 73.8342 456.128 71.5302 456.128 67.7382C456.128 63.6102 453.344 61.4982 449.552 61.4982H446.912V57.9462H449.168C452.864 57.9462 455.36 56.1702 455.36 52.0902C455.36 48.5862 453.44 46.5222 450.08 46.5222C446.336 46.5222 444.752 48.9222 444.464 52.7622H440.528C440.912 46.7142 444.128 42.7302 450.08 42.7302C455.648 42.7302 459.296 46.2342 459.296 52.2342C459.296 55.9302 457.856 58.3782 454.112 59.6262ZM465.035 77.0022V43.4022H468.923V61.3062C468.923 63.3222 468.827 67.0662 468.635 69.3702L468.779 69.4662C469.307 68.0742 470.219 65.7222 471.131 63.7542L480.059 43.4022H484.283V77.0022H480.395V58.7142C480.395 56.6982 480.491 53.0022 480.587 50.9382L480.491 50.8422C480.011 52.0902 479.051 54.5862 478.379 56.1222L469.163 77.0022H465.035ZM508.853 82.5702V77.0022H491.285V43.4022H495.269V73.3062H505.733V43.4022H509.669V73.3062H512.693V82.5702H508.853ZM517.301 77.0022V43.4022H521.189V61.3062C521.189 63.3222 521.093 67.0662 520.901 69.3702L521.045 69.4662C521.573 68.0742 522.485 65.7222 523.397 63.7542L532.325 43.4022H536.549V77.0022H532.661V58.7142C532.661 56.6982 532.757 53.0022 532.853 50.9382L532.757 50.8422C532.277 52.0902 531.317 54.5862 530.645 56.1222L521.429 77.0022H517.301ZM543.551 77.0022V43.4022H547.439V61.3062C547.439 63.3222 547.343 67.0662 547.151 69.3702L547.295 69.4662C547.823 68.0742 548.735 65.7222 549.647 63.7542L558.575 43.4022H562.799V77.0022H558.911V58.7142C558.911 56.6982 559.007 53.0022 559.103 50.9382L559.007 50.8422C558.527 52.0902 557.567 54.5862 556.895 56.1222L547.679 77.0022H543.551Z" fill="#72D8FF"/>
</svg>
