<svg width="842" height="275" viewBox="0 0 842 275" fill="none" xmlns="http://www.w3.org/2000/svg" xmlns:xlink="http://www.w3.org/1999/xlink">
<path fill-rule="evenodd" clip-rule="evenodd" d="M0.5 0.5V274.5H725V0.5H0.5Z" fill="#191919" fill-opacity="0.8"/>
<path fill-rule="evenodd" clip-rule="evenodd" d="M0.5 0.5V274.5H725V0.5H0.5Z"/>
<path d="M841.5 274.5V0.5H725V274.5H841.5Z" fill="#4C7484" fill-opacity="0.8"/>
<path d="M0.5 0.5V274.5H725M0.5 0.5C0.5 0.5 463.544 0.5 725 0.5M0.5 0.5H725M841.5 0.5V274.5H725M841.5 0.5C841.5 0.5 791.975 0.5 725 0.5M841.5 0.5H725M725 0.5C725 107.504 725 274.5 725 274.5M725 0.5V274.5" stroke="white"/>
<path d="M767.5 168.5L798.5 137.508L767.5 106.5V168.5Z" fill="#72D8FF"/>
<path opacity="0.8" d="M34.464 129.932C30.432 129.932 27.588 127.232 27.588 122.372V111.428C27.588 106.568 30.36 103.868 34.32 103.868C38.424 103.868 41.052 106.46 41.304 111.14H39.144C38.892 107.576 37.164 105.884 34.32 105.884C31.62 105.884 29.748 107.684 29.748 111.428V122.372C29.748 126.116 31.692 127.916 34.464 127.916C37.344 127.916 39 126.152 39.36 122.66H41.52C41.16 127.268 38.604 129.932 34.464 129.932ZM56.2969 129.5H53.8129L49.6369 121.796L45.4609 129.5H42.9769L48.4129 120.068L43.2289 110.6H45.6409L49.6369 118.016L53.6329 110.6H56.0449L50.8969 120.068L56.2969 129.5ZM68.9287 123.704H71.0527C70.7647 127.664 68.4247 129.86 64.4647 129.86C60.7927 129.86 58.3807 127.448 58.3807 123.128V116.9C58.3807 112.58 60.8287 110.168 64.5007 110.168C68.2807 110.168 70.8007 112.58 70.8007 116.9V121.076H60.5407V123.128C60.5407 126.296 62.0527 127.772 64.5367 127.772C67.2727 127.772 68.6407 126.476 68.9287 123.704ZM64.5367 112.256C62.0527 112.256 60.5407 113.732 60.5407 116.9V119.096H68.6767V116.9C68.6767 113.732 67.1287 112.256 64.5367 112.256ZM87.4757 110.6H89.6717V129.5H87.6197V119.096C87.6197 117.26 87.7637 115.892 87.7997 114.452L87.6917 114.416C87.1877 115.856 86.6477 117.368 86.0357 118.772L83.4437 124.532H81.2837L78.6917 118.772C78.0797 117.368 77.5397 115.856 77.0357 114.416L76.9277 114.452C76.9637 115.892 77.1077 117.26 77.1077 119.096V129.5H75.0557V110.6H77.2517L81.1037 119.204C81.4997 120.212 81.9317 121.184 82.3277 122.192H82.3997C82.7957 121.184 83.2277 120.212 83.6237 119.204L87.4757 110.6ZM99.9708 110.168C103.571 110.168 105.767 112.58 105.767 116.432V129.5H103.931L103.751 127.736C102.887 128.996 101.447 129.932 99.3948 129.932C95.9388 129.932 93.4188 127.808 93.4188 124.136C93.4188 120.5 95.7588 118.484 99.8988 118.484H103.643V116.468C103.643 113.696 102.347 112.22 99.8988 112.22C97.7388 112.22 96.2628 113.444 96.1188 115.532H93.9948C94.1388 112.292 96.4788 110.168 99.9708 110.168ZM99.7188 127.844C102.131 127.844 103.643 126.332 103.643 124.172V120.464H99.8268C97.0548 120.464 95.5788 121.76 95.5788 124.172C95.5788 126.656 97.2708 127.844 99.7188 127.844ZM124.587 129.932C120.807 129.932 118.287 127.52 118.287 123.092V117.008C118.287 112.58 120.807 110.168 124.587 110.168C128.367 110.168 130.887 112.58 130.887 117.008V123.092C130.887 127.52 128.367 129.932 124.587 129.932ZM124.587 127.844C127.143 127.844 128.727 126.368 128.727 123.092V117.008C128.727 113.732 127.143 112.256 124.587 112.256C122.031 112.256 120.447 113.732 120.447 117.008V123.092C120.447 126.368 122.031 127.844 124.587 127.844ZM140.753 129.86C137.117 129.86 134.705 127.448 134.705 123.128V116.9C134.705 112.58 137.117 110.168 140.753 110.168C144.497 110.168 146.873 112.58 146.981 116.9H144.821C144.713 113.732 143.273 112.256 140.753 112.256C138.341 112.256 136.865 113.732 136.865 116.9V123.128C136.865 126.296 138.341 127.772 140.753 127.772C143.273 127.772 144.749 126.296 144.857 123.128H147.017C146.909 127.448 144.497 129.86 140.753 129.86ZM163.132 110.6H165.328V129.5H163.276V119.096C163.276 117.26 163.42 115.892 163.456 114.452L163.348 114.416C162.844 115.856 162.304 117.368 161.692 118.772L159.1 124.532H156.94L154.348 118.772C153.736 117.368 153.196 115.856 152.692 114.416L152.584 114.452C152.62 115.892 152.764 117.26 152.764 119.096V129.5H150.712V110.6H152.908L156.76 119.204C157.156 120.212 157.588 121.184 157.984 122.192H158.056C158.452 121.184 158.884 120.212 159.28 119.204L163.132 110.6ZM175.915 129.932C172.135 129.932 169.615 127.52 169.615 123.092V117.008C169.615 112.58 172.135 110.168 175.915 110.168C179.695 110.168 182.215 112.58 182.215 117.008V123.092C182.215 127.52 179.695 129.932 175.915 129.932ZM175.915 127.844C178.471 127.844 180.055 126.368 180.055 123.092V117.008C180.055 113.732 178.471 112.256 175.915 112.256C173.359 112.256 171.775 113.732 171.775 117.008V123.092C171.775 126.368 173.359 127.844 175.915 127.844ZM195.021 110.6V112.58H190.341V129.5H188.217V112.58H183.537V110.6H195.021ZM204.301 110.168C207.721 110.168 210.169 112.616 210.169 117.404V122.84C210.169 127.52 207.937 129.932 204.301 129.932C202.609 129.932 200.953 129.248 199.909 127.808V135.98H197.821V110.6H199.549L199.837 112.364C200.845 110.96 202.465 110.168 204.301 110.168ZM208.009 122.84V117.404C208.009 113.696 206.461 112.148 203.833 112.148C201.673 112.148 199.909 113.804 199.909 117.332V122.84C199.909 125.864 201.457 127.952 203.833 127.952C206.605 127.952 208.009 126.44 208.009 122.84ZM219.994 110.168C223.594 110.168 225.79 112.58 225.79 116.432V129.5H223.954L223.774 127.736C222.91 128.996 221.47 129.932 219.418 129.932C215.962 129.932 213.442 127.808 213.442 124.136C213.442 120.5 215.782 118.484 219.922 118.484H223.666V116.468C223.666 113.696 222.37 112.22 219.922 112.22C217.762 112.22 216.286 113.444 216.142 115.532H214.018C214.162 112.292 216.502 110.168 219.994 110.168ZM219.742 127.844C222.154 127.844 223.666 126.332 223.666 124.172V120.464H219.85C217.078 120.464 215.602 121.76 215.602 124.172C215.602 126.656 217.294 127.844 219.742 127.844ZM249.434 110.312C253.394 110.312 256.598 113.048 256.598 117.8V122.48C256.598 127.124 253.358 129.788 249.434 129.788H248.498V135.98H246.41V129.788H245.474C241.55 129.788 238.31 127.124 238.31 122.48V117.8C238.31 113.048 241.514 110.312 245.474 110.312H246.41V103.58H248.498V110.312H249.434ZM245.474 127.7H246.41V112.4H245.474C242.702 112.4 240.47 114.164 240.47 117.8V122.48C240.47 125.972 242.738 127.7 245.474 127.7ZM254.438 122.48V117.8C254.438 114.164 252.206 112.4 249.434 112.4H248.498V127.7H249.434C252.17 127.7 254.438 125.972 254.438 122.48ZM272.52 110.168C276.192 110.168 278.604 112.58 278.604 116.972V123.056C278.604 127.448 276.192 129.86 272.52 129.86C268.848 129.86 266.436 127.448 266.436 123.056V120.824H263.016V129.5H260.892V110.6H263.016V118.772H266.436V116.972C266.436 112.58 268.848 110.168 272.52 110.168ZM276.444 123.056V116.972C276.444 113.732 274.968 112.256 272.52 112.256C270.072 112.256 268.596 113.732 268.596 116.972V123.056C268.596 126.296 270.072 127.772 272.52 127.772C274.968 127.772 276.444 126.296 276.444 123.056ZM290.747 119.6C292.511 120.248 293.987 121.904 293.987 124.1C293.987 127.52 291.359 129.86 287.759 129.86C283.835 129.86 281.459 127.448 281.315 124.208H283.439C283.583 126.296 285.059 127.772 287.759 127.772C290.243 127.772 291.827 126.404 291.827 123.992C291.827 122.012 290.315 120.716 287.651 120.716H284.915V118.736H287.507C289.739 118.736 291.251 117.692 291.251 115.64C291.251 113.768 289.955 112.4 287.687 112.4C285.275 112.4 284.051 113.516 283.871 116.072H281.747C281.927 112.4 283.979 110.348 287.687 110.348C290.963 110.348 293.375 112.688 293.375 115.46C293.375 117.62 292.187 118.988 290.747 119.6ZM307.534 123.704H309.658C309.37 127.664 307.03 129.86 303.07 129.86C299.398 129.86 296.986 127.448 296.986 123.128V116.9C296.986 112.58 299.434 110.168 303.106 110.168C306.886 110.168 309.406 112.58 309.406 116.9V121.076H299.146V123.128C299.146 126.296 300.658 127.772 303.142 127.772C305.878 127.772 307.246 126.476 307.534 123.704ZM303.142 112.256C300.658 112.256 299.146 113.732 299.146 116.9V119.096H307.282V116.9C307.282 113.732 305.734 112.256 303.142 112.256ZM311.465 129.644V127.592C313.697 127.592 314.093 124.532 314.345 120.752C314.561 117.26 314.633 114.128 314.705 110.6H324.425V129.5H322.301V112.616H316.793C316.721 115.424 316.541 119.024 316.433 121.076C316.109 126.764 314.849 129.644 311.465 129.644ZM333.845 110.6H339.065V129.5H336.941V122.588H334.061L329.741 129.5H327.221L331.793 122.48C329.417 121.976 327.869 119.708 327.869 116.612C327.869 113.012 330.245 110.6 333.845 110.6ZM336.941 120.608V112.652H333.845C331.433 112.652 330.029 114.128 330.029 116.612C330.029 119.168 331.253 120.608 333.629 120.608H336.941ZM360.03 129.5L354.198 120.5L352.938 122.12V129.5H350.886V122.12L349.626 120.5L343.794 129.5H341.238L348.33 118.88L341.778 110.6H344.442L347.97 115.244C348.942 116.504 349.914 117.8 350.886 119.096V110.6H352.938V119.096C353.91 117.8 354.882 116.504 355.854 115.244L359.382 110.6H362.046L355.494 118.88L362.586 129.5H360.03ZM369.936 110.168C373.536 110.168 375.732 112.58 375.732 116.432V129.5H373.896L373.716 127.736C372.852 128.996 371.412 129.932 369.36 129.932C365.904 129.932 363.384 127.808 363.384 124.136C363.384 120.5 365.724 118.484 369.864 118.484H373.608V116.468C373.608 113.696 372.312 112.22 369.864 112.22C367.704 112.22 366.228 113.444 366.084 115.532H363.96C364.104 112.292 366.444 110.168 369.936 110.168ZM369.684 127.844C372.096 127.844 373.608 126.332 373.608 124.172V120.464H369.792C367.02 120.464 365.544 121.76 365.544 124.172C365.544 126.656 367.236 127.844 369.684 127.844ZM394.3 129.86C390.664 129.86 388.252 127.448 388.252 123.128V116.9C388.252 112.58 390.664 110.168 394.3 110.168C398.044 110.168 400.42 112.58 400.528 116.9H398.368C398.26 113.732 396.82 112.256 394.3 112.256C391.888 112.256 390.412 113.732 390.412 116.9V123.128C390.412 126.296 391.888 127.772 394.3 127.772C396.82 127.772 398.296 126.296 398.404 123.128H400.564C400.456 127.448 398.044 129.86 394.3 129.86ZM422.673 129.5L416.085 120.464L414.609 122.264V129.5H412.485V110.6H414.609V119.168C415.545 118.052 416.481 116.9 417.417 115.748L421.629 110.6H424.365L417.489 118.808L425.301 129.5H422.673ZM425.477 129.644V127.592C427.709 127.592 428.105 124.532 428.357 120.752C428.573 117.26 428.645 114.128 428.717 110.6H438.437V129.5H436.313V112.616H430.805C430.733 115.424 430.553 119.024 430.445 121.076C430.121 126.764 428.861 129.644 425.477 129.644ZM454.805 110.168C458.477 110.168 460.889 112.58 460.889 116.972V123.056C460.889 127.448 458.477 129.86 454.805 129.86C451.133 129.86 448.721 127.448 448.721 123.056V120.824H445.301V129.5H443.177V110.6H445.301V118.772H448.721V116.972C448.721 112.58 451.133 110.168 454.805 110.168ZM458.729 123.056V116.972C458.729 113.732 457.253 112.256 454.805 112.256C452.357 112.256 450.881 113.732 450.881 116.972V123.056C450.881 126.296 452.357 127.772 454.805 127.772C457.253 127.772 458.729 126.296 458.729 123.056ZM473.609 110.6H475.733V129.5H473.609V122.372C472.385 123.02 471.125 123.128 469.829 123.128C466.661 123.128 463.997 120.68 463.997 115.712V110.6H466.121V115.712C466.121 119.528 467.813 121.04 470.009 121.04C471.233 121.04 472.421 120.968 473.609 120.248V110.6ZM490.558 123.704H492.682C492.394 127.664 490.054 129.86 486.094 129.86C482.422 129.86 480.01 127.448 480.01 123.128V116.9C480.01 112.58 482.458 110.168 486.13 110.168C489.91 110.168 492.43 112.58 492.43 116.9V121.076H482.17V123.128C482.17 126.296 483.682 127.772 486.166 127.772C488.902 127.772 490.27 126.476 490.558 123.704ZM486.166 112.256C483.682 112.256 482.17 113.732 482.17 116.9V119.096H490.306V116.9C490.306 113.732 488.758 112.256 486.166 112.256ZM505.253 119.492C507.197 120.248 508.349 122.192 508.349 124.064C508.349 127.484 506.225 129.5 502.193 129.5H496.685V110.636H501.653C505.325 110.636 507.413 112.58 507.413 115.676C507.413 117.008 506.657 118.52 505.253 119.492ZM498.773 112.652V118.7H501.617C504.065 118.7 505.289 117.548 505.289 115.676C505.289 113.768 504.065 112.652 501.617 112.652H498.773ZM502.157 127.484C504.893 127.484 506.225 126.26 506.225 124.064C506.225 121.94 504.893 120.716 502.157 120.716H498.773V127.484H502.157ZM517.487 117.548C520.907 117.548 523.679 119.996 523.679 123.488C523.679 127.016 520.907 129.5 517.487 129.5H511.907V110.78H514.031V117.548H517.487ZM526.559 110.78H528.683V129.5H526.559V110.78ZM517.487 127.448C519.755 127.448 521.519 125.9 521.519 123.488C521.519 121.112 519.755 119.6 517.487 119.6H514.031V127.448H517.487ZM545.843 110.6H548.039V129.5H545.987V119.096C545.987 117.26 546.131 115.892 546.167 114.452L546.059 114.416C545.555 115.856 545.015 117.368 544.403 118.772L541.811 124.532H539.651L537.059 118.772C536.447 117.368 535.907 115.856 535.403 114.416L535.295 114.452C535.331 115.892 535.475 117.26 535.475 119.096V129.5H533.423V110.6H535.619L539.471 119.204C539.867 120.212 540.299 121.184 540.695 122.192H540.767C541.163 121.184 541.595 120.212 541.991 119.204L545.843 110.6ZM552.794 129.5V110.6H554.918V121.4C554.918 122.804 554.954 124.244 554.846 125.648L554.918 125.72C555.242 124.964 555.818 123.668 556.178 122.912L562.226 110.6H564.422V129.5H562.298V119.312C562.298 117.332 562.37 115.784 562.442 114.272L562.37 114.236C562.118 115.064 561.47 116.396 560.858 117.656L554.99 129.5H552.794ZM37.416 153.6V155.58H32.736V172.5H30.612V155.58H25.932V153.6H37.416ZM45.2393 172.932C41.4593 172.932 38.9393 170.52 38.9393 166.092V160.008C38.9393 155.58 41.4593 153.168 45.2393 153.168C49.0193 153.168 51.5393 155.58 51.5393 160.008V166.092C51.5393 170.52 49.0193 172.932 45.2393 172.932ZM45.2393 170.844C47.7953 170.844 49.3793 169.368 49.3793 166.092V160.008C49.3793 156.732 47.7953 155.256 45.2393 155.256C42.6833 155.256 41.0993 156.732 41.0993 160.008V166.092C41.0993 169.368 42.6833 170.844 45.2393 170.844ZM64.2492 153.6H66.3732V172.5H64.2492V165.372C63.0252 166.02 61.7652 166.128 60.4692 166.128C57.3012 166.128 54.6372 163.68 54.6372 158.712V153.6H56.7612V158.712C56.7612 162.528 58.4532 164.04 60.6492 164.04C61.8732 164.04 63.0612 163.968 64.2492 163.248V153.6ZM81.3062 172.5L74.7182 163.464L73.2422 165.264V172.5H71.1182V153.6H73.2422V162.168C74.1782 161.052 75.1142 159.9 76.0502 158.748L80.2622 153.6H82.9982L76.1222 161.808L83.9342 172.5H81.3062ZM91.2872 153.168C94.8872 153.168 97.0832 155.58 97.0832 159.432V172.5H95.2472L95.0672 170.736C94.2032 171.996 92.7632 172.932 90.7112 172.932C87.2552 172.932 84.7352 170.808 84.7352 167.136C84.7352 163.5 87.0752 161.484 91.2152 161.484H94.9592V159.468C94.9592 156.696 93.6632 155.22 91.2152 155.22C89.0552 155.22 87.5792 156.444 87.4352 158.532H85.3112C85.4552 155.292 87.7952 153.168 91.2872 153.168ZM91.0352 170.844C93.4472 170.844 94.9592 169.332 94.9592 167.172V163.464H91.1432C88.3712 163.464 86.8952 164.76 86.8952 167.172C86.8952 169.656 88.5872 170.844 91.0352 170.844ZM114.265 153.6H116.461V172.5H114.409V162.096C114.409 160.26 114.553 158.892 114.589 157.452L114.481 157.416C113.977 158.856 113.437 160.368 112.825 161.772L110.233 167.532H108.073L105.481 161.772C104.869 160.368 104.329 158.856 103.825 157.416L103.717 157.452C103.753 158.892 103.897 160.26 103.897 162.096V172.5H101.845V153.6H104.041L107.893 162.204C108.289 163.212 108.721 164.184 109.117 165.192H109.189C109.585 164.184 110.017 163.212 110.413 162.204L114.265 153.6ZM121.216 172.5V153.6H123.34V164.4C123.34 165.804 123.376 167.244 123.268 168.648L123.34 168.72C123.664 167.964 124.24 166.668 124.6 165.912L130.648 153.6H132.844V172.5H130.72V162.312C130.72 160.332 130.792 158.784 130.864 157.272L130.792 157.236C130.54 158.064 129.892 159.396 129.28 160.656L123.412 172.5H121.216ZM145.825 172.5V153.6H147.949V164.4C147.949 165.804 147.985 167.244 147.877 168.648L147.949 168.72C148.273 167.964 148.849 166.668 149.209 165.912L155.257 153.6H157.453V172.5H155.329V162.312C155.329 160.332 155.401 158.784 155.473 157.272L155.401 157.236C155.149 158.064 154.501 159.396 153.889 160.656L148.021 172.5H145.825ZM181.883 153.6V172.5H179.759V155.616H172.559V172.5H170.435V153.6H181.883ZM192.474 172.932C188.694 172.932 186.174 170.52 186.174 166.092V160.008C186.174 155.58 188.694 153.168 192.474 153.168C196.254 153.168 198.774 155.58 198.774 160.008V166.092C198.774 170.52 196.254 172.932 192.474 172.932ZM192.474 170.844C195.03 170.844 196.614 169.368 196.614 166.092V160.008C196.614 156.732 195.03 155.256 192.474 155.256C189.918 155.256 188.334 156.732 188.334 160.008V166.092C188.334 169.368 189.918 170.844 192.474 170.844ZM207.74 153.6H212.96V172.5H210.836V165.588H207.956L203.636 172.5H201.116L205.688 165.48C203.312 164.976 201.764 162.708 201.764 159.612C201.764 156.012 204.14 153.6 207.74 153.6ZM210.836 163.608V155.652H207.74C205.328 155.652 203.924 157.128 203.924 159.612C203.924 162.168 205.148 163.608 207.524 163.608H210.836ZM223.089 172.86C219.453 172.86 217.041 170.448 217.041 166.128V159.9C217.041 155.58 219.453 153.168 223.089 153.168C226.833 153.168 229.209 155.58 229.317 159.9H227.157C227.049 156.732 225.609 155.256 223.089 155.256C220.677 155.256 219.201 156.732 219.201 159.9V166.128C219.201 169.296 220.677 170.772 223.089 170.772C225.609 170.772 227.085 169.296 227.193 166.128H229.353C229.245 170.448 226.833 172.86 223.089 172.86ZM242.372 153.6H244.496V172.5H242.372V163.716H235.172V172.5H233.048V153.6H235.172V161.7H242.372V153.6ZM259.335 166.704H261.459C261.171 170.664 258.831 172.86 254.871 172.86C251.199 172.86 248.787 170.448 248.787 166.128V159.9C248.787 155.58 251.235 153.168 254.907 153.168C258.687 153.168 261.207 155.58 261.207 159.9V164.076H250.947V166.128C250.947 169.296 252.459 170.772 254.943 170.772C257.679 170.772 259.047 169.476 259.335 166.704ZM254.943 155.256C252.459 155.256 250.947 156.732 250.947 159.9V162.096H259.083V159.9C259.083 156.732 257.535 155.256 254.943 155.256ZM274.786 153.6H276.91V172.5H274.786V163.716H267.586V172.5H265.462V153.6H267.586V161.7H274.786V153.6ZM281.669 172.5V153.6H283.793V164.4C283.793 165.804 283.829 167.244 283.721 168.648L283.793 168.72C284.117 167.964 284.693 166.668 285.053 165.912L291.101 153.6H293.297V172.5H291.173V162.312C291.173 160.332 291.245 158.784 291.317 157.272L291.245 157.236C290.993 158.064 290.345 159.396 289.733 160.656L283.865 172.5H281.669ZM302.732 153.6H307.952V172.5H305.828V165.588H302.948L298.628 172.5H296.108L300.68 165.48C298.304 164.976 296.756 162.708 296.756 159.612C296.756 156.012 299.132 153.6 302.732 153.6ZM305.828 163.608V155.652H302.732C300.32 155.652 298.916 157.128 298.916 159.612C298.916 162.168 300.14 163.608 302.516 163.608H305.828ZM324.921 153.6H327.117V172.5H325.065V162.096C325.065 160.26 325.209 158.892 325.245 157.452L325.137 157.416C324.633 158.856 324.093 160.368 323.481 161.772L320.889 167.532H318.729L316.137 161.772C315.525 160.368 314.985 158.856 314.481 157.416L314.373 157.452C314.409 158.892 314.553 160.26 314.553 162.096V172.5H312.501V153.6H314.697L318.549 162.204C318.945 163.212 319.377 164.184 319.773 165.192H319.845C320.241 164.184 320.673 163.212 321.069 162.204L324.921 153.6ZM331.872 172.5V153.6H333.996V164.4C333.996 165.804 334.032 167.244 333.924 168.648L333.996 168.72C334.32 167.964 334.896 166.668 335.256 165.912L341.304 153.6H343.5V172.5H341.376V162.312C341.376 160.332 341.448 158.784 341.52 157.272L341.448 157.236C341.196 158.064 340.548 159.396 339.936 160.656L334.068 172.5H331.872Z" fill="white"/>
<path d="M50.1932 39.9H54.2732V73.5H50.3852V58.092C50.4332 54.444 50.5292 51.18 50.7212 47.916L50.5292 47.868C49.6172 50.412 48.3692 53.532 47.1692 56.7L43.6652 65.772H39.7772L36.2252 56.7C35.0732 53.532 33.7772 50.412 32.9132 47.868L32.6732 47.916C32.8652 51.18 33.0092 54.444 33.0092 58.092V73.5H29.1212V39.9H33.2492L39.0572 53.964C39.8732 55.98 41.0732 59.292 41.6012 61.02H41.7932C42.3692 59.292 43.5692 55.98 44.3852 53.964L50.1932 39.9ZM75.6763 73.5L73.9003 66.204H64.1563L62.3803 73.5H58.2523L66.8923 39.9H71.1643L79.8043 73.5H75.6763ZM65.0203 62.556H73.0363L70.3003 51.18C69.7723 49.02 69.2923 46.188 69.1003 44.892H68.9563C68.7643 46.188 68.2843 49.02 67.7563 51.18L65.0203 62.556ZM92.2266 39.9C98.6106 39.9 102.211 43.74 102.211 50.508C102.211 57.468 98.6106 61.26 92.2266 61.26H87.6666V73.5H83.7306V39.9H92.2266ZM92.2266 57.516C96.2586 57.516 98.2266 55.308 98.2266 50.508C98.2266 45.948 96.2586 43.644 92.2266 43.644H87.6666V57.516H92.2266ZM106.512 73.5V39.9H110.448V69.804H120.192V39.9H124.128V69.804H133.872V39.9H137.76V73.5H106.512ZM153.305 39.9C159.689 39.9 163.289 43.74 163.289 50.508C163.289 57.468 159.689 61.26 153.305 61.26H148.745V73.5H144.809V39.9H153.305ZM153.305 57.516C157.337 57.516 159.305 55.308 159.305 50.508C159.305 45.948 157.337 43.644 153.305 43.644H148.745V57.516H153.305ZM180.16 39.9H184.24L175.984 66.924C174.544 71.628 172.336 73.98 167.68 73.98H166.528V70.332H167.776C170.368 70.332 171.52 68.7 172.432 65.724L173.152 63.372L164.656 39.9H168.784L174.88 57.516L180.16 39.9ZM204.145 39.9V43.596H196.945V73.5H192.961V43.596H185.761V39.9H204.145ZM226.978 39.276C232.594 39.276 236.338 42.972 236.338 49.596V63.804C236.338 70.428 232.546 74.076 226.882 74.076C221.026 74.076 217.474 70.476 217.09 64.092H220.978C221.362 68.316 223.33 70.38 226.882 70.38C230.146 70.38 232.402 68.268 232.402 63.804V58.14H222.994V54.684H232.402V49.596C232.402 45.084 230.242 42.972 227.026 42.972C223.522 42.972 221.506 44.988 221.218 49.308H217.33C217.666 42.828 221.218 39.276 226.978 39.276ZM258.001 73.5L248.689 57.948L246.385 61.308V73.5H242.449V39.9H246.385V55.26L248.881 51.228L256.465 39.9H261.217L251.041 54.54L262.561 73.5H258.001ZM273.728 74.076C268.064 74.076 264.272 70.428 264.272 63.804V49.596C264.272 42.972 268.016 39.276 273.632 39.276C279.392 39.276 282.944 42.828 283.28 49.308H279.392C279.104 44.988 277.088 42.972 273.584 42.972C270.368 42.972 268.208 45.084 268.208 49.596V63.804C268.208 68.268 270.464 70.38 273.728 70.38C277.28 70.38 279.248 68.316 279.632 64.092H283.52C283.136 70.476 279.584 74.076 273.728 74.076ZM307.103 39.9V73.5H303.167V43.596H292.463V73.5H288.527V39.9H307.103ZM323.193 74.124C316.953 74.124 313.209 69.852 313.209 62.94V50.412C313.209 43.548 316.953 39.276 323.193 39.276C329.433 39.276 333.129 43.548 333.129 50.412V62.94C333.129 69.852 329.433 74.124 323.193 74.124ZM323.193 70.284C327.081 70.284 329.097 67.644 329.097 62.94V50.412C329.097 45.756 327.081 43.116 323.193 43.116C319.257 43.116 317.241 45.756 317.241 50.412V62.94C317.241 67.644 319.257 70.284 323.193 70.284ZM351.198 56.124C355.566 57.276 357.198 60.348 357.198 64.332C357.198 70.476 352.974 74.124 347.262 74.124C341.118 74.124 337.374 69.852 337.134 64.188H341.118C341.31 67.692 343.374 70.332 347.214 70.332C350.718 70.332 353.214 68.028 353.214 64.236C353.214 60.108 350.43 57.996 346.638 57.996H343.998V54.444H346.254C349.95 54.444 352.446 52.668 352.446 48.588C352.446 45.084 350.526 43.02 347.166 43.02C343.422 43.02 341.838 45.42 341.55 49.26H337.614C337.998 43.212 341.214 39.228 347.166 39.228C352.734 39.228 356.382 42.732 356.382 48.732C356.382 52.428 354.942 54.876 351.198 56.124ZM362.121 73.5V39.9H366.009V57.804C366.009 59.82 365.913 63.564 365.721 65.868L365.865 65.964C366.393 64.572 367.305 62.22 368.217 60.252L377.145 39.9H381.369V73.5H377.481V55.212C377.481 53.196 377.577 49.5 377.673 47.436L377.577 47.34C377.097 48.588 376.137 51.084 375.465 52.62L366.249 73.5H362.121ZM405.939 79.068V73.5H388.371V39.9H392.355V69.804H402.819V39.9H406.755V69.804H409.779V79.068H405.939ZM414.387 73.5V39.9H418.275V57.804C418.275 59.82 418.179 63.564 417.987 65.868L418.131 65.964C418.659 64.572 419.571 62.22 420.483 60.252L429.411 39.9H433.635V73.5H429.747V55.212C429.747 53.196 429.843 49.5 429.939 47.436L429.843 47.34C429.363 48.588 428.403 51.084 427.731 52.62L418.515 73.5H414.387ZM440.637 73.5V39.9H444.525V57.804C444.525 59.82 444.429 63.564 444.237 65.868L444.381 65.964C444.909 64.572 445.821 62.22 446.733 60.252L455.661 39.9H459.885V73.5H455.997V55.212C455.997 53.196 456.093 49.5 456.189 47.436L456.093 47.34C455.613 48.588 454.653 51.084 453.981 52.62L444.765 73.5H440.637Z" fill="#72D8FF"/>
</svg>
