<svg width="695" height="122" viewBox="0 0 695 122" fill="none" xmlns="http://www.w3.org/2000/svg">
<path d="M2.41433 1.00019L122.414 121L572.414 121.003L692.414 1.00231L2.41433 1.00019Z" stroke="#72D8FF" stroke-width="2"/>
<path d="M153.107 43.4024H157.187V77.0024H153.299V61.5944C153.347 57.9464 153.443 54.6824 153.635 51.4184L153.443 51.3704C152.531 53.9144 151.283 57.0344 150.083 60.2024L146.579 69.2744H142.691L139.139 60.2024C137.987 57.0344 136.691 53.9144 135.827 51.3704L135.587 51.4184C135.779 54.6824 135.923 57.9464 135.923 61.5944V77.0024H132.035V43.4024H136.163L141.971 57.4664C142.787 59.4824 143.987 62.7944 144.515 64.5224H144.707C145.283 62.7944 146.483 59.4824 147.299 57.4664L153.107 43.4024ZM178.591 77.0024L176.815 69.7064H167.071L165.295 77.0024H161.167L169.807 43.4024H174.079L182.719 77.0024H178.591ZM167.935 66.0584H175.951L173.215 54.6824C172.687 52.5224 172.207 49.6904 172.015 48.3944H171.871C171.679 49.6904 171.199 52.5224 170.671 54.6824L167.935 66.0584ZM195.141 43.4024C201.525 43.4024 205.125 47.2424 205.125 54.0104C205.125 60.9704 201.525 64.7624 195.141 64.7624H190.581V77.0024H186.645V43.4024H195.141ZM195.141 61.0184C199.173 61.0184 201.141 58.8104 201.141 54.0104C201.141 49.4504 199.173 47.1464 195.141 47.1464H190.581V61.0184H195.141ZM209.426 77.0024V43.4024H213.362V73.3064H223.106V43.4024H227.042V73.3064H236.786V43.4024H240.674V77.0024H209.426ZM256.219 43.4024C262.603 43.4024 266.203 47.2424 266.203 54.0104C266.203 60.9704 262.603 64.7624 256.219 64.7624H251.659V77.0024H247.723V43.4024H256.219ZM256.219 61.0184C260.251 61.0184 262.219 58.8104 262.219 54.0104C262.219 49.4504 260.251 47.1464 256.219 47.1464H251.659V61.0184H256.219ZM283.075 43.4024H287.155L278.899 70.4264C277.459 75.1304 275.251 77.4824 270.595 77.4824H269.443V73.8344H270.691C273.283 73.8344 274.435 72.2024 275.347 69.2264L276.067 66.8744L267.571 43.4024H271.699L277.795 61.0184L283.075 43.4024ZM307.06 43.4024V47.0984H299.86V77.0024H295.876V47.0984H288.676V43.4024H307.06ZM329.892 42.7784C335.508 42.7784 339.252 46.4744 339.252 53.0984V67.3064C339.252 73.9304 335.46 77.5784 329.796 77.5784C323.94 77.5784 320.388 73.9784 320.004 67.5944H323.892C324.276 71.8184 326.244 73.8824 329.796 73.8824C333.06 73.8824 335.316 71.7704 335.316 67.3064V61.6424H325.908V58.1864H335.316V53.0984C335.316 48.5864 333.156 46.4744 329.94 46.4744C326.436 46.4744 324.42 48.4904 324.132 52.8104H320.244C320.58 46.3304 324.132 42.7784 329.892 42.7784ZM360.916 77.0024L351.604 61.4504L349.3 64.8104V77.0024H345.364V43.4024H349.3V58.7624L351.796 54.7304L359.38 43.4024H364.132L353.956 58.0424L365.476 77.0024H360.916ZM376.642 77.5784C370.978 77.5784 367.186 73.9304 367.186 67.3064V53.0984C367.186 46.4744 370.93 42.7784 376.546 42.7784C382.306 42.7784 385.858 46.3304 386.194 52.8104H382.306C382.018 48.4904 380.002 46.4744 376.498 46.4744C373.282 46.4744 371.122 48.5864 371.122 53.0984V67.3064C371.122 71.7704 373.378 73.8824 376.642 73.8824C380.194 73.8824 382.162 71.8184 382.546 67.5944H386.434C386.05 73.9784 382.498 77.5784 376.642 77.5784ZM410.018 43.4024V77.0024H406.082V47.0984H395.378V77.0024H391.442V43.4024H410.018ZM426.107 77.6264C419.867 77.6264 416.123 73.3544 416.123 66.4424V53.9144C416.123 47.0504 419.867 42.7784 426.107 42.7784C432.347 42.7784 436.043 47.0504 436.043 53.9144V66.4424C436.043 73.3544 432.347 77.6264 426.107 77.6264ZM426.107 73.7864C429.995 73.7864 432.011 71.1464 432.011 66.4424V53.9144C432.011 49.2584 429.995 46.6184 426.107 46.6184C422.171 46.6184 420.155 49.2584 420.155 53.9144V66.4424C420.155 71.1464 422.171 73.7864 426.107 73.7864ZM454.112 59.6264C458.48 60.7784 460.112 63.8504 460.112 67.8344C460.112 73.9784 455.888 77.6264 450.176 77.6264C444.032 77.6264 440.288 73.3544 440.048 67.6904H444.032C444.224 71.1944 446.288 73.8344 450.128 73.8344C453.632 73.8344 456.128 71.5304 456.128 67.7384C456.128 63.6104 453.344 61.4984 449.552 61.4984H446.912V57.9464H449.168C452.864 57.9464 455.36 56.1704 455.36 52.0904C455.36 48.5864 453.44 46.5224 450.08 46.5224C446.336 46.5224 444.752 48.9224 444.464 52.7624H440.528C440.912 46.7144 444.128 42.7304 450.08 42.7304C455.648 42.7304 459.296 46.2344 459.296 52.2344C459.296 55.9304 457.856 58.3784 454.112 59.6264ZM465.035 77.0024V43.4024H468.923V61.3064C468.923 63.3224 468.827 67.0664 468.635 69.3704L468.779 69.4664C469.307 68.0744 470.219 65.7224 471.131 63.7544L480.059 43.4024H484.283V77.0024H480.395V58.7144C480.395 56.6984 480.491 53.0024 480.587 50.9384L480.491 50.8424C480.011 52.0904 479.051 54.5864 478.379 56.1224L469.163 77.0024H465.035ZM508.853 82.5704V77.0024H491.285V43.4024H495.269V73.3064H505.733V43.4024H509.669V73.3064H512.693V82.5704H508.853ZM517.301 77.0024V43.4024H521.189V61.3064C521.189 63.3224 521.093 67.0664 520.901 69.3704L521.045 69.4664C521.573 68.0744 522.485 65.7224 523.397 63.7544L532.325 43.4024H536.549V77.0024H532.661V58.7144C532.661 56.6984 532.757 53.0024 532.853 50.9384L532.757 50.8424C532.277 52.0904 531.317 54.5864 530.645 56.1224L521.429 77.0024H517.301ZM543.551 77.0024V43.4024H547.439V61.3064C547.439 63.3224 547.343 67.0664 547.151 69.3704L547.295 69.4664C547.823 68.0744 548.735 65.7224 549.647 63.7544L558.575 43.4024H562.799V77.0024H558.911V58.7144C558.911 56.6984 559.007 53.0024 559.103 50.9384L559.007 50.8424C558.527 52.0904 557.567 54.5864 556.895 56.1224L547.679 77.0024H543.551Z" fill="#72D8FF"/>
</svg>
