<svg width="743" height="71" viewBox="0 0 743 71" fill="none" xmlns="http://www.w3.org/2000/svg">
<path d="M1.15747 70.5L67.0608 0.5H204.516H453.537H741.157L675.254 70.5M1.15747 70.5C1.15747 70.5 97.2495 70.5 107.544 70.5M1.15747 70.5H107.544M675.254 70.5C675.254 70.5 252.038 70.5 107.544 70.5M675.254 70.5H107.544" stroke="#72D8FF"/>
<path d="M147.484 51.5L146.164 45.86H138.764L137.484 51.5H133.244L140.284 23.5H144.644L151.684 51.5H147.484ZM139.644 42.1H145.324L143.564 34.58C143.164 32.74 142.724 30.06 142.524 28.58H142.404C142.204 30.06 141.804 32.74 141.364 34.58L139.644 42.1ZM166.988 37.1C169.388 38.1 170.868 40.46 170.868 43.5C170.868 48.5 167.668 51.5 162.788 51.5H154.788V23.5H162.388C166.908 23.5 169.828 26.42 169.828 31.1C169.828 33.82 168.708 36.02 166.988 37.1ZM161.908 27.3H158.828V35.34H162.028C164.468 35.34 165.708 33.94 165.708 31.22C165.708 28.58 164.508 27.3 161.908 27.3ZM162.268 47.7C165.228 47.7 166.748 46.34 166.748 43.5C166.748 40.62 164.948 39.14 162.108 39.14H158.828V47.7H162.268ZM174.67 51.5V23.5H178.63V35.74C178.63 37.74 178.47 41.38 178.19 43.82L178.31 43.9C178.83 42.54 179.55 40.58 180.31 38.94L187.11 23.5H191.23V51.5H187.27V39.3C187.27 37.18 187.43 33.42 187.63 31.1L187.51 31.02C186.99 32.46 186.19 34.62 185.51 36.18L178.75 51.5H174.67ZM208.539 51.5L207.219 45.86H199.819L198.539 51.5H194.299L201.339 23.5H205.699L212.739 51.5H208.539ZM200.699 42.1H206.379L204.619 34.58C204.219 32.74 203.779 30.06 203.579 28.58H203.459C203.259 30.06 202.859 32.74 202.419 34.58L200.699 42.1ZM228.042 37.1C230.442 38.1 231.922 40.46 231.922 43.5C231.922 48.5 228.722 51.5 223.842 51.5H215.842V23.5H223.442C227.962 23.5 230.882 26.42 230.882 31.1C230.882 33.82 229.762 36.02 228.042 37.1ZM222.962 27.3H219.882V35.34H223.082C225.522 35.34 226.762 33.94 226.762 31.22C226.762 28.58 225.562 27.3 222.962 27.3ZM223.322 47.7C226.282 47.7 227.802 46.34 227.802 43.5C227.802 40.62 226.002 39.14 223.162 39.14H219.882V47.7H223.322ZM246.357 23.5H250.597L243.797 45.62C242.357 50.26 240.397 51.9 236.157 51.9H235.157V48.26H236.277C238.437 48.26 239.357 47.14 240.197 44.34L240.517 43.3L233.477 23.5H237.757L242.317 37.14L246.357 23.5ZM263.825 36.98C267.425 37.98 268.665 40.5 268.665 43.74C268.665 48.94 264.945 52.02 260.025 52.02C254.665 52.02 251.505 48.22 251.265 43.5H255.345C255.505 45.98 256.985 48.14 259.985 48.14C262.625 48.14 264.585 46.46 264.585 43.54C264.585 40.5 262.545 38.9 259.585 38.9H257.465V35.3H259.225C262.145 35.3 263.865 33.94 263.865 30.9C263.865 28.34 262.465 26.82 259.985 26.82C257.065 26.82 255.905 28.74 255.745 31.54H251.745C252.025 26.42 254.785 22.94 259.985 22.94C264.785 22.94 267.945 25.94 267.945 30.94C267.945 33.9 266.825 35.86 263.825 36.98ZM272.366 51.5V23.5H276.486V34.7H279.326C284.886 34.7 287.806 38.02 287.806 43.1C287.806 48.62 284.886 51.5 279.326 51.5H272.366ZM291.126 51.5V23.5H295.166V51.5H291.126ZM276.486 47.74H279.126C281.966 47.74 283.606 46.22 283.606 43.1C283.606 40.06 281.966 38.54 279.126 38.54H276.486V47.74ZM309.319 51.5V23.5H313.279V35.74C313.279 37.74 313.119 41.38 312.839 43.82L312.959 43.9C313.479 42.54 314.199 40.58 314.959 38.94L321.759 23.5H325.879V51.5H321.919V39.3C321.919 37.18 322.079 33.42 322.279 31.1L322.159 31.02C321.639 32.46 320.839 34.62 320.159 36.18L313.399 51.5H309.319ZM352.741 51.5L345.901 39.26L344.061 42.02V51.5H340.061V23.5H344.061V35.66L345.901 32.38L351.501 23.5H356.221L348.221 35.7L357.381 51.5H352.741ZM371.898 51.5L370.578 45.86H363.178L361.898 51.5H357.658L364.698 23.5H369.058L376.098 51.5H371.898ZM364.058 42.1H369.738L367.978 34.58C367.578 32.74 367.138 30.06 366.938 28.58H366.818C366.618 30.06 366.218 32.74 365.778 34.58L364.058 42.1ZM395.714 47.7H398.194V56.18H394.234V51.5H380.914V56.18H376.954V47.7H378.594C380.634 45.62 381.594 41.42 381.754 37.02L382.234 23.5H395.714V47.7ZM391.714 47.7V27.3H386.034L385.634 38.14C385.474 42.1 384.754 45.34 383.434 47.7H391.714ZM409.141 23.5C414.621 23.5 417.741 26.82 417.741 32.54C417.741 38.42 414.621 41.66 409.141 41.66H405.781V51.5H401.741V23.5H409.141ZM409.101 37.82C412.141 37.82 413.621 36.14 413.621 32.54C413.621 29.1 412.141 27.34 409.101 27.34H405.781V37.82H409.101ZM421.194 51.5V23.5H425.314V34.7H428.154C433.714 34.7 436.634 38.02 436.634 43.1C436.634 48.62 433.714 51.5 428.154 51.5H421.194ZM439.954 51.5V23.5H443.994V51.5H439.954ZM425.314 47.74H427.954C430.794 47.74 432.434 46.22 432.434 43.1C432.434 40.06 430.794 38.54 427.954 38.54H425.314V47.74ZM469.867 51.5L468.547 45.86H461.147L459.867 51.5H455.627L462.667 23.5H467.027L474.067 51.5H469.867ZM462.027 42.1H467.707L465.947 34.58C465.547 32.74 465.107 30.06 464.907 28.58H464.787C464.587 30.06 464.187 32.74 463.747 34.58L462.027 42.1ZM489.37 37.1C491.77 38.1 493.25 40.46 493.25 43.5C493.25 48.5 490.05 51.5 485.17 51.5H477.17V23.5H484.77C489.29 23.5 492.21 26.42 492.21 31.1C492.21 33.82 491.09 36.02 489.37 37.1ZM484.29 27.3H481.21V35.34H484.41C486.85 35.34 488.09 33.94 488.09 31.22C488.09 28.58 486.89 27.3 484.29 27.3ZM484.65 47.7C487.61 47.7 489.13 46.34 489.13 43.5C489.13 40.62 487.33 39.14 484.49 39.14H481.21V47.7H484.65ZM497.053 51.5V23.5H501.013V35.74C501.013 37.74 500.853 41.38 500.573 43.82L500.693 43.9C501.213 42.54 501.933 40.58 502.693 38.94L509.493 23.5H513.613V51.5H509.653V39.3C509.653 37.18 509.813 33.42 510.013 31.1L509.893 31.02C509.373 32.46 508.573 34.62 507.893 36.18L501.133 51.5H497.053ZM530.922 51.5L529.602 45.86H522.202L520.922 51.5H516.682L523.722 23.5H528.082L535.122 51.5H530.922ZM523.082 42.1H528.762L527.002 34.58C526.602 32.74 526.162 30.06 525.962 28.58H525.842C525.642 30.06 525.242 32.74 524.802 34.58L523.082 42.1ZM552.665 56.18V51.5H538.225V23.5H542.265V47.66H550.025V23.5H554.065V47.66H556.625V56.18H552.665ZM560.178 51.5V23.5H564.138V35.74C564.138 37.74 563.978 41.38 563.698 43.82L563.818 43.9C564.338 42.54 565.058 40.58 565.818 38.94L572.618 23.5H576.738V51.5H572.778V39.3C572.778 37.18 572.938 33.42 573.138 31.1L573.018 31.02C572.498 32.46 571.698 34.62 571.018 36.18L564.258 51.5H560.178ZM582.327 51.5V23.5H586.287V35.74C586.287 37.74 586.127 41.38 585.847 43.82L585.967 43.9C586.487 42.54 587.207 40.58 587.967 38.94L594.767 23.5H598.887V51.5H594.927V39.3C594.927 37.18 595.087 33.42 595.287 31.1L595.167 31.02C594.647 32.46 593.847 34.62 593.167 36.18L586.407 51.5H582.327Z" fill="#72D8FF"/>
</svg>
