<svg width="787" height="71" viewBox="0 0 787 71" fill="none" xmlns="http://www.w3.org/2000/svg">
<path d="M1.22717 70.5L72.8721 0.5H222.303H493.018H785.227L713.582 70.5M1.22717 70.5C1.22717 70.5 105.691 70.5 116.883 70.5M1.22717 70.5H116.883M713.582 70.5C713.582 70.5 273.965 70.5 116.883 70.5M713.582 70.5H116.883" stroke="#72D8FF"/>
<path d="M157.547 37.06C160.187 37.9 161.787 40.3 161.787 43.66C161.787 48.66 158.707 51.5 153.787 51.5H146.147V23.5H153.267C157.867 23.5 160.707 26.26 160.707 30.94C160.707 33.98 159.467 36.18 157.547 37.06ZM153.027 26.58H149.427V35.66H153.107C155.947 35.66 157.347 34.06 157.347 31.02C157.347 27.98 155.947 26.58 153.027 26.58ZM153.507 48.42C156.827 48.42 158.467 46.94 158.467 43.66C158.467 40.42 156.387 38.74 153.227 38.74H149.427V48.42H153.507ZM176.427 23.5H179.827L172.947 46.02C171.747 49.94 169.907 51.9 166.027 51.9H165.067V48.86H166.107C168.267 48.86 169.227 47.5 169.987 45.02L170.587 43.06L163.507 23.5H166.947L172.027 38.18L176.427 23.5ZM192.748 37.02C196.388 37.98 197.748 40.54 197.748 43.86C197.748 48.98 194.228 52.02 189.468 52.02C184.348 52.02 181.228 48.46 181.028 43.74H184.348C184.508 46.66 186.228 48.86 189.428 48.86C192.348 48.86 194.428 46.94 194.428 43.78C194.428 40.34 192.108 38.58 188.948 38.58H186.748V35.62H188.628C191.708 35.62 193.788 34.14 193.788 30.74C193.788 27.82 192.188 26.1 189.388 26.1C186.268 26.1 184.948 28.1 184.708 31.3H181.428C181.748 26.26 184.428 22.94 189.388 22.94C194.028 22.94 197.068 25.86 197.068 30.86C197.068 33.94 195.868 35.98 192.748 37.02ZM201.85 51.5V23.5H205.21V34.94H208.61C213.89 34.94 216.97 38.1 216.97 43.18C216.97 48.5 213.89 51.5 208.61 51.5H201.85ZM220.57 51.5V23.5H223.85V51.5H220.57ZM205.21 48.42H208.49C211.65 48.42 213.57 46.66 213.57 43.18C213.57 39.78 211.65 38.06 208.49 38.06H205.21V48.42ZM250.568 51.5L249.088 45.42H240.968L239.488 51.5H236.048L243.248 23.5H246.808L254.008 51.5H250.568ZM241.688 42.38H248.368L246.088 32.9C245.648 31.1 245.248 28.74 245.088 27.66H244.968C244.808 28.74 244.408 31.1 243.968 32.9L241.688 42.38ZM268.68 37.06C271.32 37.9 272.92 40.3 272.92 43.66C272.92 48.66 269.84 51.5 264.92 51.5H257.28V23.5H264.4C269 23.5 271.84 26.26 271.84 30.94C271.84 33.98 270.6 36.18 268.68 37.06ZM264.16 26.58H260.56V35.66H264.24C267.08 35.66 268.48 34.06 268.48 31.02C268.48 27.98 267.08 26.58 264.16 26.58ZM264.64 48.42C267.96 48.42 269.6 46.94 269.6 43.66C269.6 40.42 267.52 38.74 264.36 38.74H260.56V48.42H264.64ZM276.889 51.5V23.5H280.129V38.42C280.129 40.1 280.049 43.22 279.889 45.14L280.009 45.22C280.449 44.06 281.209 42.1 281.969 40.46L289.409 23.5H292.929V51.5H289.689V36.26C289.689 34.58 289.769 31.5 289.849 29.78L289.769 29.7C289.369 30.74 288.569 32.82 288.009 34.1L280.329 51.5H276.889ZM310.724 51.5L309.244 45.42H301.124L299.644 51.5H296.204L303.404 23.5H306.964L314.164 51.5H310.724ZM301.844 42.38H308.524L306.244 32.9C305.804 31.1 305.404 28.74 305.244 27.66H305.124C304.964 28.74 304.564 31.1 304.124 32.9L301.844 42.38ZM332.076 56.14V51.5H317.436V23.5H320.756V48.42H329.476V23.5H332.756V48.42H335.276V56.14H332.076ZM339.116 51.5V23.5H342.356V38.42C342.356 40.1 342.276 43.22 342.116 45.14L342.236 45.22C342.676 44.06 343.436 42.1 344.196 40.46L351.636 23.5H355.156V51.5H351.916V36.26C351.916 34.58 351.996 31.5 352.076 29.78L351.996 29.7C351.596 30.74 350.796 32.82 350.236 34.1L342.556 51.5H339.116ZM368.551 52.02C363.351 52.02 360.231 48.46 360.231 42.7V32.26C360.231 26.54 363.351 22.98 368.551 22.98C373.751 22.98 376.831 26.54 376.831 32.26V42.7C376.831 48.46 373.751 52.02 368.551 52.02ZM368.551 48.82C371.791 48.82 373.471 46.62 373.471 42.7V32.26C373.471 28.38 371.791 26.18 368.551 26.18C365.271 26.18 363.591 28.38 363.591 32.26V42.7C363.591 46.62 365.271 48.82 368.551 48.82ZM394.128 23.5H397.448V51.5H394.128V38.82H385.248V51.5H381.928V23.5H385.248V35.74H394.128V23.5ZM415.496 23.5H418.816V51.5H415.496V38.82H406.616V51.5H403.296V23.5H406.616V35.74H415.496V23.5ZM432.223 52.02C427.023 52.02 423.903 48.46 423.903 42.7V32.26C423.903 26.54 427.023 22.98 432.223 22.98C437.423 22.98 440.503 26.54 440.503 32.26V42.7C440.503 48.46 437.423 52.02 432.223 52.02ZM432.223 48.82C435.463 48.82 437.143 46.62 437.143 42.7V32.26C437.143 28.38 435.463 26.18 432.223 26.18C428.943 26.18 427.263 28.38 427.263 32.26V42.7C427.263 46.62 428.943 48.82 432.223 48.82ZM458.72 23.5V26.58H448.88V51.5H445.6V23.5H458.72ZM469.879 52.02C464.679 52.02 461.559 48.46 461.559 42.7V32.26C461.559 26.54 464.679 22.98 469.879 22.98C475.079 22.98 478.159 26.54 478.159 32.26V42.7C478.159 48.46 475.079 52.02 469.879 52.02ZM469.879 48.82C473.119 48.82 474.799 46.62 474.799 42.7V32.26C474.799 28.38 473.119 26.18 469.879 26.18C466.599 26.18 464.919 28.38 464.919 32.26V42.7C464.919 46.62 466.599 48.82 469.879 48.82ZM507.604 23.5V51.5H504.324V26.58H495.404V51.5H492.124V23.5H507.604ZM520.532 23.5C525.852 23.5 528.852 26.7 528.852 32.34C528.852 38.14 525.852 41.3 520.532 41.3H516.732V51.5H513.452V23.5H520.532ZM520.532 38.18C523.892 38.18 525.532 36.34 525.532 32.34C525.532 28.54 523.892 26.62 520.532 26.62H516.732V38.18H520.532ZM540.66 52.02C535.46 52.02 532.34 48.46 532.34 42.7V32.26C532.34 26.54 535.46 22.98 540.66 22.98C545.86 22.98 548.94 26.54 548.94 32.26V42.7C548.94 48.46 545.86 52.02 540.66 52.02ZM540.66 48.82C543.9 48.82 545.58 46.62 545.58 42.7V32.26C545.58 28.38 543.9 26.18 540.66 26.18C537.38 26.18 535.7 28.38 535.7 32.26V42.7C535.7 46.62 537.38 48.82 540.66 48.82ZM562.638 53.86V50.74H561.918C556.158 50.74 552.438 47.1 552.438 40.62V34.42C552.438 27.9 556.158 24.22 561.918 24.22H562.638V21.3H565.878V24.22H566.598C572.398 24.22 576.118 27.9 576.118 34.42V40.62C576.118 47.1 572.398 50.74 566.598 50.74H565.878V53.86H562.638ZM561.878 47.58H562.638V27.38H561.878C557.958 27.38 555.718 29.62 555.718 34.42V40.62C555.718 45.38 557.958 47.58 561.878 47.58ZM565.878 47.58H566.678C570.598 47.58 572.838 45.38 572.838 40.62V34.42C572.838 29.62 570.598 27.38 566.678 27.38H565.878V47.58ZM580.366 51.5V23.5H583.606V38.42C583.606 40.1 583.526 43.22 583.366 45.14L583.486 45.22C583.926 44.06 584.686 42.1 585.446 40.46L592.886 23.5H596.406V51.5H593.166V36.26C593.166 34.58 593.246 31.5 593.326 29.78L593.246 29.7C592.846 30.74 592.046 32.82 591.486 34.1L583.806 51.5H580.366ZM603.601 23.5H616.561V51.5H613.281V26.58H606.761C606.361 35.06 606.001 42.22 605.521 45.62C604.921 49.98 602.841 51.9 599.321 51.9V48.82C601.121 48.82 602.001 47.5 602.361 44.98C602.761 42.02 603.161 34.94 603.601 23.5ZM620.396 51.5L626.836 40.5C623.276 39.62 621.276 36.58 621.276 32.26C621.276 26.7 624.356 23.5 629.436 23.5H636.236V51.5H632.956V40.9H630.236L624.116 51.5H620.396ZM629.396 37.82H632.956V26.58H629.476C626.276 26.58 624.636 28.5 624.636 32.18C624.636 35.78 626.276 37.82 629.396 37.82Z" fill="#72D8FF"/>
</svg>
