<svg width="784" height="71" viewBox="0 0 784 71" fill="none" xmlns="http://www.w3.org/2000/svg">
<path d="M1.20715 70.5L71.2072 0.5H217.207H481.707H782.707L712.707 70.5M1.20715 70.5C1.20715 70.5 103.272 70.5 114.207 70.5M1.20715 70.5H114.207M712.707 70.5C712.707 70.5 267.683 70.5 114.207 70.5M712.707 70.5H114.207" stroke="#72D8FF"/>
<path d="M155.527 37.06C158.167 37.9 159.767 40.3 159.767 43.66C159.767 48.66 156.687 51.5 151.767 51.5H144.127V23.5H151.247C155.847 23.5 158.687 26.26 158.687 30.94C158.687 33.98 157.447 36.18 155.527 37.06ZM151.007 26.58H147.407V35.66H151.087C153.927 35.66 155.327 34.06 155.327 31.02C155.327 27.98 153.927 26.58 151.007 26.58ZM151.487 48.42C154.807 48.42 156.447 46.94 156.447 43.66C156.447 40.42 154.367 38.74 151.207 38.74H147.407V48.42H151.487ZM174.407 23.5H177.807L170.927 46.02C169.727 49.94 167.887 51.9 164.007 51.9H163.047V48.86H164.087C166.247 48.86 167.207 47.5 167.967 45.02L168.567 43.06L161.487 23.5H164.927L170.007 38.18L174.407 23.5ZM190.728 37.02C194.368 37.98 195.728 40.54 195.728 43.86C195.728 48.98 192.208 52.02 187.448 52.02C182.328 52.02 179.208 48.46 179.008 43.74H182.328C182.488 46.66 184.208 48.86 187.408 48.86C190.328 48.86 192.408 46.94 192.408 43.78C192.408 40.34 190.088 38.58 186.928 38.58H184.728V35.62H186.608C189.688 35.62 191.768 34.14 191.768 30.74C191.768 27.82 190.168 26.1 187.368 26.1C184.248 26.1 182.928 28.1 182.688 31.3H179.408C179.728 26.26 182.408 22.94 187.368 22.94C192.008 22.94 195.048 25.86 195.048 30.86C195.048 33.94 193.848 35.98 190.728 37.02ZM199.83 51.5V23.5H203.19V34.94H206.59C211.87 34.94 214.95 38.1 214.95 43.18C214.95 48.5 211.87 51.5 206.59 51.5H199.83ZM218.55 51.5V23.5H221.83V51.5H218.55ZM203.19 48.42H206.47C209.63 48.42 211.55 46.66 211.55 43.18C211.55 39.78 209.63 38.06 206.47 38.06H203.19V48.42ZM248.548 51.5L247.068 45.42H238.948L237.468 51.5H234.028L241.228 23.5H244.788L251.988 51.5H248.548ZM239.668 42.38H246.348L244.068 32.9C243.628 31.1 243.228 28.74 243.068 27.66H242.948C242.788 28.74 242.388 31.1 241.948 32.9L239.668 42.38ZM266.66 37.06C269.3 37.9 270.9 40.3 270.9 43.66C270.9 48.66 267.82 51.5 262.9 51.5H255.26V23.5H262.38C266.98 23.5 269.82 26.26 269.82 30.94C269.82 33.98 268.58 36.18 266.66 37.06ZM262.14 26.58H258.54V35.66H262.22C265.06 35.66 266.46 34.06 266.46 31.02C266.46 27.98 265.06 26.58 262.14 26.58ZM262.62 48.42C265.94 48.42 267.58 46.94 267.58 43.66C267.58 40.42 265.5 38.74 262.34 38.74H258.54V48.42H262.62ZM274.869 51.5V23.5H278.109V38.42C278.109 40.1 278.029 43.22 277.869 45.14L277.989 45.22C278.429 44.06 279.189 42.1 279.949 40.46L287.389 23.5H290.909V51.5H287.669V36.26C287.669 34.58 287.749 31.5 287.829 29.78L287.749 29.7C287.349 30.74 286.549 32.82 285.989 34.1L278.309 51.5H274.869ZM308.704 51.5L307.224 45.42H299.104L297.624 51.5H294.184L301.384 23.5H304.944L312.144 51.5H308.704ZM299.824 42.38H306.504L304.224 32.9C303.784 31.1 303.384 28.74 303.224 27.66H303.104C302.944 28.74 302.544 31.1 302.104 32.9L299.824 42.38ZM330.056 56.14V51.5H315.416V23.5H318.736V48.42H327.456V23.5H330.736V48.42H333.256V56.14H330.056ZM337.096 51.5V23.5H340.336V38.42C340.336 40.1 340.256 43.22 340.096 45.14L340.216 45.22C340.656 44.06 341.416 42.1 342.176 40.46L349.616 23.5H353.136V51.5H349.896V36.26C349.896 34.58 349.976 31.5 350.056 29.78L349.976 29.7C349.576 30.74 348.776 32.82 348.216 34.1L340.536 51.5H337.096ZM366.531 52.02C361.331 52.02 358.211 48.46 358.211 42.7V32.26C358.211 26.54 361.331 22.98 366.531 22.98C371.731 22.98 374.811 26.54 374.811 32.26V42.7C374.811 48.46 371.731 52.02 366.531 52.02ZM366.531 48.82C369.771 48.82 371.451 46.62 371.451 42.7V32.26C371.451 28.38 369.771 26.18 366.531 26.18C363.251 26.18 361.571 28.38 361.571 32.26V42.7C361.571 46.62 363.251 48.82 366.531 48.82ZM392.108 23.5H395.428V51.5H392.108V38.82H383.228V51.5H379.908V23.5H383.228V35.74H392.108V23.5ZM413.476 23.5H416.796V51.5H413.476V38.82H404.596V51.5H401.276V23.5H404.596V35.74H413.476V23.5ZM430.203 52.02C425.003 52.02 421.883 48.46 421.883 42.7V32.26C421.883 26.54 425.003 22.98 430.203 22.98C435.403 22.98 438.483 26.54 438.483 32.26V42.7C438.483 48.46 435.403 52.02 430.203 52.02ZM430.203 48.82C433.443 48.82 435.123 46.62 435.123 42.7V32.26C435.123 28.38 433.443 26.18 430.203 26.18C426.923 26.18 425.243 28.38 425.243 32.26V42.7C425.243 46.62 426.923 48.82 430.203 48.82ZM456.7 23.5V26.58H446.86V51.5H443.58V23.5H456.7ZM467.859 52.02C462.659 52.02 459.539 48.46 459.539 42.7V32.26C459.539 26.54 462.659 22.98 467.859 22.98C473.059 22.98 476.139 26.54 476.139 32.26V42.7C476.139 48.46 473.059 52.02 467.859 52.02ZM467.859 48.82C471.099 48.82 472.779 46.62 472.779 42.7V32.26C472.779 28.38 471.099 26.18 467.859 26.18C464.579 26.18 462.899 28.38 462.899 32.26V42.7C462.899 46.62 464.579 48.82 467.859 48.82ZM505.584 23.5V51.5H502.304V26.58H493.384V51.5H490.104V23.5H505.584ZM518.512 23.5C523.832 23.5 526.832 26.7 526.832 32.34C526.832 38.14 523.832 41.3 518.512 41.3H514.712V51.5H511.432V23.5H518.512ZM518.512 38.18C521.872 38.18 523.512 36.34 523.512 32.34C523.512 28.54 521.872 26.62 518.512 26.62H514.712V38.18H518.512ZM538.64 52.02C533.44 52.02 530.32 48.46 530.32 42.7V32.26C530.32 26.54 533.44 22.98 538.64 22.98C543.84 22.98 546.92 26.54 546.92 32.26V42.7C546.92 48.46 543.84 52.02 538.64 52.02ZM538.64 48.82C541.88 48.82 543.56 46.62 543.56 42.7V32.26C543.56 28.38 541.88 26.18 538.64 26.18C535.36 26.18 533.68 28.38 533.68 32.26V42.7C533.68 46.62 535.36 48.82 538.64 48.82ZM560.618 53.86V50.74H559.898C554.138 50.74 550.418 47.1 550.418 40.62V34.42C550.418 27.9 554.138 24.22 559.898 24.22H560.618V21.3H563.858V24.22H564.578C570.378 24.22 574.098 27.9 574.098 34.42V40.62C574.098 47.1 570.378 50.74 564.578 50.74H563.858V53.86H560.618ZM559.858 47.58H560.618V27.38H559.858C555.938 27.38 553.698 29.62 553.698 34.42V40.62C553.698 45.38 555.938 47.58 559.858 47.58ZM563.858 47.58H564.658C568.578 47.58 570.818 45.38 570.818 40.62V34.42C570.818 29.62 568.578 27.38 564.658 27.38H563.858V47.58ZM578.346 51.5V23.5H581.586V38.42C581.586 40.1 581.506 43.22 581.346 45.14L581.466 45.22C581.906 44.06 582.666 42.1 583.426 40.46L590.866 23.5H594.386V51.5H591.146V36.26C591.146 34.58 591.226 31.5 591.306 29.78L591.226 29.7C590.826 30.74 590.026 32.82 589.466 34.1L581.786 51.5H578.346ZM601.581 23.5H614.541V51.5H611.261V26.58H604.741C604.341 35.06 603.981 42.22 603.501 45.62C602.901 49.98 600.821 51.9 597.301 51.9V48.82C599.101 48.82 599.981 47.5 600.341 44.98C600.741 42.02 601.141 34.94 601.581 23.5ZM618.376 51.5L624.816 40.5C621.256 39.62 619.256 36.58 619.256 32.26C619.256 26.7 622.336 23.5 627.416 23.5H634.216V51.5H630.936V40.9H628.216L622.096 51.5H618.376ZM627.376 37.82H630.936V26.58H627.456C624.256 26.58 622.616 28.5 622.616 32.18C622.616 35.78 624.256 37.82 627.376 37.82Z" fill="#72D8FF"/>
</svg>
