<svg width="1398" height="71" viewBox="0 0 1398 71" fill="none" xmlns="http://www.w3.org/2000/svg">
<path d="M1.20715 70.5L71.2072 0.499969H217.207L1337.21 0.5H1396.71L1326.71 70.5M1.20715 70.5C1.20715 70.5 103.272 70.5 114.207 70.5M1.20715 70.5H114.207M1326.71 70.5C1326.71 70.5 267.683 70.5 114.207 70.5M1326.71 70.5L114.207 70.5" stroke="#72D8FF"/>
<path d="M156.687 51.5L149.847 39.26L148.007 42.02V51.5H144.007V23.5H148.007V35.66L149.847 32.38L155.447 23.5H160.167L152.167 35.7L161.327 51.5H156.687ZM175.844 51.5L174.524 45.86H167.124L165.844 51.5H161.604L168.644 23.5H173.004L180.044 51.5H175.844ZM168.004 42.1H173.684L171.924 34.58C171.524 32.74 171.084 30.06 170.884 28.58H170.764C170.564 30.06 170.164 32.74 169.724 34.58L168.004 42.1ZM190.548 23.5C196.028 23.5 199.148 26.82 199.148 32.54C199.148 38.42 196.028 41.66 190.548 41.66H187.188V51.5H183.148V23.5H190.548ZM190.508 37.82C193.548 37.82 195.028 36.14 195.028 32.54C195.028 29.1 193.548 27.34 190.508 27.34H187.188V37.82H190.508ZM202.601 51.5V23.5H206.641V34.66H210.081C215.521 34.66 218.481 38.02 218.481 43.1C218.481 48.62 215.521 51.5 210.081 51.5H202.601ZM206.641 47.78H209.881C212.641 47.78 214.321 46.26 214.321 43.1C214.321 40.02 212.641 38.5 209.881 38.5H206.641V47.78ZM226.133 47.7H236.213V51.5H222.093V23.5H235.813V27.3H226.133V35.42H235.053V39.14H226.133V47.7ZM247.931 23.5C253.411 23.5 256.531 26.82 256.531 32.54C256.531 38.42 253.411 41.66 247.931 41.66H244.571V51.5H240.531V23.5H247.931ZM247.891 37.82C250.931 37.82 252.411 36.14 252.411 32.54C252.411 29.1 250.931 27.34 247.891 27.34H244.571V37.82H247.891ZM271.944 23.5H275.984V51.5H271.944V39.22H264.024V51.5H259.984V23.5H264.024V35.42H271.944V23.5ZM281.585 51.5V23.5H285.705V34.7H288.545C294.105 34.7 297.025 38.02 297.025 43.1C297.025 48.62 294.105 51.5 288.545 51.5H281.585ZM300.345 51.5V23.5H304.385V51.5H300.345ZM285.705 47.74H288.345C291.185 47.74 292.825 46.22 292.825 43.1C292.825 40.06 291.185 38.54 288.345 38.54H285.705V47.74ZM318.345 20.78C315.545 20.78 313.625 19.02 313.505 15.98H316.265C316.345 17.38 317.105 18.1 318.305 18.1C319.545 18.1 320.305 17.38 320.385 15.98H323.145C323.025 19.06 321.105 20.78 318.345 20.78ZM309.945 51.5V23.5H313.905V35.74C313.905 37.74 313.745 41.38 313.465 43.82L313.585 43.9C314.105 42.54 314.825 40.58 315.585 38.94L322.385 23.5H326.505V51.5H322.545V39.3C322.545 37.18 322.705 33.42 322.905 31.1L322.785 31.02C322.265 32.46 321.465 34.62 320.785 36.18L314.025 51.5H309.945ZM356.687 23.5V51.5H352.647V27.34H344.727V51.5H340.687V23.5H356.687ZM372.529 23.5H376.769L369.969 45.62C368.529 50.26 366.569 51.9 362.329 51.9H361.329V48.26H362.449C364.609 48.26 365.529 47.14 366.369 44.34L366.689 43.3L359.649 23.5H363.929L368.489 37.14L372.529 23.5ZM393.78 23.5V27.34H387.94V51.5H383.82V27.34H378.02V23.5H393.78ZM397.015 51.5V23.5H401.055V34.66H404.495C409.935 34.66 412.895 38.02 412.895 43.1C412.895 48.62 409.935 51.5 404.495 51.5H397.015ZM401.055 47.78H404.295C407.055 47.78 408.735 46.26 408.735 43.1C408.735 40.02 407.055 38.5 404.295 38.5H401.055V47.78ZM425.101 51.5V23.5H429.061V35.74C429.061 37.74 428.901 41.38 428.621 43.82L428.741 43.9C429.261 42.54 429.981 40.58 430.741 38.94L437.541 23.5H441.661V51.5H437.701V39.3C437.701 37.18 437.861 33.42 438.061 31.1L437.941 31.02C437.421 32.46 436.621 34.62 435.941 36.18L429.181 51.5H425.101ZM463.243 23.5C468.723 23.5 471.843 26.82 471.843 32.54C471.843 38.42 468.723 41.66 463.243 41.66H459.883V51.5H455.843V23.5H463.243ZM463.203 37.82C466.243 37.82 467.723 36.14 467.723 32.54C467.723 29.1 466.243 27.34 463.203 27.34H459.883V37.82H463.203ZM485.883 51.5L484.563 45.86H477.163L475.883 51.5H471.643L478.683 23.5H483.043L490.083 51.5H485.883ZM478.043 42.1H483.723L481.963 34.58C481.563 32.74 481.123 30.06 480.923 28.58H480.803C480.603 30.06 480.203 32.74 479.763 34.58L478.043 42.1ZM503.787 36.98C507.387 37.98 508.627 40.5 508.627 43.74C508.627 48.94 504.907 52.02 499.987 52.02C494.627 52.02 491.467 48.22 491.227 43.5H495.307C495.467 45.98 496.947 48.14 499.947 48.14C502.587 48.14 504.547 46.46 504.547 43.54C504.547 40.5 502.507 38.9 499.547 38.9H497.427V35.3H499.187C502.107 35.3 503.827 33.94 503.827 30.9C503.827 28.34 502.427 26.82 499.947 26.82C497.027 26.82 495.867 28.74 495.707 31.54H491.707C491.987 26.42 494.747 22.94 499.947 22.94C504.747 22.94 507.907 25.94 507.907 30.94C507.907 33.9 506.787 35.86 503.787 36.98ZM524.527 37.1C526.927 38.1 528.407 40.46 528.407 43.5C528.407 48.5 525.207 51.5 520.327 51.5H512.327V23.5H519.927C524.447 23.5 527.367 26.42 527.367 31.1C527.367 33.82 526.247 36.02 524.527 37.1ZM519.447 27.3H516.367V35.34H519.567C522.007 35.34 523.247 33.94 523.247 31.22C523.247 28.58 522.047 27.3 519.447 27.3ZM519.807 47.7C522.767 47.7 524.287 46.34 524.287 43.5C524.287 40.62 522.487 39.14 519.647 39.14H516.367V47.7H519.807ZM532.21 51.5V23.5H536.17V35.74C536.17 37.74 536.01 41.38 535.73 43.82L535.85 43.9C536.37 42.54 537.09 40.58 537.85 38.94L544.65 23.5H548.77V51.5H544.81V39.3C544.81 37.18 544.97 33.42 545.17 31.1L545.05 31.02C544.53 32.46 543.73 34.62 543.05 36.18L536.29 51.5H532.21ZM567.999 23.5V27.34H562.159V51.5H558.039V27.34H552.239V23.5H567.999ZM571.234 51.5V23.5H575.194V35.74C575.194 37.74 575.034 41.38 574.754 43.82L574.874 43.9C575.394 42.54 576.114 40.58 576.874 38.94L583.674 23.5H587.794V51.5H583.834V39.3C583.834 37.18 583.994 33.42 584.194 31.1L584.074 31.02C583.554 32.46 582.754 34.62 582.074 36.18L575.314 51.5H571.234ZM597.422 47.7H607.502V51.5H593.382V23.5H607.102V27.3H597.422V35.42H606.342V39.14H597.422V47.7ZM627.733 51.98C622.813 51.98 619.613 48.9 619.613 43.26V31.74C619.613 26.06 622.773 22.98 627.693 22.98C632.773 22.98 635.773 26.02 636.013 31.58H632.013C631.773 28.3 630.333 26.82 627.653 26.82C625.293 26.82 623.733 28.38 623.733 31.74V43.26C623.733 46.58 625.293 48.14 627.733 48.14C630.453 48.14 631.893 46.62 632.173 43.42H636.173C635.893 48.94 632.893 51.98 627.733 51.98ZM656.101 23.5V51.5H652.061V27.34H644.141V51.5H640.101V23.5H656.101ZM665.703 47.7H675.783V51.5H661.663V23.5H675.383V27.3H665.703V35.42H674.623V39.14H665.703V47.7ZM694.541 56.18V51.5H680.101V23.5H684.141V47.66H691.901V23.5H695.941V47.66H698.501V56.18H694.541ZM702.054 51.5V23.5H706.014V35.74C706.014 37.74 705.854 41.38 705.574 43.82L705.694 43.9C706.214 42.54 706.934 40.58 707.694 38.94L714.494 23.5H718.614V51.5H714.654V39.3C714.654 37.18 714.814 33.42 715.014 31.1L714.894 31.02C714.374 32.46 713.574 34.62 712.894 36.18L706.134 51.5H702.054ZM735.922 51.5L734.602 45.86H727.202L725.922 51.5H721.682L728.722 23.5H733.082L740.122 51.5H735.922ZM728.082 42.1H733.762L732.002 34.58C731.602 32.74 731.162 30.06 730.962 28.58H730.842C730.642 30.06 730.242 32.74 729.802 34.58L728.082 42.1ZM745.216 23.5H759.056V51.5H755.016V27.3H749.096C748.696 35.46 748.336 41.86 747.816 45.18C747.096 50.26 744.736 51.9 740.856 51.9V48.22C742.616 48.22 743.496 47.14 743.936 44.26C744.376 41.34 744.736 35.06 745.216 23.5ZM764.671 51.5V23.5H768.631V35.74C768.631 37.74 768.471 41.38 768.191 43.82L768.311 43.9C768.831 42.54 769.551 40.58 770.311 38.94L777.111 23.5H781.231V51.5H777.271V39.3C777.271 37.18 777.431 33.42 777.631 31.1L777.511 31.02C776.991 32.46 776.191 34.62 775.511 36.18L768.751 51.5H764.671ZM794.14 51.98C789.22 51.98 786.02 48.9 786.02 43.26V31.74C786.02 26.06 789.18 22.98 794.1 22.98C799.18 22.98 802.18 26.02 802.42 31.58H798.42C798.18 28.3 796.74 26.82 794.06 26.82C791.7 26.82 790.14 28.38 790.14 31.74V43.26C790.14 46.58 791.7 48.14 794.14 48.14C796.86 48.14 798.3 46.62 798.58 43.42H802.58C802.3 48.94 799.3 51.98 794.14 51.98ZM820.108 23.5V27.34H814.268V51.5H810.148V27.34H804.348V23.5H820.108ZM831.298 52.02C825.938 52.02 822.738 48.46 822.738 42.62V32.38C822.738 26.54 825.938 22.98 831.298 22.98C836.658 22.98 839.858 26.54 839.858 32.38V42.62C839.858 48.46 836.658 52.02 831.298 52.02ZM831.298 48.06C834.178 48.06 835.698 46.14 835.698 42.62V32.38C835.698 28.86 834.178 26.94 831.298 26.94C828.378 26.94 826.898 28.86 826.898 32.38V42.62C826.898 46.14 828.378 48.06 831.298 48.06ZM856.871 37.1C859.271 38.1 860.751 40.46 860.751 43.5C860.751 48.5 857.551 51.5 852.671 51.5H844.671V23.5H852.271C856.791 23.5 859.711 26.42 859.711 31.1C859.711 33.82 858.591 36.02 856.871 37.1ZM851.791 27.3H848.711V35.34H851.911C854.351 35.34 855.591 33.94 855.591 31.22C855.591 28.58 854.391 27.3 851.791 27.3ZM852.151 47.7C855.111 47.7 856.631 46.34 856.631 43.5C856.631 40.62 854.831 39.14 851.991 39.14H848.711V47.7H852.151ZM885.219 51.5L883.899 45.86H876.499L875.219 51.5H870.979L878.019 23.5H882.379L889.419 51.5H885.219ZM877.379 42.1H883.059L881.299 34.58C880.899 32.74 880.459 30.06 880.259 28.58H880.139C879.939 30.06 879.539 32.74 879.099 34.58L877.379 42.1ZM904.723 37.1C907.123 38.1 908.603 40.46 908.603 43.5C908.603 48.5 905.403 51.5 900.523 51.5H892.523V23.5H900.123C904.643 23.5 907.563 26.42 907.563 31.1C907.563 33.82 906.443 36.02 904.723 37.1ZM899.643 27.3H896.563V35.34H899.763C902.203 35.34 903.443 33.94 903.443 31.22C903.443 28.58 902.243 27.3 899.643 27.3ZM900.003 47.7C902.963 47.7 904.483 46.34 904.483 43.5C904.483 40.62 902.683 39.14 899.843 39.14H896.563V47.7H900.003ZM912.406 51.5V23.5H916.366V35.74C916.366 37.74 916.206 41.38 915.926 43.82L916.046 43.9C916.566 42.54 917.286 40.58 918.046 38.94L924.846 23.5H928.966V51.5H925.006V39.3C925.006 37.18 925.166 33.42 925.366 31.1L925.246 31.02C924.726 32.46 923.926 34.62 923.246 36.18L916.486 51.5H912.406ZM946.274 51.5L944.954 45.86H937.554L936.274 51.5H932.034L939.074 23.5H943.434L950.474 51.5H946.274ZM938.434 42.1H944.114L942.354 34.58C941.954 32.74 941.514 30.06 941.314 28.58H941.194C940.994 30.06 940.594 32.74 940.154 34.58L938.434 42.1ZM968.017 56.18V51.5H953.577V23.5H957.617V47.66H965.377V23.5H969.417V47.66H971.977V56.18H968.017ZM975.531 51.5V23.5H979.491V35.74C979.491 37.74 979.331 41.38 979.051 43.82L979.171 43.9C979.691 42.54 980.411 40.58 981.171 38.94L987.971 23.5H992.091V51.5H988.131V39.3C988.131 37.18 988.291 33.42 988.491 31.1L988.371 31.02C987.851 32.46 987.051 34.62 986.371 36.18L979.611 51.5H975.531ZM1005.44 52.02C1000.08 52.02 996.879 48.46 996.879 42.62V32.38C996.879 26.54 1000.08 22.98 1005.44 22.98C1010.8 22.98 1014 26.54 1014 32.38V42.62C1014 48.46 1010.8 52.02 1005.44 52.02ZM1005.44 48.06C1008.32 48.06 1009.84 46.14 1009.84 42.62V32.38C1009.84 28.86 1008.32 26.94 1005.44 26.94C1002.52 26.94 1001.04 28.86 1001.04 32.38V42.62C1001.04 46.14 1002.52 48.06 1005.44 48.06ZM1030.77 23.5H1034.81V51.5H1030.77V39.22H1022.85V51.5H1018.81V23.5H1022.85V35.42H1030.77V23.5ZM1052.37 23.5H1056.41V51.5H1052.37V39.22H1044.45V51.5H1040.41V23.5H1044.45V35.42H1052.37V23.5ZM1069.77 52.02C1064.41 52.02 1061.21 48.46 1061.21 42.62V32.38C1061.21 26.54 1064.41 22.98 1069.77 22.98C1075.13 22.98 1078.33 26.54 1078.33 32.38V42.62C1078.33 48.46 1075.13 52.02 1069.77 52.02ZM1069.77 48.06C1072.65 48.06 1074.17 46.14 1074.17 42.62V32.38C1074.17 28.86 1072.65 26.94 1069.77 26.94C1066.85 26.94 1065.37 28.86 1065.37 32.38V42.62C1065.37 46.14 1066.85 48.06 1069.77 48.06ZM1091.55 20.78C1088.75 20.78 1086.83 19.02 1086.71 15.98H1089.47C1089.55 17.38 1090.31 18.1 1091.51 18.1C1092.75 18.1 1093.51 17.38 1093.59 15.98H1096.35C1096.23 19.06 1094.31 20.78 1091.55 20.78ZM1083.15 51.5V23.5H1087.11V35.74C1087.11 37.74 1086.95 41.38 1086.67 43.82L1086.79 43.9C1087.31 42.54 1088.03 40.58 1088.79 38.94L1095.59 23.5H1099.71V51.5H1095.75V39.3C1095.75 37.18 1095.91 33.42 1096.11 31.1L1095.99 31.02C1095.47 32.46 1094.67 34.62 1093.99 36.18L1087.23 51.5H1083.15ZM1121.65 52.02C1116.29 52.02 1113.09 48.46 1113.09 42.62V32.38C1113.09 26.54 1116.29 22.98 1121.65 22.98C1127.01 22.98 1130.21 26.54 1130.21 32.38V42.62C1130.21 48.46 1127.01 52.02 1121.65 52.02ZM1121.65 48.06C1124.53 48.06 1126.05 46.14 1126.05 42.62V32.38C1126.05 28.86 1124.53 26.94 1121.65 26.94C1118.73 26.94 1117.25 28.86 1117.25 32.38V42.62C1117.25 46.14 1118.73 48.06 1121.65 48.06ZM1148.23 23.5V27.34H1142.39V51.5H1138.27V27.34H1132.47V23.5H1148.23ZM1158.87 23.5C1164.35 23.5 1167.47 26.82 1167.47 32.54C1167.47 38.42 1164.35 41.66 1158.87 41.66H1155.51V51.5H1151.47V23.5H1158.87ZM1158.83 37.82C1161.87 37.82 1163.35 36.14 1163.35 32.54C1163.35 29.1 1161.87 27.34 1158.83 27.34H1155.51V37.82H1158.83ZM1181.51 51.5L1180.19 45.86H1172.79L1171.51 51.5H1167.27L1174.31 23.5H1178.67L1185.71 51.5H1181.51ZM1173.67 42.1H1179.35L1177.59 34.58C1177.19 32.74 1176.75 30.06 1176.55 28.58H1176.43C1176.23 30.06 1175.83 32.74 1175.39 34.58L1173.67 42.1ZM1195.62 51.98C1190.7 51.98 1187.5 48.9 1187.5 43.26V31.74C1187.5 26.06 1190.66 22.98 1195.58 22.98C1200.66 22.98 1203.66 26.02 1203.9 31.58H1199.9C1199.66 28.3 1198.22 26.82 1195.54 26.82C1193.18 26.82 1191.62 28.38 1191.62 31.74V43.26C1191.62 46.58 1193.18 48.14 1195.62 48.14C1198.34 48.14 1199.78 46.62 1200.06 43.42H1204.06C1203.78 48.94 1200.78 51.98 1195.62 51.98ZM1209.55 23.5H1223.39V51.5H1219.35V27.3H1213.43C1213.03 35.46 1212.67 41.86 1212.15 45.18C1211.43 50.26 1209.07 51.9 1205.19 51.9V48.22C1206.95 48.22 1207.83 47.14 1208.27 44.26C1208.71 41.34 1209.07 35.06 1209.55 23.5ZM1229.01 51.5V23.5H1232.97V35.74C1232.97 37.74 1232.81 41.38 1232.53 43.82L1232.65 43.9C1233.17 42.54 1233.89 40.58 1234.65 38.94L1241.45 23.5H1245.57V51.5H1241.61V39.3C1241.61 37.18 1241.77 33.42 1241.97 31.1L1241.85 31.02C1241.33 32.46 1240.53 34.62 1239.85 36.18L1233.09 51.5H1229.01Z" fill="#72D8FF"/>
</svg>
