<svg width="1382" height="71" viewBox="0 0 1382 71" fill="none" xmlns="http://www.w3.org/2000/svg">
<path d="M1.14917 70.5L66.3654 0.5H293.14H650.694H1380.15L1312.41 70.5M1.14917 70.5C1.14917 70.5 139.122 70.5 153.904 70.5M1.14917 70.5H153.904M1312.41 70.5C1312.41 70.5 361.374 70.5 153.904 70.5M1312.41 70.5H153.904" stroke="#72D8FF"/>
<path d="M156.023 51.5L149.183 39.26L147.343 42.02V51.5H143.343V23.5H147.343V35.66L149.183 32.38L154.783 23.5H159.503L151.503 35.7L160.663 51.5H156.023ZM175.18 51.5L173.86 45.86H166.46L165.18 51.5H160.94L167.98 23.5H172.34L179.38 51.5H175.18ZM167.34 42.1H173.02L171.26 34.58C170.86 32.74 170.42 30.06 170.22 28.58H170.1C169.9 30.06 169.5 32.74 169.06 34.58L167.34 42.1ZM189.883 23.5C195.363 23.5 198.483 26.82 198.483 32.54C198.483 38.42 195.363 41.66 189.883 41.66H186.523V51.5H182.483V23.5H189.883ZM189.843 37.82C192.883 37.82 194.363 36.14 194.363 32.54C194.363 29.1 192.883 27.34 189.843 27.34H186.523V37.82H189.843ZM201.936 51.5V23.5H205.976V34.66H209.416C214.856 34.66 217.816 38.02 217.816 43.1C217.816 48.62 214.856 51.5 209.416 51.5H201.936ZM205.976 47.78H209.216C211.976 47.78 213.656 46.26 213.656 43.1C213.656 40.02 211.976 38.5 209.216 38.5H205.976V47.78ZM225.469 47.7H235.549V51.5H221.429V23.5H235.149V27.3H225.469V35.42H234.389V39.14H225.469V47.7ZM247.266 23.5C252.746 23.5 255.866 26.82 255.866 32.54C255.866 38.42 252.746 41.66 247.266 41.66H243.906V51.5H239.866V23.5H247.266ZM247.226 37.82C250.266 37.82 251.746 36.14 251.746 32.54C251.746 29.1 250.266 27.34 247.226 27.34H243.906V37.82H247.226ZM271.279 23.5H275.319V51.5H271.279V39.22H263.359V51.5H259.319V23.5H263.359V35.42H271.279V23.5ZM280.921 51.5V23.5H285.041V34.7H287.881C293.441 34.7 296.361 38.02 296.361 43.1C296.361 48.62 293.441 51.5 287.881 51.5H280.921ZM299.681 51.5V23.5H303.721V51.5H299.681ZM285.041 47.74H287.681C290.521 47.74 292.161 46.22 292.161 43.1C292.161 40.06 290.521 38.54 287.681 38.54H285.041V47.74ZM317.68 20.78C314.88 20.78 312.96 19.02 312.84 15.98H315.6C315.68 17.38 316.44 18.1 317.64 18.1C318.88 18.1 319.64 17.38 319.72 15.98H322.48C322.36 19.06 320.44 20.78 317.68 20.78ZM309.28 51.5V23.5H313.24V35.74C313.24 37.74 313.08 41.38 312.8 43.82L312.92 43.9C313.44 42.54 314.16 40.58 314.92 38.94L321.72 23.5H325.84V51.5H321.88V39.3C321.88 37.18 322.04 33.42 322.24 31.1L322.12 31.02C321.6 32.46 320.8 34.62 320.12 36.18L313.36 51.5H309.28ZM356.022 23.5V51.5H351.982V27.34H344.062V51.5H340.022V23.5H356.022ZM371.865 23.5H376.105L369.305 45.62C367.865 50.26 365.905 51.9 361.665 51.9H360.665V48.26H361.785C363.945 48.26 364.865 47.14 365.705 44.34L366.025 43.3L358.985 23.5H363.265L367.825 37.14L371.865 23.5ZM393.116 23.5V27.34H387.276V51.5H383.156V27.34H377.356V23.5H393.116ZM396.351 51.5V23.5H400.391V34.66H403.831C409.271 34.66 412.231 38.02 412.231 43.1C412.231 48.62 409.271 51.5 403.831 51.5H396.351ZM400.391 47.78H403.631C406.391 47.78 408.071 46.26 408.071 43.1C408.071 40.02 406.391 38.5 403.631 38.5H400.391V47.78ZM424.436 51.5V23.5H428.396V35.74C428.396 37.74 428.236 41.38 427.956 43.82L428.076 43.9C428.596 42.54 429.316 40.58 430.076 38.94L436.876 23.5H440.996V51.5H437.036V39.3C437.036 37.18 437.196 33.42 437.396 31.1L437.276 31.02C436.756 32.46 435.956 34.62 435.276 36.18L428.516 51.5H424.436ZM462.579 23.5C468.059 23.5 471.179 26.82 471.179 32.54C471.179 38.42 468.059 41.66 462.579 41.66H459.219V51.5H455.179V23.5H462.579ZM462.539 37.82C465.579 37.82 467.059 36.14 467.059 32.54C467.059 29.1 465.579 27.34 462.539 27.34H459.219V37.82H462.539ZM485.219 51.5L483.899 45.86H476.499L475.219 51.5H470.979L478.019 23.5H482.379L489.419 51.5H485.219ZM477.379 42.1H483.059L481.299 34.58C480.899 32.74 480.459 30.06 480.259 28.58H480.139C479.939 30.06 479.539 32.74 479.099 34.58L477.379 42.1ZM503.122 36.98C506.722 37.98 507.962 40.5 507.962 43.74C507.962 48.94 504.242 52.02 499.322 52.02C493.962 52.02 490.802 48.22 490.562 43.5H494.642C494.802 45.98 496.282 48.14 499.282 48.14C501.922 48.14 503.882 46.46 503.882 43.54C503.882 40.5 501.842 38.9 498.882 38.9H496.762V35.3H498.522C501.442 35.3 503.162 33.94 503.162 30.9C503.162 28.34 501.762 26.82 499.282 26.82C496.362 26.82 495.202 28.74 495.042 31.54H491.042C491.322 26.42 494.082 22.94 499.282 22.94C504.082 22.94 507.242 25.94 507.242 30.94C507.242 33.9 506.122 35.86 503.122 36.98ZM523.863 37.1C526.263 38.1 527.743 40.46 527.743 43.5C527.743 48.5 524.543 51.5 519.663 51.5H511.663V23.5H519.263C523.783 23.5 526.703 26.42 526.703 31.1C526.703 33.82 525.583 36.02 523.863 37.1ZM518.783 27.3H515.703V35.34H518.903C521.343 35.34 522.583 33.94 522.583 31.22C522.583 28.58 521.383 27.3 518.783 27.3ZM519.143 47.7C522.103 47.7 523.623 46.34 523.623 43.5C523.623 40.62 521.823 39.14 518.983 39.14H515.703V47.7H519.143ZM531.546 51.5V23.5H535.506V35.74C535.506 37.74 535.346 41.38 535.066 43.82L535.186 43.9C535.706 42.54 536.426 40.58 537.186 38.94L543.986 23.5H548.106V51.5H544.146V39.3C544.146 37.18 544.306 33.42 544.506 31.1L544.386 31.02C543.866 32.46 543.066 34.62 542.386 36.18L535.626 51.5H531.546ZM567.334 23.5V27.34H561.494V51.5H557.374V27.34H551.574V23.5H567.334ZM570.569 51.5V23.5H574.529V35.74C574.529 37.74 574.369 41.38 574.089 43.82L574.209 43.9C574.729 42.54 575.449 40.58 576.209 38.94L583.009 23.5H587.129V51.5H583.169V39.3C583.169 37.18 583.329 33.42 583.529 31.1L583.409 31.02C582.889 32.46 582.089 34.62 581.409 36.18L574.649 51.5H570.569ZM596.758 47.7H606.838V51.5H592.718V23.5H606.438V27.3H596.758V35.42H605.678V39.14H596.758V47.7ZM627.069 51.98C622.149 51.98 618.949 48.9 618.949 43.26V31.74C618.949 26.06 622.109 22.98 627.029 22.98C632.109 22.98 635.109 26.02 635.349 31.58H631.349C631.109 28.3 629.669 26.82 626.989 26.82C624.629 26.82 623.069 28.38 623.069 31.74V43.26C623.069 46.58 624.629 48.14 627.069 48.14C629.789 48.14 631.229 46.62 631.509 43.42H635.509C635.229 48.94 632.229 51.98 627.069 51.98ZM655.436 23.5V51.5H651.396V27.34H643.476V51.5H639.436V23.5H655.436ZM665.039 47.7H675.119V51.5H660.999V23.5H674.719V27.3H665.039V35.42H673.959V39.14H665.039V47.7ZM693.876 56.18V51.5H679.436V23.5H683.476V47.66H691.236V23.5H695.276V47.66H697.836V56.18H693.876ZM701.39 51.5V23.5H705.35V35.74C705.35 37.74 705.19 41.38 704.91 43.82L705.03 43.9C705.55 42.54 706.27 40.58 707.03 38.94L713.83 23.5H717.95V51.5H713.99V39.3C713.99 37.18 714.15 33.42 714.35 31.1L714.23 31.02C713.71 32.46 712.91 34.62 712.23 36.18L705.47 51.5H701.39ZM735.258 51.5L733.938 45.86H726.538L725.258 51.5H721.018L728.058 23.5H732.418L739.458 51.5H735.258ZM727.418 42.1H733.098L731.338 34.58C730.938 32.74 730.498 30.06 730.298 28.58H730.178C729.978 30.06 729.578 32.74 729.138 34.58L727.418 42.1ZM744.551 23.5H758.391V51.5H754.351V27.3H748.431C748.031 35.46 747.671 41.86 747.151 45.18C746.431 50.26 744.071 51.9 740.191 51.9V48.22C741.951 48.22 742.831 47.14 743.271 44.26C743.711 41.34 744.071 35.06 744.551 23.5ZM764.007 51.5V23.5H767.967V35.74C767.967 37.74 767.807 41.38 767.527 43.82L767.647 43.9C768.167 42.54 768.887 40.58 769.647 38.94L776.447 23.5H780.567V51.5H776.607V39.3C776.607 37.18 776.767 33.42 776.967 31.1L776.847 31.02C776.327 32.46 775.527 34.62 774.847 36.18L768.087 51.5H764.007ZM793.475 51.98C788.555 51.98 785.355 48.9 785.355 43.26V31.74C785.355 26.06 788.515 22.98 793.435 22.98C798.515 22.98 801.515 26.02 801.755 31.58H797.755C797.515 28.3 796.075 26.82 793.395 26.82C791.035 26.82 789.475 28.38 789.475 31.74V43.26C789.475 46.58 791.035 48.14 793.475 48.14C796.195 48.14 797.635 46.62 797.915 43.42H801.915C801.635 48.94 798.635 51.98 793.475 51.98ZM819.444 23.5V27.34H813.604V51.5H809.484V27.34H803.684V23.5H819.444ZM830.634 52.02C825.274 52.02 822.074 48.46 822.074 42.62V32.38C822.074 26.54 825.274 22.98 830.634 22.98C835.994 22.98 839.194 26.54 839.194 32.38V42.62C839.194 48.46 835.994 52.02 830.634 52.02ZM830.634 48.06C833.514 48.06 835.034 46.14 835.034 42.62V32.38C835.034 28.86 833.514 26.94 830.634 26.94C827.714 26.94 826.234 28.86 826.234 32.38V42.62C826.234 46.14 827.714 48.06 830.634 48.06ZM856.207 37.1C858.607 38.1 860.087 40.46 860.087 43.5C860.087 48.5 856.887 51.5 852.007 51.5H844.007V23.5H851.607C856.127 23.5 859.047 26.42 859.047 31.1C859.047 33.82 857.927 36.02 856.207 37.1ZM851.127 27.3H848.047V35.34H851.247C853.687 35.34 854.927 33.94 854.927 31.22C854.927 28.58 853.727 27.3 851.127 27.3ZM851.487 47.7C854.447 47.7 855.967 46.34 855.967 43.5C855.967 40.62 854.167 39.14 851.327 39.14H848.047V47.7H851.487ZM884.555 51.5L883.235 45.86H875.835L874.555 51.5H870.315L877.355 23.5H881.715L888.755 51.5H884.555ZM876.715 42.1H882.395L880.635 34.58C880.235 32.74 879.795 30.06 879.595 28.58H879.475C879.275 30.06 878.875 32.74 878.435 34.58L876.715 42.1ZM904.058 37.1C906.458 38.1 907.938 40.46 907.938 43.5C907.938 48.5 904.738 51.5 899.858 51.5H891.858V23.5H899.458C903.978 23.5 906.898 26.42 906.898 31.1C906.898 33.82 905.778 36.02 904.058 37.1ZM898.978 27.3H895.898V35.34H899.098C901.538 35.34 902.778 33.94 902.778 31.22C902.778 28.58 901.578 27.3 898.978 27.3ZM899.338 47.7C902.298 47.7 903.818 46.34 903.818 43.5C903.818 40.62 902.018 39.14 899.178 39.14H895.898V47.7H899.338ZM911.741 51.5V23.5H915.701V35.74C915.701 37.74 915.541 41.38 915.261 43.82L915.381 43.9C915.901 42.54 916.621 40.58 917.381 38.94L924.181 23.5H928.301V51.5H924.341V39.3C924.341 37.18 924.501 33.42 924.701 31.1L924.581 31.02C924.061 32.46 923.261 34.62 922.581 36.18L915.821 51.5H911.741ZM945.61 51.5L944.29 45.86H936.89L935.61 51.5H931.37L938.41 23.5H942.77L949.81 51.5H945.61ZM937.77 42.1H943.45L941.69 34.58C941.29 32.74 940.85 30.06 940.65 28.58H940.53C940.33 30.06 939.93 32.74 939.49 34.58L937.77 42.1ZM967.353 56.18V51.5H952.913V23.5H956.953V47.66H964.713V23.5H968.753V47.66H971.313V56.18H967.353ZM974.866 51.5V23.5H978.826V35.74C978.826 37.74 978.666 41.38 978.386 43.82L978.506 43.9C979.026 42.54 979.746 40.58 980.506 38.94L987.306 23.5H991.426V51.5H987.466V39.3C987.466 37.18 987.626 33.42 987.826 31.1L987.706 31.02C987.186 32.46 986.386 34.62 985.706 36.18L978.946 51.5H974.866ZM1004.77 52.02C999.415 52.02 996.215 48.46 996.215 42.62V32.38C996.215 26.54 999.415 22.98 1004.77 22.98C1010.13 22.98 1013.33 26.54 1013.33 32.38V42.62C1013.33 48.46 1010.13 52.02 1004.77 52.02ZM1004.77 48.06C1007.65 48.06 1009.17 46.14 1009.17 42.62V32.38C1009.17 28.86 1007.65 26.94 1004.77 26.94C1001.85 26.94 1000.37 28.86 1000.37 32.38V42.62C1000.37 46.14 1001.85 48.06 1004.77 48.06ZM1030.11 23.5H1034.15V51.5H1030.11V39.22H1022.19V51.5H1018.15V23.5H1022.19V35.42H1030.11V23.5ZM1051.71 23.5H1055.75V51.5H1051.71V39.22H1043.79V51.5H1039.75V23.5H1043.79V35.42H1051.71V23.5ZM1069.11 52.02C1063.75 52.02 1060.55 48.46 1060.55 42.62V32.38C1060.55 26.54 1063.75 22.98 1069.11 22.98C1074.47 22.98 1077.67 26.54 1077.67 32.38V42.62C1077.67 48.46 1074.47 52.02 1069.11 52.02ZM1069.11 48.06C1071.99 48.06 1073.51 46.14 1073.51 42.62V32.38C1073.51 28.86 1071.99 26.94 1069.11 26.94C1066.19 26.94 1064.71 28.86 1064.71 32.38V42.62C1064.71 46.14 1066.19 48.06 1069.11 48.06ZM1090.88 20.78C1088.08 20.78 1086.16 19.02 1086.04 15.98H1088.8C1088.88 17.38 1089.64 18.1 1090.84 18.1C1092.08 18.1 1092.84 17.38 1092.92 15.98H1095.68C1095.56 19.06 1093.64 20.78 1090.88 20.78ZM1082.48 51.5V23.5H1086.44V35.74C1086.44 37.74 1086.28 41.38 1086 43.82L1086.12 43.9C1086.64 42.54 1087.36 40.58 1088.12 38.94L1094.92 23.5H1099.04V51.5H1095.08V39.3C1095.08 37.18 1095.24 33.42 1095.44 31.1L1095.32 31.02C1094.8 32.46 1094 34.62 1093.32 36.18L1086.56 51.5H1082.48ZM1120.99 52.02C1115.63 52.02 1112.43 48.46 1112.43 42.62V32.38C1112.43 26.54 1115.63 22.98 1120.99 22.98C1126.35 22.98 1129.55 26.54 1129.55 32.38V42.62C1129.55 48.46 1126.35 52.02 1120.99 52.02ZM1120.99 48.06C1123.87 48.06 1125.39 46.14 1125.39 42.62V32.38C1125.39 28.86 1123.87 26.94 1120.99 26.94C1118.07 26.94 1116.59 28.86 1116.59 32.38V42.62C1116.59 46.14 1118.07 48.06 1120.99 48.06ZM1147.57 23.5V27.34H1141.73V51.5H1137.61V27.34H1131.81V23.5H1147.57ZM1158.2 23.5C1163.68 23.5 1166.8 26.82 1166.8 32.54C1166.8 38.42 1163.68 41.66 1158.2 41.66H1154.84V51.5H1150.8V23.5H1158.2ZM1158.16 37.82C1161.2 37.82 1162.68 36.14 1162.68 32.54C1162.68 29.1 1161.2 27.34 1158.16 27.34H1154.84V37.82H1158.16ZM1180.84 51.5L1179.52 45.86H1172.12L1170.84 51.5H1166.6L1173.64 23.5H1178L1185.04 51.5H1180.84ZM1173 42.1H1178.68L1176.92 34.58C1176.52 32.74 1176.08 30.06 1175.88 28.58H1175.76C1175.56 30.06 1175.16 32.74 1174.72 34.58L1173 42.1ZM1194.96 51.98C1190.04 51.98 1186.84 48.9 1186.84 43.26V31.74C1186.84 26.06 1190 22.98 1194.92 22.98C1200 22.98 1203 26.02 1203.24 31.58H1199.24C1199 28.3 1197.56 26.82 1194.88 26.82C1192.52 26.82 1190.96 28.38 1190.96 31.74V43.26C1190.96 46.58 1192.52 48.14 1194.96 48.14C1197.68 48.14 1199.12 46.62 1199.4 43.42H1203.4C1203.12 48.94 1200.12 51.98 1194.96 51.98ZM1208.89 23.5H1222.73V51.5H1218.69V27.3H1212.77C1212.37 35.46 1212.01 41.86 1211.49 45.18C1210.77 50.26 1208.41 51.9 1204.53 51.9V48.22C1206.29 48.22 1207.17 47.14 1207.61 44.26C1208.05 41.34 1208.41 35.06 1208.89 23.5ZM1228.34 51.5V23.5H1232.3V35.74C1232.3 37.74 1232.14 41.38 1231.86 43.82L1231.98 43.9C1232.5 42.54 1233.22 40.58 1233.98 38.94L1240.78 23.5H1244.9V51.5H1240.94V39.3C1240.94 37.18 1241.1 33.42 1241.3 31.1L1241.18 31.02C1240.66 32.46 1239.86 34.62 1239.18 36.18L1232.42 51.5H1228.34Z" fill="#72D8FF"/>
</svg>
