<svg width="996" height="71" viewBox="0 0 996 71" fill="none" xmlns="http://www.w3.org/2000/svg">
<path d="M1.20715 70.5L71.2072 0.499969H217.207L935.207 0.5H994.707L924.707 70.5M1.20715 70.5C1.20715 70.5 103.272 70.5 114.207 70.5M1.20715 70.5H114.207M924.707 70.5C924.707 70.5 267.683 70.5 114.207 70.5M924.707 70.5L114.207 70.5" stroke="#72D8FF"/>
<path d="M156.687 51.5L149.847 39.26L148.007 42.02V51.5H144.007V23.5H148.007V35.66L149.847 32.38L155.447 23.5H160.167L152.167 35.7L161.327 51.5H156.687ZM175.844 51.5L174.524 45.86H167.124L165.844 51.5H161.604L168.644 23.5H173.004L180.044 51.5H175.844ZM168.004 42.1H173.684L171.924 34.58C171.524 32.74 171.084 30.06 170.884 28.58H170.764C170.564 30.06 170.164 32.74 169.724 34.58L168.004 42.1ZM195.828 51.5L188.988 39.26L187.148 42.02V51.5H183.148V23.5H187.148V35.66L188.988 32.38L194.588 23.5H199.308L191.308 35.7L200.468 51.5H195.828ZM219.179 51.98C214.259 51.98 211.059 48.9 211.059 43.26V31.74C211.059 26.06 214.219 22.98 219.139 22.98C224.219 22.98 227.219 26.02 227.459 31.58H223.459C223.219 28.3 221.779 26.82 219.099 26.82C216.739 26.82 215.179 28.38 215.179 31.74V43.26C215.179 46.58 216.739 48.14 219.179 48.14C221.899 48.14 223.339 46.62 223.619 43.42H227.619C227.339 48.94 224.339 51.98 219.179 51.98ZM235.586 47.7H245.666V51.5H231.546V23.5H245.266V27.3H235.586V35.42H244.506V39.14H235.586V47.7ZM263.384 23.5V27.34H254.024V51.5H249.984V23.5H263.384ZM274.619 52.02C269.259 52.02 266.059 48.46 266.059 42.62V32.38C266.059 26.54 269.259 22.98 274.619 22.98C279.979 22.98 283.179 26.54 283.179 32.38V42.62C283.179 48.46 279.979 52.02 274.619 52.02ZM274.619 48.06C277.499 48.06 279.019 46.14 279.019 42.62V32.38C279.019 28.86 277.499 26.94 274.619 26.94C271.699 26.94 270.219 28.86 270.219 32.38V42.62C270.219 46.14 271.699 48.06 274.619 48.06ZM304.192 47.7H306.672V56.18H302.712V51.5H289.392V56.18H285.432V47.7H287.072C289.112 45.62 290.072 41.42 290.232 37.02L290.712 23.5H304.192V47.7ZM300.192 47.7V27.3H294.512L294.112 38.14C293.952 42.1 293.232 45.34 291.912 47.7H300.192ZM322.178 23.5H326.218V51.5H322.178V39.22H314.258V51.5H310.218V23.5H314.258V35.42H322.178V23.5ZM329.7 51.5L335.74 40.7C332.54 39.62 330.74 36.66 330.74 32.5C330.74 26.78 333.86 23.5 339.1 23.5H346.3V51.5H342.26V41.38H339.78L334.18 51.5H329.7ZM339.1 37.58H342.26V27.34H339.14C336.34 27.34 334.86 29.06 334.86 32.42C334.86 35.74 336.34 37.58 339.1 37.58ZM373.892 23.5V27.34H364.532V51.5H360.492V23.5H373.892ZM385.127 52.02C379.767 52.02 376.567 48.46 376.567 42.62V32.38C376.567 26.54 379.767 22.98 385.127 22.98C390.487 22.98 393.687 26.54 393.687 32.38V42.62C393.687 48.46 390.487 52.02 385.127 52.02ZM385.127 48.06C388.007 48.06 389.527 46.14 389.527 42.62V32.38C389.527 28.86 388.007 26.94 385.127 26.94C382.207 26.94 380.727 28.86 380.727 32.38V42.62C380.727 46.14 382.207 48.06 385.127 48.06ZM411.71 23.5V27.34H405.87V51.5H401.75V27.34H395.95V23.5H411.71ZM422.9 52.02C417.54 52.02 414.34 48.46 414.34 42.62V32.38C414.34 26.54 417.54 22.98 422.9 22.98C428.26 22.98 431.46 26.54 431.46 32.38V42.62C431.46 48.46 428.26 52.02 422.9 52.02ZM422.9 48.06C425.78 48.06 427.3 46.14 427.3 42.62V32.38C427.3 28.86 425.78 26.94 422.9 26.94C419.98 26.94 418.5 28.86 418.5 32.38V42.62C418.5 46.14 419.98 48.06 422.9 48.06ZM448.473 37.1C450.873 38.1 452.353 40.46 452.353 43.5C452.353 48.5 449.153 51.5 444.273 51.5H436.273V23.5H443.873C448.393 23.5 451.313 26.42 451.313 31.1C451.313 33.82 450.193 36.02 448.473 37.1ZM443.393 27.3H440.313V35.34H443.513C445.953 35.34 447.193 33.94 447.193 31.22C447.193 28.58 445.993 27.3 443.393 27.3ZM443.753 47.7C446.713 47.7 448.233 46.34 448.233 43.5C448.233 40.62 446.433 39.14 443.593 39.14H440.313V47.7H443.753ZM454.387 51.5L460.427 40.7C457.227 39.62 455.427 36.66 455.427 32.5C455.427 26.78 458.547 23.5 463.787 23.5H470.987V51.5H466.947V41.38H464.467L458.867 51.5H454.387ZM463.787 37.58H466.947V27.34H463.827C461.027 27.34 459.547 29.06 459.547 32.42C459.547 35.74 461.027 37.58 463.787 37.58ZM490.225 23.5V27.34H484.385V51.5H480.265V27.34H474.465V23.5H490.225ZM513.969 51.5L512.649 45.86H505.249L503.969 51.5H499.729L506.769 23.5H511.129L518.169 51.5H513.969ZM506.129 42.1H511.809L510.049 34.58C509.649 32.74 509.209 30.06 509.009 28.58H508.889C508.689 30.06 508.289 32.74 507.849 34.58L506.129 42.1ZM533.473 37.1C535.873 38.1 537.353 40.46 537.353 43.5C537.353 48.5 534.153 51.5 529.273 51.5H521.273V23.5H528.873C533.393 23.5 536.313 26.42 536.313 31.1C536.313 33.82 535.193 36.02 533.473 37.1ZM528.393 27.3H525.313V35.34H528.513C530.953 35.34 532.193 33.94 532.193 31.22C532.193 28.58 530.993 27.3 528.393 27.3ZM528.753 47.7C531.713 47.7 533.233 46.34 533.233 43.5C533.233 40.62 531.433 39.14 528.593 39.14H525.313V47.7H528.753ZM541.156 51.5V23.5H545.116V35.74C545.116 37.74 544.956 41.38 544.676 43.82L544.796 43.9C545.316 42.54 546.036 40.58 546.796 38.94L553.596 23.5H557.716V51.5H553.756V39.3C553.756 37.18 553.916 33.42 554.116 31.1L553.996 31.02C553.476 32.46 552.676 34.62 551.996 36.18L545.236 51.5H541.156ZM575.024 51.5L573.704 45.86H566.304L565.024 51.5H560.784L567.824 23.5H572.184L579.224 51.5H575.024ZM567.184 42.1H572.864L571.104 34.58C570.704 32.74 570.264 30.06 570.064 28.58H569.944C569.744 30.06 569.344 32.74 568.904 34.58L567.184 42.1ZM596.767 56.18V51.5H582.327V23.5H586.367V47.66H594.127V23.5H598.167V47.66H600.727V56.18H596.767ZM604.281 51.5V23.5H608.241V35.74C608.241 37.74 608.081 41.38 607.801 43.82L607.921 43.9C608.441 42.54 609.161 40.58 609.921 38.94L616.721 23.5H620.841V51.5H616.881V39.3C616.881 37.18 617.041 33.42 617.241 31.1L617.121 31.02C616.601 32.46 615.801 34.62 615.121 36.18L608.361 51.5H604.281ZM634.189 52.02C628.829 52.02 625.629 48.46 625.629 42.62V32.38C625.629 26.54 628.829 22.98 634.189 22.98C639.549 22.98 642.749 26.54 642.749 32.38V42.62C642.749 48.46 639.549 52.02 634.189 52.02ZM634.189 48.06C637.069 48.06 638.589 46.14 638.589 42.62V32.38C638.589 28.86 637.069 26.94 634.189 26.94C631.269 26.94 629.789 28.86 629.789 32.38V42.62C629.789 46.14 631.269 48.06 634.189 48.06ZM659.522 23.5H663.562V51.5H659.522V39.22H651.602V51.5H647.562V23.5H651.602V35.42H659.522V23.5ZM681.123 23.5H685.163V51.5H681.123V39.22H673.203V51.5H669.163V23.5H673.203V35.42H681.123V23.5ZM690.765 51.5V23.5H694.885V34.7H697.725C703.285 34.7 706.205 38.02 706.205 43.1C706.205 48.62 703.285 51.5 697.725 51.5H690.765ZM709.525 51.5V23.5H713.565V51.5H709.525ZM694.885 47.74H697.525C700.365 47.74 702.005 46.22 702.005 43.1C702.005 40.06 700.365 38.54 697.525 38.54H694.885V47.74ZM723.164 47.7H733.244V51.5H719.124V23.5H732.844V27.3H723.164V35.42H732.084V39.14H723.164V47.7ZM758.836 51.5L751.996 39.26L750.156 42.02V51.5H746.156V23.5H750.156V35.66L751.996 32.38L757.596 23.5H762.316L754.316 35.7L763.476 51.5H758.836ZM777.993 51.5L776.673 45.86H769.273L767.993 51.5H763.753L770.793 23.5H775.153L782.193 51.5H777.993ZM770.153 42.1H775.833L774.073 34.58C773.673 32.74 773.233 30.06 773.033 28.58H772.913C772.713 30.06 772.313 32.74 771.873 34.58L770.153 42.1ZM801.809 47.7H804.289V56.18H800.329V51.5H787.009V56.18H783.049V47.7H784.689C786.729 45.62 787.689 41.42 787.849 37.02L788.329 23.5H801.809V47.7ZM797.809 47.7V27.3H792.129L791.729 38.14C791.569 42.1 790.849 45.34 789.529 47.7H797.809ZM815.235 23.5C820.715 23.5 823.835 26.82 823.835 32.54C823.835 38.42 820.715 41.66 815.235 41.66H811.875V51.5H807.835V23.5H815.235ZM815.195 37.82C818.235 37.82 819.715 36.14 819.715 32.54C819.715 29.1 818.235 27.34 815.195 27.34H811.875V37.82H815.195ZM827.288 51.5V23.5H831.408V34.7H834.248C839.808 34.7 842.728 38.02 842.728 43.1C842.728 48.62 839.808 51.5 834.248 51.5H827.288ZM846.048 51.5V23.5H850.088V51.5H846.048ZM831.408 47.74H834.048C836.888 47.74 838.528 46.22 838.528 43.1C838.528 40.06 836.888 38.54 834.048 38.54H831.408V47.74Z" fill="#72D8FF"/>
</svg>
