<svg width="982" height="71" viewBox="0 0 982 71" fill="none" xmlns="http://www.w3.org/2000/svg">
<path d="M1.08118 70.5L60.5812 0.5H205.243H455.246H980.581L917.918 70.5M1.08118 70.5C1.08118 70.5 97.5525 70.5 107.888 70.5M1.08118 70.5H107.888M917.918 70.5C917.918 70.5 252.952 70.5 107.888 70.5M917.918 70.5H107.888" stroke="#72D8FF"/>
<path d="M148.888 51.5L142.048 39.26L140.208 42.02V51.5H136.208V23.5H140.208V35.66L142.048 32.38L147.648 23.5H152.368L144.368 35.7L153.528 51.5H148.888ZM168.045 51.5L166.725 45.86H159.325L158.045 51.5H153.805L160.845 23.5H165.205L172.245 51.5H168.045ZM160.205 42.1H165.885L164.125 34.58C163.725 32.74 163.285 30.06 163.085 28.58H162.965C162.765 30.06 162.365 32.74 161.925 34.58L160.205 42.1ZM188.029 51.5L181.189 39.26L179.349 42.02V51.5H175.349V23.5H179.349V35.66L181.189 32.38L186.789 23.5H191.509L183.509 35.7L192.669 51.5H188.029ZM211.38 51.98C206.46 51.98 203.26 48.9 203.26 43.26V31.74C203.26 26.06 206.42 22.98 211.34 22.98C216.42 22.98 219.42 26.02 219.66 31.58H215.66C215.42 28.3 213.98 26.82 211.3 26.82C208.94 26.82 207.38 28.38 207.38 31.74V43.26C207.38 46.58 208.94 48.14 211.38 48.14C214.1 48.14 215.54 46.62 215.82 43.42H219.82C219.54 48.94 216.54 51.98 211.38 51.98ZM227.787 47.7H237.867V51.5H223.747V23.5H237.467V27.3H227.787V35.42H236.707V39.14H227.787V47.7ZM255.585 23.5V27.34H246.225V51.5H242.185V23.5H255.585ZM266.82 52.02C261.46 52.02 258.26 48.46 258.26 42.62V32.38C258.26 26.54 261.46 22.98 266.82 22.98C272.18 22.98 275.38 26.54 275.38 32.38V42.62C275.38 48.46 272.18 52.02 266.82 52.02ZM266.82 48.06C269.7 48.06 271.22 46.14 271.22 42.62V32.38C271.22 28.86 269.7 26.94 266.82 26.94C263.9 26.94 262.42 28.86 262.42 32.38V42.62C262.42 46.14 263.9 48.06 266.82 48.06ZM296.392 47.7H298.872V56.18H294.912V51.5H281.592V56.18H277.632V47.7H279.272C281.312 45.62 282.272 41.42 282.432 37.02L282.912 23.5H296.392V47.7ZM292.392 47.7V27.3H286.712L286.312 38.14C286.152 42.1 285.432 45.34 284.112 47.7H292.392ZM314.379 23.5H318.419V51.5H314.379V39.22H306.459V51.5H302.419V23.5H306.459V35.42H314.379V23.5ZM321.901 51.5L327.941 40.7C324.741 39.62 322.941 36.66 322.941 32.5C322.941 26.78 326.061 23.5 331.301 23.5H338.501V51.5H334.461V41.38H331.981L326.381 51.5H321.901ZM331.301 37.58H334.461V27.34H331.341C328.541 27.34 327.061 29.06 327.061 32.42C327.061 35.74 328.541 37.58 331.301 37.58ZM366.092 23.5V27.34H356.732V51.5H352.692V23.5H366.092ZM377.327 52.02C371.967 52.02 368.767 48.46 368.767 42.62V32.38C368.767 26.54 371.967 22.98 377.327 22.98C382.687 22.98 385.887 26.54 385.887 32.38V42.62C385.887 48.46 382.687 52.02 377.327 52.02ZM377.327 48.06C380.207 48.06 381.727 46.14 381.727 42.62V32.38C381.727 28.86 380.207 26.94 377.327 26.94C374.407 26.94 372.927 28.86 372.927 32.38V42.62C372.927 46.14 374.407 48.06 377.327 48.06ZM403.911 23.5V27.34H398.071V51.5H393.951V27.34H388.151V23.5H403.911ZM415.101 52.02C409.741 52.02 406.541 48.46 406.541 42.62V32.38C406.541 26.54 409.741 22.98 415.101 22.98C420.461 22.98 423.661 26.54 423.661 32.38V42.62C423.661 48.46 420.461 52.02 415.101 52.02ZM415.101 48.06C417.981 48.06 419.501 46.14 419.501 42.62V32.38C419.501 28.86 417.981 26.94 415.101 26.94C412.181 26.94 410.701 28.86 410.701 32.38V42.62C410.701 46.14 412.181 48.06 415.101 48.06ZM440.674 37.1C443.074 38.1 444.554 40.46 444.554 43.5C444.554 48.5 441.354 51.5 436.474 51.5H428.474V23.5H436.074C440.594 23.5 443.514 26.42 443.514 31.1C443.514 33.82 442.394 36.02 440.674 37.1ZM435.594 27.3H432.514V35.34H435.714C438.154 35.34 439.394 33.94 439.394 31.22C439.394 28.58 438.194 27.3 435.594 27.3ZM435.954 47.7C438.914 47.7 440.434 46.34 440.434 43.5C440.434 40.62 438.634 39.14 435.794 39.14H432.514V47.7H435.954ZM446.588 51.5L452.628 40.7C449.428 39.62 447.628 36.66 447.628 32.5C447.628 26.78 450.748 23.5 455.988 23.5H463.188V51.5H459.148V41.38H456.668L451.068 51.5H446.588ZM455.988 37.58H459.148V27.34H456.028C453.228 27.34 451.748 29.06 451.748 32.42C451.748 35.74 453.228 37.58 455.988 37.58ZM482.426 23.5V27.34H476.586V51.5H472.466V27.34H466.666V23.5H482.426ZM506.17 51.5L504.85 45.86H497.45L496.17 51.5H491.93L498.97 23.5H503.33L510.37 51.5H506.17ZM498.33 42.1H504.01L502.25 34.58C501.85 32.74 501.41 30.06 501.21 28.58H501.09C500.89 30.06 500.49 32.74 500.05 34.58L498.33 42.1ZM525.674 37.1C528.074 38.1 529.554 40.46 529.554 43.5C529.554 48.5 526.354 51.5 521.474 51.5H513.474V23.5H521.074C525.594 23.5 528.514 26.42 528.514 31.1C528.514 33.82 527.394 36.02 525.674 37.1ZM520.594 27.3H517.514V35.34H520.714C523.154 35.34 524.394 33.94 524.394 31.22C524.394 28.58 523.194 27.3 520.594 27.3ZM520.954 47.7C523.914 47.7 525.434 46.34 525.434 43.5C525.434 40.62 523.634 39.14 520.794 39.14H517.514V47.7H520.954ZM533.357 51.5V23.5H537.317V35.74C537.317 37.74 537.157 41.38 536.877 43.82L536.997 43.9C537.517 42.54 538.237 40.58 538.997 38.94L545.797 23.5H549.917V51.5H545.957V39.3C545.957 37.18 546.117 33.42 546.317 31.1L546.197 31.02C545.677 32.46 544.877 34.62 544.197 36.18L537.437 51.5H533.357ZM567.225 51.5L565.905 45.86H558.505L557.225 51.5H552.985L560.025 23.5H564.385L571.425 51.5H567.225ZM559.385 42.1H565.065L563.305 34.58C562.905 32.74 562.465 30.06 562.265 28.58H562.145C561.945 30.06 561.545 32.74 561.105 34.58L559.385 42.1ZM588.968 56.18V51.5H574.528V23.5H578.568V47.66H586.328V23.5H590.368V47.66H592.928V56.18H588.968ZM596.482 51.5V23.5H600.442V35.74C600.442 37.74 600.282 41.38 600.002 43.82L600.122 43.9C600.642 42.54 601.362 40.58 602.122 38.94L608.922 23.5H613.042V51.5H609.082V39.3C609.082 37.18 609.242 33.42 609.442 31.1L609.322 31.02C608.802 32.46 608.002 34.62 607.322 36.18L600.562 51.5H596.482ZM626.39 52.02C621.03 52.02 617.83 48.46 617.83 42.62V32.38C617.83 26.54 621.03 22.98 626.39 22.98C631.75 22.98 634.95 26.54 634.95 32.38V42.62C634.95 48.46 631.75 52.02 626.39 52.02ZM626.39 48.06C629.27 48.06 630.79 46.14 630.79 42.62V32.38C630.79 28.86 629.27 26.94 626.39 26.94C623.47 26.94 621.99 28.86 621.99 32.38V42.62C621.99 46.14 623.47 48.06 626.39 48.06ZM651.723 23.5H655.763V51.5H651.723V39.22H643.803V51.5H639.763V23.5H643.803V35.42H651.723V23.5ZM673.324 23.5H677.364V51.5H673.324V39.22H665.404V51.5H661.364V23.5H665.404V35.42H673.324V23.5ZM682.966 51.5V23.5H687.086V34.7H689.926C695.486 34.7 698.406 38.02 698.406 43.1C698.406 48.62 695.486 51.5 689.926 51.5H682.966ZM701.726 51.5V23.5H705.766V51.5H701.726ZM687.086 47.74H689.726C692.566 47.74 694.206 46.22 694.206 43.1C694.206 40.06 692.566 38.54 689.726 38.54H687.086V47.74ZM715.365 47.7H725.445V51.5H711.325V23.5H725.045V27.3H715.365V35.42H724.285V39.14H715.365V47.7ZM751.037 51.5L744.197 39.26L742.357 42.02V51.5H738.357V23.5H742.357V35.66L744.197 32.38L749.797 23.5H754.517L746.517 35.7L755.677 51.5H751.037ZM770.194 51.5L768.874 45.86H761.474L760.194 51.5H755.954L762.994 23.5H767.354L774.394 51.5H770.194ZM762.354 42.1H768.034L766.274 34.58C765.874 32.74 765.434 30.06 765.234 28.58H765.114C764.914 30.06 764.514 32.74 764.074 34.58L762.354 42.1ZM794.01 47.7H796.49V56.18H792.53V51.5H779.21V56.18H775.25V47.7H776.89C778.93 45.62 779.89 41.42 780.05 37.02L780.53 23.5H794.01V47.7ZM790.01 47.7V27.3H784.33L783.93 38.14C783.77 42.1 783.05 45.34 781.73 47.7H790.01ZM807.436 23.5C812.916 23.5 816.036 26.82 816.036 32.54C816.036 38.42 812.916 41.66 807.436 41.66H804.076V51.5H800.036V23.5H807.436ZM807.396 37.82C810.436 37.82 811.916 36.14 811.916 32.54C811.916 29.1 810.436 27.34 807.396 27.34H804.076V37.82H807.396ZM819.489 51.5V23.5H823.609V34.7H826.449C832.009 34.7 834.929 38.02 834.929 43.1C834.929 48.62 832.009 51.5 826.449 51.5H819.489ZM838.249 51.5V23.5H842.289V51.5H838.249ZM823.609 47.74H826.249C829.089 47.74 830.729 46.22 830.729 43.1C830.729 40.06 829.089 38.54 826.249 38.54H823.609V47.74Z" fill="#72D8FF"/>
</svg>
