<svg width="728" height="10" viewBox="0 0 728 10" fill="none" xmlns="http://www.w3.org/2000/svg">
<path fill-rule="evenodd" clip-rule="evenodd" d="M82.5201 1.35999H145.56L137.89 9.03999H74.8401L82.5201 1.35999Z" stroke="#A1A1A1" stroke-width="1.92" stroke-miterlimit="22.93"/>
<path fill-rule="evenodd" clip-rule="evenodd" d="M155 1.35999H218.05L210.37 9.03999H147.32L155 1.35999Z" stroke="#A1A1A1" stroke-width="1.92" stroke-miterlimit="22.93"/>
<path fill-rule="evenodd" clip-rule="evenodd" d="M227.48 1.35999H290.53L282.85 9.03999H219.8L227.48 1.35999Z" stroke="#A1A1A1" stroke-width="1.92" stroke-miterlimit="22.93"/>
<path fill-rule="evenodd" clip-rule="evenodd" d="M299.96 1.35999H363.01L355.33 9.03999H292.28L299.96 1.35999Z" stroke="#A1A1A1" stroke-width="1.92" stroke-miterlimit="22.93"/>
<path fill-rule="evenodd" clip-rule="evenodd" d="M372.44 1.35999H435.49L427.81 9.03999H364.76L372.44 1.35999Z" stroke="#A1A1A1" stroke-width="1.92" stroke-miterlimit="22.93"/>
<path fill-rule="evenodd" clip-rule="evenodd" d="M444.92 1.35999H507.97L500.29 9.03999H437.24L444.92 1.35999Z" stroke="#A1A1A1" stroke-width="1.92" stroke-miterlimit="22.93"/>
<path fill-rule="evenodd" clip-rule="evenodd" d="M517.4 1.35999H580.45L572.77 9.03999H509.72L517.4 1.35999Z" stroke="#A1A1A1" stroke-width="1.92" stroke-miterlimit="22.93"/>
<path fill-rule="evenodd" clip-rule="evenodd" d="M589.88 1.35999H652.93L645.25 9.03999H582.2L589.88 1.35999Z" stroke="#A1A1A1" stroke-width="1.92" stroke-miterlimit="22.93"/>
<path fill-rule="evenodd" clip-rule="evenodd" d="M662.36 1.35999H725.41L717.73 9.03999H654.68L662.36 1.35999Z" stroke="#A1A1A1" stroke-width="1.92" stroke-miterlimit="22.93"/>
<path fill-rule="evenodd" clip-rule="evenodd" d="M1 1.35999H73.08L65.4 9.03999H1V1.35999Z" stroke="#A1A1A1" stroke-width="1.92" stroke-miterlimit="22.93"/>
</svg>
