<svg width="929" height="71" viewBox="0 0 929 71" fill="none" xmlns="http://www.w3.org/2000/svg">
<path d="M1.20703 70.5L71.207 0.5H217.207H481.707H927.207L857.207 70.5M1.20703 70.5C1.20703 70.5 103.272 70.5 114.207 70.5M1.20703 70.5H114.207M857.207 70.5C857.207 70.5 267.683 70.5 114.207 70.5M857.207 70.5H114.207" stroke="#72D8FF"/>
<path d="M157.087 51.5L155.607 45.42H147.487L146.007 51.5H142.567L149.767 23.5H153.327L160.527 51.5H157.087ZM148.207 42.38H154.887L152.607 32.9C152.167 31.1 151.767 28.74 151.607 27.66H151.487C151.327 28.74 150.927 31.1 150.487 32.9L148.207 42.38ZM175.199 37.06C177.839 37.9 179.439 40.3 179.439 43.66C179.439 48.66 176.359 51.5 171.439 51.5H163.799V23.5H170.919C175.519 23.5 178.359 26.26 178.359 30.94C178.359 33.98 177.119 36.18 175.199 37.06ZM170.679 26.58H167.079V35.66H170.759C173.599 35.66 174.999 34.06 174.999 31.02C174.999 27.98 173.599 26.58 170.679 26.58ZM171.159 48.42C174.479 48.42 176.119 46.94 176.119 43.66C176.119 40.42 174.039 38.74 170.879 38.74H167.079V48.42H171.159ZM183.408 51.5V23.5H186.648V38.42C186.648 40.1 186.568 43.22 186.408 45.14L186.528 45.22C186.968 44.06 187.728 42.1 188.488 40.46L195.928 23.5H199.448V51.5H196.208V36.26C196.208 34.58 196.288 31.5 196.368 29.78L196.288 29.7C195.888 30.74 195.088 32.82 194.528 34.1L186.848 51.5H183.408ZM217.243 51.5L215.763 45.42H207.643L206.163 51.5H202.723L209.923 23.5H213.483L220.683 51.5H217.243ZM208.363 42.38H215.043L212.763 32.9C212.323 31.1 211.923 28.74 211.763 27.66H211.643C211.483 28.74 211.083 31.1 210.643 32.9L208.363 42.38ZM238.595 56.14V51.5H223.955V23.5H227.275V48.42H235.995V23.5H239.275V48.42H241.795V56.14H238.595ZM245.635 51.5V23.5H248.875V38.42C248.875 40.1 248.795 43.22 248.635 45.14L248.755 45.22C249.195 44.06 249.955 42.1 250.715 40.46L258.155 23.5H261.675V51.5H258.435V36.26C258.435 34.58 258.515 31.5 258.595 29.78L258.515 29.7C258.115 30.74 257.315 32.82 256.755 34.1L249.075 51.5H245.635ZM275.07 52.02C269.87 52.02 266.75 48.46 266.75 42.7V32.26C266.75 26.54 269.87 22.98 275.07 22.98C280.27 22.98 283.35 26.54 283.35 32.26V42.7C283.35 48.46 280.27 52.02 275.07 52.02ZM275.07 48.82C278.31 48.82 279.99 46.62 279.99 42.7V32.26C279.99 28.38 278.31 26.18 275.07 26.18C271.79 26.18 270.11 28.38 270.11 32.26V42.7C270.11 46.62 271.79 48.82 275.07 48.82ZM300.647 23.5H303.967V51.5H300.647V38.82H291.767V51.5H288.447V23.5H291.767V35.74H300.647V23.5ZM322.015 23.5H325.335V51.5H322.015V38.82H313.135V51.5H309.815V23.5H313.135V35.74H322.015V23.5ZM331.182 51.5V23.5H334.542V34.94H337.942C343.222 34.94 346.302 38.1 346.302 43.18C346.302 48.5 343.222 51.5 337.942 51.5H331.182ZM349.902 51.5V23.5H353.182V51.5H349.902ZM334.542 48.42H337.822C340.982 48.42 342.902 46.66 342.902 43.18C342.902 39.78 340.982 38.06 337.822 38.06H334.542V48.42ZM362.352 48.42H372.912V51.5H359.072V23.5H372.472V26.54H362.352V35.78H371.752V38.78H362.352V48.42ZM396.22 37.02C399.86 37.98 401.22 40.54 401.22 43.86C401.22 48.98 397.7 52.02 392.94 52.02C387.82 52.02 384.7 48.46 384.5 43.74H387.82C387.98 46.66 389.7 48.86 392.9 48.86C395.82 48.86 397.9 46.94 397.9 43.78C397.9 40.34 395.58 38.58 392.42 38.58H390.22V35.62H392.1C395.18 35.62 397.26 34.14 397.26 30.74C397.26 27.82 395.66 26.1 392.86 26.1C389.74 26.1 388.42 28.1 388.18 31.3H384.9C385.22 26.26 387.9 22.94 392.86 22.94C397.5 22.94 400.54 25.86 400.54 30.86C400.54 33.94 399.34 35.98 396.22 37.02ZM417.087 51.5L415.607 45.42H407.487L406.007 51.5H402.567L409.767 23.5H413.327L420.527 51.5H417.087ZM408.207 42.38H414.887L412.607 32.9C412.167 31.1 411.767 28.74 411.607 27.66H411.487C411.327 28.74 410.927 31.1 410.487 32.9L408.207 42.38ZM435.199 37.06C437.839 37.9 439.439 40.3 439.439 43.66C439.439 48.66 436.359 51.5 431.439 51.5H423.799V23.5H430.919C435.519 23.5 438.359 26.26 438.359 30.94C438.359 33.98 437.119 36.18 435.199 37.06ZM430.679 26.58H427.079V35.66H430.759C433.599 35.66 434.999 34.06 434.999 31.02C434.999 27.98 433.599 26.58 430.679 26.58ZM431.159 48.42C434.479 48.42 436.119 46.94 436.119 43.66C436.119 40.42 434.039 38.74 430.879 38.74H427.079V48.42H431.159ZM451.359 52.02C446.159 52.02 443.039 48.46 443.039 42.7V32.26C443.039 26.54 446.159 22.98 451.359 22.98C456.559 22.98 459.639 26.54 459.639 32.26V42.7C459.639 48.46 456.559 52.02 451.359 52.02ZM451.359 48.82C454.599 48.82 456.279 46.62 456.279 42.7V32.26C456.279 28.38 454.599 26.18 451.359 26.18C448.079 26.18 446.399 28.38 446.399 32.26V42.7C446.399 46.62 448.079 48.82 451.359 48.82ZM479.936 48.42H482.376V56.14H479.176V51.5H465.256V56.14H462.056V48.42H463.656C465.496 46.58 466.616 42.58 466.776 37.86L467.256 23.5H479.936V48.42ZM476.656 48.42V26.58H470.336L469.896 38.78C469.736 42.98 468.936 46.18 467.616 48.42H476.656ZM486.221 51.5V23.5H489.581V34.94H492.981C498.261 34.94 501.341 38.1 501.341 43.18C501.341 48.5 498.261 51.5 492.981 51.5H486.221ZM504.941 51.5V23.5H508.221V51.5H504.941ZM489.581 48.42H492.861C496.021 48.42 497.941 46.66 497.941 43.18C497.941 39.78 496.021 38.06 492.861 38.06H489.581V48.42ZM522.979 51.5V23.5H526.219V38.42C526.219 40.1 526.139 43.22 525.979 45.14L526.099 45.22C526.539 44.06 527.299 42.1 528.059 40.46L535.499 23.5H539.019V51.5H535.779V36.26C535.779 34.58 535.859 31.5 535.939 29.78L535.859 29.7C535.459 30.74 534.659 32.82 534.099 34.1L526.419 51.5H522.979ZM569.201 23.5V51.5H565.921V26.58H557.001V51.5H553.721V23.5H569.201ZM582.129 23.5C587.449 23.5 590.449 26.7 590.449 32.34C590.449 38.14 587.449 41.3 582.129 41.3H578.329V51.5H575.049V23.5H582.129ZM582.129 38.18C585.489 38.18 587.129 36.34 587.129 32.34C587.129 28.54 585.489 26.62 582.129 26.62H578.329V38.18H582.129ZM602.257 52.02C597.057 52.02 593.937 48.46 593.937 42.7V32.26C593.937 26.54 597.057 22.98 602.257 22.98C607.457 22.98 610.537 26.54 610.537 32.26V42.7C610.537 48.46 607.457 52.02 602.257 52.02ZM602.257 48.82C605.497 48.82 607.177 46.62 607.177 42.7V32.26C607.177 28.38 605.497 26.18 602.257 26.18C598.977 26.18 597.297 28.38 597.297 32.26V42.7C597.297 46.62 598.977 48.82 602.257 48.82ZM615.635 51.5V23.5H618.875V38.42C618.875 40.1 618.795 43.22 618.635 45.14L618.755 45.22C619.195 44.06 619.955 42.1 620.715 40.46L628.155 23.5H631.675V51.5H628.435V36.26C628.435 34.58 628.515 31.5 628.595 29.78L628.515 29.7C628.115 30.74 627.315 32.82 626.755 34.1L619.075 51.5H615.635ZM647.47 37.02C651.11 37.98 652.47 40.54 652.47 43.86C652.47 48.98 648.95 52.02 644.19 52.02C639.07 52.02 635.95 48.46 635.75 43.74H639.07C639.23 46.66 640.95 48.86 644.15 48.86C647.07 48.86 649.15 46.94 649.15 43.78C649.15 40.34 646.83 38.58 643.67 38.58H641.47V35.62H643.35C646.43 35.62 648.51 34.14 648.51 30.74C648.51 27.82 646.91 26.1 644.11 26.1C640.99 26.1 639.67 28.1 639.43 31.3H636.15C636.47 26.26 639.15 22.94 644.11 22.94C648.75 22.94 651.79 25.86 651.79 30.86C651.79 33.94 650.59 35.98 647.47 37.02ZM667.972 37.06C670.612 37.9 672.212 40.3 672.212 43.66C672.212 48.66 669.132 51.5 664.212 51.5H656.572V23.5H663.692C668.292 23.5 671.132 26.26 671.132 30.94C671.132 33.98 669.892 36.18 667.972 37.06ZM663.452 26.58H659.852V35.66H663.532C666.372 35.66 667.772 34.06 667.772 31.02C667.772 27.98 666.372 26.58 663.452 26.58ZM663.932 48.42C667.252 48.42 668.892 46.94 668.892 43.66C668.892 40.42 666.812 38.74 663.652 38.74H659.852V48.42H663.932ZM684.132 52.02C678.932 52.02 675.812 48.46 675.812 42.7V32.26C675.812 26.54 678.932 22.98 684.132 22.98C689.332 22.98 692.412 26.54 692.412 32.26V42.7C692.412 48.46 689.332 52.02 684.132 52.02ZM684.132 48.82C687.372 48.82 689.052 46.62 689.052 42.7V32.26C689.052 28.38 687.372 26.18 684.132 26.18C680.852 26.18 679.172 28.38 679.172 32.26V42.7C679.172 46.62 680.852 48.82 684.132 48.82ZM712.71 48.42H715.15V56.14H711.95V51.5H698.03V56.14H694.83V48.42H696.43C698.27 46.58 699.39 42.58 699.55 37.86L700.03 23.5H712.71V48.42ZM709.43 48.42V26.58H703.11L702.67 38.78C702.51 42.98 701.71 46.18 700.39 48.42H709.43ZM726.114 51.98C721.394 51.98 718.234 48.94 718.234 43.42V31.58C718.234 26.06 721.354 22.98 726.034 22.98C730.834 22.98 733.794 25.94 734.074 31.34H730.834C730.594 27.74 728.914 26.06 725.994 26.06C723.314 26.06 721.514 27.82 721.514 31.58V43.42C721.514 47.14 723.394 48.9 726.114 48.9C729.074 48.9 730.714 47.18 731.034 43.66H734.274C733.954 48.98 730.994 51.98 726.114 51.98ZM751.449 23.5V26.58H745.449V51.5H742.129V26.58H736.129V23.5H751.449ZM766.332 37.06C768.972 37.9 770.572 40.3 770.572 43.66C770.572 48.66 767.492 51.5 762.572 51.5H754.932V23.5H762.052C766.652 23.5 769.492 26.26 769.492 30.94C769.492 33.98 768.252 36.18 766.332 37.06ZM761.812 26.58H758.212V35.66H761.892C764.732 35.66 766.132 34.06 766.132 31.02C766.132 27.98 764.732 26.58 761.812 26.58ZM762.292 48.42C765.612 48.42 767.252 46.94 767.252 43.66C767.252 40.42 765.172 38.74 762.012 38.74H758.212V48.42H762.292ZM782.492 52.02C777.292 52.02 774.172 48.46 774.172 42.7V32.26C774.172 26.54 777.292 22.98 782.492 22.98C787.692 22.98 790.772 26.54 790.772 32.26V42.7C790.772 48.46 787.692 52.02 782.492 52.02ZM782.492 48.82C785.732 48.82 787.412 46.62 787.412 42.7V32.26C787.412 28.38 785.732 26.18 782.492 26.18C779.212 26.18 777.532 28.38 777.532 32.26V42.7C777.532 46.62 779.212 48.82 782.492 48.82Z" fill="#72D8FF"/>
</svg>
