<svg width="624" height="71" viewBox="0 0 624 71" fill="none" xmlns="http://www.w3.org/2000/svg">
<path d="M1.20703 70.5L71.207 0.5H217.207H612.707H622.207L552.207 70.5M1.20703 70.5C1.20703 70.5 103.272 70.5 114.207 70.5M1.20703 70.5H114.207M552.207 70.5C552.207 70.5 267.683 70.5 114.207 70.5M552.207 70.5H114.207" stroke="#72D8FF"/>
<path d="M157.087 51.5L149.327 38.54L147.407 41.34V51.5H144.127V23.5H147.407V36.3L149.487 32.94L155.807 23.5H159.767L151.287 35.7L160.887 51.5H157.087ZM175.775 51.5L174.295 45.42H166.175L164.695 51.5H161.255L168.455 23.5H172.015L179.215 51.5H175.775ZM166.895 42.38H173.575L171.295 32.9C170.855 31.1 170.455 28.74 170.295 27.66H170.175C170.015 28.74 169.615 31.1 169.175 32.9L166.895 42.38ZM195.446 51.5L187.686 38.54L185.766 41.34V51.5H182.486V23.5H185.766V36.3L187.846 32.94L194.166 23.5H198.126L189.646 35.7L199.246 51.5H195.446ZM218.161 51.98C213.441 51.98 210.281 48.94 210.281 43.42V31.58C210.281 26.06 213.401 22.98 218.081 22.98C222.881 22.98 225.841 25.94 226.121 31.34H222.881C222.641 27.74 220.961 26.06 218.041 26.06C215.361 26.06 213.561 27.82 213.561 31.58V43.42C213.561 47.14 215.441 48.9 218.161 48.9C221.121 48.9 222.761 47.18 223.081 43.66H226.321C226.001 48.98 223.041 51.98 218.161 51.98ZM243.496 23.5V26.58H237.496V51.5H234.176V26.58H228.176V23.5H243.496ZM254.059 23.5C259.379 23.5 262.379 26.7 262.379 32.34C262.379 38.14 259.379 41.3 254.059 41.3H250.259V51.5H246.979V23.5H254.059ZM254.059 38.18C257.419 38.18 259.059 36.34 259.059 32.34C259.059 28.54 257.419 26.62 254.059 26.62H250.259V38.18H254.059ZM274.187 52.02C268.987 52.02 265.867 48.46 265.867 42.7V32.26C265.867 26.54 268.987 22.98 274.187 22.98C279.387 22.98 282.467 26.54 282.467 32.26V42.7C282.467 48.46 279.387 52.02 274.187 52.02ZM274.187 48.82C277.427 48.82 279.107 46.62 279.107 42.7V32.26C279.107 28.38 277.427 26.18 274.187 26.18C270.907 26.18 269.227 28.38 269.227 32.26V42.7C269.227 46.62 270.907 48.82 274.187 48.82ZM285.525 51.5L291.965 40.5C288.405 39.62 286.405 36.58 286.405 32.26C286.405 26.7 289.485 23.5 294.565 23.5H301.365V51.5H298.085V40.9H295.365L289.245 51.5H285.525ZM294.525 37.82H298.085V26.58H294.605C291.405 26.58 289.765 28.5 289.765 32.18C289.765 35.78 291.405 37.82 294.525 37.82ZM320.293 23.5V26.58H314.293V51.5H310.973V26.58H304.973V23.5H320.293ZM339.88 51.98C335.16 51.98 332 48.94 332 43.42V31.58C332 26.06 335.12 22.98 339.8 22.98C344.6 22.98 347.56 25.94 347.84 31.34H344.6C344.36 27.74 342.68 26.06 339.76 26.06C337.08 26.06 335.28 27.82 335.28 31.58V43.42C335.28 47.14 337.16 48.9 339.88 48.9C342.84 48.9 344.48 47.18 344.8 43.66H348.04C347.72 48.98 344.76 51.98 339.88 51.98ZM363.392 51.5L361.912 45.42H353.792L352.312 51.5H348.872L356.072 23.5H359.632L366.832 51.5H363.392ZM354.512 42.38H361.192L358.912 32.9C358.472 31.1 358.072 28.74 357.912 27.66H357.792C357.632 28.74 357.232 31.1 356.792 32.9L354.512 42.38ZM387.664 23.5H391.064V51.5H387.824V38.66C387.864 35.62 387.944 32.9 388.104 30.18L387.944 30.14C387.184 32.26 386.144 34.86 385.144 37.5L382.224 45.06H378.984L376.024 37.5C375.064 34.86 373.984 32.26 373.264 30.14L373.064 30.18C373.224 32.9 373.344 35.62 373.344 38.66V51.5H370.104V23.5H373.544L378.384 35.22C379.064 36.9 380.064 39.66 380.504 41.1H380.664C381.144 39.66 382.144 36.9 382.824 35.22L387.664 23.5ZM404.5 52.02C399.3 52.02 396.18 48.46 396.18 42.7V32.26C396.18 26.54 399.3 22.98 404.5 22.98C409.7 22.98 412.78 26.54 412.78 32.26V42.7C412.78 48.46 409.7 52.02 404.5 52.02ZM404.5 48.82C407.74 48.82 409.42 46.62 409.42 42.7V32.26C409.42 28.38 407.74 26.18 404.5 26.18C401.22 26.18 399.54 28.38 399.54 32.26V42.7C399.54 46.62 401.22 48.82 404.5 48.82ZM419.237 23.5H432.197V51.5H428.917V26.58H422.397C421.997 35.06 421.637 42.22 421.157 45.62C420.557 49.98 418.477 51.9 414.957 51.9V48.82C416.757 48.82 417.637 47.5 417.997 44.98C418.397 42.02 418.797 34.94 419.237 23.5ZM441.352 48.42H451.912V51.5H438.072V23.5H451.472V26.54H441.352V35.78H450.752V38.78H441.352V48.42ZM469.473 23.5V26.58H463.473V51.5H460.153V26.58H454.153V23.5H469.473ZM472.955 51.5V23.5H476.315V34.94H479.715C484.995 34.94 488.075 38.1 488.075 43.18C488.075 48.5 484.995 51.5 479.715 51.5H472.955ZM491.675 51.5V23.5H494.955V51.5H491.675ZM476.315 48.42H479.595C482.755 48.42 484.675 46.66 484.675 43.18C484.675 39.78 482.755 38.06 479.595 38.06H476.315V48.42Z" fill="#72D8FF"/>
</svg>
