<svg width="991" height="71" viewBox="0 0 991 71" fill="none" xmlns="http://www.w3.org/2000/svg">
<path d="M1.20703 70.5L71.207 0.5H217.207H979.707H989.207L919.207 70.5M1.20703 70.5C1.20703 70.5 103.272 70.5 114.207 70.5M1.20703 70.5H114.207M919.207 70.5C919.207 70.5 267.683 70.5 114.207 70.5M919.207 70.5H114.207" stroke="#72D8FF"/>
<path d="M158.767 56.14V51.5H144.127V23.5H147.447V48.42H156.167V23.5H159.447V48.42H161.967V56.14H158.767ZM165.807 51.5V23.5H169.047V38.42C169.047 40.1 168.967 43.22 168.807 45.14L168.927 45.22C169.367 44.06 170.127 42.1 170.887 40.46L178.327 23.5H181.847V51.5H178.607V36.26C178.607 34.58 178.687 31.5 178.767 29.78L178.687 29.7C178.287 30.74 177.487 32.82 176.927 34.1L169.247 51.5H165.807ZM196.282 53.86V50.74H195.562C189.802 50.74 186.082 47.1 186.082 40.62V34.42C186.082 27.9 189.802 24.22 195.562 24.22H196.282V21.3H199.522V24.22H200.242C206.042 24.22 209.762 27.9 209.762 34.42V40.62C209.762 47.1 206.042 50.74 200.242 50.74H199.522V53.86H196.282ZM195.522 47.58H196.282V27.38H195.522C191.602 27.38 189.362 29.62 189.362 34.42V40.62C189.362 45.38 191.602 47.58 195.522 47.58ZM199.522 47.58H200.322C204.242 47.58 206.482 45.38 206.482 40.62V34.42C206.482 29.62 204.242 27.38 200.322 27.38H199.522V47.58ZM221.09 23.5C226.41 23.5 229.41 26.7 229.41 32.34C229.41 38.14 226.41 41.3 221.09 41.3H217.29V51.5H214.01V23.5H221.09ZM221.09 38.18C224.45 38.18 226.09 36.34 226.09 32.34C226.09 28.54 224.45 26.62 221.09 26.62H217.29V38.18H221.09ZM241.218 52.02C236.018 52.02 232.898 48.46 232.898 42.7V32.26C232.898 26.54 236.018 22.98 241.218 22.98C246.418 22.98 249.498 26.54 249.498 32.26V42.7C249.498 48.46 246.418 52.02 241.218 52.02ZM241.218 48.82C244.458 48.82 246.138 46.62 246.138 42.7V32.26C246.138 28.38 244.458 26.18 241.218 26.18C237.938 26.18 236.258 28.38 236.258 32.26V42.7C236.258 46.62 237.938 48.82 241.218 48.82ZM265.996 37.06C268.636 37.9 270.236 40.3 270.236 43.66C270.236 48.66 267.156 51.5 262.236 51.5H254.596V23.5H261.716C266.316 23.5 269.156 26.26 269.156 30.94C269.156 33.98 267.916 36.18 265.996 37.06ZM261.476 26.58H257.876V35.66H261.556C264.396 35.66 265.796 34.06 265.796 31.02C265.796 27.98 264.396 26.58 261.476 26.58ZM261.956 48.42C265.276 48.42 266.916 46.94 266.916 43.66C266.916 40.42 264.836 38.74 261.676 38.74H257.876V48.42H261.956ZM282.156 52.02C276.956 52.02 273.836 48.46 273.836 42.7V32.26C273.836 26.54 276.956 22.98 282.156 22.98C287.356 22.98 290.436 26.54 290.436 32.26V42.7C290.436 48.46 287.356 52.02 282.156 52.02ZM282.156 48.82C285.396 48.82 287.076 46.62 287.076 42.7V32.26C287.076 28.38 285.396 26.18 282.156 26.18C278.876 26.18 277.196 28.38 277.196 32.26V42.7C277.196 46.62 278.876 48.82 282.156 48.82ZM298.813 48.42H309.373V51.5H295.533V23.5H308.933V26.54H298.813V35.78H308.213V38.78H298.813V48.42ZM338.201 23.5V51.5H334.921V26.58H326.001V51.5H322.721V23.5H338.201ZM351.129 23.5C356.449 23.5 359.449 26.7 359.449 32.34C359.449 38.14 356.449 41.3 351.129 41.3H347.329V51.5H344.049V23.5H351.129ZM351.129 38.18C354.489 38.18 356.129 36.34 356.129 32.34C356.129 28.54 354.489 26.62 351.129 26.62H347.329V38.18H351.129ZM371.257 52.02C366.057 52.02 362.937 48.46 362.937 42.7V32.26C362.937 26.54 366.057 22.98 371.257 22.98C376.457 22.98 379.537 26.54 379.537 32.26V42.7C379.537 48.46 376.457 52.02 371.257 52.02ZM371.257 48.82C374.497 48.82 376.177 46.62 376.177 42.7V32.26C376.177 28.38 374.497 26.18 371.257 26.18C367.977 26.18 366.297 28.38 366.297 32.26V42.7C366.297 46.62 367.977 48.82 371.257 48.82ZM384.635 51.5V23.5H387.875V38.42C387.875 40.1 387.795 43.22 387.635 45.14L387.755 45.22C388.195 44.06 388.955 42.1 389.715 40.46L397.155 23.5H400.675V51.5H397.435V36.26C397.435 34.58 397.515 31.5 397.595 29.78L397.515 29.7C397.115 30.74 396.315 32.82 395.755 34.1L388.075 51.5H384.635ZM416.47 37.02C420.11 37.98 421.47 40.54 421.47 43.86C421.47 48.98 417.95 52.02 413.19 52.02C408.07 52.02 404.95 48.46 404.75 43.74H408.07C408.23 46.66 409.95 48.86 413.15 48.86C416.07 48.86 418.15 46.94 418.15 43.78C418.15 40.34 415.83 38.58 412.67 38.58H410.47V35.62H412.35C415.43 35.62 417.51 34.14 417.51 30.74C417.51 27.82 415.91 26.1 413.11 26.1C409.99 26.1 408.67 28.1 408.43 31.3H405.15C405.47 26.26 408.15 22.94 413.11 22.94C417.75 22.94 420.79 25.86 420.79 30.86C420.79 33.94 419.59 35.98 416.47 37.02ZM436.972 37.06C439.612 37.9 441.212 40.3 441.212 43.66C441.212 48.66 438.132 51.5 433.212 51.5H425.572V23.5H432.692C437.292 23.5 440.132 26.26 440.132 30.94C440.132 33.98 438.892 36.18 436.972 37.06ZM432.452 26.58H428.852V35.66H432.532C435.372 35.66 436.772 34.06 436.772 31.02C436.772 27.98 435.372 26.58 432.452 26.58ZM432.932 48.42C436.252 48.42 437.892 46.94 437.892 43.66C437.892 40.42 435.812 38.74 432.652 38.74H428.852V48.42H432.932ZM453.132 52.02C447.932 52.02 444.812 48.46 444.812 42.7V32.26C444.812 26.54 447.932 22.98 453.132 22.98C458.332 22.98 461.412 26.54 461.412 32.26V42.7C461.412 48.46 458.332 52.02 453.132 52.02ZM453.132 48.82C456.372 48.82 458.052 46.62 458.052 42.7V32.26C458.052 28.38 456.372 26.18 453.132 26.18C449.852 26.18 448.172 28.38 448.172 32.26V42.7C448.172 46.62 449.852 48.82 453.132 48.82ZM481.71 48.42H484.15V56.14H480.95V51.5H467.03V56.14H463.83V48.42H465.43C467.27 46.58 468.39 42.58 468.55 37.86L469.03 23.5H481.71V48.42ZM478.43 48.42V26.58H472.11L471.67 38.78C471.51 42.98 470.71 46.18 469.39 48.42H478.43ZM495.114 51.98C490.394 51.98 487.234 48.94 487.234 43.42V31.58C487.234 26.06 490.354 22.98 495.034 22.98C499.834 22.98 502.794 25.94 503.074 31.34H499.834C499.594 27.74 497.914 26.06 494.994 26.06C492.314 26.06 490.514 27.82 490.514 31.58V43.42C490.514 47.14 492.394 48.9 495.114 48.9C498.074 48.9 499.714 47.18 500.034 43.66H503.274C502.954 48.98 499.994 51.98 495.114 51.98ZM520.449 23.5V26.58H514.449V51.5H511.129V26.58H505.129V23.5H520.449ZM535.332 37.06C537.972 37.9 539.572 40.3 539.572 43.66C539.572 48.66 536.492 51.5 531.572 51.5H523.932V23.5H531.052C535.652 23.5 538.492 26.26 538.492 30.94C538.492 33.98 537.252 36.18 535.332 37.06ZM530.812 26.58H527.212V35.66H530.892C533.732 35.66 535.132 34.06 535.132 31.02C535.132 27.98 533.732 26.58 530.812 26.58ZM531.292 48.42C534.612 48.42 536.252 46.94 536.252 43.66C536.252 40.42 534.172 38.74 531.012 38.74H527.212V48.42H531.292ZM551.492 52.02C546.292 52.02 543.172 48.46 543.172 42.7V32.26C543.172 26.54 546.292 22.98 551.492 22.98C556.692 22.98 559.772 26.54 559.772 32.26V42.7C559.772 48.46 556.692 52.02 551.492 52.02ZM551.492 48.82C554.732 48.82 556.412 46.62 556.412 42.7V32.26C556.412 28.38 554.732 26.18 551.492 26.18C548.212 26.18 546.532 28.38 546.532 32.26V42.7C546.532 46.62 548.212 48.82 551.492 48.82ZM565.629 38.14C564.349 38.14 563.469 37.26 563.469 35.94C563.469 34.66 564.349 33.78 565.629 33.78C566.909 33.78 567.789 34.66 567.789 35.94C567.789 37.26 566.909 38.14 565.629 38.14ZM565.629 51.94C564.349 51.94 563.469 51.06 563.469 49.74C563.469 48.46 564.349 47.58 565.629 47.58C566.909 47.58 567.789 48.46 567.789 49.74C567.789 51.06 566.909 51.94 565.629 51.94ZM590.845 37.02C594.485 37.98 595.845 40.54 595.845 43.86C595.845 48.98 592.325 52.02 587.565 52.02C582.445 52.02 579.325 48.46 579.125 43.74H582.445C582.605 46.66 584.325 48.86 587.525 48.86C590.445 48.86 592.525 46.94 592.525 43.78C592.525 40.34 590.205 38.58 587.045 38.58H584.845V35.62H586.725C589.805 35.62 591.885 34.14 591.885 30.74C591.885 27.82 590.285 26.1 587.485 26.1C584.365 26.1 583.045 28.1 582.805 31.3H579.525C579.845 26.26 582.525 22.94 587.485 22.94C592.125 22.94 595.165 25.86 595.165 30.86C595.165 33.94 593.965 35.98 590.845 37.02ZM611.712 51.5L610.232 45.42H602.112L600.632 51.5H597.192L604.392 23.5H607.952L615.152 51.5H611.712ZM602.832 42.38H609.512L607.232 32.9C606.792 31.1 606.392 28.74 606.232 27.66H606.112C605.952 28.74 605.552 31.1 605.112 32.9L602.832 42.38ZM629.824 37.06C632.464 37.9 634.064 40.3 634.064 43.66C634.064 48.66 630.984 51.5 626.064 51.5H618.424V23.5H625.544C630.144 23.5 632.984 26.26 632.984 30.94C632.984 33.98 631.744 36.18 629.824 37.06ZM625.304 26.58H621.704V35.66H625.384C628.224 35.66 629.624 34.06 629.624 31.02C629.624 27.98 628.224 26.58 625.304 26.58ZM625.784 48.42C629.104 48.42 630.744 46.94 630.744 43.66C630.744 40.42 628.664 38.74 625.504 38.74H621.704V48.42H625.784ZM645.984 52.02C640.784 52.02 637.664 48.46 637.664 42.7V32.26C637.664 26.54 640.784 22.98 645.984 22.98C651.184 22.98 654.264 26.54 654.264 32.26V42.7C654.264 48.46 651.184 52.02 645.984 52.02ZM645.984 48.82C649.224 48.82 650.904 46.62 650.904 42.7V32.26C650.904 28.38 649.224 26.18 645.984 26.18C642.704 26.18 641.024 28.38 641.024 32.26V42.7C641.024 46.62 642.704 48.82 645.984 48.82ZM674.561 48.42H677.001V56.14H673.801V51.5H659.881V56.14H656.681V48.42H658.281C660.121 46.58 661.241 42.58 661.401 37.86L661.881 23.5H674.561V48.42ZM671.281 48.42V26.58H664.961L664.521 38.78C664.361 42.98 663.561 46.18 662.241 48.42H671.281ZM697.113 34.7C702.193 34.7 705.353 37.86 705.353 43.02C705.353 48.46 702.193 51.5 697.113 51.5H689.713V23.5H703.833V26.58H693.033V34.7H697.113ZM696.993 48.42C699.993 48.42 701.993 46.62 701.993 43.02C701.993 39.5 699.993 37.74 696.993 37.74H693.033V48.42H696.993ZM719.446 23.5H722.846L715.966 46.02C714.766 49.94 712.926 51.9 709.046 51.9H708.086V48.86H709.126C711.286 48.86 712.246 47.5 713.006 45.02L713.606 43.06L706.526 23.5H709.966L715.046 38.18L719.446 23.5ZM739.327 48.42H741.767V56.14H738.567V51.5H724.647V56.14H721.447V48.42H723.047C724.887 46.58 726.007 42.58 726.167 37.86L726.647 23.5H739.327V48.42ZM736.047 48.42V26.58H729.727L729.287 38.78C729.127 42.98 728.327 46.18 727.007 48.42H736.047ZM755.891 23.5H759.291L752.411 46.02C751.211 49.94 749.371 51.9 745.491 51.9H744.531V48.86H745.571C747.731 48.86 748.691 47.5 749.451 45.02L750.051 43.06L742.971 23.5H746.411L751.491 38.18L755.891 23.5ZM788.33 48.42H790.81V56.14H787.61V51.5H762.33V23.5H765.61V48.42H773.73V23.5H776.97V48.42H785.09V23.5H788.33V48.42ZM797.915 48.42H808.475V51.5H794.635V23.5H808.035V26.54H797.915V35.78H807.315V38.78H797.915V48.42ZM826.075 23.5V26.58H816.235V51.5H812.955V23.5H826.075ZM837.234 52.02C832.034 52.02 828.914 48.46 828.914 42.7V32.26C828.914 26.54 832.034 22.98 837.234 22.98C842.434 22.98 845.514 26.54 845.514 32.26V42.7C845.514 48.46 842.434 52.02 837.234 52.02ZM837.234 48.82C840.474 48.82 842.154 46.62 842.154 42.7V32.26C842.154 28.38 840.474 26.18 837.234 26.18C833.954 26.18 832.274 28.38 832.274 32.26V42.7C832.274 46.62 833.954 48.82 837.234 48.82Z" fill="#72D8FF"/>
</svg>
