<svg width="767" height="71" viewBox="0 0 767 71" fill="none" xmlns="http://www.w3.org/2000/svg">
<path d="M1.20703 70.5L71.207 0.5H217.207H756.207H765.707L695.707 70.5M1.20703 70.5C1.20703 70.5 103.272 70.5 114.207 70.5M1.20703 70.5H114.207M695.707 70.5C695.707 70.5 267.683 70.5 114.207 70.5M695.707 70.5H114.207" stroke="#72D8FF"/>
<path d="M157.087 51.5L149.327 38.54L147.407 41.34V51.5H144.127V23.5H147.407V36.3L149.487 32.94L155.807 23.5H159.767L151.287 35.7L160.887 51.5H157.087ZM170.816 23.5C176.136 23.5 179.136 26.7 179.136 32.34C179.136 38.14 176.136 41.3 170.816 41.3H167.016V51.5H163.736V23.5H170.816ZM170.816 38.18C174.176 38.18 175.816 36.34 175.816 32.34C175.816 28.54 174.176 26.62 170.816 26.62H167.016V38.18H170.816ZM193.196 23.5H196.596L189.716 46.02C188.516 49.94 186.676 51.9 182.796 51.9H181.836V48.86H182.876C185.036 48.86 185.996 47.5 186.756 45.02L187.356 43.06L180.276 23.5H183.716L188.796 38.18L193.196 23.5ZM215.115 23.5V51.5H211.835V26.58H202.915V51.5H199.635V23.5H215.115ZM233.163 23.5H236.483V51.5H233.163V38.82H224.283V51.5H220.963V23.5H224.283V35.74H233.163V23.5ZM245.61 48.42H256.17V51.5H242.33V23.5H255.73V26.54H245.61V35.78H255.01V38.78H245.61V48.42ZM268.77 20.82C265.97 20.82 264.21 19.1 264.09 16.1H266.49C266.61 17.66 267.33 18.46 268.73 18.46C270.17 18.46 270.89 17.66 270.97 16.1H273.41C273.29 19.1 271.53 20.82 268.77 20.82ZM260.65 51.5V23.5H263.89V38.42C263.89 40.1 263.81 43.22 263.65 45.14L263.77 45.22C264.21 44.06 264.97 42.1 265.73 40.46L273.17 23.5H276.69V51.5H273.45V36.26C273.45 34.58 273.53 31.5 273.61 29.78L273.53 29.7C273.13 30.74 272.33 32.82 271.77 34.1L264.09 51.5H260.65ZM282.525 51.5V23.5H285.805V48.42H293.925V23.5H297.205V48.42H305.325V23.5H308.565V51.5H282.525ZM314.44 51.5V23.5H317.68V38.42C317.68 40.1 317.6 43.22 317.44 45.14L317.56 45.22C318 44.06 318.76 42.1 319.52 40.46L326.96 23.5H330.48V51.5H327.24V36.26C327.24 34.58 327.32 31.5 327.4 29.78L327.32 29.7C326.92 30.74 326.12 32.82 325.56 34.1L317.88 51.5H314.44ZM339.595 48.42H350.155V51.5H336.315V23.5H349.715V26.54H339.595V35.78H348.995V38.78H339.595V48.42ZM373.462 37.02C377.102 37.98 378.462 40.54 378.462 43.86C378.462 48.98 374.942 52.02 370.182 52.02C365.062 52.02 361.942 48.46 361.742 43.74H365.062C365.222 46.66 366.942 48.86 370.142 48.86C373.062 48.86 375.142 46.94 375.142 43.78C375.142 40.34 372.822 38.58 369.662 38.58H367.462V35.62H369.342C372.422 35.62 374.502 34.14 374.502 30.74C374.502 27.82 372.902 26.1 370.102 26.1C366.982 26.1 365.662 28.1 365.422 31.3H362.142C362.462 26.26 365.142 22.94 370.102 22.94C374.742 22.94 377.782 25.86 377.782 30.86C377.782 33.94 376.582 35.98 373.462 37.02ZM394.329 51.5L392.849 45.42H384.729L383.249 51.5H379.809L387.009 23.5H390.569L397.769 51.5H394.329ZM385.449 42.38H392.129L389.849 32.9C389.409 31.1 389.009 28.74 388.849 27.66H388.729C388.569 28.74 388.169 31.1 387.729 32.9L385.449 42.38ZM412.441 37.06C415.081 37.9 416.681 40.3 416.681 43.66C416.681 48.66 413.601 51.5 408.681 51.5H401.041V23.5H408.161C412.761 23.5 415.601 26.26 415.601 30.94C415.601 33.98 414.361 36.18 412.441 37.06ZM407.921 26.58H404.321V35.66H408.001C410.841 35.66 412.241 34.06 412.241 31.02C412.241 27.98 410.841 26.58 407.921 26.58ZM408.401 48.42C411.721 48.42 413.361 46.94 413.361 43.66C413.361 40.42 411.281 38.74 408.121 38.74H404.321V48.42H408.401ZM428.601 52.02C423.401 52.02 420.281 48.46 420.281 42.7V32.26C420.281 26.54 423.401 22.98 428.601 22.98C433.801 22.98 436.881 26.54 436.881 32.26V42.7C436.881 48.46 433.801 52.02 428.601 52.02ZM428.601 48.82C431.841 48.82 433.521 46.62 433.521 42.7V32.26C433.521 28.38 431.841 26.18 428.601 26.18C425.321 26.18 423.641 28.38 423.641 32.26V42.7C423.641 46.62 425.321 48.82 428.601 48.82ZM457.179 48.42H459.619V56.14H456.419V51.5H442.499V56.14H439.299V48.42H440.899C442.739 46.58 443.859 42.58 444.019 37.86L444.499 23.5H457.179V48.42ZM453.899 48.42V26.58H447.579L447.139 38.78C446.979 42.98 446.179 46.18 444.859 48.42H453.899ZM463.463 51.5V23.5H466.823V34.94H470.223C475.503 34.94 478.583 38.1 478.583 43.18C478.583 48.5 475.503 51.5 470.223 51.5H463.463ZM482.183 51.5V23.5H485.463V51.5H482.183ZM466.823 48.42H470.103C473.263 48.42 475.183 46.66 475.183 43.18C475.183 39.78 473.263 38.06 470.103 38.06H466.823V48.42ZM507.301 23.5C512.621 23.5 515.621 26.7 515.621 32.34C515.621 38.14 512.621 41.3 507.301 41.3H503.501V51.5H500.221V23.5H507.301ZM507.301 38.18C510.661 38.18 512.301 36.34 512.301 32.34C512.301 28.54 510.661 26.62 507.301 26.62H503.501V38.18H507.301ZM527.429 52.02C522.229 52.02 519.109 48.46 519.109 42.7V32.26C519.109 26.54 522.229 22.98 527.429 22.98C532.629 22.98 535.709 26.54 535.709 32.26V42.7C535.709 48.46 532.629 52.02 527.429 52.02ZM527.429 48.82C530.669 48.82 532.349 46.62 532.349 42.7V32.26C532.349 28.38 530.669 26.18 527.429 26.18C524.149 26.18 522.469 28.38 522.469 32.26V42.7C522.469 46.62 524.149 48.82 527.429 48.82ZM547.927 51.98C543.207 51.98 540.047 48.94 540.047 43.42V31.58C540.047 26.06 543.167 22.98 547.847 22.98C552.647 22.98 555.607 25.94 555.887 31.34H552.647C552.407 27.74 550.727 26.06 547.807 26.06C545.127 26.06 543.327 27.82 543.327 31.58V43.42C543.327 47.14 545.207 48.9 547.927 48.9C550.887 48.9 552.527 47.18 552.847 43.66H556.087C555.767 48.98 552.807 51.98 547.927 51.98ZM567.38 51.98C562.66 51.98 559.5 48.94 559.5 43.42V31.58C559.5 26.06 562.62 22.98 567.3 22.98C572.1 22.98 575.06 25.94 575.34 31.34H572.1C571.86 27.74 570.18 26.06 567.26 26.06C564.58 26.06 562.78 27.82 562.78 31.58V43.42C562.78 47.14 564.66 48.9 567.38 48.9C570.34 48.9 571.98 47.18 572.3 43.66H575.54C575.22 48.98 572.26 51.98 567.38 51.98ZM579.713 51.5V23.5H582.953V38.42C582.953 40.1 582.873 43.22 582.713 45.14L582.833 45.22C583.273 44.06 584.033 42.1 584.793 40.46L592.233 23.5H595.753V51.5H592.513V36.26C592.513 34.58 592.593 31.5 592.673 29.78L592.593 29.7C592.193 30.74 591.393 32.82 590.833 34.1L583.153 51.5H579.713ZM601.588 51.5V23.5H604.828V38.42C604.828 40.1 604.748 43.22 604.588 45.14L604.708 45.22C605.148 44.06 605.908 42.1 606.668 40.46L614.108 23.5H617.628V51.5H614.388V36.26C614.388 34.58 614.468 31.5 614.548 29.78L614.468 29.7C614.068 30.74 613.268 32.82 612.708 34.1L605.028 51.5H601.588Z" fill="#72D8FF"/>
</svg>
