<svg width="517" height="122" viewBox="0 0 517 122" fill="none" xmlns="http://www.w3.org/2000/svg">
<path d="M2 121L122.141 1H515.859V121H2Z" fill="url(#paint0_linear_0_1)" stroke="#72D8FF"/>
<path d="M327.122 61.672C330.29 62.68 332.21 65.56 332.21 69.592C332.21 75.592 328.514 79 322.609 79H313.442V45.4H321.986C327.506 45.4 330.914 48.712 330.914 54.328C330.914 57.976 329.426 60.616 327.122 61.672ZM321.698 49.096H317.378V59.992H321.794C325.202 59.992 326.882 58.072 326.882 54.424C326.882 50.776 325.202 49.096 321.698 49.096ZM322.273 75.304C326.258 75.304 328.226 73.528 328.226 69.592C328.226 65.704 325.73 63.688 321.938 63.688H317.378V75.304H322.273ZM340.909 75.304H353.581V79H336.973V45.4H353.053V49.048H340.909V60.136H352.189V63.736H340.909V75.304ZM367.453 45.4C373.837 45.4 377.437 49.24 377.437 56.008C377.437 62.968 373.837 66.76 367.453 66.76H362.893V79H358.957V45.4H367.453ZM367.453 63.016C371.485 63.016 373.453 60.808 373.453 56.008C373.453 51.448 371.485 49.144 367.453 49.144H362.893V63.016H367.453ZM396.378 45.4H400.362V79H396.378V63.784H385.722V79H381.738V45.4H385.722V60.088H396.378V45.4ZM416.451 79.624C410.211 79.624 406.467 75.352 406.467 68.44V55.912C406.467 49.048 410.211 44.776 416.451 44.776C422.691 44.776 426.387 49.048 426.387 55.912V68.44C426.387 75.352 422.691 79.624 416.451 79.624ZM416.451 75.784C420.339 75.784 422.355 73.144 422.355 68.44V55.912C422.355 51.256 420.339 48.616 416.451 48.616C412.515 48.616 410.499 51.256 410.499 55.912V68.44C410.499 73.144 412.515 75.784 416.451 75.784Z" fill="#72D8FF"/>
<path d="M229 61L259 31L289 61L259 91L229 61ZM285.867 61L259 34.1333L232.133 61L259 87.8667L285.867 61Z" fill="#72D8FF"/>
<defs>
<linearGradient id="paint0_linear_0_1" x1="319" y1="-256" x2="319" y2="378" gradientUnits="userSpaceOnUse">
<stop stop-color="#4C7484" stop-opacity="0.3"/>
<stop offset="1" stop-color="#4C7484" stop-opacity="0.7"/>
</linearGradient>
</defs>
</svg>
