<svg width="27" height="27" viewBox="0 0 27 27" fill="none" xmlns="http://www.w3.org/2000/svg">
<path d="M1.44043 13.4502C1.49048 16.5501 2.49963 19.2006 4.55957 21.5205C4.75956 21.7305 4.9504 21.9201 5.15039 22.1201C5.2603 22.22 5.38034 22.3298 5.49023 22.4297C7.57012 24.2696 10.0498 25.2496 12.8096 25.4297L12.1201 24.0605H13.71L15.0801 26.79C14.5501 26.86 14.0001 26.8896 13.4502 26.8896V26.9004C13.4502 26.9004 13.0501 26.8996 12.8301 26.8896C12.6101 26.8796 12.3999 26.8598 12.1699 26.8398C11.95 26.8099 11.75 26.7898 11.54 26.7598C10.43 26.5998 9.42965 26.3202 8.38965 25.9102C7.98974 25.7402 7.59965 25.5701 7.21973 25.3701C7.03978 25.2702 6.85963 25.1803 6.67969 25.0703C6.40973 24.9103 6.14961 24.7403 5.88965 24.5703C5.0198 23.9804 4.23018 23.3001 3.53027 22.5303C1.20033 19.9703 0.0500509 16.8901 0 13.4502H1.44043ZM11.2275 10.7578L9.46387 13.5176C10.7839 13.5416 11.4199 14.4183 11.4199 15.6543V16.2305C11.4198 17.8022 10.6395 18.6416 9.30762 18.6416C8.05981 18.6414 7.19587 17.8378 7.17188 16.2539H8.12012C8.16812 17.3579 8.63594 17.7177 9.2959 17.7178C10.0759 17.7178 10.4844 17.2618 10.4844 16.2178V15.666C10.4844 14.694 9.97978 14.2979 9.17578 14.2979H8.41992V13.5898L10.04 10.9736H7.45996V10.0977H11.2275V10.7578ZM15.9277 10.1104C17.5357 10.1104 18.4717 11.0463 18.4717 12.6543V15.9658C18.4717 17.5737 17.5242 18.5096 15.9404 18.5098H13.9365V10.1104H15.9277ZM14.9199 17.5742H15.9404C16.9242 17.5741 17.4883 17.0216 17.4883 15.9297V12.6777C17.4882 11.5981 16.9361 11.046 15.9404 11.0459H14.9199V17.5742ZM14.0703 0.00976563C14.2902 0.0197692 14.5005 0.0405539 14.7305 0.0605469C14.9503 0.0905124 15.1505 0.109669 15.3604 0.139648C16.4702 0.299645 17.4699 0.580301 18.5098 0.990234C18.9097 1.1602 19.2997 1.33032 19.6797 1.53027C19.8596 1.63024 20.0398 1.72013 20.2197 1.83008C20.4897 1.99005 20.7498 2.16011 21.0098 2.33008C21.8798 2.92008 22.6701 3.60012 23.3701 4.37012C25.7001 6.9301 26.8504 10.0102 26.9004 13.4502H25.46C25.41 10.3502 24.3998 7.69988 22.3398 5.37988C22.1399 5.16998 21.9499 4.98019 21.75 4.78027C21.64 4.67027 21.5202 4.56973 21.4102 4.46973C19.3302 2.62977 16.8498 1.64972 14.0898 1.46973L14.7803 2.83984H13.1904L11.8203 0.110352C12.3503 0.0403697 12.9003 0.00976563 13.4502 0.00976563V1.5092e-09C13.4584 1.27583e-06 13.8526 -0.000130148 14.0703 0.00976563Z" fill="#A1A1A1"/>
</svg>
