<svg width="602" height="75" viewBox="0 0 602 75" fill="none" xmlns="http://www.w3.org/2000/svg">
<path d="M1 74V49L49 1H548.5L601 53V74H303.5H1Z" fill="#4C7484" fill-opacity="0.8" stroke="#72D8FF"/>
<path d="M266.676 26.8H269.664V52H266.676V40.588H258.684V52H255.696V26.8H258.684V37.816H266.676V26.8ZM285.691 52L284.359 46.528H277.051L275.719 52H272.623L279.103 26.8H282.307L288.787 52H285.691ZM277.699 43.792H283.711L281.659 35.26C281.263 33.64 280.903 31.516 280.759 30.544H280.651C280.507 31.516 280.147 33.64 279.751 35.26L277.699 43.792ZM300.574 26.8H303.526V52.036H300.574V42.424C299.458 42.856 298.162 43.108 297.01 43.108C292.438 43.108 289.558 40.3 289.558 35.296V26.8H292.51V35.332C292.51 38.716 294.274 40.336 297.226 40.336C298.342 40.336 299.386 40.156 300.574 39.652V26.8ZM319.546 52L318.214 46.528H310.906L309.574 52H306.478L312.958 26.8H316.162L322.642 52H319.546ZM311.554 43.792H317.566L315.514 35.26C315.118 33.64 314.758 31.516 314.614 30.544H314.506C314.362 31.516 314.002 33.64 313.606 35.26L311.554 43.792ZM336.058 26.8V29.572H330.658V52H327.67V29.572H322.27V26.8H336.058ZM339.192 52V26.8H342.18V37.06H345.816C350.388 37.06 353.16 39.94 353.16 44.476C353.16 49.3 350.388 52 345.816 52H339.192ZM342.18 49.264H345.708C348.372 49.264 350.136 47.644 350.136 44.476C350.136 41.416 348.372 39.868 345.708 39.868H342.18V49.264Z" fill="#72D8FF"/>
</svg>
