<svg width="1043" height="71" viewBox="0 0 1043 71" fill="none" xmlns="http://www.w3.org/2000/svg">
<path d="M1.20709 70.5L71.2071 0.5H217.207H481.707H1041.21L971.207 70.5M1.20709 70.5C1.20709 70.5 103.272 70.5 114.207 70.5M1.20709 70.5H114.207M971.207 70.5C971.207 70.5 267.683 70.5 114.207 70.5M971.207 70.5H114.207" stroke="#72D8FF"/>
<path d="M155.967 23.5H160.007V51.5H155.967V39.22H148.047V51.5H144.007V23.5H148.047V35.42H155.967V23.5ZM177.329 51.5L176.009 45.86H168.609L167.329 51.5H163.089L170.129 23.5H174.489L181.529 51.5H177.329ZM169.489 42.1H175.169L173.409 34.58C173.009 32.74 172.569 30.06 172.369 28.58H172.249C172.049 30.06 171.649 32.74 171.209 34.58L169.489 42.1ZM194.912 23.5H199.152L192.352 45.62C190.912 50.26 188.952 51.9 184.712 51.9H183.712V48.26H184.832C186.992 48.26 187.912 47.14 188.752 44.34L189.072 43.3L182.032 23.5H186.312L190.872 37.14L194.912 23.5ZM212.774 23.5H216.814V51.58H212.774V41.22C211.574 41.66 210.174 41.86 208.974 41.86C203.894 41.86 200.734 38.62 200.734 32.94V23.5H204.774V33.06C204.774 36.46 206.454 38.06 209.414 38.06C210.534 38.06 211.654 37.9 212.774 37.46V23.5ZM234.366 23.5H238.406V51.5H234.366V39.22H226.446V51.5H222.406V23.5H226.446V35.42H234.366V23.5ZM251.767 52.02C246.407 52.02 243.207 48.46 243.207 42.62V32.38C243.207 26.54 246.407 22.98 251.767 22.98C257.127 22.98 260.327 26.54 260.327 32.38V42.62C260.327 48.46 257.127 52.02 251.767 52.02ZM251.767 48.06C254.647 48.06 256.167 46.14 256.167 42.62V32.38C256.167 28.86 254.647 26.94 251.767 26.94C248.847 26.94 247.367 28.86 247.367 32.38V42.62C247.367 46.14 248.847 48.06 251.767 48.06ZM263.665 42.94V39.5H273.465V42.94H263.665ZM277.796 51.5V23.5H281.756V35.74C281.756 37.74 281.596 41.38 281.316 43.82L281.436 43.9C281.956 42.54 282.676 40.58 283.436 38.94L290.236 23.5H294.356V51.5H290.396V39.3C290.396 37.18 290.556 33.42 290.756 31.1L290.636 31.02C290.116 32.46 289.316 34.62 288.636 36.18L281.876 51.5H277.796ZM307.265 51.98C302.345 51.98 299.145 48.9 299.145 43.26V31.74C299.145 26.06 302.305 22.98 307.225 22.98C312.305 22.98 315.305 26.02 315.545 31.58H311.545C311.305 28.3 309.865 26.82 307.185 26.82C304.825 26.82 303.265 28.38 303.265 31.74V43.26C303.265 46.58 304.825 48.14 307.265 48.14C309.985 48.14 311.425 46.62 311.705 43.42H315.705C315.425 48.94 312.425 51.98 307.265 51.98ZM326.952 51.98C322.032 51.98 318.832 48.9 318.832 43.26V31.74C318.832 26.06 321.992 22.98 326.912 22.98C331.992 22.98 334.992 26.02 335.232 31.58H331.232C330.992 28.3 329.552 26.82 326.872 26.82C324.512 26.82 322.952 28.38 322.952 31.74V43.26C322.952 46.58 324.512 48.14 326.952 48.14C329.672 48.14 331.112 46.62 331.392 43.42H335.392C335.112 48.94 332.112 51.98 326.952 51.98ZM340.88 23.5H354.72V51.5H350.68V27.3H344.76C344.36 35.46 344 41.86 343.48 45.18C342.76 50.26 340.4 51.9 336.52 51.9V48.22C338.28 48.22 339.16 47.14 339.6 44.26C340.04 41.34 340.4 35.06 340.88 23.5ZM364.375 47.7H374.455V51.5H360.335V23.5H374.055V27.3H364.375V35.42H373.295V39.14H364.375V47.7ZM394.973 47.7H397.453V56.18H393.493V51.5H380.173V56.18H376.213V47.7H377.853C379.893 45.62 380.853 41.42 381.013 37.02L381.493 23.5H394.973V47.7ZM390.973 47.7V27.3H385.293L384.893 38.14C384.733 42.1 384.013 45.34 382.693 47.7H390.973ZM408.759 52.02C403.399 52.02 400.199 48.46 400.199 42.62V32.38C400.199 26.54 403.399 22.98 408.759 22.98C414.119 22.98 417.319 26.54 417.319 32.38V42.62C417.319 48.46 414.119 52.02 408.759 52.02ZM408.759 48.06C411.639 48.06 413.159 46.14 413.159 42.62V32.38C413.159 28.86 411.639 26.94 408.759 26.94C405.839 26.94 404.359 28.86 404.359 32.38V42.62C404.359 46.14 405.839 48.06 408.759 48.06ZM434.332 37.1C436.732 38.1 438.212 40.46 438.212 43.5C438.212 48.5 435.012 51.5 430.132 51.5H422.132V23.5H429.732C434.252 23.5 437.172 26.42 437.172 31.1C437.172 33.82 436.052 36.02 434.332 37.1ZM429.252 27.3H426.172V35.34H429.372C431.812 35.34 433.052 33.94 433.052 31.22C433.052 28.58 431.852 27.3 429.252 27.3ZM429.612 47.7C432.572 47.7 434.092 46.34 434.092 43.5C434.092 40.62 432.292 39.14 429.452 39.14H426.172V47.7H429.612ZM453.344 51.5L452.024 45.86H444.624L443.344 51.5H439.104L446.144 23.5H450.504L457.544 51.5H453.344ZM445.504 42.1H451.184L449.424 34.58C449.024 32.74 448.584 30.06 448.384 28.58H448.264C448.064 30.06 447.664 32.74 447.224 34.58L445.504 42.1ZM472.803 23.5V27.34H466.963V51.5H462.843V27.34H457.043V23.5H472.803ZM480.078 47.7H490.158V51.5H476.038V23.5H489.758V27.3H480.078V35.42H488.998V39.14H480.078V47.7ZM496.036 23.5H509.876V51.5H505.836V27.3H499.916C499.516 35.46 499.156 41.86 498.636 45.18C497.916 50.26 495.556 51.9 491.676 51.9V48.22C493.436 48.22 494.316 47.14 494.756 44.26C495.196 41.34 495.556 35.06 496.036 23.5ZM515.491 51.5V23.5H519.531V34.66H522.971C528.411 34.66 531.371 38.02 531.371 43.1C531.371 48.62 528.411 51.5 522.971 51.5H515.491ZM519.531 47.78H522.771C525.531 47.78 527.211 46.26 527.211 43.1C527.211 40.02 525.531 38.5 522.771 38.5H519.531V47.78ZM542.304 51.98C537.384 51.98 534.184 48.9 534.184 43.26V31.74C534.184 26.06 537.344 22.98 542.264 22.98C547.344 22.98 550.344 26.02 550.584 31.58H546.584C546.344 28.3 544.904 26.82 542.224 26.82C539.864 26.82 538.304 28.38 538.304 31.74V43.26C538.304 46.58 539.864 48.14 542.304 48.14C545.024 48.14 546.464 46.62 546.744 43.42H550.744C550.464 48.94 547.464 51.98 542.304 51.98ZM567.351 51.5L560.511 39.26L558.671 42.02V51.5H554.671V23.5H558.671V35.66L560.511 32.38L566.111 23.5H570.831L562.831 35.7L571.991 51.5H567.351ZM574.632 51.5V23.5H578.592V35.74C578.592 37.74 578.432 41.38 578.152 43.82L578.272 43.9C578.792 42.54 579.512 40.58 580.272 38.94L587.072 23.5H591.192V51.5H587.232V39.3C587.232 37.18 587.392 33.42 587.592 31.1L587.472 31.02C586.952 32.46 586.152 34.62 585.472 36.18L578.712 51.5H574.632ZM600.821 47.7H610.901V51.5H596.781V23.5H610.501V27.3H600.821V35.42H609.741V39.14H600.821V47.7ZM623.812 51.5V23.5H627.772V35.74C627.772 37.74 627.612 41.38 627.332 43.82L627.452 43.9C627.972 42.54 628.692 40.58 629.452 38.94L636.252 23.5H640.372V51.5H636.412V39.3C636.412 37.18 636.572 33.42 636.772 31.1L636.652 31.02C636.132 32.46 635.332 34.62 634.652 36.18L627.892 51.5H623.812ZM657.92 23.5H661.96V51.5H657.92V39.22H650V51.5H645.96V23.5H650V35.42H657.92V23.5ZM674.882 51.98C669.962 51.98 666.762 48.9 666.762 43.26V31.74C666.762 26.06 669.922 22.98 674.842 22.98C679.922 22.98 682.922 26.02 683.162 31.58H679.162C678.922 28.3 677.482 26.82 674.802 26.82C672.442 26.82 670.882 28.38 670.882 31.74V43.26C670.882 46.58 672.442 48.14 674.882 48.14C677.602 48.14 679.042 46.62 679.322 43.42H683.322C683.042 48.94 680.042 51.98 674.882 51.98ZM700.85 23.5V27.34H695.01V51.5H690.89V27.34H685.09V23.5H700.85ZM704.085 51.5V23.5H708.045V35.74C708.045 37.74 707.885 41.38 707.605 43.82L707.725 43.9C708.245 42.54 708.965 40.58 709.725 38.94L716.525 23.5H720.645V51.5H716.685V39.3C716.685 37.18 716.845 33.42 717.045 31.1L716.925 31.02C716.405 32.46 715.605 34.62 714.925 36.18L708.165 51.5H704.085ZM739.874 23.5V27.34H734.034V51.5H729.914V27.34H724.114V23.5H739.874ZM753.584 23.5H757.824L751.024 45.62C749.584 50.26 747.624 51.9 743.384 51.9H742.384V48.26H743.504C745.664 48.26 746.584 47.14 747.424 44.34L747.744 43.3L740.704 23.5H744.984L749.544 37.14L753.584 23.5ZM774.835 23.5V27.34H768.995V51.5H764.875V27.34H759.075V23.5H774.835ZM778.07 51.5V23.5H782.19V34.7H785.03C790.59 34.7 793.51 38.02 793.51 43.1C793.51 48.62 790.59 51.5 785.03 51.5H778.07ZM796.83 51.5V23.5H800.87V51.5H796.83ZM782.19 47.74H784.83C787.67 47.74 789.31 46.22 789.31 43.1C789.31 40.06 787.67 38.54 784.83 38.54H782.19V47.74ZM822.063 56.38C817.663 56.26 815.023 53.42 815.023 48.9V26.18C815.023 21.66 817.663 18.82 822.063 18.7V22.34C820.063 22.42 818.903 23.74 818.903 25.98V49.06C818.903 51.34 820.063 52.62 822.063 52.74V56.38ZM837.451 23.5H841.491V51.5H837.451V39.22H829.531V51.5H825.491V23.5H829.531V35.42H837.451V23.5ZM847.093 51.5V23.5H851.053V35.74C851.053 37.74 850.893 41.38 850.613 43.82L850.733 43.9C851.253 42.54 851.973 40.58 852.733 38.94L859.533 23.5H863.653V51.5H859.693V39.3C859.693 37.18 859.853 33.42 860.053 31.1L859.933 31.02C859.413 32.46 858.613 34.62 857.933 36.18L851.173 51.5H847.093ZM869.241 51.5V23.5H873.201V35.74C873.201 37.74 873.041 41.38 872.761 43.82L872.881 43.9C873.401 42.54 874.121 40.58 874.881 38.94L881.681 23.5H885.801V51.5H881.841V39.3C881.841 37.18 882.001 33.42 882.201 31.1L882.081 31.02C881.561 32.46 880.761 34.62 880.081 36.18L873.321 51.5H869.241ZM890.43 56.38V52.74C892.43 52.62 893.59 51.34 893.59 49.06V25.98C893.59 23.74 892.43 22.42 890.43 22.34V18.7C894.83 18.82 897.47 21.66 897.47 26.18V48.9C897.47 53.42 894.83 56.26 890.43 56.38Z" fill="#72D8FF"/>
</svg>
