<svg width="813" height="71" viewBox="0 0 813 71" fill="none" xmlns="http://www.w3.org/2000/svg">
<path d="M1.20703 70.5L71.207 0.5H217.207H481.707H811.207L741.207 70.5M1.20703 70.5C1.20703 70.5 103.272 70.5 114.207 70.5M1.20703 70.5H114.207M741.207 70.5C741.207 70.5 267.683 70.5 114.207 70.5M741.207 70.5H114.207" stroke="#72D8FF"/>
<path d="M146.487 23.5H159.447V51.5H156.167V26.58H149.647C149.247 35.06 148.887 42.22 148.407 45.62C147.807 49.98 145.727 51.9 142.207 51.9V48.82C144.007 48.82 144.887 47.5 145.247 44.98C145.647 42.02 146.047 34.94 146.487 23.5ZM168.602 48.42H179.162V51.5H165.322V23.5H178.722V26.54H168.602V35.78H178.002V38.78H168.602V48.42ZM196.763 23.5V26.58H186.923V51.5H183.643V23.5H196.763ZM203.641 48.42H214.201V51.5H200.361V23.5H213.761V26.54H203.641V35.78H213.041V38.78H203.641V48.42ZM230.882 23.5H234.202V51.5H230.882V38.82H222.002V51.5H218.682V23.5H222.002V35.74H230.882V23.5ZM255.171 48.42H257.611V56.14H254.411V51.5H240.491V56.14H237.291V48.42H238.891C240.731 46.58 241.851 42.58 242.011 37.86L242.491 23.5H255.171V48.42ZM251.891 48.42V26.58H245.571L245.131 38.78C244.971 42.98 244.171 46.18 242.851 48.42H251.891ZM273.415 51.5L271.935 45.42H263.815L262.335 51.5H258.895L266.095 23.5H269.655L276.855 51.5H273.415ZM264.535 42.38H271.215L268.935 32.9C268.495 31.1 268.095 28.74 267.935 27.66H267.815C267.655 28.74 267.255 31.1 266.815 32.9L264.535 42.38ZM287.207 23.5C292.527 23.5 295.527 26.7 295.527 32.34C295.527 38.14 292.527 41.3 287.207 41.3H283.407V51.5H280.127V23.5H287.207ZM287.207 38.18C290.567 38.18 292.207 36.34 292.207 32.34C292.207 28.54 290.567 26.62 287.207 26.62H283.407V38.18H287.207ZM311.311 23.5H314.631V51.5H311.311V38.82H302.431V51.5H299.111V23.5H302.431V35.74H311.311V23.5ZM320.479 51.5V23.5H323.839V34.94H327.239C332.519 34.94 335.599 38.1 335.599 43.18C335.599 48.5 332.519 51.5 327.239 51.5H320.479ZM339.199 51.5V23.5H342.479V51.5H339.199ZM323.839 48.42H327.119C330.279 48.42 332.199 46.66 332.199 43.18C332.199 39.78 330.279 38.06 327.119 38.06H323.839V48.42ZM351.649 48.42H362.209V51.5H348.369V23.5H361.769V26.54H351.649V35.78H361.049V38.78H351.649V48.42ZM393.117 23.5H396.517V51.5H393.277V38.66C393.317 35.62 393.397 32.9 393.557 30.18L393.397 30.14C392.637 32.26 391.597 34.86 390.597 37.5L387.677 45.06H384.437L381.477 37.5C380.517 34.86 379.437 32.26 378.717 30.14L378.517 30.18C378.677 32.9 378.797 35.62 378.797 38.66V51.5H375.557V23.5H378.997L383.837 35.22C384.517 36.9 385.517 39.66 385.957 41.1H386.117C386.597 39.66 387.597 36.9 388.277 35.22L393.117 23.5ZM414.353 51.5L412.873 45.42H404.753L403.273 51.5H399.833L407.033 23.5H410.593L417.793 51.5H414.353ZM405.473 42.38H412.153L409.873 32.9C409.433 31.1 409.033 28.74 408.873 27.66H408.753C408.593 28.74 408.193 31.1 407.753 32.9L405.473 42.38ZM421.065 51.5V23.5H424.345V48.42H432.465V23.5H435.745V48.42H443.865V23.5H447.105V51.5H421.065ZM452.979 51.5V23.5H456.219V38.42C456.219 40.1 456.139 43.22 455.979 45.14L456.099 45.22C456.539 44.06 457.299 42.1 458.059 40.46L465.499 23.5H469.019V51.5H465.779V36.26C465.779 34.58 465.859 31.5 465.939 29.78L465.859 29.7C465.459 30.74 464.659 32.82 464.099 34.1L456.419 51.5H452.979ZM487.054 23.5H490.374V51.5H487.054V38.82H478.174V51.5H474.854V23.5H478.174V35.74H487.054V23.5ZM496.221 51.5V23.5H499.581V34.94H502.981C508.261 34.94 511.341 38.1 511.341 43.18C511.341 48.5 508.261 51.5 502.981 51.5H496.221ZM514.941 51.5V23.5H518.221V51.5H514.941ZM499.581 48.42H502.861C506.021 48.42 507.941 46.66 507.941 43.18C507.941 39.78 506.021 38.06 502.861 38.06H499.581V48.42ZM544.939 51.5L543.459 45.42H535.339L533.859 51.5H530.419L537.619 23.5H541.179L548.379 51.5H544.939ZM536.059 42.38H542.739L540.459 32.9C540.019 31.1 539.619 28.74 539.459 27.66H539.339C539.179 28.74 538.779 31.1 538.339 32.9L536.059 42.38ZM563.05 37.06C565.69 37.9 567.29 40.3 567.29 43.66C567.29 48.66 564.21 51.5 559.29 51.5H551.65V23.5H558.77C563.37 23.5 566.21 26.26 566.21 30.94C566.21 33.98 564.97 36.18 563.05 37.06ZM558.53 26.58H554.93V35.66H558.61C561.45 35.66 562.85 34.06 562.85 31.02C562.85 27.98 561.45 26.58 558.53 26.58ZM559.01 48.42C562.33 48.42 563.97 46.94 563.97 43.66C563.97 40.42 561.89 38.74 558.73 38.74H554.93V48.42H559.01ZM571.26 51.5V23.5H574.5V38.42C574.5 40.1 574.42 43.22 574.26 45.14L574.38 45.22C574.82 44.06 575.58 42.1 576.34 40.46L583.78 23.5H587.3V51.5H584.06V36.26C584.06 34.58 584.14 31.5 584.22 29.78L584.14 29.7C583.74 30.74 582.94 32.82 582.38 34.1L574.7 51.5H571.26ZM605.095 51.5L603.615 45.42H595.495L594.015 51.5H590.575L597.775 23.5H601.335L608.535 51.5H605.095ZM596.215 42.38H602.895L600.615 32.9C600.175 31.1 599.775 28.74 599.615 27.66H599.495C599.335 28.74 598.935 31.1 598.495 32.9L596.215 42.38ZM626.447 56.14V51.5H611.807V23.5H615.127V48.42H623.847V23.5H627.127V48.42H629.647V56.14H626.447ZM633.486 51.5V23.5H636.726V38.42C636.726 40.1 636.646 43.22 636.486 45.14L636.606 45.22C637.046 44.06 637.806 42.1 638.566 40.46L646.006 23.5H649.526V51.5H646.286V36.26C646.286 34.58 646.366 31.5 646.446 29.78L646.366 29.7C645.966 30.74 645.166 32.82 644.606 34.1L636.926 51.5H633.486ZM655.361 51.5V23.5H658.601V38.42C658.601 40.1 658.521 43.22 658.361 45.14L658.481 45.22C658.921 44.06 659.681 42.1 660.441 40.46L667.881 23.5H671.401V51.5H668.161V36.26C668.161 34.58 668.241 31.5 668.321 29.78L668.241 29.7C667.841 30.74 667.041 32.82 666.481 34.1L658.801 51.5H655.361Z" fill="#72D8FF"/>
</svg>
