<svg width="725" height="71" viewBox="0 0 725 71" fill="none" xmlns="http://www.w3.org/2000/svg">
<path d="M1.20703 70.5L71.207 0.5H217.207H714.207H723.707L653.707 70.5M1.20703 70.5C1.20703 70.5 103.272 70.5 114.207 70.5M1.20703 70.5H114.207M653.707 70.5C653.707 70.5 267.683 70.5 114.207 70.5M653.707 70.5H114.207" stroke="#72D8FF"/>
<path d="M145.487 23.5H158.447V51.5H155.167V26.58H148.647C148.247 35.06 147.887 42.22 147.407 45.62C146.807 49.98 144.727 51.9 141.207 51.9V48.82C143.007 48.82 143.887 47.5 144.247 44.98C144.647 42.02 145.047 34.94 145.487 23.5ZM167.602 48.42H178.162V51.5H164.322V23.5H177.722V26.54H167.602V35.78H177.002V38.78H167.602V48.42ZM195.763 23.5V26.58H185.923V51.5H182.643V23.5H195.763ZM202.641 48.42H213.201V51.5H199.361V23.5H212.761V26.54H202.641V35.78H212.041V38.78H202.641V48.42ZM229.882 23.5H233.202V51.5H229.882V38.82H221.002V51.5H217.682V23.5H221.002V35.74H229.882V23.5ZM254.171 48.42H256.611V56.14H253.411V51.5H239.491V56.14H236.291V48.42H237.891C239.731 46.58 240.851 42.58 241.011 37.86L241.491 23.5H254.171V48.42ZM250.891 48.42V26.58H244.571L244.131 38.78C243.971 42.98 243.171 46.18 241.851 48.42H250.891ZM260.455 51.5V23.5H263.815V34.94H267.215C272.495 34.94 275.575 38.1 275.575 43.18C275.575 48.5 272.495 51.5 267.215 51.5H260.455ZM279.175 51.5V23.5H282.455V51.5H279.175ZM263.815 48.42H267.095C270.255 48.42 272.175 46.66 272.175 43.18C272.175 39.78 270.255 38.06 267.095 38.06H263.815V48.42ZM308.613 37.06C311.253 37.9 312.853 40.3 312.853 43.66C312.853 48.66 309.773 51.5 304.853 51.5H297.213V23.5H304.333C308.933 23.5 311.773 26.26 311.773 30.94C311.773 33.98 310.533 36.18 308.613 37.06ZM304.093 26.58H300.493V35.66H304.173C307.013 35.66 308.413 34.06 308.413 31.02C308.413 27.98 307.013 26.58 304.093 26.58ZM304.573 48.42C307.893 48.42 309.533 46.94 309.533 43.66C309.533 40.42 307.453 38.74 304.293 38.74H300.493V48.42H304.573ZM324.773 52.02C319.573 52.02 316.453 48.46 316.453 42.7V32.26C316.453 26.54 319.573 22.98 324.773 22.98C329.973 22.98 333.053 26.54 333.053 32.26V42.7C333.053 48.46 329.973 52.02 324.773 52.02ZM324.773 48.82C328.013 48.82 329.693 46.62 329.693 42.7V32.26C329.693 28.38 328.013 26.18 324.773 26.18C321.493 26.18 319.813 28.38 319.813 32.26V42.7C319.813 46.62 321.493 48.82 324.773 48.82ZM341.43 48.42H351.99V51.5H338.15V23.5H351.55V26.54H341.43V35.78H350.83V38.78H341.43V48.42ZM368.671 23.5H371.991V51.5H368.671V38.82H359.791V51.5H356.471V23.5H359.791V35.74H368.671V23.5ZM390.038 23.5H393.358V51.5H390.038V38.82H381.158V51.5H377.838V23.5H381.158V35.74H390.038V23.5ZM406.765 52.02C401.565 52.02 398.445 48.46 398.445 42.7V32.26C398.445 26.54 401.565 22.98 406.765 22.98C411.965 22.98 415.045 26.54 415.045 32.26V42.7C415.045 48.46 411.965 52.02 406.765 52.02ZM406.765 48.82C410.005 48.82 411.685 46.62 411.685 42.7V32.26C411.685 28.38 410.005 26.18 406.765 26.18C403.485 26.18 401.805 28.38 401.805 32.26V42.7C401.805 46.62 403.485 48.82 406.765 48.82ZM428.263 20.82C425.463 20.82 423.703 19.1 423.583 16.1H425.983C426.103 17.66 426.823 18.46 428.223 18.46C429.663 18.46 430.383 17.66 430.463 16.1H432.903C432.783 19.1 431.023 20.82 428.263 20.82ZM420.143 51.5V23.5H423.383V38.42C423.383 40.1 423.303 43.22 423.143 45.14L423.263 45.22C423.703 44.06 424.463 42.1 425.223 40.46L432.663 23.5H436.183V51.5H432.943V36.26C432.943 34.58 433.023 31.5 433.103 29.78L433.023 29.7C432.623 30.74 431.823 32.82 431.263 34.1L423.583 51.5H420.143ZM462.845 51.5L461.365 45.42H453.245L451.765 51.5H448.325L455.525 23.5H459.085L466.285 51.5H462.845ZM453.965 42.38H460.645L458.365 32.9C457.925 31.1 457.525 28.74 457.365 27.66H457.245C457.085 28.74 456.685 31.1 456.245 32.9L453.965 42.38ZM480.957 37.06C483.597 37.9 485.197 40.3 485.197 43.66C485.197 48.66 482.117 51.5 477.197 51.5H469.557V23.5H476.677C481.277 23.5 484.117 26.26 484.117 30.94C484.117 33.98 482.877 36.18 480.957 37.06ZM476.437 26.58H472.837V35.66H476.517C479.357 35.66 480.757 34.06 480.757 31.02C480.757 27.98 479.357 26.58 476.437 26.58ZM476.917 48.42C480.237 48.42 481.877 46.94 481.877 43.66C481.877 40.42 479.797 38.74 476.637 38.74H472.837V48.42H476.917ZM489.166 51.5V23.5H492.406V38.42C492.406 40.1 492.326 43.22 492.166 45.14L492.286 45.22C492.726 44.06 493.486 42.1 494.246 40.46L501.686 23.5H505.206V51.5H501.966V36.26C501.966 34.58 502.046 31.5 502.126 29.78L502.046 29.7C501.646 30.74 500.846 32.82 500.286 34.1L492.606 51.5H489.166ZM523.001 51.5L521.521 45.42H513.401L511.921 51.5H508.481L515.681 23.5H519.241L526.441 51.5H523.001ZM514.121 42.38H520.801L518.521 32.9C518.081 31.1 517.681 28.74 517.521 27.66H517.401C517.241 28.74 516.841 31.1 516.401 32.9L514.121 42.38ZM544.353 56.14V51.5H529.713V23.5H533.033V48.42H541.753V23.5H545.033V48.42H547.553V56.14H544.353ZM551.393 51.5V23.5H554.633V38.42C554.633 40.1 554.553 43.22 554.393 45.14L554.513 45.22C554.953 44.06 555.713 42.1 556.473 40.46L563.913 23.5H567.433V51.5H564.193V36.26C564.193 34.58 564.273 31.5 564.353 29.78L564.273 29.7C563.873 30.74 563.073 32.82 562.513 34.1L554.833 51.5H551.393ZM573.268 51.5V23.5H576.508V38.42C576.508 40.1 576.428 43.22 576.268 45.14L576.388 45.22C576.828 44.06 577.588 42.1 578.348 40.46L585.788 23.5H589.308V51.5H586.068V36.26C586.068 34.58 586.148 31.5 586.228 29.78L586.148 29.7C585.748 30.74 584.948 32.82 584.388 34.1L576.708 51.5H573.268Z" fill="#72D8FF"/>
</svg>
