<svg width="751" height="71" viewBox="0 0 751 71" fill="none" xmlns="http://www.w3.org/2000/svg">
<path d="M1.20711 70.5L71.2071 0.5H217.207H481.707H749.207L679.207 70.5M1.20711 70.5C1.20711 70.5 103.272 70.5 114.207 70.5M1.20711 70.5H114.207M679.207 70.5C679.207 70.5 267.683 70.5 114.207 70.5M679.207 70.5H114.207" stroke="#72D8FF"/>
<path d="M154.727 23.5H158.767V51.58H154.727V41.22C153.527 41.66 152.127 41.86 150.927 41.86C145.847 41.86 142.687 38.62 142.687 32.94V23.5H146.727V33.06C146.727 36.46 148.407 38.06 151.367 38.06C152.487 38.06 153.607 37.9 154.727 37.46V23.5ZM177.999 23.5V27.34H172.159V51.5H168.039V27.34H162.239V23.5H177.999ZM189.189 52.02C183.829 52.02 180.629 48.46 180.629 42.62V32.38C180.629 26.54 183.829 22.98 189.189 22.98C194.549 22.98 197.749 26.54 197.749 32.38V42.62C197.749 48.46 194.549 52.02 189.189 52.02ZM189.189 48.06C192.069 48.06 193.589 46.14 193.589 42.62V32.38C193.589 28.86 192.069 26.94 189.189 26.94C186.269 26.94 184.789 28.86 184.789 32.38V42.62C184.789 46.14 186.269 48.06 189.189 48.06ZM224.796 23.5V27.34H218.956V51.5H214.836V27.34H209.036V23.5H224.796ZM238.461 51.5L237.141 45.86H229.741L228.461 51.5H224.221L231.261 23.5H235.621L242.661 51.5H238.461ZM230.621 42.1H236.301L234.541 34.58C234.141 32.74 233.701 30.06 233.501 28.58H233.381C233.181 30.06 232.781 32.74 232.341 34.58L230.621 42.1ZM258.445 51.5L251.605 39.26L249.765 42.02V51.5H245.765V23.5H249.765V35.66L251.605 32.38L257.205 23.5H261.925L253.925 35.7L263.085 51.5H258.445ZM272.939 52.02C267.579 52.02 264.379 48.46 264.379 42.62V32.38C264.379 26.54 267.579 22.98 272.939 22.98C278.299 22.98 281.499 26.54 281.499 32.38V42.62C281.499 48.46 278.299 52.02 272.939 52.02ZM272.939 48.06C275.819 48.06 277.339 46.14 277.339 42.62V32.38C277.339 28.86 275.819 26.94 272.939 26.94C270.019 26.94 268.539 28.86 268.539 32.38V42.62C268.539 46.14 270.019 48.06 272.939 48.06ZM290.352 47.7H300.432V51.5H286.312V23.5H300.032V27.3H290.352V35.42H299.272V39.14H290.352V47.7ZM325.063 51.5L323.743 45.86H316.343L315.063 51.5H310.823L317.863 23.5H322.223L329.263 51.5H325.063ZM317.223 42.1H322.903L321.143 34.58C320.743 32.74 320.303 30.06 320.103 28.58H319.983C319.783 30.06 319.383 32.74 318.943 34.58L317.223 42.1ZM344.566 37.1C346.966 38.1 348.446 40.46 348.446 43.5C348.446 48.5 345.246 51.5 340.366 51.5H332.366V23.5H339.966C344.486 23.5 347.406 26.42 347.406 31.1C347.406 33.82 346.286 36.02 344.566 37.1ZM339.486 27.3H336.406V35.34H339.606C342.046 35.34 343.286 33.94 343.286 31.22C343.286 28.58 342.086 27.3 339.486 27.3ZM339.846 47.7C342.806 47.7 344.326 46.34 344.326 43.5C344.326 40.62 342.526 39.14 339.686 39.14H336.406V47.7H339.846ZM352.249 51.5V23.5H356.209V35.74C356.209 37.74 356.049 41.38 355.769 43.82L355.889 43.9C356.409 42.54 357.129 40.58 357.889 38.94L364.689 23.5H368.809V51.5H364.849V39.3C364.849 37.18 365.009 33.42 365.209 31.1L365.089 31.02C364.569 32.46 363.769 34.62 363.089 36.18L356.329 51.5H352.249ZM386.118 51.5L384.798 45.86H377.398L376.118 51.5H371.878L378.918 23.5H383.278L390.318 51.5H386.118ZM378.278 42.1H383.958L382.198 34.58C381.798 32.74 381.358 30.06 381.158 28.58H381.038C380.838 30.06 380.438 32.74 379.998 34.58L378.278 42.1ZM407.861 56.18V51.5H393.421V23.5H397.461V47.66H405.221V23.5H409.261V47.66H411.821V56.18H407.861ZM415.374 51.5V23.5H419.334V35.74C419.334 37.74 419.174 41.38 418.894 43.82L419.014 43.9C419.534 42.54 420.254 40.58 421.014 38.94L427.814 23.5H431.934V51.5H427.974V39.3C427.974 37.18 428.134 33.42 428.334 31.1L428.214 31.02C427.694 32.46 426.894 34.62 426.214 36.18L419.454 51.5H415.374ZM445.283 52.02C439.923 52.02 436.723 48.46 436.723 42.62V32.38C436.723 26.54 439.923 22.98 445.283 22.98C450.643 22.98 453.843 26.54 453.843 32.38V42.62C453.843 48.46 450.643 52.02 445.283 52.02ZM445.283 48.06C448.163 48.06 449.683 46.14 449.683 42.62V32.38C449.683 28.86 448.163 26.94 445.283 26.94C442.363 26.94 440.883 28.86 440.883 32.38V42.62C440.883 46.14 442.363 48.06 445.283 48.06ZM470.616 23.5H474.656V51.5H470.616V39.22H462.696V51.5H458.656V23.5H462.696V35.42H470.616V23.5ZM492.217 23.5H496.257V51.5H492.217V39.22H484.297V51.5H480.257V23.5H484.297V35.42H492.217V23.5ZM501.859 51.5V23.5H505.979V34.7H508.819C514.379 34.7 517.299 38.02 517.299 43.1C517.299 48.62 514.379 51.5 508.819 51.5H501.859ZM520.619 51.5V23.5H524.659V51.5H520.619ZM505.979 47.74H508.619C511.459 47.74 513.099 46.22 513.099 43.1C513.099 40.06 511.459 38.54 508.619 38.54H505.979V47.74ZM534.258 47.7H544.338V51.5H530.218V23.5H543.938V27.3H534.258V35.42H543.178V39.14H534.258V47.7ZM569.209 23.5H573.249V51.5H569.209V39.22H561.289V51.5H557.249V23.5H561.289V35.42H569.209V23.5ZM578.851 51.5V23.5H582.811V35.74C582.811 37.74 582.651 41.38 582.371 43.82L582.491 43.9C583.011 42.54 583.731 40.58 584.491 38.94L591.291 23.5H595.411V51.5H591.451V39.3C591.451 37.18 591.611 33.42 591.811 31.1L591.691 31.02C591.171 32.46 590.371 34.62 589.691 36.18L582.931 51.5H578.851ZM600.999 51.5V23.5H604.959V35.74C604.959 37.74 604.799 41.38 604.519 43.82L604.639 43.9C605.159 42.54 605.879 40.58 606.639 38.94L613.439 23.5H617.559V51.5H613.599V39.3C613.599 37.18 613.759 33.42 613.959 31.1L613.839 31.02C613.319 32.46 612.519 34.62 611.839 36.18L605.079 51.5H600.999Z" fill="#72D8FF"/>
</svg>
