<svg width="744" height="71" viewBox="0 0 744 71" fill="none" xmlns="http://www.w3.org/2000/svg">
<path d="M1.20711 70.5L71.2071 0.5H217.207H481.707H742.207L672.207 70.5M1.20711 70.5C1.20711 70.5 103.272 70.5 114.207 70.5M1.20711 70.5H114.207M672.207 70.5C672.207 70.5 267.683 70.5 114.207 70.5M672.207 70.5H114.207" stroke="#72D8FF"/>
<path d="M160.007 23.5V51.5H155.967V27.34H148.047V51.5H144.007V23.5H160.007ZM172.97 23.5C178.45 23.5 181.57 26.82 181.57 32.54C181.57 38.42 178.45 41.66 172.97 41.66H169.61V51.5H165.57V23.5H172.97ZM172.93 37.82C175.97 37.82 177.45 36.14 177.45 32.54C177.45 29.1 175.97 27.34 172.93 27.34H169.61V37.82H172.93ZM193.369 52.02C188.009 52.02 184.809 48.46 184.809 42.62V32.38C184.809 26.54 188.009 22.98 193.369 22.98C198.729 22.98 201.929 26.54 201.929 32.38V42.62C201.929 48.46 198.729 52.02 193.369 52.02ZM193.369 48.06C196.249 48.06 197.769 46.14 197.769 42.62V32.38C197.769 28.86 196.249 26.94 193.369 26.94C190.449 26.94 188.969 28.86 188.969 32.38V42.62C188.969 46.14 190.449 48.06 193.369 48.06ZM214.141 23.5C219.621 23.5 222.741 26.82 222.741 32.54C222.741 38.42 219.621 41.66 214.141 41.66H210.781V51.5H206.741V23.5H214.141ZM214.101 37.82C217.141 37.82 218.621 36.14 218.621 32.54C218.621 29.1 217.141 27.34 214.101 27.34H210.781V37.82H214.101ZM226.195 51.5V23.5H230.315V34.7H233.155C238.715 34.7 241.635 38.02 241.635 43.1C241.635 48.62 238.715 51.5 233.155 51.5H226.195ZM244.955 51.5V23.5H248.995V51.5H244.955ZM230.315 47.74H232.955C235.795 47.74 237.435 46.22 237.435 43.1C237.435 40.06 235.795 38.54 232.955 38.54H230.315V47.74ZM266.754 37.1C269.154 38.1 270.634 40.46 270.634 43.5C270.634 48.5 267.434 51.5 262.554 51.5H254.554V23.5H262.154C266.674 23.5 269.594 26.42 269.594 31.1C269.594 33.82 268.474 36.02 266.754 37.1ZM261.674 27.3H258.594V35.34H261.794C264.234 35.34 265.474 33.94 265.474 31.22C265.474 28.58 264.274 27.3 261.674 27.3ZM262.034 47.7C264.994 47.7 266.514 46.34 266.514 43.5C266.514 40.62 264.714 39.14 261.874 39.14H258.594V47.7H262.034ZM286.397 23.5H290.437V51.5H286.397V39.22H278.477V51.5H274.437V23.5H278.477V35.42H286.397V23.5ZM296.038 51.5V23.5H300.158V34.7H302.998C308.558 34.7 311.478 38.02 311.478 43.1C311.478 48.62 308.558 51.5 302.998 51.5H296.038ZM314.798 51.5V23.5H318.838V51.5H314.798ZM300.158 47.74H302.798C305.638 47.74 307.278 46.22 307.278 43.1C307.278 40.06 305.638 38.54 302.798 38.54H300.158V47.74ZM328.438 47.7H338.518V51.5H324.398V23.5H338.118V27.3H328.438V35.42H337.358V39.14H328.438V47.7ZM358.829 23.5C364.309 23.5 367.429 26.82 367.429 32.54C367.429 38.42 364.309 41.66 358.829 41.66H355.469V51.5H351.429V23.5H358.829ZM358.789 37.82C361.829 37.82 363.309 36.14 363.309 32.54C363.309 29.1 361.829 27.34 358.789 27.34H355.469V37.82H358.789ZM381.469 51.5L380.149 45.86H372.749L371.469 51.5H367.229L374.269 23.5H378.629L385.669 51.5H381.469ZM373.629 42.1H379.309L377.549 34.58C377.149 32.74 376.709 30.06 376.509 28.58H376.389C376.189 30.06 375.789 32.74 375.349 34.58L373.629 42.1ZM399.373 36.98C402.973 37.98 404.213 40.5 404.213 43.74C404.213 48.94 400.493 52.02 395.573 52.02C390.213 52.02 387.053 48.22 386.813 43.5H390.893C391.053 45.98 392.533 48.14 395.533 48.14C398.173 48.14 400.133 46.46 400.133 43.54C400.133 40.5 398.093 38.9 395.133 38.9H393.013V35.3H394.773C397.693 35.3 399.413 33.94 399.413 30.9C399.413 28.34 398.013 26.82 395.533 26.82C392.613 26.82 391.453 28.74 391.293 31.54H387.293C387.573 26.42 390.333 22.94 395.533 22.94C400.333 22.94 403.493 25.94 403.493 30.94C403.493 33.9 402.373 35.86 399.373 36.98ZM415.313 23.5C420.793 23.5 423.913 26.82 423.913 32.54C423.913 38.42 420.793 41.66 415.313 41.66H411.953V51.5H407.913V23.5H415.313ZM415.273 37.82C418.313 37.82 419.793 36.14 419.793 32.54C419.793 29.1 418.313 27.34 415.273 27.34H411.953V37.82H415.273ZM437.954 51.5L436.634 45.86H429.234L427.954 51.5H423.714L430.754 23.5H435.114L442.154 51.5H437.954ZM430.114 42.1H435.794L434.034 34.58C433.634 32.74 433.194 30.06 432.994 28.58H432.874C432.674 30.06 432.274 32.74 431.834 34.58L430.114 42.1ZM452.937 34.54C458.297 34.54 461.337 37.86 461.337 42.98C461.337 48.58 458.297 51.5 452.937 51.5H445.257V23.5H459.817V27.3H449.297V34.54H452.937ZM452.697 47.66C455.417 47.66 457.217 46.14 457.217 42.98C457.217 39.86 455.417 38.3 452.697 38.3H449.297V47.66H452.697ZM473.095 52.02C467.735 52.02 464.535 48.46 464.535 42.62V32.38C464.535 26.54 467.735 22.98 473.095 22.98C478.455 22.98 481.655 26.54 481.655 32.38V42.62C481.655 48.46 478.455 52.02 473.095 52.02ZM473.095 48.06C475.975 48.06 477.495 46.14 477.495 42.62V32.38C477.495 28.86 475.975 26.94 473.095 26.94C470.175 26.94 468.695 28.86 468.695 32.38V42.62C468.695 46.14 470.175 48.06 473.095 48.06ZM499.678 23.5V27.34H493.838V51.5H489.718V27.34H483.918V23.5H499.678ZM515.593 51.5L508.753 39.26L506.913 42.02V51.5H502.913V23.5H506.913V35.66L508.753 32.38L514.353 23.5H519.073L511.073 35.7L520.233 51.5H515.593ZM522.874 51.5V23.5H526.834V35.74C526.834 37.74 526.674 41.38 526.394 43.82L526.514 43.9C527.034 42.54 527.754 40.58 528.514 38.94L535.314 23.5H539.434V51.5H535.474V39.3C535.474 37.18 535.634 33.42 535.834 31.1L535.714 31.02C535.194 32.46 534.394 34.62 533.714 36.18L526.954 51.5H522.874Z" fill="#72D8FF"/>
</svg>
