<svg width="877" height="71" viewBox="0 0 877 71" fill="none" xmlns="http://www.w3.org/2000/svg">
<path d="M1.20703 70.5L71.207 0.5H217.207H843.207H875.707L805.707 70.5M1.20703 70.5C1.20703 70.5 103.272 70.5 114.207 70.5M1.20703 70.5H114.207M805.707 70.5C805.707 70.5 267.683 70.5 114.207 70.5M805.707 70.5H114.207" stroke="#72D8FF"/>
<path d="M150.687 22.98C155.367 22.98 158.487 26.06 158.487 31.58V43.42C158.487 48.94 155.327 51.98 150.607 51.98C145.727 51.98 142.767 48.98 142.447 43.66H145.687C146.007 47.18 147.647 48.9 150.607 48.9C153.327 48.9 155.207 47.14 155.207 43.42V38.7H147.367V35.82H155.207V31.58C155.207 27.82 153.407 26.06 150.727 26.06C147.807 26.06 146.127 27.74 145.887 31.34H142.647C142.927 25.94 145.887 22.98 150.687 22.98ZM176.54 51.5L168.78 38.54L166.86 41.34V51.5H163.58V23.5H166.86V36.3L168.94 32.94L175.26 23.5H179.22L170.74 35.7L180.34 51.5H176.54ZM189.645 51.98C184.925 51.98 181.765 48.94 181.765 43.42V31.58C181.765 26.06 184.885 22.98 189.565 22.98C194.365 22.98 197.325 25.94 197.605 31.34H194.365C194.125 27.74 192.445 26.06 189.525 26.06C186.845 26.06 185.045 27.82 185.045 31.58V43.42C185.045 47.14 186.925 48.9 189.645 48.9C192.605 48.9 194.245 47.18 194.565 43.66H197.805C197.485 48.98 194.525 51.98 189.645 51.98ZM217.459 23.5V51.5H214.179V26.58H205.259V51.5H201.979V23.5H217.459ZM223.307 51.5V23.5H226.547V38.42C226.547 40.1 226.467 43.22 226.307 45.14L226.427 45.22C226.867 44.06 227.627 42.1 228.387 40.46L235.827 23.5H239.347V51.5H236.107V36.26C236.107 34.58 236.187 31.5 236.267 29.78L236.187 29.7C235.787 30.74 234.987 32.82 234.427 34.1L226.747 51.5H223.307ZM252.262 23.5C257.582 23.5 260.582 26.7 260.582 32.34C260.582 38.14 257.582 41.3 252.262 41.3H248.462V51.5H245.182V23.5H252.262ZM252.262 38.18C255.622 38.18 257.262 36.34 257.262 32.34C257.262 28.54 255.622 26.62 252.262 26.62H248.462V38.18H252.262ZM267.446 48.42H278.006V51.5H264.166V23.5H277.566V26.54H267.446V35.78H276.846V38.78H267.446V48.42ZM300.046 23.5H303.446V51.5H300.206V38.66C300.246 35.62 300.326 32.9 300.486 30.18L300.326 30.14C299.566 32.26 298.526 34.86 297.526 37.5L294.606 45.06H291.366L288.406 37.5C287.446 34.86 286.366 32.26 285.646 30.14L285.446 30.18C285.606 32.9 285.726 35.62 285.726 38.66V51.5H282.486V23.5H285.926L290.766 35.22C291.446 36.9 292.446 39.66 292.886 41.1H293.046C293.526 39.66 294.526 36.9 295.206 35.22L300.046 23.5ZM309.322 51.5V23.5H312.562V38.42C312.562 40.1 312.482 43.22 312.322 45.14L312.442 45.22C312.882 44.06 313.642 42.1 314.402 40.46L321.842 23.5H325.362V51.5H322.122V36.26C322.122 34.58 322.202 31.5 322.282 29.78L322.202 29.7C321.802 30.74 321.002 32.82 320.442 34.1L312.762 51.5H309.322ZM343.397 23.5H346.717V51.5H343.397V38.82H334.517V51.5H331.197V23.5H334.517V35.74H343.397V23.5ZM365.645 23.5V26.58H359.645V51.5H356.325V26.58H350.325V23.5H365.645ZM379.759 51.5L378.279 45.42H370.159L368.679 51.5H365.239L372.439 23.5H375.999L383.199 51.5H379.759ZM370.879 42.38H377.559L375.279 32.9C374.839 31.1 374.439 28.74 374.279 27.66H374.159C373.999 28.74 373.599 31.1 373.159 32.9L370.879 42.38ZM388.104 23.5H401.064V51.5H397.784V26.58H391.264C390.864 35.06 390.504 42.22 390.024 45.62C389.424 49.98 387.344 51.9 383.824 51.9V48.82C385.624 48.82 386.504 47.5 386.864 44.98C387.264 42.02 387.664 34.94 388.104 23.5ZM406.94 51.5V23.5H410.26V34.9H414.3C419.38 34.9 422.46 38.1 422.46 43.14C422.46 48.5 419.38 51.5 414.3 51.5H406.94ZM410.26 48.46H414.18C417.14 48.46 419.1 46.66 419.1 43.14C419.1 39.74 417.14 38.02 414.18 38.02H410.26V48.46ZM438.436 23.5H441.756V51.5H438.436V38.82H429.556V51.5H426.236V23.5H429.556V35.74H438.436V23.5ZM447.604 51.5V23.5H450.964V34.94H454.364C459.644 34.94 462.724 38.1 462.724 43.18C462.724 48.5 459.644 51.5 454.364 51.5H447.604ZM466.324 51.5V23.5H469.604V51.5H466.324ZM450.964 48.42H454.244C457.404 48.42 459.324 46.66 459.324 43.18C459.324 39.78 457.404 38.06 454.244 38.06H450.964V48.42ZM478.774 48.42H489.334V51.5H475.494V23.5H488.894V26.54H478.774V35.78H488.174V38.78H478.774V48.42ZM502.682 51.5V23.5H505.922V38.42C505.922 40.1 505.842 43.22 505.682 45.14L505.802 45.22C506.242 44.06 507.002 42.1 507.762 40.46L515.202 23.5H518.722V51.5H515.482V36.26C515.482 34.58 515.562 31.5 515.642 29.78L515.562 29.7C515.162 30.74 514.362 32.82 513.802 34.1L506.122 51.5H502.682ZM545.624 23.5H548.944V51.5H545.624V38.82H536.744V51.5H533.424V23.5H536.744V35.74H545.624V23.5ZM558.071 48.42H568.631V51.5H554.791V23.5H568.191V26.54H558.071V35.78H567.471V38.78H558.071V48.42ZM580.671 52.02C575.471 52.02 572.351 48.46 572.351 42.7V32.26C572.351 26.54 575.471 22.98 580.671 22.98C585.871 22.98 588.951 26.54 588.951 32.26V42.7C588.951 48.46 585.871 52.02 580.671 52.02ZM580.671 48.82C583.911 48.82 585.591 46.62 585.591 42.7V32.26C585.591 28.38 583.911 26.18 580.671 26.18C577.391 26.18 575.711 28.38 575.711 32.26V42.7C575.711 46.62 577.391 48.82 580.671 48.82ZM601.449 34.7C606.529 34.7 609.689 37.86 609.689 43.02C609.689 48.46 606.529 51.5 601.449 51.5H594.049V23.5H608.169V26.58H597.369V34.7H601.449ZM601.329 48.42C604.329 48.42 606.329 46.62 606.329 43.02C606.329 39.5 604.329 37.74 601.329 37.74H597.369V48.42H601.329ZM613.893 51.5V23.5H617.253V34.94H620.653C625.933 34.94 629.013 38.1 629.013 43.18C629.013 48.5 625.933 51.5 620.653 51.5H613.893ZM632.613 51.5V23.5H635.893V51.5H632.613ZM617.253 48.42H620.533C623.693 48.42 625.613 46.66 625.613 43.18C625.613 39.78 623.693 38.06 620.533 38.06H617.253V48.42ZM652.663 23.5H655.943V51.54H652.663V40.86C651.423 41.34 649.983 41.62 648.703 41.62C643.623 41.62 640.423 38.5 640.423 32.94V23.5H643.703V32.98C643.703 36.74 645.663 38.54 648.943 38.54C650.183 38.54 651.343 38.34 652.663 37.78V23.5ZM673.983 23.5H677.303V51.5H673.983V38.82H665.103V51.5H661.783V23.5H665.103V35.74H673.983V23.5ZM683.15 51.5V23.5H686.51V34.94H689.91C695.19 34.94 698.27 38.1 698.27 43.18C698.27 48.5 695.19 51.5 689.91 51.5H683.15ZM701.87 51.5V23.5H705.15V51.5H701.87ZM686.51 48.42H689.79C692.95 48.42 694.87 46.66 694.87 43.18C694.87 39.78 692.95 38.06 689.79 38.06H686.51V48.42ZM714.321 48.42H724.881V51.5H711.041V23.5H724.441V26.54H714.321V35.78H723.721V38.78H714.321V48.42Z" fill="#72D8FF"/>
</svg>
