<svg width="960" height="71" viewBox="0 0 960 71" fill="none" xmlns="http://www.w3.org/2000/svg">
<path d="M1.20703 70.5L71.207 0.5H217.207H948.707H958.207L888.207 70.5M1.20703 70.5C1.20703 70.5 103.272 70.5 114.207 70.5M1.20703 70.5H114.207M888.207 70.5C888.207 70.5 267.683 70.5 114.207 70.5M888.207 70.5H114.207" stroke="#72D8FF"/>
<path d="M157.247 23.5V26.58H147.407V51.5H144.127V23.5H157.247ZM167.926 23.5C173.246 23.5 176.246 26.7 176.246 32.34C176.246 38.14 173.246 41.3 167.926 41.3H164.126V51.5H160.846V23.5H167.926ZM167.926 38.18C171.286 38.18 172.926 36.34 172.926 32.34C172.926 28.54 171.286 26.62 167.926 26.62H164.126V38.18H167.926ZM190.814 51.5L189.334 45.42H181.214L179.734 51.5H176.294L183.494 23.5H187.054L194.254 51.5H190.814ZM181.934 42.38H188.614L186.334 32.9C185.894 31.1 185.494 28.74 185.334 27.66H185.214C185.054 28.74 184.654 31.1 184.214 32.9L181.934 42.38ZM219.165 51.5L211.685 39.1L210.365 41.06V51.5H207.205V41.1L205.845 39.1L198.405 51.5H194.605L203.965 36.34L195.285 23.5H199.085L205.045 32.62L207.205 36.18V23.5H210.365V36.18L212.685 32.42L218.485 23.5H222.285L213.565 36.34L222.965 51.5H219.165ZM241.085 48.42H243.525V56.14H240.325V51.5H226.405V56.14H223.205V48.42H224.805C226.645 46.58 227.765 42.58 227.925 37.86L228.405 23.5H241.085V48.42ZM237.805 48.42V26.58H231.485L231.045 38.78C230.885 42.98 230.085 46.18 228.765 48.42H237.805ZM259.329 51.5L257.849 45.42H249.729L248.249 51.5H244.809L252.009 23.5H255.569L262.769 51.5H259.329ZM250.449 42.38H257.129L254.849 32.9C254.409 31.1 254.009 28.74 253.849 27.66H253.729C253.569 28.74 253.169 31.1 252.729 32.9L250.449 42.38ZM278.241 23.5H281.561V51.5H278.241V38.82H269.361V51.5H266.041V23.5H269.361V35.74H278.241V23.5ZM294.528 51.98C289.808 51.98 286.648 48.94 286.648 43.42V31.58C286.648 26.06 289.768 22.98 294.448 22.98C299.248 22.98 302.208 25.94 302.488 31.34H299.248C299.008 27.74 297.328 26.06 294.408 26.06C291.728 26.06 289.928 27.82 289.928 31.58V43.42C289.928 47.14 291.808 48.9 294.528 48.9C297.488 48.9 299.128 47.18 299.448 43.66H302.688C302.368 48.98 299.408 51.98 294.528 51.98ZM319.821 51.5L312.061 38.54L310.141 41.34V51.5H306.861V23.5H310.141V36.3L312.221 32.94L318.541 23.5H322.501L314.021 35.7L323.621 51.5H319.821ZM326.471 51.5V23.5H329.711V38.42C329.711 40.1 329.631 43.22 329.471 45.14L329.591 45.22C330.031 44.06 330.791 42.1 331.551 40.46L338.991 23.5H342.511V51.5H339.271V36.26C339.271 34.58 339.351 31.5 339.431 29.78L339.351 29.7C338.951 30.74 338.151 32.82 337.591 34.1L329.911 51.5H326.471ZM351.626 48.42H362.186V51.5H348.346V23.5H361.746V26.54H351.626V35.78H361.026V38.78H351.626V48.42ZM375.533 51.5V23.5H378.773V38.42C378.773 40.1 378.693 43.22 378.533 45.14L378.653 45.22C379.093 44.06 379.853 42.1 380.613 40.46L388.053 23.5H391.573V51.5H388.333V36.26C388.333 34.58 388.413 31.5 388.493 29.78L388.413 29.7C388.013 30.74 387.213 32.82 386.653 34.1L378.973 51.5H375.533ZM419.355 23.5V26.58H413.355V51.5H410.035V26.58H404.035V23.5H419.355ZM429.918 23.5C435.238 23.5 438.238 26.7 438.238 32.34C438.238 38.14 435.238 41.3 429.918 41.3H426.118V51.5H422.838V23.5H429.918ZM429.918 38.18C433.278 38.18 434.918 36.34 434.918 32.34C434.918 28.54 433.278 26.62 429.918 26.62H426.118V38.18H429.918ZM452.806 51.5L451.326 45.42H443.206L441.726 51.5H438.286L445.486 23.5H449.046L456.246 51.5H452.806ZM443.926 42.38H450.606L448.326 32.9C447.886 31.1 447.486 28.74 447.326 27.66H447.206C447.046 28.74 446.646 31.1 446.206 32.9L443.926 42.38ZM471.718 23.5H475.038V51.5H471.718V38.82H462.838V51.5H459.518V23.5H462.838V35.74H471.718V23.5ZM488.005 51.98C483.285 51.98 480.125 48.94 480.125 43.42V31.58C480.125 26.06 483.245 22.98 487.925 22.98C492.725 22.98 495.685 25.94 495.965 31.34H492.725C492.485 27.74 490.805 26.06 487.885 26.06C485.205 26.06 483.405 27.82 483.405 31.58V43.42C483.405 47.14 485.285 48.9 488.005 48.9C490.965 48.9 492.605 47.18 492.925 43.66H496.165C495.845 48.98 492.885 51.98 488.005 51.98ZM515.818 23.5V51.5H512.538V26.58H503.618V51.5H500.338V23.5H515.818ZM529.226 52.02C524.026 52.02 520.906 48.46 520.906 42.7V32.26C520.906 26.54 524.026 22.98 529.226 22.98C534.426 22.98 537.506 26.54 537.506 32.26V42.7C537.506 48.46 534.426 52.02 529.226 52.02ZM529.226 48.82C532.466 48.82 534.146 46.62 534.146 42.7V32.26C534.146 28.38 532.466 26.18 529.226 26.18C525.946 26.18 524.266 28.38 524.266 32.26V42.7C524.266 46.62 525.946 48.82 529.226 48.82ZM549.684 23.5C555.004 23.5 558.004 26.7 558.004 32.34C558.004 38.14 555.004 41.3 549.684 41.3H545.884V51.5H542.604V23.5H549.684ZM549.684 38.18C553.044 38.18 554.684 36.34 554.684 32.34C554.684 28.54 553.044 26.62 549.684 26.62H545.884V38.18H549.684ZM574.863 23.5V26.58H568.863V51.5H565.543V26.58H559.543V23.5H574.863ZM590.546 23.5H593.866V51.5H590.546V38.82H581.666V51.5H578.346V23.5H581.666V35.74H590.546V23.5ZM599.713 51.5V23.5H603.073V34.94H606.473C611.753 34.94 614.833 38.1 614.833 43.18C614.833 48.5 611.753 51.5 606.473 51.5H599.713ZM618.433 51.5V23.5H621.713V51.5H618.433ZM603.073 48.42H606.353C609.513 48.42 611.433 46.66 611.433 43.18C611.433 39.78 609.513 38.06 606.353 38.06H603.073V48.42ZM630.884 48.42H641.444V51.5H627.604V23.5H641.004V26.54H630.884V35.78H640.284V38.78H630.884V48.42ZM661.911 51.98C657.191 51.98 654.031 48.94 654.031 43.42V31.58C654.031 26.06 657.151 22.98 661.831 22.98C666.631 22.98 669.591 25.94 669.871 31.34H666.631C666.391 27.74 664.711 26.06 661.791 26.06C659.111 26.06 657.311 27.82 657.311 31.58V43.42C657.311 47.14 659.191 48.9 661.911 48.9C664.871 48.9 666.511 47.18 666.831 43.66H670.071C669.751 48.98 666.791 51.98 661.911 51.98ZM685.423 51.5L683.943 45.42H675.823L674.343 51.5H670.903L678.103 23.5H681.663L688.863 51.5H685.423ZM676.543 42.38H683.223L680.943 32.9C680.503 31.1 680.103 28.74 679.943 27.66H679.823C679.663 28.74 679.263 31.1 678.823 32.9L676.543 42.38ZM709.695 23.5H713.095V51.5H709.855V38.66C709.895 35.62 709.975 32.9 710.135 30.18L709.975 30.14C709.215 32.26 708.175 34.86 707.175 37.5L704.255 45.06H701.015L698.055 37.5C697.095 34.86 696.015 32.26 695.295 30.14L695.095 30.18C695.255 32.9 695.375 35.62 695.375 38.66V51.5H692.135V23.5H695.575L700.415 35.22C701.095 36.9 702.095 39.66 702.535 41.1H702.695C703.175 39.66 704.175 36.9 704.855 35.22L709.695 23.5ZM726.531 52.02C721.331 52.02 718.211 48.46 718.211 42.7V32.26C718.211 26.54 721.331 22.98 726.531 22.98C731.731 22.98 734.811 26.54 734.811 32.26V42.7C734.811 48.46 731.731 52.02 726.531 52.02ZM726.531 48.82C729.771 48.82 731.451 46.62 731.451 42.7V32.26C731.451 28.38 729.771 26.18 726.531 26.18C723.251 26.18 721.571 28.38 721.571 32.26V42.7C721.571 46.62 723.251 48.82 726.531 48.82ZM741.268 23.5H754.228V51.5H750.948V26.58H744.428C744.028 35.06 743.668 42.22 743.188 45.62C742.588 49.98 740.508 51.9 736.988 51.9V48.82C738.788 48.82 739.668 47.5 740.028 44.98C740.428 42.02 740.828 34.94 741.268 23.5ZM763.384 48.42H773.944V51.5H760.104V23.5H773.504V26.54H763.384V35.78H772.784V38.78H763.384V48.42ZM791.504 23.5V26.58H785.504V51.5H782.184V26.58H776.184V23.5H791.504ZM794.986 51.5V23.5H798.346V34.94H801.746C807.026 34.94 810.106 38.1 810.106 43.18C810.106 48.5 807.026 51.5 801.746 51.5H794.986ZM813.706 51.5V23.5H816.986V51.5H813.706ZM798.346 48.42H801.626C804.786 48.42 806.706 46.66 806.706 43.18C806.706 39.78 804.786 38.06 801.626 38.06H798.346V48.42Z" fill="#72D8FF"/>
</svg>
