<svg width="155" height="30" viewBox="0 0 155 30" fill="none" xmlns="http://www.w3.org/2000/svg">
<path d="M0.709961 28.81H154.96" stroke="#72D8FF" stroke-width="2" stroke-miterlimit="10"/>
<path d="M6.44 12.88C8.26 13.36 8.94 14.64 8.94 16.3C8.94 18.86 7.18 20.38 4.8 20.38C2.24 20.38 0.68 18.6 0.58 16.24H2.24C2.32 17.7 3.18 18.8 4.78 18.8C6.24 18.8 7.28 17.84 7.28 16.26C7.28 14.54 6.12 13.66 4.54 13.66H3.44V12.18H4.38C5.92 12.18 6.96 11.44 6.96 9.73999C6.96 8.27999 6.16 7.41999 4.76 7.41999C3.2 7.41999 2.54 8.41999 2.42 10.02H0.78C0.94 7.49999 2.28 5.83999 4.76 5.83999C7.08 5.83999 8.6 7.29999 8.6 9.79999C8.6 11.34 8 12.36 6.44 12.88ZM16.8736 20.12L16.1336 17.08H12.0736L11.3336 20.12H9.61359L13.2136 6.11999H14.9936L18.5936 20.12H16.8736ZM12.4336 15.56H15.7736L14.6336 10.82C14.4136 9.91999 14.2136 8.74 14.1336 8.19999H14.0736C13.9936 8.74 13.7936 9.91999 13.5736 10.82L12.4336 15.56ZM26.7895 6.11999V7.65999H21.8695V20.12H20.2295V6.11999H26.7895ZM32.3689 20.38C29.7689 20.38 28.2089 18.6 28.2089 15.72V10.5C28.2089 7.63999 29.7689 5.85999 32.3689 5.85999C34.9689 5.85999 36.5089 7.63999 36.5089 10.5V15.72C36.5089 18.6 34.9689 20.38 32.3689 20.38ZM32.3689 18.78C33.9889 18.78 34.8289 17.68 34.8289 15.72V10.5C34.8289 8.55999 33.9889 7.45999 32.3689 7.45999C30.7289 7.45999 29.8889 8.55999 29.8889 10.5V15.72C29.8889 17.68 30.7289 18.78 32.3689 18.78ZM39.7377 6.11999H46.2177V20.12H44.5777V7.65999H41.3177C41.1177 11.9 40.9377 15.48 40.6977 17.18C40.3977 19.36 39.3577 20.32 37.5977 20.32V18.78C38.4977 18.78 38.9377 18.12 39.1177 16.86C39.3177 15.38 39.5177 11.84 39.7377 6.11999ZM52.9353 20.38C50.3353 20.38 48.7753 18.6 48.7753 15.72V10.5C48.7753 7.63999 50.3353 5.85999 52.9353 5.85999C55.5353 5.85999 57.0753 7.63999 57.0753 10.5V15.72C57.0753 18.6 55.5353 20.38 52.9353 20.38ZM52.9353 18.78C54.5553 18.78 55.3953 17.68 55.3953 15.72V10.5C55.3953 8.55999 54.5553 7.45999 52.9353 7.45999C51.2953 7.45999 50.4553 8.55999 50.4553 10.5V15.72C50.4553 17.68 51.2953 18.78 52.9353 18.78ZM65.3241 12.9C66.6441 13.32 67.4441 14.52 67.4441 16.2C67.4441 18.7 65.9041 20.12 63.4441 20.12H59.6241V6.11999H63.1841C65.4841 6.11999 66.9041 7.49999 66.9041 9.84C66.9041 11.36 66.2841 12.46 65.3241 12.9ZM63.0641 7.65999H61.2641V12.2H63.1041C64.5241 12.2 65.2241 11.4 65.2241 9.87999C65.2241 8.36 64.5241 7.65999 63.0641 7.65999ZM63.3041 18.58C64.9641 18.58 65.7841 17.84 65.7841 16.2C65.7841 14.58 64.7441 13.74 63.1641 13.74H61.2641V18.58H63.3041ZM73.4041 20.38C70.8041 20.38 69.2441 18.6 69.2441 15.72V10.5C69.2441 7.63999 70.8041 5.85999 73.4041 5.85999C76.0041 5.85999 77.5441 7.63999 77.5441 10.5V15.72C77.5441 18.6 76.0041 20.38 73.4041 20.38ZM73.4041 18.78C75.0241 18.78 75.8641 17.68 75.8641 15.72V10.5C75.8641 8.55999 75.0241 7.45999 73.4041 7.45999C71.7641 7.45999 70.9241 8.55999 70.9241 10.5V15.72C70.9241 17.68 71.7641 18.78 73.4041 18.78ZM86.5728 20.12L82.6928 13.64L81.7328 15.04V20.12H80.0928V6.11999H81.7328V12.52L82.7728 10.84L85.9328 6.11999H87.9128L83.6728 12.22L88.4728 20.12H86.5728Z" fill="#72D8FF"/>
</svg>
 