<svg width="235" height="41" viewBox="0 0 235 41" fill="none" xmlns="http://www.w3.org/2000/svg">
<path d="M233.03 1H39.19C24.28 15.91 15.91 24.28 1 39.19C1 39.4 1.17 39.56 1.37 39.56H195.21C210.12 24.65 218.49 16.28 233.4 1.37C233.4 1.16 233.23 1 233.03 1Z" stroke="#72D8FF" stroke-width="2" stroke-miterlimit="10"/>
<path d="M79.42 19.57C81.24 20.05 81.92 21.33 81.92 22.99C81.92 25.55 80.16 27.07 77.78 27.07C75.22 27.07 73.66 25.29 73.56 22.93H75.22C75.3 24.39 76.16 25.49 77.76 25.49C79.22 25.49 80.26 24.53 80.26 22.95C80.26 21.23 79.1 20.35 77.52 20.35H76.42V18.87H77.36C78.9 18.87 79.94 18.13 79.94 16.43C79.94 14.97 79.14 14.11 77.74 14.11C76.18 14.11 75.52 15.11 75.4 16.71H73.76C73.92 14.19 75.26 12.53 77.74 12.53C80.06 12.53 81.58 13.99 81.58 16.49C81.58 18.03 80.98 19.05 79.42 19.57ZM89.8536 26.81L89.1136 23.77H85.0536L84.3136 26.81H82.5936L86.1936 12.81H87.9736L91.5736 26.81H89.8536ZM85.4136 22.25H88.7536L87.6136 17.51C87.3936 16.61 87.1936 15.43 87.1136 14.89H87.0536C86.9736 15.43 86.7736 16.61 86.5536 17.51L85.4136 22.25ZM99.7695 12.81V14.35H94.8495V26.81H93.2095V12.81H99.7695ZM105.349 27.07C102.749 27.07 101.189 25.29 101.189 22.41V17.19C101.189 14.33 102.749 12.55 105.349 12.55C107.949 12.55 109.489 14.33 109.489 17.19V22.41C109.489 25.29 107.949 27.07 105.349 27.07ZM105.349 25.47C106.969 25.47 107.809 24.37 107.809 22.41V17.19C107.809 15.25 106.969 14.15 105.349 14.15C103.709 14.15 102.869 15.25 102.869 17.19V22.41C102.869 24.37 103.709 25.47 105.349 25.47ZM112.718 12.81H119.198V26.81H117.558V14.35H114.298C114.098 18.59 113.918 22.17 113.678 23.87C113.378 26.05 112.338 27.01 110.578 27.01V25.47C111.478 25.47 111.918 24.81 112.098 23.55C112.298 22.07 112.498 18.53 112.718 12.81ZM125.915 27.07C123.315 27.07 121.755 25.29 121.755 22.41V17.19C121.755 14.33 123.315 12.55 125.915 12.55C128.515 12.55 130.055 14.33 130.055 17.19V22.41C130.055 25.29 128.515 27.07 125.915 27.07ZM125.915 25.47C127.535 25.47 128.375 24.37 128.375 22.41V17.19C128.375 15.25 127.535 14.15 125.915 14.15C124.275 14.15 123.435 15.25 123.435 17.19V22.41C123.435 24.37 124.275 25.47 125.915 25.47ZM138.304 19.59C139.624 20.01 140.424 21.21 140.424 22.89C140.424 25.39 138.884 26.81 136.424 26.81H132.604V12.81H136.164C138.464 12.81 139.884 14.19 139.884 16.53C139.884 18.05 139.264 19.15 138.304 19.59ZM136.044 14.35H134.244V18.89H136.084C137.504 18.89 138.204 18.09 138.204 16.57C138.204 15.05 137.504 14.35 136.044 14.35ZM136.284 25.27C137.944 25.27 138.764 24.53 138.764 22.89C138.764 21.27 137.724 20.43 136.144 20.43H134.244V25.27H136.284ZM146.384 27.07C143.784 27.07 142.224 25.29 142.224 22.41V17.19C142.224 14.33 143.784 12.55 146.384 12.55C148.984 12.55 150.524 14.33 150.524 17.19V22.41C150.524 25.29 148.984 27.07 146.384 27.07ZM146.384 25.47C148.004 25.47 148.844 24.37 148.844 22.41V17.19C148.844 15.25 148.004 14.15 146.384 14.15C144.744 14.15 143.904 15.25 143.904 17.19V22.41C143.904 24.37 144.744 25.47 146.384 25.47ZM159.553 26.81L155.673 20.33L154.713 21.73V26.81H153.073V12.81H154.713V19.21L155.753 17.53L158.913 12.81H160.893L156.653 18.91L161.453 26.81H159.553Z" fill="#72D8FF"/>
</svg>
