<svg width="616" height="122" viewBox="0 0 616 122" fill="none" xmlns="http://www.w3.org/2000/svg">
<path d="M614 2H2V119.999H614V2Z" fill="#191919" fill-opacity="0.7" stroke="#A1A1A1" stroke-width="2" stroke-miterlimit="10"/>
<path d="M37.1032 2H2V15.4334" fill="#191919"/>
<path d="M37.1032 2H2V15.4334" stroke="white" stroke-width="4" stroke-miterlimit="10"/>
<path d="M613.999 15.4334V2H578.896" fill="#191919"/>
<path d="M613.999 15.4334V2H578.896" stroke="white" stroke-width="4" stroke-miterlimit="10"/>
<path d="M578.896 120H613.999V106.566" fill="#191919"/>
<path d="M578.896 120H613.999V106.566" stroke="white" stroke-width="4" stroke-miterlimit="10"/>
<path d="M2 106.567V120H37.1032" fill="#191919"/>
<path d="M2 106.567V120H37.1032" stroke="white" stroke-width="4" stroke-miterlimit="10"/>
<path d="M83 85H32L57.5 39L83 85ZM37.475 81.7194H77.5474L57.5112 45.5739L37.475 81.7194ZM59.0807 75.2294V78.6649H55.9304V75.2294H59.0807ZM59.0807 71.9139H55.9304V54.7947H59.0807V71.9139Z" fill="#F9F34D"/>
<path opacity="0.5" d="M123.019 54.608H124.459V58.76H123.019V56H114.331V58.76H112.891V54.608H113.803C114.763 53.672 115.531 51.368 115.627 48.368L115.915 39.2H123.019V54.608ZM121.531 54.608V40.592H117.331L117.043 48.752C116.947 51.464 116.419 53.384 115.651 54.608H121.531ZM127.946 39.2H135.17V56H133.682V40.592H129.362C129.146 45.896 128.93 50.696 128.642 52.76C128.378 54.896 127.322 56.216 125.426 56.216V54.8C126.53 54.8 127.058 53.864 127.202 52.544C127.418 50.744 127.706 46.016 127.946 39.2ZM137.699 56L141.779 49.256C139.427 48.848 138.107 47 138.107 44.312C138.107 41.072 139.907 39.2 142.883 39.2H146.675V56H145.187V49.352H143.411L139.427 56H137.699ZM142.835 47.96H145.187V40.592H142.883C140.723 40.592 139.619 41.84 139.619 44.24C139.619 46.616 140.723 47.96 142.835 47.96ZM161.436 47.312C163.62 47.912 164.484 49.496 164.484 51.512C164.484 54.536 162.516 56.312 159.756 56.312C156.828 56.312 155.004 54.32 154.86 51.512H156.372C156.516 53.528 157.692 54.872 159.708 54.872C161.652 54.872 162.996 53.6 162.996 51.512C162.996 49.232 161.412 48.056 159.396 48.056H158.028V46.664H159.228C161.172 46.664 162.636 45.704 162.636 43.424C162.636 41.456 161.556 40.328 159.66 40.328C157.668 40.328 156.756 41.576 156.588 43.736H155.1C155.268 40.76 156.852 38.888 159.684 38.888C162.348 38.888 164.124 40.568 164.124 43.544C164.124 45.464 163.38 46.736 161.436 47.312ZM174.507 56L173.523 52.064H168.195L167.211 56H165.627L170.043 39.2H171.675L176.091 56H174.507ZM168.531 50.72H173.187L171.459 43.76C171.195 42.728 170.955 41.528 170.883 41.12H170.835C170.763 41.528 170.523 42.728 170.259 43.76L168.531 50.72ZM184.419 47.288C186.195 47.696 187.299 49.16 187.299 51.416C187.299 54.416 185.499 56 182.523 56H178.203V39.2H182.139C184.947 39.2 186.603 40.784 186.603 43.568C186.603 45.656 185.739 46.928 184.419 47.288ZM182.139 40.592H179.691V46.688H182.187C184.131 46.688 185.091 45.632 185.091 43.568C185.091 41.528 184.131 40.592 182.139 40.592ZM182.523 54.608C184.707 54.608 185.787 53.624 185.787 51.416C185.787 49.232 184.371 48.08 182.259 48.08H179.691V54.608H182.523ZM191.293 54.632H197.893V56H189.805V39.2H197.629V40.568H191.293V46.784H197.221V48.152H191.293V54.632ZM204.735 39.2C207.831 39.2 209.535 41.072 209.535 44.36C209.535 47.816 207.831 49.64 204.735 49.64H202.191V56H200.703V39.2H204.735ZM204.735 48.224C206.991 48.224 208.047 47.024 208.047 44.36C208.047 41.864 206.991 40.616 204.735 40.616H202.191V48.224H204.735ZM211.813 56V39.2H213.301V54.608H218.701V39.2H220.189V54.608H225.589V39.2H227.077V56H211.813ZM232.262 54.632H238.862V56H230.774V39.2H238.598V40.568H232.262V46.784H238.19V48.152H232.262V54.632ZM249.136 39.2H250.624V56H249.136V48.152H243.16V56H241.672V39.2H243.16V46.76H249.136V39.2ZM254.328 56V39.2H255.816V49.832C255.816 50.672 255.792 52.208 255.744 53.048L255.816 53.072C256.032 52.496 256.536 51.296 256.992 50.336L261.888 39.2H263.568V56H262.08V44.936L262.104 42.128L262.056 42.104C261.912 42.488 261.408 43.688 261.168 44.264L255.96 56H254.328ZM266.09 56L270.17 49.256C267.818 48.848 266.498 47 266.498 44.312C266.498 41.072 268.298 39.2 271.274 39.2H275.066V56H273.578V49.352H271.802L267.818 56H266.09ZM271.226 47.96H273.578V40.592H271.274C269.114 40.592 268.01 41.84 268.01 44.24C268.01 46.616 269.114 47.96 271.226 47.96ZM288.027 38.912C290.667 38.912 292.515 40.712 292.515 43.952V51.248C292.515 54.488 290.619 56.288 287.931 56.288C285.171 56.288 283.467 54.512 283.227 51.44H284.667C284.907 53.768 286.011 54.944 287.931 54.944C289.779 54.944 291.075 53.744 291.075 51.248V48.152H285.939V46.76H291.075V43.952C291.075 41.456 289.827 40.256 288.027 40.256C286.131 40.256 284.979 41.384 284.811 43.76H283.371C283.539 40.64 285.291 38.912 288.027 38.912ZM303.662 56L298.454 47.816L297.254 49.448V56H295.766V39.2H297.254V47.216L298.622 45.248L302.918 39.2H304.766L299.414 46.52L305.438 56H303.662ZM310.956 56.288C308.268 56.288 306.372 54.488 306.372 51.248V43.952C306.372 40.712 308.22 38.912 310.86 38.912C313.596 38.912 315.348 40.64 315.516 43.76H314.076C313.908 41.384 312.756 40.256 310.86 40.256C309.06 40.256 307.812 41.456 307.812 43.952V51.248C307.812 53.744 309.108 54.944 310.956 54.944C312.876 54.944 313.98 53.768 314.22 51.44H315.66C315.42 54.512 313.716 56.288 310.956 56.288ZM327.312 39.2V56H325.824V40.592H319.848V56H318.36V39.2H327.312ZM332.504 54.632H339.104V56H331.016V39.2H338.84V40.568H332.504V46.784H338.432V48.152H332.504V54.632ZM345.946 39.2C349.042 39.2 350.746 41.072 350.746 44.36C350.746 47.816 349.042 49.64 345.946 49.64H343.402V56H341.914V39.2H345.946ZM345.946 48.224C348.202 48.224 349.258 47.024 349.258 44.36C349.258 41.864 348.202 40.616 345.946 40.616H343.402V48.224H345.946ZM353.024 56V39.2H354.512V49.832C354.512 50.672 354.488 52.208 354.44 53.048L354.512 53.072C354.728 52.496 355.232 51.296 355.688 50.336L360.584 39.2H362.264V56H360.776V44.936L360.8 42.128L360.752 42.104C360.608 42.488 360.104 43.688 359.864 44.264L354.656 56H353.024ZM376.329 39.2H377.913V56H376.425V47.12C376.425 45.344 376.473 43.856 376.569 42.368L376.473 42.344C376.041 43.544 375.369 45.152 374.745 46.76L372.681 52.04H371.193L369.129 46.76C368.505 45.152 367.833 43.544 367.401 42.344L367.305 42.368C367.401 43.856 367.449 45.344 367.449 47.12V56H365.961V39.2H367.545L370.545 46.448C370.977 47.528 371.577 49.256 371.889 50.192H371.985C372.297 49.256 372.897 47.528 373.329 46.448L376.329 39.2ZM383.106 54.632H389.706V56H381.618V39.2H389.442V40.568H383.106V46.784H389.034V48.152H383.106V54.632ZM399.98 39.2H401.468V56H399.98V48.152H394.004V56H392.516V39.2H394.004V46.76H399.98V39.2ZM412.636 39.2V40.592H408.94V56H407.452V40.592H403.756V39.2H412.636ZM421.398 56L420.414 52.064H415.086L414.102 56H412.518L416.934 39.2H418.566L422.982 56H421.398ZM415.422 50.72H420.078L418.35 43.76C418.086 42.728 417.846 41.528 417.774 41.12H417.726C417.654 41.528 417.414 42.728 417.15 43.76L415.422 50.72ZM436.794 47.288C438.57 47.696 439.674 49.16 439.674 51.416C439.674 54.416 437.874 56 434.898 56H430.578V39.2H434.514C437.322 39.2 438.978 40.784 438.978 43.568C438.978 45.656 438.114 46.928 436.794 47.288ZM434.514 40.592H432.066V46.688H434.562C436.506 46.688 437.466 45.632 437.466 43.568C437.466 41.528 436.506 40.592 434.514 40.592ZM434.898 54.608C437.082 54.608 438.162 53.624 438.162 51.416C438.162 49.232 436.746 48.08 434.634 48.08H432.066V54.608H434.898ZM443.668 54.632H450.268V56H442.18V39.2H450.004V40.568H443.668V46.784H449.596V48.152H443.668V54.632ZM457.11 39.2C460.206 39.2 461.91 41.072 461.91 44.36C461.91 47.816 460.206 49.64 457.11 49.64H454.566V56H453.078V39.2H457.11ZM457.11 48.224C459.366 48.224 460.422 47.024 460.422 44.36C460.422 41.864 459.366 40.616 457.11 40.616H454.566V48.224H457.11ZM471.652 39.2H473.14V56H471.652V48.152H465.676V56H464.188V39.2H465.676V46.76H471.652V39.2ZM476.844 56V39.2H478.332V49.832C478.332 50.672 478.308 52.208 478.26 53.048L478.332 53.072C478.548 52.496 479.052 51.296 479.508 50.336L484.404 39.2H486.084V56H484.596V44.936L484.62 42.128L484.572 42.104C484.428 42.488 483.924 43.688 483.684 44.264L478.476 56H476.844ZM497.246 39.2V40.592H493.55V56H492.062V40.592H488.366V39.2H497.246ZM501.02 54.632H507.62V56H499.532V39.2H507.356V40.568H501.02V46.784H506.948V48.152H501.02V54.632ZM519.946 39.2C523.042 39.2 524.746 41.072 524.746 44.36C524.746 47.816 523.042 49.64 519.946 49.64H517.402V56H515.914V39.2H519.946ZM519.946 48.224C522.202 48.224 523.258 47.024 523.258 44.36C523.258 41.864 522.202 40.616 519.946 40.616H517.402V48.224H519.946ZM527.024 56V39.2H528.512V46.232H530.912C533.912 46.232 535.856 48.032 535.856 51.056C535.856 54.152 533.912 56 530.912 56H527.024ZM538.232 56V39.2H539.72V56H538.232ZM528.512 54.584H530.912C533 54.584 534.344 53.36 534.344 51.056C534.344 48.824 533 47.648 530.912 47.648H528.512V54.584ZM550.007 39.2H551.495V56H550.007V49.376C549.239 49.712 548.351 49.928 547.535 49.928C544.511 49.928 542.543 48.128 542.543 44.864V39.2H544.031V44.864C544.031 47.336 545.399 48.512 547.535 48.512C548.375 48.512 549.071 48.368 550.007 47.96V39.2ZM562.492 56L561.508 52.064H556.18L555.196 56H553.612L558.028 39.2H559.66L564.076 56H562.492ZM556.516 50.72H561.172L559.444 43.76C559.18 42.728 558.94 41.528 558.868 41.12H558.82C558.748 41.528 558.508 42.728 558.244 43.76L556.516 50.72ZM573.844 39.2V40.592H567.676V56H566.188V39.2H573.844ZM115.617 68.2H117.153L112.929 82C112.353 83.872 111.321 85.216 109.257 85.216H108.681V83.8H109.257C110.553 83.8 111.177 82.84 111.561 81.544L112.113 79.768L107.817 68.2H109.401L112.761 77.608L115.617 68.2ZM128.081 68.2V85H126.593V69.592H120.617V85H119.129V68.2H128.081ZM135.818 68.2C138.914 68.2 140.618 70.072 140.618 73.36C140.618 76.816 138.914 78.64 135.818 78.64H133.274V85H131.786V68.2H135.818ZM135.818 77.224C138.074 77.224 139.13 76.024 139.13 73.36C139.13 70.864 138.074 69.616 135.818 69.616H133.274V77.224H135.818ZM149.675 85L148.691 81.064H143.363L142.379 85H140.795L145.211 68.2H146.843L151.259 85H149.675ZM143.699 79.72H148.355L146.627 72.76C146.363 71.728 146.123 70.528 146.051 70.12H146.003C145.931 70.528 145.691 71.728 145.427 72.76L143.699 79.72ZM159.587 76.288C161.363 76.696 162.467 78.16 162.467 80.416C162.467 83.416 160.667 85 157.691 85H153.371V68.2H157.307C160.115 68.2 161.771 69.784 161.771 72.568C161.771 74.656 160.907 75.928 159.587 76.288ZM157.307 69.592H154.859V75.688H157.355C159.299 75.688 160.259 74.632 160.259 72.568C160.259 70.528 159.299 69.592 157.307 69.592ZM157.691 83.608C159.875 83.608 160.955 82.624 160.955 80.416C160.955 78.232 159.539 77.08 157.427 77.08H154.859V83.608H157.691ZM165.809 68.2H173.033V85H171.545V69.592H167.225C167.009 74.896 166.793 79.696 166.505 81.76C166.241 83.896 165.185 85.216 163.289 85.216V83.8C164.393 83.8 164.921 82.864 165.065 81.544C165.281 79.744 165.569 75.016 165.809 68.2ZM178.227 83.632H184.827V85H176.739V68.2H184.563V69.568H178.227V75.784H184.155V77.152H178.227V83.632ZM195.101 68.2H196.589V85H195.101V77.152H189.125V85H187.637V68.2H189.125V75.76H195.101V68.2ZM200.293 85V68.2H201.781V78.832C201.781 79.672 201.757 81.208 201.709 82.048L201.781 82.072C201.997 81.496 202.501 80.296 202.957 79.336L207.853 68.2H209.533V85H208.045V73.936L208.069 71.128L208.021 71.104C207.877 71.488 207.373 72.688 207.133 73.264L201.925 85H200.293ZM212.055 85L216.135 78.256C213.783 77.848 212.463 76 212.463 73.312C212.463 70.072 214.263 68.2 217.239 68.2H221.031V85H219.543V78.352H217.767L213.783 85H212.055ZM217.191 76.96H219.543V69.592H217.239C215.079 69.592 213.975 70.84 213.975 73.24C213.975 75.616 215.079 76.96 217.191 76.96ZM238.648 83.608H240.088V87.76H238.648V85H229.96V87.76H228.52V83.608H229.432C230.392 82.672 231.16 80.368 231.256 77.368L231.544 68.2H238.648V83.608ZM237.16 83.608V69.592H232.96L232.672 77.752C232.576 80.464 232.048 82.384 231.28 83.608H237.16ZM248.814 76.288C250.59 76.696 251.694 78.16 251.694 80.416C251.694 83.416 249.894 85 246.918 85H242.598V68.2H246.534C249.342 68.2 250.998 69.784 250.998 72.568C250.998 74.656 250.134 75.928 248.814 76.288ZM246.534 69.592H244.086V75.688H246.582C248.526 75.688 249.486 74.632 249.486 72.568C249.486 70.528 248.526 69.592 246.534 69.592ZM246.918 83.608C249.102 83.608 250.182 82.624 250.182 80.416C250.182 78.232 248.766 77.08 246.654 77.08H244.086V83.608H246.918ZM254.2 85V68.2H255.688V78.832C255.688 79.672 255.664 81.208 255.616 82.048L255.688 82.072C255.904 81.496 256.408 80.296 256.864 79.336L261.76 68.2H263.44V85H261.952V73.936L261.976 71.128L261.928 71.104C261.784 71.488 261.28 72.688 261.04 73.264L255.832 85H254.2ZM274.793 68.2V69.592H268.625V85H267.137V68.2H274.793ZM283.105 85L282.121 81.064H276.793L275.809 85H274.225L278.641 68.2H280.273L284.689 85H283.105ZM277.129 79.72H281.785L280.057 72.76C279.793 71.728 279.553 70.528 279.481 70.12H279.433C279.361 70.528 279.121 71.728 278.857 72.76L277.129 79.72ZM293.445 68.2V69.592H289.749V85H288.261V69.592H284.565V68.2H293.445ZM297.219 83.632H303.819V85H295.731V68.2H303.555V69.568H297.219V75.784H303.147V77.152H297.219V83.632ZM307.301 68.2H314.525V85H313.037V69.592H308.717C308.501 74.896 308.285 79.696 307.997 81.76C307.733 83.896 306.677 85.216 304.781 85.216V83.8C305.885 83.8 306.413 82.864 306.557 81.544C306.773 79.744 307.061 75.016 307.301 68.2ZM319.719 83.632H326.319V85H318.231V68.2H326.055V69.568H319.719V75.784H325.647V77.152H319.719V83.632ZM339.497 68.2H341.081V85H339.593V76.12C339.593 74.344 339.641 72.856 339.737 71.368L339.641 71.344C339.209 72.544 338.537 74.152 337.913 75.76L335.849 81.04H334.361L332.297 75.76C331.673 74.152 331.001 72.544 330.569 71.344L330.473 71.368C330.569 72.856 330.617 74.344 330.617 76.12V85H329.129V68.2H330.713L333.713 75.448C334.145 76.528 334.745 78.256 335.057 79.192H335.153C335.465 78.256 336.065 76.528 336.497 75.448L339.497 68.2ZM356.486 76.288C358.262 76.696 359.366 78.16 359.366 80.416C359.366 83.416 357.566 85 354.59 85H350.27V68.2H354.206C357.014 68.2 358.67 69.784 358.67 72.568C358.67 74.656 357.806 75.928 356.486 76.288ZM354.206 69.592H351.758V75.688H354.254C356.198 75.688 357.158 74.632 357.158 72.568C357.158 70.528 356.198 69.592 354.206 69.592ZM354.59 83.608C356.774 83.608 357.854 82.624 357.854 80.416C357.854 78.232 356.438 77.08 354.326 77.08H351.758V83.608H354.59ZM367.59 85V68.2H369.078V78.832C369.078 79.672 369.054 81.208 369.006 82.048L369.078 82.072C369.294 81.496 369.798 80.296 370.254 79.336L375.15 68.2H376.83V85H375.342V73.936L375.366 71.128L375.318 71.104C375.174 71.488 374.67 72.688 374.43 73.264L369.222 85H367.59ZM384.656 85.288C381.968 85.288 380.072 83.488 380.072 80.248V72.952C380.072 69.712 381.92 67.912 384.56 67.912C387.296 67.912 389.048 69.64 389.216 72.76H387.776C387.608 70.384 386.456 69.256 384.56 69.256C382.76 69.256 381.512 70.456 381.512 72.952V80.248C381.512 82.744 382.808 83.944 384.656 83.944C386.576 83.944 387.68 82.768 387.92 80.44H389.36C389.12 83.512 387.416 85.288 384.656 85.288ZM400.531 85H398.875L395.611 77.68L392.347 85H390.691L394.747 76.264L390.907 68.2H392.563L395.611 74.896L398.659 68.2H400.315L396.475 76.264L400.531 85ZM406.974 85.312C403.95 85.312 402.15 83.176 402.15 79.792V73.408C402.15 70.024 403.95 67.888 406.974 67.888C409.998 67.888 411.798 70.024 411.798 73.408V79.792C411.798 83.176 409.998 85.312 406.974 85.312ZM406.974 83.872C409.158 83.872 410.286 82.384 410.286 79.792V73.408C410.286 70.816 409.158 69.328 406.974 69.328C404.79 69.328 403.662 70.816 403.662 73.408V79.792C403.662 82.384 404.79 83.872 406.974 83.872ZM423.476 83.608H424.916V87.76H423.476V85H414.788V87.76H413.348V83.608H414.26C415.22 82.672 415.988 80.368 416.084 77.368L416.372 68.2H423.476V83.608ZM421.988 83.608V69.592H417.788L417.5 77.752C417.404 80.464 416.876 82.384 416.108 83.608H421.988ZM434.89 68.2H436.378V85H434.89V77.152H428.914V85H427.426V68.2H428.914V75.76H434.89V68.2ZM444.45 85.312C441.426 85.312 439.626 83.176 439.626 79.792V73.408C439.626 70.024 441.426 67.888 444.45 67.888C447.474 67.888 449.274 70.024 449.274 73.408V79.792C449.274 83.176 447.474 85.312 444.45 85.312ZM444.45 83.872C446.634 83.872 447.762 82.384 447.762 79.792V73.408C447.762 70.816 446.634 69.328 444.45 69.328C442.266 69.328 441.138 70.816 441.138 73.408V79.792C441.138 82.384 442.266 83.872 444.45 83.872ZM453.992 83.632H460.592V85H452.504V68.2H460.328V69.568H453.992V75.784H459.92V77.152H453.992V83.632ZM477.839 68.2V85H476.351V69.592H470.375V85H468.887V68.2H477.839ZM485.911 85.312C482.887 85.312 481.087 83.176 481.087 79.792V73.408C481.087 70.024 482.887 67.888 485.911 67.888C488.935 67.888 490.735 70.024 490.735 73.408V79.792C490.735 83.176 488.935 85.312 485.911 85.312ZM485.911 83.872C488.095 83.872 489.223 82.384 489.223 79.792V73.408C489.223 70.816 488.095 69.328 485.911 69.328C483.727 69.328 482.599 70.816 482.599 73.408V79.792C482.599 82.384 483.727 83.872 485.911 83.872ZM494.637 68.2H501.861V85H500.373V69.592H496.053C495.837 74.896 495.621 79.696 495.333 81.76C495.069 83.896 494.013 85.216 492.117 85.216V83.8C493.221 83.8 493.749 82.864 493.893 81.544C494.109 79.744 494.397 75.016 494.637 68.2ZM509.935 85.312C506.911 85.312 505.111 83.176 505.111 79.792V73.408C505.111 70.024 506.911 67.888 509.935 67.888C512.959 67.888 514.759 70.024 514.759 73.408V79.792C514.759 83.176 512.959 85.312 509.935 85.312ZM509.935 83.872C512.119 83.872 513.247 82.384 513.247 79.792V73.408C513.247 70.816 512.119 69.328 509.935 69.328C507.751 69.328 506.623 70.816 506.623 73.408V79.792C506.623 82.384 507.751 83.872 509.935 83.872ZM530.199 85L525.159 77.248L524.391 78.328V85H522.951V78.328L522.183 77.248L517.143 85H515.367L521.271 75.952L515.751 68.2H517.503L522.951 76.072V68.2H524.391V76.096L525.951 73.816L529.839 68.2H531.591L526.071 75.952L531.975 85H530.199ZM535.32 83.632H541.92V85H533.832V68.2H541.656V69.568H535.32V75.784H541.248V77.152H535.32V83.632ZM552.195 68.2H553.683V85H552.195V77.152H546.219V85H544.731V68.2H546.219V75.76H552.195V68.2ZM557.387 85V68.2H558.875V78.832C558.875 79.672 558.851 81.208 558.803 82.048L558.875 82.072C559.091 81.496 559.595 80.296 560.051 79.336L564.947 68.2H566.627V85H565.139V73.936L565.163 71.128L565.115 71.104C564.971 71.488 564.467 72.688 564.227 73.264L559.019 85H557.387ZM571.813 83.632H578.413V85H570.325V68.2H578.149V69.568H571.813V75.784H577.741V77.152H571.813V83.632Z" fill="#A1A1A1"/>
</svg>
