<svg width="120" height="41" viewBox="0 0 120 41" fill="none" xmlns="http://www.w3.org/2000/svg">
<path fill-rule="evenodd" clip-rule="evenodd" d="M39.61 1L1 39.51C1 39.51 1 39.56 1.02 39.56H79.86L118.53 1H39.61Z" stroke="#A1A1A1" stroke-width="2" stroke-linejoin="round"/>
<path d="M49.75 12.21V26.21H48.11V13.75H43.65V26.21H42.01V12.21H49.75ZM57.8141 12.21H59.5141L56.0741 23.47C55.4741 25.43 54.5541 26.41 52.6141 26.41H52.1341V24.89H52.6541C53.7341 24.89 54.2141 24.21 54.5941 22.97L54.8941 21.99L51.3541 12.21H53.0741L55.6141 19.55L57.8141 12.21ZM64.4372 26.45C62.0772 26.45 60.4972 24.93 60.4972 22.17V16.25C60.4972 13.49 62.0572 11.95 64.3972 11.95C66.7972 11.95 68.2772 13.43 68.4172 16.13H66.7972C66.6772 14.33 65.8372 13.49 64.3772 13.49C63.0372 13.49 62.1372 14.37 62.1372 16.25V22.17C62.1372 24.03 63.0772 24.91 64.4372 24.91C65.9172 24.91 66.7372 24.05 66.8972 22.29H68.5172C68.3572 24.95 66.8772 26.45 64.4372 26.45ZM77.0838 26.21L73.2038 19.73L72.2438 21.13V26.21H70.6038V12.21H72.2438V18.61L73.2838 16.93L76.4438 12.21H78.4238L74.1838 18.31L78.9838 26.21H77.0838Z" fill="#A1A1A1"/>
</svg>
