<svg width="1920" height="1080" viewBox="0 0 1920 1080" fill="none" xmlns="http://www.w3.org/2000/svg" xmlns:xlink="http://www.w3.org/1999/xlink">
<g clip-path="url(#clip0_3_33)">
<rect width="1920" height="1080" fill="#191919"/>
<rect width="1920" height="1080" fill="url(#pattern0_3_33)" fill-opacity="0.15"/>
<path d="M50 1030H1748L1870 908V50H172L50 172V1030Z" stroke="#A1A1A1" stroke-width="2"/>
<g opacity="0.1">
<g opacity="0.4" filter="url(#filter0_f_3_33)">
<ellipse cx="1919.5" cy="539.899" rx="573.899" ry="270.5" transform="rotate(-90 1919.5 539.899)" fill="#72D8FF"/>
</g>
<g opacity="0.1" filter="url(#filter1_f_3_33)">
<ellipse cx="1919.02" cy="540.211" rx="182.77" ry="201.778" transform="rotate(-90 1919.02 540.211)" fill="white"/>
</g>
</g>
<g opacity="0.1">
<g opacity="0.4" filter="url(#filter2_f_3_33)">
<ellipse cx="573.899" cy="271.5" rx="573.899" ry="271.5" transform="matrix(2.18557e-08 -1 -1 -2.18557e-08 272 1113.8)" fill="#72D8FF"/>
</g>
<g opacity="0.1" filter="url(#filter3_f_3_33)">
<ellipse cx="182.77" cy="202.524" rx="182.77" ry="202.524" transform="matrix(2.19365e-08 -1 -1 -2.17752e-08 203.51 722.982)" fill="white"/>
</g>
</g>
<path d="M1413 305V783H1264L1213 733H706L656 783H507V305H656L707 355H1214L1264 305H1413Z" fill="url(#paint0_linear_3_33)" fill-opacity="0.2"/>
<g filter="url(#filter4_d_3_33)">
<path d="M505 305H655.901L706.42 355H1213.58L1264.1 305H1415" stroke="white" stroke-width="2"/>
</g>
<g filter="url(#filter5_d_3_33)">
<path d="M505 783H655.901L706.42 733H1213.58L1264.1 783H1415" stroke="white" stroke-width="2"/>
</g>
<path d="M727.316 497.925C732.266 499.5 735.266 504 735.266 510.3C735.266 519.675 729.491 525 720.266 525H705.941V472.5H719.291C727.916 472.5 733.241 477.675 733.241 486.45C733.241 492.15 730.916 496.275 727.316 497.925ZM718.841 478.275H712.091V495.3H718.991C724.316 495.3 726.941 492.3 726.941 486.6C726.941 480.9 724.316 478.275 718.841 478.275ZM719.741 519.225C725.966 519.225 729.041 516.45 729.041 510.3C729.041 504.225 725.141 501.075 719.216 501.075H712.091V519.225H719.741ZM742.709 525V472.5H749.009V493.95H755.384C765.284 493.95 771.059 499.875 771.059 509.4C771.059 519.375 765.284 525 755.384 525H742.709ZM777.809 525V472.5H783.959V525H777.809ZM749.009 519.225H755.159C761.084 519.225 764.684 515.925 764.684 509.4C764.684 503.025 761.084 499.8 755.159 499.8H749.009V519.225ZM836.155 472.5V478.275H824.905V525H818.68V478.275H807.43V472.5H836.155ZM857.079 525.975C847.329 525.975 841.479 519.3 841.479 508.5V488.925C841.479 478.2 847.329 471.525 857.079 471.525C866.829 471.525 872.604 478.2 872.604 488.925V508.5C872.604 519.3 866.829 525.975 857.079 525.975ZM857.079 519.975C863.154 519.975 866.304 515.85 866.304 508.5V488.925C866.304 481.65 863.154 477.525 857.079 477.525C850.929 477.525 847.779 481.65 847.779 488.925V508.5C847.779 515.85 850.929 519.975 857.079 519.975ZM902.562 472.5H908.712V525.075H902.562V505.05C900.237 505.95 897.537 506.475 895.137 506.475C885.612 506.475 879.612 500.625 879.612 490.2V472.5H885.762V490.275C885.762 497.325 889.437 500.7 895.587 500.7C897.912 500.7 900.087 500.325 902.562 499.275V472.5ZM942.537 472.5H948.762V525H942.537V501.225H925.887V525H919.662V472.5H925.887V495.45H942.537V472.5ZM973.9 525.975C964.15 525.975 958.3 519.3 958.3 508.5V488.925C958.3 478.2 964.15 471.525 973.9 471.525C983.65 471.525 989.425 478.2 989.425 488.925V508.5C989.425 519.3 983.65 525.975 973.9 525.975ZM973.9 519.975C979.975 519.975 983.125 515.85 983.125 508.5V488.925C983.125 481.65 979.975 477.525 973.9 477.525C967.75 477.525 964.6 481.65 964.6 488.925V508.5C964.6 515.85 967.75 519.975 973.9 519.975ZM1043.58 525H1036.76L1027.53 503.85L1018.31 525H1011.48L1024.08 497.7L1012.16 472.5H1018.98L1027.53 491.85L1036.08 472.5H1042.91L1030.98 497.7L1043.58 525ZM1063.62 525.975C1053.87 525.975 1048.02 519.3 1048.02 508.5V488.925C1048.02 478.2 1053.87 471.525 1063.62 471.525C1073.37 471.525 1079.15 478.2 1079.15 488.925V508.5C1079.15 519.3 1073.37 525.975 1063.62 525.975ZM1063.62 519.975C1069.7 519.975 1072.85 515.85 1072.85 508.5V488.925C1072.85 481.65 1069.7 477.525 1063.62 477.525C1057.47 477.525 1054.32 481.65 1054.32 488.925V508.5C1054.32 515.85 1057.47 519.975 1063.62 519.975ZM1112.06 472.5V478.275H1100.81V525H1094.58V478.275H1083.33V472.5H1112.06ZM1118.59 525V472.5H1124.66V500.475C1124.66 503.625 1124.51 509.475 1124.21 513.075L1124.44 513.225C1125.26 511.05 1126.69 507.375 1128.11 504.3L1142.06 472.5H1148.66V525H1142.59V496.425C1142.59 493.275 1142.74 487.5 1142.89 484.275L1142.74 484.125C1141.99 486.075 1140.49 489.975 1139.44 492.375L1125.04 525H1118.59ZM1184.13 472.5V478.275H1172.88V525H1166.65V478.275H1155.4V472.5H1184.13ZM1196.81 519.225H1216.61V525H1190.66V472.5H1215.78V478.2H1196.81V495.525H1214.43V501.15H1196.81V519.225ZM577.583 587.85C584.408 589.65 586.958 594.45 586.958 600.675C586.958 610.275 580.358 615.975 571.433 615.975C561.833 615.975 555.983 609.3 555.608 600.45H561.833C562.133 605.925 565.358 610.05 571.358 610.05C576.833 610.05 580.733 606.45 580.733 600.525C580.733 594.075 576.383 590.775 570.458 590.775H566.333V585.225H569.858C575.633 585.225 579.533 582.45 579.533 576.075C579.533 570.6 576.533 567.375 571.283 567.375C565.433 567.375 562.958 571.125 562.508 577.125H556.358C556.958 567.675 561.983 561.45 571.283 561.45C579.983 561.45 585.683 566.925 585.683 576.3C585.683 582.075 583.433 585.9 577.583 587.85ZM616.709 615L613.934 603.6H598.709L595.934 615H589.484L602.984 562.5H609.659L623.159 615H616.709ZM600.059 597.9H612.584L608.309 580.125C607.484 576.75 606.734 572.325 606.434 570.3H606.209C605.909 572.325 605.159 576.75 604.334 580.125L600.059 597.9ZM653.593 615L639.043 590.7L635.443 595.95V615H629.293V562.5H635.443V586.5L639.343 580.2L651.193 562.5H658.618L642.718 585.375L660.718 615H653.593ZM678.991 615.975C669.241 615.975 663.391 609.3 663.391 598.5V578.925C663.391 568.2 669.241 561.525 678.991 561.525C688.741 561.525 694.516 568.2 694.516 578.925V598.5C694.516 609.3 688.741 615.975 678.991 615.975ZM678.991 609.975C685.066 609.975 688.216 605.85 688.216 598.5V578.925C688.216 571.65 685.066 567.525 678.991 567.525C672.841 567.525 669.691 571.65 669.691 578.925V598.5C669.691 605.85 672.841 609.975 678.991 609.975ZM726.949 562.5H733.174V615H726.949V591.225H710.299V615H704.074V562.5H710.299V585.45H726.949V562.5ZM764.537 562.5H770.687V615.075H764.537V595.05C762.212 595.95 759.512 596.475 757.112 596.475C747.587 596.475 741.587 590.625 741.587 580.2V562.5H747.737V580.275C747.737 587.325 751.412 590.7 757.562 590.7C759.887 590.7 762.062 590.325 764.537 589.275V562.5ZM781.637 615V562.5H787.712V590.475C787.712 593.625 787.562 599.475 787.262 603.075L787.487 603.225C788.312 601.05 789.737 597.375 791.162 594.3L805.112 562.5H811.712V615H805.637V586.425C805.637 583.275 805.787 577.5 805.937 574.275L805.787 574.125C805.037 576.075 803.537 579.975 802.487 582.375L788.087 615H781.637ZM847.178 562.5V568.275H835.928V615H829.703V568.275H818.453V562.5H847.178ZM853.707 615V562.5H859.932V583.875H867.507C877.032 583.875 882.807 589.875 882.807 599.325C882.807 609.375 877.032 615 867.507 615H853.707ZM859.932 609.3H867.282C872.832 609.3 876.507 605.925 876.507 599.325C876.507 592.95 872.832 589.725 867.282 589.725H859.932V609.3ZM931.04 562.5V568.275H919.79V615H913.565V568.275H902.315V562.5H931.04ZM943.72 609.225H963.52V615H937.57V562.5H962.695V568.2H943.72V585.525H961.345V591.15H943.72V609.225ZM985.27 615.9C976.42 615.9 970.495 610.2 970.495 599.85V577.65C970.495 567.3 976.345 561.525 985.12 561.525C994.12 561.525 999.67 567.075 1000.2 577.2H994.12C993.67 570.45 990.52 567.3 985.045 567.3C980.02 567.3 976.645 570.6 976.645 577.65V599.85C976.645 606.825 980.17 610.125 985.27 610.125C990.82 610.125 993.895 606.9 994.495 600.3H1000.57C999.97 610.275 994.42 615.9 985.27 615.9ZM1032.77 562.5V568.275H1021.52V615H1015.3V568.275H1004.05V562.5H1032.77ZM1039.3 615V562.5H1045.38V590.475C1045.38 593.625 1045.23 599.475 1044.93 603.075L1045.15 603.225C1045.98 601.05 1047.4 597.375 1048.83 594.3L1062.78 562.5H1069.38V615H1063.3V586.425C1063.3 583.275 1063.45 577.5 1063.6 574.275L1063.45 574.125C1062.7 576.075 1061.2 579.975 1060.15 582.375L1045.75 615H1039.3ZM1093.59 562.5C1103.57 562.5 1109.19 568.5 1109.19 579.075C1109.19 589.95 1103.57 595.875 1093.59 595.875H1086.47V615H1080.32V562.5H1093.59ZM1093.59 590.025C1099.89 590.025 1102.97 586.575 1102.97 579.075C1102.97 571.95 1099.89 568.35 1093.59 568.35H1086.47V590.025H1093.59ZM1131.33 615.975C1121.58 615.975 1115.73 609.3 1115.73 598.5V578.925C1115.73 568.2 1121.58 561.525 1131.33 561.525C1141.08 561.525 1146.86 568.2 1146.86 578.925V598.5C1146.86 609.3 1141.08 615.975 1131.33 615.975ZM1131.33 609.975C1137.41 609.975 1140.56 605.85 1140.56 598.5V578.925C1140.56 571.65 1137.41 567.525 1131.33 567.525C1125.18 567.525 1122.03 571.65 1122.03 578.925V598.5C1122.03 605.85 1125.18 609.975 1131.33 609.975ZM1177.79 587.925C1182.74 589.5 1185.74 594 1185.74 600.3C1185.74 609.675 1179.97 615 1170.74 615H1156.42V562.5H1169.77C1178.39 562.5 1183.72 567.675 1183.72 576.45C1183.72 582.15 1181.39 586.275 1177.79 587.925ZM1169.32 568.275H1162.57V585.3H1169.47C1174.79 585.3 1177.42 582.3 1177.42 576.6C1177.42 570.9 1174.79 568.275 1169.32 568.275ZM1170.22 609.225C1176.44 609.225 1179.52 606.45 1179.52 600.3C1179.52 594.225 1175.62 591.075 1169.69 591.075H1162.57V609.225H1170.22ZM1215.24 615L1212.47 603.6H1197.24L1194.47 615H1188.02L1201.52 562.5H1208.19L1221.69 615H1215.24ZM1198.59 597.9H1211.12L1206.84 580.125C1206.02 576.75 1205.27 572.325 1204.97 570.3H1204.74C1204.44 572.325 1203.69 576.75 1202.87 580.125L1198.59 597.9ZM1250.7 562.5H1256.93V615H1250.7V591.225H1234.05V615H1227.83V562.5H1234.05V585.45H1250.7V562.5ZM1267.89 615V562.5H1273.97V590.475C1273.97 593.625 1273.82 599.475 1273.52 603.075L1273.74 603.225C1274.57 601.05 1275.99 597.375 1277.42 594.3L1291.37 562.5H1297.97V615H1291.89V586.425C1291.89 583.275 1292.04 577.5 1292.19 574.275L1292.04 574.125C1291.29 576.075 1289.79 579.975 1288.74 582.375L1274.34 615H1267.89ZM1315.06 609.225H1334.86V615H1308.91V562.5H1334.03V568.2H1315.06V585.525H1332.68V591.15H1315.06V609.225ZM1347.91 603.3V599.25C1347.91 586.275 1358.63 585.075 1358.63 574.725C1358.63 570.3 1355.93 567.15 1351.58 567.15C1347.46 567.15 1344.53 570.15 1344.46 575.55H1338.61C1339.06 567 1344.08 561.675 1351.58 561.675C1359.08 561.675 1364.48 567 1364.48 574.725C1364.48 587.325 1353.83 588.375 1353.83 599.625V603.3H1347.91ZM1350.98 615.825C1348.58 615.825 1346.93 614.175 1346.93 611.7C1346.93 609.3 1348.58 607.65 1350.98 607.65C1353.38 607.65 1355.03 609.3 1355.03 611.7C1355.03 614.175 1353.38 615.825 1350.98 615.825Z" fill="white"/>
<g opacity="0.5" filter="url(#filter6_d_3_33)">
<mask id="mask0_3_33" style="mask-type:alpha" maskUnits="userSpaceOnUse" x="660" y="264" width="600" height="77">
<path d="M1259 265H661V285.914L715.086 340H1204.91L1259 285.914V265Z" fill="#4C7484" stroke="#72D8FF" stroke-width="2"/>
</mask>
<g mask="url(#mask0_3_33)">
<g id="Repeat group 1_inner" data-figma-trr="l17u0.5-0f">
</g>
<use xlink:href="#Repeat%20group%201_inner" transform="translate(60.8839)"/>
<use xlink:href="#Repeat%20group%201_inner" transform="translate(121.768)"/>
<use xlink:href="#Repeat%20group%201_inner" transform="translate(182.652)"/>
<use xlink:href="#Repeat%20group%201_inner" transform="translate(243.535)"/>
<use xlink:href="#Repeat%20group%201_inner" transform="translate(304.419)"/>
<use xlink:href="#Repeat%20group%201_inner" transform="translate(365.303)"/>
<use xlink:href="#Repeat%20group%201_inner" transform="translate(426.187)"/>
<use xlink:href="#Repeat%20group%201_inner" transform="translate(487.071)"/>
<use xlink:href="#Repeat%20group%201_inner" transform="translate(547.955)"/>
<use xlink:href="#Repeat%20group%201_inner" transform="translate(608.839)"/>
<use xlink:href="#Repeat%20group%201_inner" transform="translate(669.722)"/>
<use xlink:href="#Repeat%20group%201_inner" transform="translate(730.606)"/>
<use xlink:href="#Repeat%20group%201_inner" transform="translate(791.49)"/>
<use xlink:href="#Repeat%20group%201_inner" transform="translate(852.374)"/>
<use xlink:href="#Repeat%20group%201_inner" transform="translate(913.258)"/>
<use xlink:href="#Repeat%20group%201_inner" transform="translate(974.142)"/>
</g>
</g>
<path d="M1437.5 1030H1748L1870 908V595" stroke="#72D8FF" stroke-width="6"/>
<path d="M485 50H172L50 172V485" stroke="#72D8FF" stroke-width="6"/>
</g>
<defs>
<filter id="filter0_f_3_33" x="1529" y="-154" width="781" height="1387.8" filterUnits="userSpaceOnUse" color-interpolation-filters="sRGB">
<feFlood flood-opacity="0" result="BackgroundImageFix"/>
<feBlend mode="normal" in="SourceGraphic" in2="BackgroundImageFix" result="shape"/>
<feGaussianBlur stdDeviation="60" result="effect1_foregroundBlur_3_33"/>
</filter>
<filter id="filter1_f_3_33" x="1670.44" y="310.641" width="497.157" height="459.141" filterUnits="userSpaceOnUse" color-interpolation-filters="sRGB">
<feFlood flood-opacity="0" result="BackgroundImageFix"/>
<feBlend mode="normal" in="SourceGraphic" in2="BackgroundImageFix" result="shape"/>
<feGaussianBlur stdDeviation="23.4" result="effect1_foregroundBlur_3_33"/>
</filter>
<filter id="filter2_f_3_33" x="-391" y="-154" width="783" height="1387.8" filterUnits="userSpaceOnUse" color-interpolation-filters="sRGB">
<feFlood flood-opacity="0" result="BackgroundImageFix"/>
<feBlend mode="normal" in="SourceGraphic" in2="BackgroundImageFix" result="shape"/>
<feGaussianBlur stdDeviation="60" result="effect1_foregroundBlur_3_33"/>
</filter>
<filter id="filter3_f_3_33" x="-248.339" y="310.641" width="498.649" height="459.141" filterUnits="userSpaceOnUse" color-interpolation-filters="sRGB">
<feFlood flood-opacity="0" result="BackgroundImageFix"/>
<feBlend mode="normal" in="SourceGraphic" in2="BackgroundImageFix" result="shape"/>
<feGaussianBlur stdDeviation="23.4" result="effect1_foregroundBlur_3_33"/>
</filter>
<filter id="filter4_d_3_33" x="495" y="294" width="930" height="72" filterUnits="userSpaceOnUse" color-interpolation-filters="sRGB">
<feFlood flood-opacity="0" result="BackgroundImageFix"/>
<feColorMatrix in="SourceAlpha" type="matrix" values="0 0 0 0 0 0 0 0 0 0 0 0 0 0 0 0 0 0 127 0" result="hardAlpha"/>
<feOffset/>
<feGaussianBlur stdDeviation="5"/>
<feComposite in2="hardAlpha" operator="out"/>
<feColorMatrix type="matrix" values="0 0 0 0 0.447059 0 0 0 0 0.847059 0 0 0 0 1 0 0 0 0.8 0"/>
<feBlend mode="normal" in2="BackgroundImageFix" result="effect1_dropShadow_3_33"/>
<feBlend mode="normal" in="SourceGraphic" in2="effect1_dropShadow_3_33" result="shape"/>
</filter>
<filter id="filter5_d_3_33" x="495" y="722" width="930" height="72" filterUnits="userSpaceOnUse" color-interpolation-filters="sRGB">
<feFlood flood-opacity="0" result="BackgroundImageFix"/>
<feColorMatrix in="SourceAlpha" type="matrix" values="0 0 0 0 0 0 0 0 0 0 0 0 0 0 0 0 0 0 127 0" result="hardAlpha"/>
<feOffset/>
<feGaussianBlur stdDeviation="5"/>
<feComposite in2="hardAlpha" operator="out"/>
<feColorMatrix type="matrix" values="0 0 0 0 0.447059 0 0 0 0 0.847059 0 0 0 0 1 0 0 0 0.8 0"/>
<feBlend mode="normal" in2="BackgroundImageFix" result="effect1_dropShadow_3_33"/>
<feBlend mode="normal" in="SourceGraphic" in2="effect1_dropShadow_3_33" result="shape"/>
</filter>
<filter id="filter6_d_3_33" x="650" y="254" width="620" height="97" filterUnits="userSpaceOnUse" color-interpolation-filters="sRGB">
<feFlood flood-opacity="0" result="BackgroundImageFix"/>
<feColorMatrix in="SourceAlpha" type="matrix" values="0 0 0 0 0 0 0 0 0 0 0 0 0 0 0 0 0 0 127 0" result="hardAlpha"/>
<feOffset/>
<feGaussianBlur stdDeviation="5"/>
<feComposite in2="hardAlpha" operator="out"/>
<feColorMatrix type="matrix" values="0 0 0 0 0.447059 0 0 0 0 0.847059 0 0 0 0 1 0 0 0 0.8 0"/>
<feBlend mode="normal" in2="BackgroundImageFix" result="effect1_dropShadow_3_33"/>
<feBlend mode="normal" in="SourceGraphic" in2="effect1_dropShadow_3_33" result="shape"/>
</filter>
<linearGradient id="paint0_linear_3_33" x1="960" y1="305" x2="960" y2="783" gradientUnits="userSpaceOnUse">
<stop stop-color="#72D8FF"/>
<stop offset="1" stop-color="#72D8FF" stop-opacity="0"/>
</linearGradient>
<clipPath id="clip0_3_33">
<rect width="1920" height="1080" fill="white"/>
</clipPath>
<pattern id="pattern0_3_33" patternUnits="userSpaceOnUse" viewBox="-7925 6061 50 50" width="2.864583395421505%" height="5.0925927029715643%" x="932.5" y="512.5" patternContentUnits="objectBoundingBox">
<rect x="-7924.62" y="6061.38" width="49.25" height="49.25" stroke="#A1A1A1" stroke-width="0.75"/>
</pattern></defs>
</svg>
