<svg width="215" height="215" viewBox="0 0 215 215" fill="none" xmlns="http://www.w3.org/2000/svg">
<mask id="mask0_1_1086" style="mask-type:luminance" maskUnits="userSpaceOnUse" x="0" y="0" width="215" height="215">
<path d="M189.45 94.73L212.85 90.62L212.12 86.47L188.72 90.58L189.45 94.73ZM198.38 80.12L209.7 76.52L208.42 72.5L197.1 76.1L198.38 80.12ZM193.92 68.06L204.65 62.96L202.84 59.15L192.11 64.25L193.92 68.06ZM187.86 56.72L197.8 50.21L195.49 46.68L185.55 53.19L187.86 56.72ZM180.33 46.3L189.3 38.51L186.54 35.33L177.57 43.12L180.33 46.3ZM162.24 44.66L177.51 26.46L174.28 23.75L159.01 41.95L162.24 44.66ZM166.02 17.71L162.46 15.46L156.11 25.5L159.67 27.75L166.02 17.71ZM153.45 10.57L149.62 8.82L144.68 19.62L148.51 21.37L153.45 10.57ZM140.03 5.18L136 3.96L132.56 15.33L136.59 16.55L140.03 5.18ZM125.99 1.67L121.83 1.01L119.96 12.74L124.12 13.4L125.99 1.67ZM109.2 0H104.98L105 23.76H109.22L109.2 0ZM94.77 0.73L90.59 1.3L92.19 13.07L96.37 12.5L94.77 0.73ZM80.57 3.34L76.51 4.46L79.66 15.91L83.72 14.79L80.57 3.34ZM71.49 18.74L66.82 7.82L62.94 9.48L67.61 20.4L71.49 18.74ZM59.92 24.35L53.81 14.16L50.2 16.33L56.31 26.52L59.92 24.35ZM55.15 41.87L39.87 23.68L36.64 26.39L51.92 44.58L55.15 41.87ZM38.06 41.49L29.27 33.5L26.44 36.62L35.23 44.61L38.06 41.49ZM29.86 51.39L20.07 44.65L17.68 48.12L27.47 54.86L29.86 51.39ZM23.06 62.3L12.46 56.94L10.56 60.7L21.16 66.06L23.06 62.3ZM17.78 74.02L6.54999 70.13L5.16998 74.11L16.4 78L17.78 74.02ZM25.39 90.51L1.98999 86.38L1.26001 90.53L24.66 94.66L25.39 90.51ZM12.03 101.19L0.159973 100.73L0 104.94L11.87 105.4L12.03 101.19ZM12.11 114.05L0.279968 115.19L0.679993 119.39L12.51 118.25L12.11 114.05ZM13.94 126.77L2.37 129.47L3.32996 133.57L14.9 130.87L13.94 126.77ZM17.42 139.14L6.32001 143.38L7.82001 147.32L18.92 143.08L17.42 139.14ZM33.85 146.88L13.27 158.76L15.38 162.41L35.96 150.53L33.85 146.88ZM30.48 163.65L21.09 170.93L23.67 174.26L33.06 166.98L30.48 163.65ZM38.8 173.46L30.47 181.93L33.48 184.88L41.81 176.41L38.8 173.46ZM48.38 182.04L41.26 191.55L44.64 194.07L51.76 184.56L48.38 182.04ZM53.24 199.64L56.92 201.69L62.7 191.31L59.02 189.26L53.24 199.64ZM76.58 184.65L68.43 206.97L72.39 208.42L80.54 186.1L76.58 184.65ZM82.24 211.26L86.36 212.16L88.89 200.55L84.77 199.65L82.24 211.26ZM96.51 213.65L100.71 213.98L101.64 202.14L97.44 201.81L96.51 213.65ZM110.96 214.1L115.17 213.86L114.49 202L110.28 202.24L110.96 214.1ZM123.07 200.92L125.32 212.59L129.46 211.79L127.21 200.12L123.07 200.92ZM133.56 186.1L141.65 208.44L145.61 207L137.52 184.66L133.56 186.1ZM149.47 192.33L155 202.85L158.73 200.89L153.2 190.37L149.47 192.33ZM160.56 185.84L167.46 195.51L170.89 193.06L163.99 183.39L160.56 185.84ZM170.68 177.91L178.82 186.56L181.89 183.67L173.75 175.02L170.68 177.91ZM179.65 168.7L188.88 176.18L191.53 172.91L182.3 165.43L179.65 168.7ZM178.12 150.58L198.69 162.48L200.8 158.83L180.23 146.93L178.12 150.58ZM194.34 145.13L205.33 149.64L206.93 145.74L195.94 141.23L194.34 145.13ZM198.68 133.03L210.18 136.02L211.24 131.94L199.74 128.95L198.68 133.03ZM201.33 120.45L213.13 121.85L213.63 117.66L201.83 116.26L201.33 120.45ZM202.26 107.63L214.14 107.42L214.07 103.21L202.19 103.42L202.26 107.63Z" fill="white"/>
</mask>
<g mask="url(#mask0_1_1086)">
<path d="M189.45 94.73L212.85 90.62L212.12 86.47L188.72 90.58L189.45 94.73ZM198.38 80.12L209.7 76.52L208.42 72.5L197.1 76.1L198.38 80.12ZM193.92 68.06L204.65 62.96L202.84 59.15L192.11 64.25L193.92 68.06ZM187.86 56.72L197.8 50.21L195.49 46.68L185.55 53.19L187.86 56.72ZM180.33 46.3L189.3 38.51L186.54 35.33L177.57 43.12L180.33 46.3ZM162.24 44.66L177.51 26.46L174.28 23.75L159.01 41.95L162.24 44.66ZM166.02 17.71L162.46 15.46L156.11 25.5L159.67 27.75L166.02 17.71ZM153.45 10.57L149.62 8.82L144.68 19.62L148.51 21.37L153.45 10.57ZM140.03 5.18L136 3.96L132.56 15.33L136.59 16.55L140.03 5.18ZM125.99 1.67L121.83 1.01L119.96 12.74L124.12 13.4L125.99 1.67ZM109.2 0H104.98L105 23.76H109.22L109.2 0ZM94.77 0.73L90.59 1.3L92.19 13.07L96.37 12.5L94.77 0.73ZM80.57 3.34L76.51 4.46L79.66 15.91L83.72 14.79L80.57 3.34ZM71.49 18.74L66.82 7.82L62.94 9.48L67.61 20.4L71.49 18.74ZM59.92 24.35L53.81 14.16L50.2 16.33L56.31 26.52L59.92 24.35ZM55.15 41.87L39.87 23.68L36.64 26.39L51.92 44.58L55.15 41.87ZM38.06 41.49L29.27 33.5L26.44 36.62L35.23 44.61L38.06 41.49ZM29.86 51.39L20.07 44.65L17.68 48.12L27.47 54.86L29.86 51.39ZM23.06 62.3L12.46 56.94L10.56 60.7L21.16 66.06L23.06 62.3ZM17.78 74.02L6.54999 70.13L5.16998 74.11L16.4 78L17.78 74.02ZM25.39 90.51L1.98999 86.38L1.26001 90.53L24.66 94.66L25.39 90.51ZM12.03 101.19L0.159973 100.73L0 104.94L11.87 105.4L12.03 101.19ZM12.11 114.05L0.279968 115.19L0.679993 119.39L12.51 118.25L12.11 114.05ZM13.94 126.77L2.37 129.47L3.32996 133.57L14.9 130.87L13.94 126.77ZM17.42 139.14L6.32001 143.38L7.82001 147.32L18.92 143.08L17.42 139.14ZM33.85 146.88L13.27 158.76L15.38 162.41L35.96 150.53L33.85 146.88ZM30.48 163.65L21.09 170.93L23.67 174.26L33.06 166.98L30.48 163.65ZM38.8 173.46L30.47 181.93L33.48 184.88L41.81 176.41L38.8 173.46ZM48.38 182.04L41.26 191.55L44.64 194.07L51.76 184.56L48.38 182.04ZM53.24 199.64L56.92 201.69L62.7 191.31L59.02 189.26L53.24 199.64ZM76.58 184.65L68.43 206.97L72.39 208.42L80.54 186.1L76.58 184.65ZM82.24 211.26L86.36 212.16L88.89 200.55L84.77 199.65L82.24 211.26ZM96.51 213.65L100.71 213.98L101.64 202.14L97.44 201.81L96.51 213.65ZM110.96 214.1L115.17 213.86L114.49 202L110.28 202.24L110.96 214.1ZM123.07 200.92L125.32 212.59L129.46 211.79L127.21 200.12L123.07 200.92ZM133.56 186.1L141.65 208.44L145.61 207L137.52 184.66L133.56 186.1ZM149.47 192.33L155 202.85L158.73 200.89L153.2 190.37L149.47 192.33ZM160.56 185.84L167.46 195.51L170.89 193.06L163.99 183.39L160.56 185.84ZM170.68 177.91L178.82 186.56L181.89 183.67L173.75 175.02L170.68 177.91ZM179.65 168.7L188.88 176.18L191.53 172.91L182.3 165.43L179.65 168.7ZM178.12 150.58L198.69 162.48L200.8 158.83L180.23 146.93L178.12 150.58ZM194.34 145.13L205.33 149.64L206.93 145.74L195.94 141.23L194.34 145.13ZM198.68 133.03L210.18 136.02L211.24 131.94L199.74 128.95L198.68 133.03ZM201.33 120.45L213.13 121.85L213.63 117.66L201.83 116.26L201.33 120.45ZM202.26 107.63L214.14 107.42L214.07 103.21L202.19 103.42L202.26 107.63Z" fill="#A1A1A1"/>
<path d="M107.06 106.62L104.26 -1.96C105.19 -1.98 106.12 -2 107.06 -2C166.65 -2 215.68 47.03 215.68 106.62C215.68 166.21 166.65 215.24 107.06 215.24C66.3499 215.24 28.9299 192.36 10.3799 156.12L107.06 106.62Z" fill="#72D8FF"/>
</g>
<path d="M84.82 96.68C79.42 96.68 75.92 92.98 75.92 87.23V70.18C75.92 64.38 79.42 60.68 84.82 60.68C90.22 60.68 93.72 64.38 93.72 70.18V87.23C93.72 92.98 90.22 96.68 84.82 96.68ZM84.82 92.93C88.02 92.93 89.87 90.83 89.87 87.23V70.18C89.87 66.53 88.02 64.43 84.82 64.43C81.62 64.43 79.77 66.53 79.77 70.18V87.23C79.77 90.83 81.62 92.93 84.82 92.93ZM108.013 96.68C102.613 96.68 99.1133 92.98 99.1133 87.23V70.18C99.1133 64.38 102.613 60.68 108.013 60.68C113.413 60.68 116.913 64.38 116.913 70.18V87.23C116.913 92.98 113.413 96.68 108.013 96.68ZM108.013 92.93C111.213 92.93 113.063 90.83 113.063 87.23V70.18C113.063 66.53 111.213 64.43 108.013 64.43C104.813 64.43 102.963 66.53 102.963 70.18V87.23C102.963 90.83 104.813 92.93 108.013 92.93ZM125.207 76.63C122.307 76.63 120.207 74.73 120.207 71.18V66.18C120.207 62.63 122.307 60.68 125.207 60.68C128.057 60.68 130.157 62.63 130.157 66.18V71.18C130.157 74.73 128.057 76.63 125.207 76.63ZM120.757 96.18L143.907 61.18H147.207L124.057 96.18H120.757ZM125.207 73.98C126.457 73.98 127.307 73.23 127.307 71.23V66.13C127.307 64.08 126.457 63.33 125.207 63.33C123.907 63.33 123.057 64.08 123.057 66.13V71.23C123.057 73.23 123.907 73.98 125.207 73.98ZM142.607 96.63C139.707 96.63 137.607 94.73 137.607 91.18V86.18C137.607 82.63 139.707 80.68 142.607 80.68C145.457 80.68 147.557 82.63 147.557 86.18V91.18C147.557 94.73 145.457 96.63 142.607 96.63ZM142.607 93.98C143.857 93.98 144.707 93.23 144.707 91.23V86.13C144.707 84.08 143.857 83.33 142.607 83.33C141.307 83.33 140.457 84.08 140.457 86.13V91.23C140.457 93.23 141.307 93.98 142.607 93.98Z" fill="#72D8FF"/>
<path d="M55.5976 140.69V126.884H56.4851V136.805C56.4851 137.377 56.4851 138.304 56.4654 138.875L56.4851 138.895C56.702 138.402 57.0373 137.633 57.3529 136.962L61.9286 126.884H62.9148V140.69H62.0272V130.69V128.679H62.0075L61.3172 130.296L56.564 140.69H55.5976ZM72.3069 126.884H73.2141V140.69H72.3069V134.083H67.0014V140.69H66.1139V126.884H67.0014V133.235H72.3069V126.884ZM80.7184 141.735V140.157H80.0083C77.2866 140.157 75.6693 138.422 75.6693 135.404V132.111C75.6693 129.093 77.2866 127.377 80.0083 127.377H80.7184V125.918H81.6059V127.377H82.2962C85.0377 127.377 86.655 129.093 86.655 132.111V135.404C86.655 138.422 85.0377 140.157 82.2962 140.157H81.6059V141.735H80.7184ZM80.0083 139.29H80.7184V128.245H80.0083C77.7994 128.245 76.5766 129.586 76.5766 132.111V135.404C76.5766 137.929 77.7994 139.29 80.0083 139.29ZM81.6059 139.29H82.2962C84.5446 139.29 85.7477 137.929 85.7477 135.404V132.111C85.7477 129.586 84.5446 128.245 82.2962 128.245H81.6059V139.29ZM92.5626 140.927C90.1958 140.927 88.7363 139.329 88.7363 136.607V130.986C88.7363 128.225 90.1958 126.647 92.5626 126.647C94.9491 126.647 96.4086 128.225 96.4086 130.986V136.607C96.4086 139.329 94.9491 140.927 92.5626 140.927ZM92.5626 140.059C94.4363 140.059 95.5013 138.856 95.5013 136.607V130.986C95.5013 128.718 94.4363 127.515 92.5626 127.515C90.7086 127.515 89.6436 128.718 89.6436 130.986V136.607C89.6436 138.856 90.7086 140.059 92.5626 140.059ZM102.32 126.884C104.805 126.884 106.186 128.403 106.205 131.046C106.205 133.807 104.805 135.325 102.32 135.325H100.091V140.69H99.2037V126.884H102.32ZM102.32 134.477C104.292 134.477 105.298 133.314 105.298 131.046C105.318 128.896 104.292 127.732 102.32 127.732H100.091V134.477H102.32ZM116.621 126.884H117.567V140.67H116.66V131.775C116.66 130.71 116.699 129.764 116.739 128.837L116.699 128.817C116.404 129.586 116.009 130.552 115.615 131.519L113.327 137.238H112.42L110.112 131.519C109.737 130.552 109.343 129.586 109.047 128.817L109.007 128.837C109.047 129.764 109.067 130.71 109.067 131.775V140.67H108.179V126.884H109.126L111.926 133.669C112.222 134.398 112.597 135.463 112.853 136.134H112.893C113.13 135.463 113.504 134.398 113.82 133.669L116.621 126.884ZM126.772 140.69L125.865 137.16H121.269L120.362 140.69H119.415L123.064 126.884H124.07L127.718 140.69H126.772ZM121.486 136.331H125.648L124.208 130.671C123.971 129.724 123.734 128.679 123.577 128.048H123.557C123.399 128.679 123.163 129.724 122.926 130.671L121.486 136.331ZM136.974 142.958V140.69H129.578V126.884H130.465V139.842H135.712V126.884H136.599V139.842H137.842V142.958H136.974ZM140.113 140.69V126.884H141.001V136.805C141.001 137.377 141.001 138.304 140.981 138.875L141.001 138.895C141.218 138.402 141.553 137.633 141.869 136.962L146.444 126.884H147.43V140.69H146.543V130.69V128.679H146.523L145.833 130.296L141.08 140.69H140.113ZM149.663 140.69L153.174 135.049C151.221 134.793 149.998 133.333 149.998 131.006C149.998 128.343 151.517 126.884 153.844 126.884H156.783V140.69H155.876V135.089H154.16L150.708 140.69H149.663ZM153.825 134.26H155.876V127.732H153.844C151.99 127.732 150.906 128.797 150.906 130.967C150.906 133.116 151.99 134.26 153.825 134.26Z" fill="white"/>
<path d="M169.87 112.48H45" stroke="#72D8FF" stroke-width="2" stroke-miterlimit="10"/>
</svg>
