<svg width="517" height="122" viewBox="0 0 517 122" fill="none" xmlns="http://www.w3.org/2000/svg">
<path d="M514.859 121L394.717 1H1V121H514.859Z" fill="url(#paint0_linear_18_22)" stroke="#72D8FF"/>
<path d="M158.808 62.672C161.976 63.68 163.896 66.56 163.896 70.592C163.896 76.592 160.2 80 154.296 80H145.128V46.4H153.672C159.192 46.4 162.6 49.712 162.6 55.328C162.6 58.976 161.112 61.616 158.808 62.672ZM153.384 50.096H149.064V60.992H153.48C156.888 60.992 158.568 59.072 158.568 55.424C158.568 51.776 156.888 50.096 153.384 50.096ZM153.96 76.304C157.944 76.304 159.912 74.528 159.912 70.592C159.912 66.704 157.416 64.688 153.624 64.688H149.064V76.304H153.96ZM168.659 80V46.4H172.691V60.128H176.771C183.107 60.128 186.803 63.92 186.803 70.016C186.803 76.4 183.107 80 176.771 80H168.659ZM191.123 80V46.4H195.059V80H191.123ZM172.691 76.304H176.627C180.419 76.304 182.723 74.192 182.723 70.016C182.723 65.936 180.419 63.872 176.627 63.872H172.691V76.304ZM223.2 46.4H227.28V80H223.392V64.592C223.44 60.944 223.536 57.68 223.728 54.416L223.536 54.368C222.624 56.912 221.376 60.032 220.176 63.2L216.672 72.272H212.784L209.232 63.2C208.08 60.032 206.784 56.912 205.92 54.368L205.68 54.416C205.872 57.68 206.016 60.944 206.016 64.592V80H202.128V46.4H206.256L212.064 60.464C212.88 62.48 214.08 65.792 214.608 67.52H214.8C215.376 65.792 216.576 62.48 217.392 60.464L223.2 46.4ZM234.331 80V46.4H238.363V60.128H242.443C248.779 60.128 252.475 63.92 252.475 70.016C252.475 76.4 248.779 80 242.443 80H234.331ZM256.795 80V46.4H260.731V80H256.795ZM238.363 76.304H242.299C246.091 76.304 248.395 74.192 248.395 70.016C248.395 65.936 246.091 63.872 242.299 63.872H238.363V76.304ZM276.344 80.576C270.68 80.576 266.888 76.928 266.888 70.304V56.096C266.888 49.472 270.632 45.776 276.248 45.776C282.008 45.776 285.56 49.328 285.896 55.808H282.008C281.72 51.488 279.704 49.472 276.2 49.472C272.984 49.472 270.824 51.584 270.824 56.096V70.304C270.824 74.768 273.08 76.88 276.344 76.88C279.896 76.88 281.864 74.816 282.248 70.592H286.136C285.752 76.976 282.2 80.576 276.344 80.576ZM295.08 76.304H307.752V80H291.144V46.4H307.224V50.048H295.08V61.136H306.36V64.736H295.08V76.304ZM314.76 46.4H330.312V80H326.376V50.096H318.552C318.072 60.272 317.64 68.864 317.064 72.944C316.344 78.176 313.848 80.48 309.624 80.48V76.784C311.784 76.784 312.84 75.2 313.272 72.176C313.752 68.624 314.232 60.128 314.76 46.4Z" fill="#72D8FF"/>
<path d="M60.8585 61L90.8585 31L120.859 61L90.8585 91L60.8585 61ZM117.725 61L90.8585 34.1333L63.9918 61L90.8585 87.8667L117.725 61Z" fill="#72D8FF"/>
<defs>
<linearGradient id="paint0_linear_18_22" x1="197.859" y1="-256" x2="197.859" y2="378" gradientUnits="userSpaceOnUse">
<stop stop-color="#4C7484" stop-opacity="0.3"/>
<stop offset="1" stop-color="#4C7484" stop-opacity="0.7"/>
</linearGradient>
</defs>
</svg>
